<?xml version="1.0" encoding="utf-8"?>
<!-- Generator: Adobe Illustrator 24.0.1, SVG Export Plug-In . SVG Version: 6.00 Build 0)  -->
<svg version="1.1" xmlns="http://www.w3.org/2000/svg" xmlns:xlink="http://www.w3.org/1999/xlink" x="0px" y="0px"
	 viewBox="0 0 200 200" style="enable-background:new 0 0 200 200;" xml:space="preserve">
<g id="Layer_2">
</g>
<g id="Layer_1">
	<g>
		<path fill="#FFFFFF" d="M145,88.4c1.4,0,2.5-1.1,2.5-2.5V44.3c0-5.2-4.2-9.4-9.4-9.4h-24.3c-0.2,0-0.4,0-0.6,0.1c-3-2.3-6.6-3.6-10.4-3.6h-3.9
			c-1.2-8-8-13.9-16.2-13.9s-15,5.9-16.2,13.9h-3.9c-3.7,0-7.3,1.2-10.3,3.5H27.1c-5.2,0-9.4,4.2-9.4,9.4v128.3
			c0,5.2,4.2,9.4,9.4,9.4h111c5.2,0,9.4-4.2,9.4-9.4v-34.9c0-1.4-1.1-2.5-2.5-2.5c-1.4,0-2.5,1.1-2.5,2.5v34.9c0,2.4-2,4.4-4.4,4.4
			h-111c-2.4,0-4.4-2-4.4-4.4V44.3c0-2.4,2-4.4,4.4-4.4h20.7c-1.5,2.6-2.4,5.6-2.4,8.6v0.3H31.5v119.5h102.1v-15.3
			c0-1.4-1.1-2.5-2.5-2.5s-2.5,1.1-2.5,2.5v10.3H36.5V53.7h10.1c1.4,2.2,3.8,3.5,6.4,3.5h59c2.6,0,5-1.3,6.4-3.5h10.1V101
			c0,1.4,1.1,2.5,2.5,2.5s2.5-1.1,2.5-2.5V48.7h-13.9v-0.3c0-3-0.8-6-2.4-8.6H138c2.4,0,4.4,2,4.4,4.4v41.5
			C142.5,87.2,143.6,88.4,145,88.4z M114.7,49.5c0,1.5-1.2,2.7-2.7,2.7h-59c-1.5,0-2.7-1.2-2.7-2.7v-1c0-6.7,5.4-12.1,12.1-12.1h8.7
			v-2.5c0-6.3,5.1-11.4,11.4-11.4c6.3,0,11.4,5.1,11.4,11.4v2.5h8.7c6.7,0,12.1,5.4,12.1,12.1V49.5z"/>
		<path fill="#FFFFFF" d="M61.7,76.5h-6.9c-1.4,0-2.5,1.1-2.5,2.5s1.1,2.5,2.5,2.5h6.9c1.4,0,2.5-1.1,2.5-2.5S63.1,76.5,61.7,76.5z"/>
		<path fill="#FFFFFF" d="M110.3,76.5H68.7c-1.4,0-2.5,1.1-2.5,2.5s1.1,2.5,2.5,2.5h41.6c1.4,0,2.5-1.1,2.5-2.5S111.7,76.5,110.3,76.5z"/>
		<path fill="#FFFFFF" d="M61.7,90.4h-6.9c-1.4,0-2.5,1.1-2.5,2.5s1.1,2.5,2.5,2.5h6.9c1.4,0,2.5-1.1,2.5-2.5S63.1,90.4,61.7,90.4z"/>
		<path fill="#FFFFFF" d="M110.3,90.4H68.7c-1.4,0-2.5,1.1-2.5,2.5s1.1,2.5,2.5,2.5h41.6c1.4,0,2.5-1.1,2.5-2.5S111.7,90.4,110.3,90.4z"/>
		<path fill="#FFFFFF" d="M61.7,104.2h-6.9c-1.4,0-2.5,1.1-2.5,2.5s1.1,2.5,2.5,2.5h6.9c1.4,0,2.5-1.1,2.5-2.5S63.1,104.2,61.7,104.2z"/>
		<path fill="#FFFFFF" d="M61.7,118.1h-6.9c-1.4,0-2.5,1.1-2.5,2.5s1.1,2.5,2.5,2.5h6.9c1.4,0,2.5-1.1,2.5-2.5S63.1,118.1,61.7,118.1z"/>
		<path fill="#FFFFFF" d="M61.7,132h-6.9c-1.4,0-2.5,1.1-2.5,2.5s1.1,2.5,2.5,2.5h6.9c1.4,0,2.5-1.1,2.5-2.5S63.1,132,61.7,132z"/>
		<path fill="#FFFFFF" d="M110.2,104.2H68.7c-1.4,0-2.5,1.1-2.5,2.5s1.1,2.5,2.5,2.5h41.5c1.4,0,2.5-1.1,2.5-2.5S111.6,104.2,110.2,104.2z"/>
		<path fill="#FFFFFF" d="M110.2,118.1H68.7c-1.4,0-2.5,1.1-2.5,2.5c0,1.4,1.1,2.5,2.5,2.5h41.5c1.4,0,2.5-1.1,2.5-2.5
			C112.8,119.2,111.6,118.1,110.2,118.1z"/>
		<path fill="#FFFFFF" d="M110.2,131.9H68.7c-1.4,0-2.5,1.1-2.5,2.5s1.1,2.5,2.5,2.5h41.5c1.4,0,2.5-1.1,2.5-2.5S111.6,131.9,110.2,131.9z"/>
	</g>
	<path fill="#FFFFFF" d="M176.1,74.9c-3.6-3.1-8.9-2.6-12,0.9l-41.3,48.8l-16.2-16.5l-3.2-3c-2.8-1.8-7.4-1.5-9.3,0s-2.8,3-2.8,3
		c-1.8,3.2-1.3,7.4,1.4,10.1l0.7,0.7l3,3l10.8,10.9l3,3l7.2,7.3c1.6,1.6,3.8,2.5,6,2.5c0.1,0,0.2,0,0.3,0c2.4-0.1,4.6-1.2,6.1-3
		l47.3-55.8C180.1,83.3,179.7,78,176.1,74.9z"/>
</g>
</svg>
