<?xml version="1.0" encoding="utf-8"?>
<!-- Generator: Adobe Illustrator 24.0.1, SVG Export Plug-In . SVG Version: 6.00 Build 0)  -->
<svg version="1.1" id="Layer_2" xmlns="http://www.w3.org/2000/svg" xmlns:xlink="http://www.w3.org/1999/xlink" x="0px" y="0px"
	 viewBox="0 0 509.9 509.9" style="enable-background:new 0 0 509.9 509.9;" xml:space="preserve">
<style type="text/css">
	.st0{fill:#525455;}
</style>
<g>
	<g>
		<path class="st0" d="M475.3,165.7c0,2.3,0,4.2,0,6.1c0,102.2,0,204.4,0,306.6c0,12.7-4.5,19.5-14.2,21.4c-2,0.4-4.1,0.4-6.2,0.4
			c-133.3,0-266.6,0-400,0c-13.8,0-20.4-6.4-20.4-20.1c-0.1-103.3,0-206.7,0-310c0-1.3,0.2-2.6,0.3-4.3
			C181.5,165.7,328,165.7,475.3,165.7z M254.9,281.7c24.1,0,48.2,0.1,72.2,0c11.9,0,19-7.4,18.8-18.8c-0.2-10.8-7.4-17.6-18.8-17.6
			c-37.5-0.1-75.1,0-112.6,0c-11,0-22-0.2-33,0.1c-10.8,0.2-17.6,7.5-17.6,18.2c0,11.1,7.1,18.1,18.8,18.2
			C206.8,281.8,230.9,281.7,254.9,281.7z"/>
		<path class="st0" d="M509.9,128.6c-170.2,0-339.7,0-509.6,0c-0.1-2.1-0.3-3.9-0.3-5.7c0-25.8,0-51.6,0-77.4C0,31.4,6.4,25,20.5,25
			c156.3,0,312.5,0,468.8,0c14.1,0,20.5,6.5,20.5,20.6C509.9,73,509.9,100.5,509.9,128.6z"/>
	</g>
</g>
</svg>
