<?xml version="1.0" encoding="utf-8"?>
<!-- Generator: Adobe Illustrator 24.0.1, SVG Export Plug-In . SVG Version: 6.00 Build 0)  -->
<svg version="1.1" id="Layer_2" xmlns="http://www.w3.org/2000/svg" xmlns:xlink="http://www.w3.org/1999/xlink" x="0px" y="0px"
	 viewBox="0 0 509.9 509.9" style="enable-background:new 0 0 509.9 509.9;" xml:space="preserve">
<style type="text/css">
	.st0{fill:#525455;}
</style>
<g>
	<g>
		<path class="st0" d="M254.4,509.9c-69.7,0-139.5,0-209.2,0c-21.1,0-37.1-10.7-42.9-29.1c-1.6-5-2.2-10.5-2.2-15.8
			C0,325,0,185.1,0,45.1c0-27.4,17.6-44.9,45-45C89.3,0,133.6,0.2,177.9,0c13.9-0.1,25.5,4.6,35.1,14.6c9,9.3,18.4,18.1,27.3,27.5
			c9.8,10.2,21.5,14.8,35.6,14.8c63.5-0.1,126.9-0.1,190.4,0c21.4,0,38,13,42.5,33.2c0.9,3.9,1,8,1,12.1
			c0.1,120.8,0.1,241.6,0,362.4c0,23.1-12.8,40-33.6,44.4c-4.3,0.9-8.8,0.9-13.2,0.9C393.5,509.9,323.9,509.9,254.4,509.9z
			 M283.3,267c2.7,2.6,4.1,3.9,5.6,5.3c10.2,10.2,20.3,20.4,30.5,30.5c7.5,7.4,16.5,10.4,26.8,8c10.7-2.5,18-9.3,20.9-20
			c2.9-10.9,0.1-20.4-7.9-28.4c-27.8-27.8-55.5-55.6-83.3-83.3c-12.7-12.6-29.4-12.5-42.2,0.3c-27.5,27.5-55.1,55-82.5,82.5
			c-12.1,12.1-12.7,29.5-1.5,41c11.4,11.7,29,11.3,41.4-0.9c10.2-10.1,20.3-20.3,30.5-30.5c1.2-1.2,2.6-2.3,4.9-4.3
			c0,3.2,0,5.1,0,7.1c0,29.9,0,59.7,0,89.6c0,2.9,0.1,5.9,0.6,8.8c2,13.4,13.6,23.5,27.2,23.7c16.6,0.3,28.9-12.3,29-30.2
			c0.1-30.6,0-61.2,0-91.8C283.3,272.6,283.3,270.7,283.3,267z"/>
	</g>
</g>
</svg>
