<?xml version="1.0" encoding="utf-8"?>
<!-- Generator: Adobe Illustrator 24.0.1, SVG Export Plug-In . SVG Version: 6.00 Build 0)  -->
<svg version="1.1" id="Layer_1" xmlns="http://www.w3.org/2000/svg" xmlns:xlink="http://www.w3.org/1999/xlink" x="0px" y="0px"
	 viewBox="0 0 509.9 509.9" style="enable-background:new 0 0 509.9 509.9;" xml:space="preserve">
<style type="text/css">
	.st0{fill:#525455;}
</style>
<g>
	<g>
		<path class="st0" d="M254,508.6c-5.3-2.5-10.9-4.3-15.7-7.5c-16.2-10.8-32.2-21.9-48-33.2c-5.9-4.2-11.4-9.2-16.5-14.3
			c-10.7-10.6-21.7-21.1-31.4-32.5c-13.9-16.4-26.2-34-37.1-52.6c-15.4-26.4-27.3-54.3-36.8-83.3c-8.9-27.2-15.6-54.8-19.9-83.1
			c-2.4-16.1-4.9-32.3-6.8-48.5c-1.2-10.2-1.6-20.5-2.1-30.7c-0.3-4.6-0.4-9.2,0-13.7c1-13.4,10.8-19.2,22-19.9
			c13-0.7,25-4.5,36.7-9.5c24-10.3,45.7-24.5,67.6-38.4c22.8-14.5,46.6-26.9,71.4-37.7C250.6-2,262.8-0.7,275.4,5
			c25.5,11.5,50,24.7,73.6,39.8c16,10.2,32.4,19.9,49.1,28.9c13.2,7.2,27.2,12.7,42.3,15.2c3.9,0.6,7.9,0.7,11.8,1.3
			c12.6,1.8,19.6,13.1,17.9,26.2c-0.7,5.6-0.7,11.2-1.2,16.8c-1.2,13.6-2,27.4-4.1,40.9c-3.9,24.7-7.5,49.6-13.1,73.9
			c-8.7,37.8-22,74.1-40.4,108.3c-11.6,21.6-25,42-40.8,60.8c-14.3,17-29.7,32.8-46.8,47.1c-17.8,14.9-36.8,28-56.9,39.5
			C263.2,505.9,258.9,506.8,254,508.6z M223.2,254.1c-1.6,1.7-2.9,3.1-4.1,4.4c-13.9,13.9-27.8,27.8-41.7,41.7
			c-6.1,6.1-6.1,10.1-0.1,16c4.9,5,9.9,9.9,14.9,14.8c6.9,6.9,10.5,6.9,17.5-0.1c13.8-13.8,27.6-27.6,41.4-41.3
			c1.2-1.2,2.6-2.4,4.1-3.8c6.4,6.4,12.3,12.4,18.3,18.4c9.1,9.1,18.1,18.2,27.2,27.2c6.4,6.3,10.2,6.3,16.4,0.2
			c5-4.9,9.9-9.9,14.9-14.8c6.7-6.7,6.7-10.3,0-17.1c-13.5-13.6-27.1-27.1-40.7-40.6c-1.5-1.5-3.7-2.3-5.5-3.5
			c0.2-0.8,0.4-1.6,0.5-2.5c1.5-1.1,3.2-1.9,4.4-3.2c14-13.9,27.9-27.8,41.7-41.7c6.1-6.1,6.1-10.1,0.1-16
			c-5.3-5.3-10.6-10.6-15.9-15.9c-5.7-5.6-8.6-5.6-14.2,0c-14.5,14.5-29,29-43.5,43.5c-1.3,1.2-2.6,2.4-4.8,4.4
			c-1.4-1.9-2.3-3.5-3.6-4.8c-14.5-14.5-29-29-43.5-43.5c-4.9-4.9-8.3-4.9-13.1-0.1c-6,6-12,12.1-18,18c-3.1,3.1-3.9,6.5-1.5,10.3
			c1.1,1.8,2.5,3.5,4,5C193,224,207.9,238.8,223.2,254.1z"/>
	</g>
</g>
</svg>
