<?xml version="1.0" encoding="utf-8"?>
<!-- Generator: Adobe Illustrator 24.0.1, SVG Export Plug-In . SVG Version: 6.00 Build 0)  -->
<svg version="1.1" id="Layer_3" xmlns="http://www.w3.org/2000/svg" xmlns:xlink="http://www.w3.org/1999/xlink" x="0px" y="0px"
	 viewBox="0 0 509.9 509.9" style="enable-background:new 0 0 509.9 509.9;" xml:space="preserve">
<style type="text/css">
	.st0{fill:#525455;}
</style>
<g>
	<path class="st0" d="M477.4,40.3c0-3.1,0.2-6.4-0.4-9.4c-1.8-9.2-9.3-14.3-20.4-14.3c-39.3,0-78.5,0-117.8,0
		c-3.2,0-4.8-0.6-5.9-4.1c-2.4-7.5-8.2-11.9-16-11.9c-34.8-0.2-69.6-0.2-104.4,0c-7.9,0-13.6,4.4-16.1,11.9
		c-1.1,3.5-2.7,4.1-5.9,4.1c-24-0.1-48-0.1-72.1-0.1c-15.7,0-31.5-0.1-47.2,0c-12,0.1-19.2,7.5-19.4,19.2c-0.1,9.3,0,18.6,0,27.8
		c0,3-0.2,6,0.4,8.9c1.9,9.1,9.3,14.2,20.5,14.2c63.8,0,127.6,0,191.4,0c46.1,0,92.1,0,138.2,0c18.6,0,37.1,0.1,55.7,0
		c12.2-0.1,19.4-7.4,19.5-19.6C477.5,58.2,477.5,49.2,477.4,40.3z"/>
	<path class="st0" d="M439.8,127.5c0-1.9,0-3.9,0-6.1c-117,0-233.3,0-350.3,0c0,2.2,0,4.1,0,6.1c0,119.9,0.1,239.8-0.1,359.7
		c0,11,3.8,18.4,14.2,22.2c107.4,0,214.8,0,322.1,0c10.4-3.8,14.2-11.2,14.2-22.2C439.7,367.3,439.8,247.4,439.8,127.5z
		 M223.9,463.9h-58.4V203.5h58.4V463.9z M365.9,463.9h-58.4V203.5h58.4V463.9z"/>
</g>
</svg>
