<?xml version="1.0" encoding="utf-8"?>
<!-- Generator: Adobe Illustrator 24.0.1, SVG Export Plug-In . SVG Version: 6.00 Build 0)  -->
<svg version="1.1" id="Layer_1" xmlns="http://www.w3.org/2000/svg" xmlns:xlink="http://www.w3.org/1999/xlink" x="0px" y="0px"
	 viewBox="0 0 1024 1024" style="enable-background:new 0 0 1024 1024;" xml:space="preserve">
<style type="text/css">
	.st0{fill:#8B8D91;}
</style>
<path class="st0" d="M896,256H128c-53,0-96,43-96,96v256c0,53,43,96,96,96h32V544h704v160h32c53,0,96-43,96-96V352
	C992,299,949,256,896,256z M828.5,464c-35.3,0-64-28.7-64-64s28.7-64,64-64s64,28.7,64,64S863.8,464,828.5,464z M224,960
	c0,17.7,14.3,32,32,32h512c17.7,0,32-14.3,32-32V608H224V960z M800,96c-1.7-18.3-17.1-32.2-35.5-32h-512
	c-16.1,0.3-28.9,13.5-28.6,29.6c0,0.8,0.1,1.6,0.1,2.4v96h576V96z"/>
</svg>
