<?xml version="1.0" encoding="utf-8"?>
<!-- Generator: Adobe Illustrator 24.0.1, SVG Export Plug-In . SVG Version: 6.00 Build 0)  -->
<svg version="1.1" id="Layer_1" xmlns="http://www.w3.org/2000/svg" xmlns:xlink="http://www.w3.org/1999/xlink" x="0px" y="0px"
	 viewBox="0 0 576 512" style="enable-background:new 0 0 576 512;" xml:space="preserve">
<style type="text/css">
	.st0{fill:#424546;}
</style>
<path class="st0" d="M136.3,189.8l176-152C327.7,24.5,352,35.3,352,56v82.8C481.2,149,576,191,576,322.3
	c0,61.4-39.6,122.3-83.3,154.1c-13.7,9.9-33.1-2.5-28.1-18.6c38.5-123.2-3.9-169.5-112.6-182V360c0,20.7-24.3,31.5-39.7,18.2
	l-176-152C125.2,216.6,125.2,199.4,136.3,189.8z M8.3,226.2l176,152c15.4,13.3,39.7,2.5,39.7-18.2v-15.8l-108.6-93.8
	C103.1,239.7,96,224.3,96,208c0-16.3,7.1-31.7,19.4-42.4L224,71.8V56c0-20.7-24.3-31.5-39.7-18.2l-176,152
	C-2.8,199.4-2.8,216.6,8.3,226.2z"/>
</svg>
