<?xml version="1.0" encoding="utf-8"?>
<!-- Generator: Adobe Illustrator 24.0.1, SVG Export Plug-In . SVG Version: 6.00 Build 0)  -->
<svg version="1.1" id="Layer_1" xmlns="http://www.w3.org/2000/svg" xmlns:xlink="http://www.w3.org/1999/xlink" x="0px" y="0px"
	 viewBox="0 0 512 512" style="enable-background:new 0 0 512 512;" xml:space="preserve">
<path d="M117.7,277.6c6.3,6.3,16.4,6.3,22.6,0l51.7-51.7l84.7,84.7c6.3,6.3,16.4,6.3,22.6,0l110.2-110.2l29.5,29.5
	c15.1,15.1,41,4.4,41-17V112c0-8.8-7.2-16-16-16H363.1c-21.4,0-32.1,25.8-17,41l29.5,29.5L288,254.1l-84.7-84.7
	c-6.3-6.3-16.4-6.3-22.6,0l-74.3,74.3c-6.3,6.3-6.3,16.4,0,22.6C106.3,266.3,117.6,277.6,117.7,277.6z M496,400H48V80
	c0-8.8-7.2-16-16-16H16C7.2,64,0,71.2,0,80v336c0,17.7,14.3,32,32,32h464c8.8,0,16-7.2,16-16v-16C512,407.2,504.8,400,496,400z"/>
</svg>
