<?xml version="1.0" encoding="utf-8"?>
<!-- Generator: Adobe Illustrator 24.0.1, SVG Export Plug-In . SVG Version: 6.00 Build 0)  -->
<svg version="1.1" id="Layer_1" xmlns="http://www.w3.org/2000/svg" xmlns:xlink="http://www.w3.org/1999/xlink" x="0px" y="0px"
	 viewBox="0 0 415.1 415.1" style="enable-background:new 0 0 415.1 415.1;" xml:space="preserve">
<style type="text/css">
	.st0{fill:#FFFFFF;}
</style>
<g>
	<path class="st0" d="M100.2,412c-4.6-1-9.4-1.7-13.9-3c-29.1-8.2-47.6-30.7-48.8-61.3c-1.3-31.6,2.1-62.7,14.1-92.3
		c7.8-19.1,19-35.6,37.9-45.7c11.6-6.2,24.1-9.2,37.2-8.9c4.1,0.1,8.5,2.2,12.2,4.2c6.1,3.3,11.7,7.4,17.6,11
		c34.2,21.1,68.4,21.1,102.6-0.1c4.7-2.9,9.6-5.8,14-9.1c8.2-6.1,17.2-6.9,26.9-5.5c26.5,3.9,45.2,18.4,57.9,41.6
		c11.3,20.7,16.3,43.1,18.6,66.3c1.2,11.9,1.7,23.9,1.6,35.8c-0.4,35.7-24.9,62.2-60.4,66.1c-0.9,0.1-1.7,0.5-2.6,0.7
		C243.4,412,171.8,412,100.2,412z"/>
	<path class="st0" d="M303.6,101.5c0.4,53.9-44.1,98.6-98.3,98.7c-54.1,0.2-98.8-44.5-98.8-98.2c0-54.3,43.4-98.4,98.1-98.8
		C259.1,2.8,303.3,46.6,303.6,101.5z"/>
</g>
</svg>
