<?xml version="1.0" encoding="utf-8"?>
<!-- Generator: Adobe Illustrator 24.0.1, SVG Export Plug-In . SVG Version: 6.00 Build 0)  -->
<svg version="1.1" xmlns="http://www.w3.org/2000/svg" xmlns:xlink="http://www.w3.org/1999/xlink" x="0px" y="0px"
	 viewBox="0 0 163.1 166.5" style="enable-background:new 0 0 163.1 166.5;" xml:space="preserve">
<g id="Layer_2">
</g>
<g id="Layer_1">
	<g>
		<path fill="#FFFFFF" d="M128.5,118.1c-1.7,0-3,1.3-3,3V156c0,2.2-1.8,3.9-3.9,3.9h-111c-2.2,0-3.9-1.8-3.9-3.9V27.7c0-2.2,1.8-3.9,3.9-3.9h19.8
			c-1.3,2.4-2,5.1-2,7.9H14.5V152h103.1v-15.8c0-1.7-1.3-3-3-3s-3,1.3-3,3v9.8H20.5V37.6h9.4c1.5,2.2,4,3.5,6.7,3.5h59
			c2.7,0,5.2-1.3,6.7-3.5h9.4v46.8c0,1.7,1.3,3,3,3s3-1.3,3-3V31.6h-13.9c0-2.8-0.7-5.4-2-7.9h19.8c2.2,0,3.9,1.8,3.9,3.9v41.5
			c0,1.7,1.3,3,3,3s3-1.3,3-3V27.7c0-5.5-4.5-9.9-9.9-9.9H97.2c-0.2,0-0.3,0-0.5,0c-3-2.3-6.7-3.5-10.5-3.5h-3.5
			c-1.4-8-8.3-13.9-16.6-13.9c-8.3,0-15.2,5.9-16.6,13.9H46c-3.8,0-7.4,1.2-10.5,3.5H10.6c-5.5,0-9.9,4.5-9.9,9.9V156
			c0,5.5,4.5,9.9,9.9,9.9h111c5.5,0,9.9-4.5,9.9-9.9V121C131.5,119.4,130.1,118.1,128.5,118.1z M34.4,31.8c0-6.4,5.2-11.6,11.6-11.6
			h9.2v-3c0-6,4.9-10.9,10.9-10.9s10.9,4.9,10.9,10.9v3h9.2c6.4,0,11.6,5.2,11.6,11.6v1c0,1.2-1,2.2-2.2,2.2h-59
			c-1.2,0-2.2-1-2.2-2.2V31.8z"/>
		<path fill="#FFFFFF" d="M46.7,62c-0.2-1.5-1.4-2.7-3-2.7h-3.9c-1.6,0-2.8,1.2-3,2.7c0,0.1,0,0.2,0,0.3s0,0.2,0,0.3c0.2,1.5,1.4,2.7,3,2.7h3.9
			c1.6,0,2.8-1.2,3-2.7c0-0.1,0-0.2,0-0.3S46.7,62.1,46.7,62z"/>
		<path fill="#FFFFFF" d="M46.7,75.9c-0.2-1.5-1.4-2.7-3-2.7h-3.9c-1.6,0-2.8,1.2-3,2.7c0,0.1,0,0.2,0,0.3s0,0.2,0,0.3c0.2,1.5,1.4,2.7,3,2.7h3.9
			c1.6,0,2.8-1.2,3-2.7c0-0.1,0-0.2,0-0.3S46.7,76,46.7,75.9z"/>
		<path fill="#FFFFFF" d="M46.7,89.8c-0.2-1.5-1.4-2.7-3-2.7h-3.9c-1.6,0-2.8,1.2-3,2.7c0,0.1,0,0.2,0,0.3s0,0.2,0,0.3c0.2,1.5,1.4,2.7,3,2.7h3.9
			c1.6,0,2.8-1.2,3-2.7c0-0.1,0-0.2,0-0.3S46.7,89.9,46.7,89.8z"/>
		<path fill="#FFFFFF" d="M46.7,103.6c-0.2-1.5-1.4-2.7-3-2.7h-3.9c-1.6,0-2.8,1.2-3,2.7c0,0.1,0,0.2,0,0.3s0,0.2,0,0.3c0.2,1.5,1.4,2.7,3,2.7h3.9
			c1.6,0,2.8-1.2,3-2.7c0-0.1,0-0.2,0-0.3S46.7,103.7,46.7,103.6z"/>
		<path fill="#FFFFFF" d="M159.6,58.3c-3.6-3-8.9-2.6-12,0.9L106.3,108l-14.8-15h0.7c1.7,0,3-1.3,3-3s-1.3-3-3-3H53.7c-1.6,0-2.8,1.2-3,2.7
			c0,0.1,0,0.2,0,0.3s0,0.2,0,0.3c0.2,1.5,1.4,2.7,3,2.7h20.5c-0.9,2.6-0.4,5.6,1.4,7.9H53.7c-1.6,0-2.8,1.2-3,2.7
			c0,0.1,0,0.2,0,0.3s0,0.2,0,0.3c0.2,1.5,1.4,2.7,3,2.7h27.7l7.8,7.9H53.7c-1.5,0-2.8,1.2-3,2.7c0,0.1,0,0.2,0,0.3c0,0,0,0,0,0
			s0,0,0,0c0,1.7,1.3,3,3,3h38.6c0.8,0,1.5-0.3,2-0.8l6.5,6.5c1.6,1.6,3.8,2.5,6,2.5c0.1,0,0.2,0,0.3,0c2.4-0.1,4.6-1.2,6.1-3
			l47.3-55.8C163.6,66.7,163.2,61.3,159.6,58.3z"/>
		<path fill="#FFFFFF" d="M43.8,114.8h-3.9c-1.7,0-3,1.3-3,3c0,0,0,0,0,0s0,0,0,0c0,0.1,0,0.2,0,0.3c0.2,1.5,1.4,2.7,3,2.7h3.9c1.5,0,2.8-1.2,3-2.7
			c0-0.1,0-0.2,0-0.3c0,0,0,0,0,0s0,0,0,0C46.8,116.2,45.4,114.8,43.8,114.8z"/>
		<path fill="#FFFFFF" d="M92.3,59.3H53.7c-1.6,0-2.8,1.2-3,2.7c0,0.1,0,0.2,0,0.3s0,0.2,0,0.3c0.2,1.5,1.4,2.7,3,2.7h38.6c1.6,0,2.8-1.2,3-2.7
			c0-0.1,0-0.2,0-0.3C95.3,60.7,94,59.3,92.3,59.3z"/>
		<path fill="#FFFFFF" d="M92.3,73.2H53.7c-1.6,0-2.8,1.2-3,2.7c0,0.1,0,0.2,0,0.3s0,0.2,0,0.3c0.2,1.5,1.4,2.7,3,2.7h38.6c1.6,0,2.8-1.2,3-2.7
			c0-0.1,0-0.2,0-0.3C95.3,74.5,94,73.2,92.3,73.2z"/>
	</g>
</g>
</svg>
