<?xml version="1.0" encoding="utf-8"?>
<!-- Generator: Adobe Illustrator 24.0.1, SVG Export Plug-In . SVG Version: 6.00 Build 0)  -->
<svg version="1.1" id="Layer_1" xmlns="http://www.w3.org/2000/svg" xmlns:xlink="http://www.w3.org/1999/xlink" x="0px" y="0px"
	 viewBox="0 0 136 113.2" style="enable-background:new 0 0 136 113.2;" xml:space="preserve">
<style type="text/css">
	.st0{fill:#141348;}
</style>
<path class="st0" d="M123.1,25.1H12.8C6.1,25.1,0.6,19.7,0.6,13v0c0-6.7,5.4-12.1,12.1-12.1h110.4c6.7,0,12.1,5.4,12.1,12.1v0
	C135.2,19.7,129.8,25.1,123.1,25.1z"/>
<path class="st0" d="M123.2,66.3H12.8c-6.7,0-12.1-5.4-12.1-12.1v0C0.7,47.4,6.1,42,12.8,42h110.4c6.7,0,12.1,5.4,12.1,12.1v0
	C135.3,60.8,129.9,66.3,123.2,66.3z"/>
<path class="st0" d="M123.2,111.7H12.8c-6.7,0-12.1-5.4-12.1-12.1v0c0-6.7,5.4-12.1,12.1-12.1h110.4c6.7,0,12.1,5.4,12.1,12.1v0
	C135.3,106.3,129.9,111.7,123.2,111.7z"/>
</svg>
