<?xml version="1.0" encoding="utf-8"?>
<!-- Generator: Adobe Illustrator 24.0.1, SVG Export Plug-In . SVG Version: 6.00 Build 0)  -->
<svg version="1.1" id="Layer_1" xmlns="http://www.w3.org/2000/svg" xmlns:xlink="http://www.w3.org/1999/xlink" x="0px" y="0px"
	 viewBox="0 0 402.9 412.9" style="enable-background:new 0 0 402.9 412.9;" xml:space="preserve">
<style type="text/css">
	.st0{fill:#FFFFFF;}
</style>
<path class="st0" d="M244.4,410.7c-28.8,0-57.5,0-86.3,0c-9.6-3.4-13.9-10.4-14.9-20.4c-1.3-13.1-3.7-26.1-5.5-39.1
	c-0.3-2.3-1.2-3.6-3.4-4.8c-7.1-3.9-14.1-8-21-12.2c-2-1.3-3.6-1.4-5.8-0.5c-13,5.4-26.1,10.6-39.2,15.8C57.2,354,49,351.2,43,340.9
	c-12.5-21.5-24.9-43-37.4-64.6c-6-10.4-4.1-19.3,5.3-26.7c11-8.6,22-17.2,33.1-25.7c1.9-1.5,2.5-3,2.4-5.3c-0.2-8.1-0.2-16.2,0-24.3
	c0.1-2.6-0.6-4.1-2.6-5.7c-11.1-8.5-22.1-17.2-33.1-25.8c-9.2-7.2-11.1-16.2-5.3-26.4C18,114.8,30.5,93.2,43,71.5
	c5.8-9.9,14.4-12.8,25.2-8.5c13.1,5.2,26.2,10.4,39.2,15.8c2.3,0.9,4,0.9,6.2-0.5c6.8-4.2,13.7-8.2,20.7-12c2.3-1.2,3.2-2.6,3.6-5.1
	c1.9-14,4-27.9,5.9-41.9c1.5-11.1,8.4-17.4,19.6-17.4c25.3,0,50.6,0,75.9,0c11.2,0,18,6.3,19.6,17.5c1.9,14.1,4,28.2,6.2,42.2
	c0.3,1.6,1.7,3.5,3.1,4.3c6.9,4.3,14,8.1,20.9,12.4c2.2,1.4,3.9,1.4,6.2,0.4c12.9-5.3,25.9-10.4,38.8-15.6
	c11.4-4.5,19.6-1.8,25.7,8.8c12.4,21.4,24.8,42.8,37.1,64.2c6,10.4,4.2,19.4-5.2,26.7c-11,8.6-22,17.3-33.1,25.8
	c-1.9,1.4-2.6,2.9-2.6,5.3c0.2,8.2,0.2,16.5,0,24.7c-0.1,2.4,0.6,3.9,2.5,5.3c11.1,8.5,22.1,17.2,33.1,25.8
	c9.4,7.4,11.2,16.3,5.2,26.7c-12.3,21.4-24.7,42.8-37.1,64.2c-6.1,10.6-14.4,13.4-25.7,8.8c-13.1-5.2-26.2-10.4-39.2-15.8
	c-2.2-0.9-3.8-0.7-5.8,0.5c-6.9,4.2-14,8.1-20.9,12.4c-1.4,0.9-2.9,2.7-3.2,4.3c-2.2,14.2-4.3,28.4-6.2,42.6
	c-1.1,8.2-5.2,13.8-13.1,16.4C245.2,410.1,244.8,410.5,244.4,410.7z M201.3,274.3c37.6,0,68-30.4,68-68s-30.3-68-67.9-68.1
	c-37.7-0.1-68.3,30.5-68.2,68.2C133.4,244.1,163.8,274.4,201.3,274.3z"/>
</svg>
