<?xml version="1.0" encoding="utf-8"?>
<!-- Generator: Adobe Illustrator 24.0.1, SVG Export Plug-In . SVG Version: 6.00 Build 0)  -->
<svg version="1.1" id="Layer_1" xmlns="http://www.w3.org/2000/svg" xmlns:xlink="http://www.w3.org/1999/xlink" x="0px" y="0px"
	 viewBox="0 0 376.8 372.5" style="enable-background:new 0 0 376.8 372.5;" xml:space="preserve">
<style type="text/css">
	.st0{fill:#108EFF;}
</style>
<path class="st0" d="M8.9,362.5L8.9,362.5c11.8,11.8,31,11.8,42.9,0l86.2-86.2c24.6,17.3,54.7,27.4,87,27.4
	c83.9,0,151.9-68,151.9-151.9C376.8,68,308.8,0,224.9,0S73,68,73,151.9c0,29.6,8.5,57.2,23.1,80.5L8.9,319.7
	C-3,331.5-3,350.7,8.9,362.5z M121,152c0-57,46.2-103.3,103.3-103.3S327.6,95,327.6,152c0,57-46.2,103.3-103.3,103.3
	S121,209,121,152z"/>
</svg>
