<?xml version="1.0" encoding="utf-8"?>
<!-- Generator: Adobe Illustrator 24.0.1, SVG Export Plug-In . SVG Version: 6.00 Build 0)  -->
<svg version="1.1" id="Layer_1" xmlns="http://www.w3.org/2000/svg" xmlns:xlink="http://www.w3.org/1999/xlink" x="0px" y="0px"
	 viewBox="0 0 73 79" style="enable-background:new 0 0 73 79;" xml:space="preserve">
<style type="text/css">
	.st0{fill:#FFFFFF;}
</style>	 
<image style="display:none;overflow:visible;" width="21" height="20" xlink:href="D44F75E3.jpg"  transform="matrix(5.2 0 0 5.2 -15.5615 -9.7982)">
</image>
<g>
	<path d="M66.8,0.5H6.2c-3.2,0-5.7,2.6-5.7,5.7v66.6c0,3.2,2.6,5.7,5.7,5.7h60.6c3.2,0,5.7-2.6,5.7-5.7V6.2
		C72.5,3.1,69.9,0.5,66.8,0.5z M6.2,5.5h60.6c0.4,0,0.7,0.3,0.7,0.7V27h-62V6.2C5.5,5.8,5.8,5.5,6.2,5.5z M66.8,73.5H6.2
		c-0.4,0-0.7-0.3-0.7-0.7V32h62v40.8C67.5,73.2,67.2,73.5,66.8,73.5z"/>
	<rect x="15.5" y="39" width="11" height="8.5"/>
	<rect x="30.5" y="39" width="11" height="8.5"/>
	<rect x="15.5" y="54" width="11" height="8.5"/>
	<rect x="46.5" y="39" width="11" height="24"/>
	<rect x="30.5" y="54" width="11" height="8.5"/>
</g>
</svg>
