<?xml version="1.0" encoding="utf-8"?>
<!-- Generator: Adobe Illustrator 24.0.1, SVG Export Plug-In . SVG Version: 6.00 Build 0)  -->
<svg version="1.1" id="Layer_1" xmlns="http://www.w3.org/2000/svg" xmlns:xlink="http://www.w3.org/1999/xlink" x="0px" y="0px"
	 viewBox="0 0 390.8 90.9" style="enable-background:new 0 0 390.8 90.9;" xml:space="preserve">
<style type="text/css">
	.st0{fill:#088AFF;}
	.st1{fill:#FFFFFF;}
</style>
<g>
	<g>
		<path class="st0" d="M323.4,59.4c0,0-31,30-132.2,5.6c0,0,81.2,46,155.1,9.1C346.2,74.1,332,73,323.4,59.4z"/>
		<path class="st1" d="M19.2,52.3c3.8,0,5.7-1.1,5.7-3.4c0-1.8-3.1-3.3-9.2-4.4C7.7,43.1,3.7,39.6,3.6,34c0-7.7,6.1-11.3,14.2-11.5
			c4.6,0,8.2,1,10.9,3c2.6,2.1,4,5,4.2,8.7h-5.7c-2.1-0.1-3.4-0.8-4-2.2c-0.6-1.6-2.4-2.4-5.4-2.4c-3.5,0-5.3,0.9-5.3,2.8
			c0,1.8,2.3,3.2,6.9,4.1c6.1,1.2,10,2.8,12,4.6c1.7,1.8,2.5,3.9,2.5,6.3c0,8.8-6.9,12-16.3,12c-5,0-8.8-1.1-11.2-3.2
			c-2.7-2-4-5.1-4-9.2h9.2C11.9,50.9,14.8,52.3,19.2,52.3z"/>
		<path class="st1" d="M47.9,29.5H47v9.4v10.4c0,1.5,0.9,2.3,2.6,2.3h2.8v6.8c-2.9,0.3-6.1,0.3-9.4-0.1c-3.4-0.3-5-2.4-4.9-6.4v-39
			h4.7c2.4,0,4.3,2.2,4.3,4.5v5.7h5.4v2C52.4,27.6,50.4,29.5,47.9,29.5z"/>
		<path class="st1" d="M56.2,40.4c0.3-11.5,6.4-17.3,18.3-17.3h1.3v9.3h-3c-5,0-7.5,2.6-7.5,7.8v18.5h-9.1V40.4z"/>
		<path class="st1" d="M95.9,59.6C85.1,59.2,79.7,53,79.7,40.8c0-12.1,5.5-18.2,16.3-18.3c11.3,0,16.6,6.9,16,20.9H88.9
			c0.3,5.5,2.7,8.2,7.1,8.2c2.1,0,4-0.9,5.8-2.6c0.8-0.9,1.8-1.3,3-1.3h6.6C109.5,55.4,104.6,59.6,95.9,59.6z M89,37.1h13.4
			c-0.5-4.7-2.8-7.1-6.6-7.1C92,29.9,89.7,32.3,89,37.1z"/>
		<path class="st1" d="M131.7,52.3c3.8,0,5.7-1.1,5.7-3.4c0-1.8-3.1-3.3-9.2-4.4c-7.9-1.4-11.9-4.9-12-10.5
			c0-7.7,6.1-11.3,14.2-11.5c4.6,0,8.2,1,10.9,3c2.6,2.1,4,5,4.2,8.7h-5.7c-2.1-0.1-3.4-0.8-4-2.2c-0.6-1.6-2.4-2.4-5.4-2.4
			c-3.5,0-5.3,0.9-5.3,2.8c0,1.8,2.3,3.2,6.9,4.1c6.1,1.2,10,2.8,12,4.6c1.7,1.8,2.5,3.9,2.5,6.3c0,8.8-6.9,12-16.3,12
			c-5,0-8.8-1.1-11.2-3.2c-2.7-2-4-5.1-4-9.2h9.2C124.5,50.9,127.3,52.3,131.7,52.3z"/>
		<path class="st1" d="M166.2,52.3c3.8,0,5.7-1.1,5.7-3.4c0-1.8-3.1-3.3-9.2-4.4c-7.9-1.4-11.9-4.9-12-10.5
			c0-7.7,6.1-11.3,14.2-11.5c4.6,0,8.2,1,10.9,3c2.6,2.1,4,5,4.2,8.7h-5.7c-2.1-0.1-3.4-0.8-4-2.2c-0.6-1.6-2.4-2.4-5.4-2.4
			c-3.5,0-5.3,0.9-5.3,2.8c0,1.8,2.3,3.2,6.9,4.1c6.1,1.2,10,2.8,12,4.6c1.7,1.8,2.5,3.9,2.5,6.3c0,8.8-6.9,12-16.3,12
			c-5,0-8.8-1.1-11.2-3.2c-2.7-2-4-5.1-4-9.2h9.2C158.9,50.9,161.8,52.3,166.2,52.3z"/>
		<path class="st1" d="M194,28.1c2.3-3.7,5.7-5.5,10.1-5.5c9.5,0.3,14.2,6.5,14.2,18.7c0,11.9-5.5,17.9-16.6,18.1
			c-11.1,0.1-16.7-5.3-16.7-16V12.9h4.5c3,0,4.4,1.6,4.4,4.5V28.1z M194,40.8c-0.1,7.2,2.4,10.9,7.5,10.9c5.1,0,7.7-3.6,7.7-10.9
			c-0.2-6.9-2.7-10.2-7.5-10.2C196.7,30.6,194.3,34,194,40.8z"/>
		<path class="st1" d="M231.6,32.4h-9c1.1-6.6,5.7-9.8,14-9.8c9.8,0,14.8,3.2,15,9.8v12.1c0,9.8-5.9,14.2-15.6,14.9
			c-8.6,0.7-14.5-3.3-14.5-11.2c0.2-8.6,6.4-10.9,15.4-11.7c3.8-0.5,5.8-1.6,5.8-3.6c-0.2-2-2.1-3-5.8-3
			C233.8,29.9,232.1,30.7,231.6,32.4z M242.9,44.1v-3.3c-2.1,0.9-4.5,1.6-7.1,2.2c-3.6,0.7-5.4,2.4-5.4,5c0.2,2.8,1.7,4.2,4.5,4.2
			C239.9,52.2,242.9,49.2,242.9,44.1z"/>
		<path class="st1" d="M266.2,17.3v41.5h-9V12.9h4.7C264.3,12.9,266.2,15,266.2,17.3z"/>
		<path class="st1" d="M281.6,17.3v41.5h-9V12.9h4.7C279.6,12.9,281.6,15,281.6,17.3z"/>
		<path class="st1" d="M302.2,52.3c3.8,0,5.7-1.1,5.7-3.4c0-1.8-3.1-3.3-9.2-4.4c-7.9-1.4-11.9-4.9-12-10.5
			c0-7.7,6.1-11.3,14.2-11.5c4.6,0,8.2,1,10.9,3c2.6,2.1,4,5,4.2,8.7h-5.7c-2.1-0.1-3.4-0.8-4-2.2c-0.6-1.6-2.4-2.4-5.4-2.4
			c-3.5,0-5.3,0.9-5.3,2.8c0,1.8,2.3,3.2,6.9,4.1c6.1,1.2,10,2.8,12,4.6c1.7,1.8,2.5,3.9,2.5,6.3c0,8.8-6.9,12-16.3,12
			c-5,0-8.8-1.1-11.2-3.2c-2.7-2-4-5.1-4-9.2h9.2C295,50.9,297.8,52.3,302.2,52.3z"/>
		<path class="st0" d="M386.6,34.7c0,18-14.6,32.6-32.6,32.6c-18,0-32.6-14.6-32.6-32.6S336,2.1,354,2.1
			C372,2.1,386.6,16.7,386.6,34.7z"/>
		<g>
			<path class="st1" d="M324.3,38.5c-0.1-0.7,0.1-1.3,0.5-1.8c0.4-0.5,1-0.7,1.7-0.7c0.7,0,1.3,0.4,1.9,1c0.6,0.6,0.9,1.4,1,2.2
				c0.1,0.8-0.1,1.5-0.5,2c-0.4,0.5-1,0.6-1.7,0.5c-0.7-0.2-1.3-0.6-1.9-1.2C324.7,39.9,324.4,39.3,324.3,38.5z"/>
			<path class="st1" d="M341.5,43.9c-0.5,0.4-1,0.7-1.5,0.8c-0.5,0.1-1.1,0.2-1.8,0.1c-2-0.2-3.7-1.4-5-3.2
				c-1.4-1.8-2.2-3.9-2.4-6.4c-0.2-2.5,0.3-4.5,1.5-6.3c1.2-1.8,2.9-2.9,5-3.2c0.7-0.1,1.4-0.1,1.9,0.1c0.6,0.1,1.1,0.4,1.6,0.7
				c0,1.8,0.1,3.6,0.2,5.4c-0.4-0.6-0.9-1-1.4-1.3c-0.5-0.3-1.1-0.4-1.7-0.4c-1.1,0.1-1.9,0.6-2.5,1.5c-0.6,0.9-0.9,2-0.8,3.4
				c0.1,1.4,0.5,2.6,1.2,3.5c0.7,0.9,1.6,1.4,2.7,1.5c0.6,0,1.1-0.1,1.6-0.4c0.5-0.3,0.9-0.8,1.2-1.4
				C341.4,40.2,341.4,42,341.5,43.9z"/>
			<path class="st1" d="M357.5,35c0,3.3-0.8,6.1-2.1,8.4c-1.4,2.3-3.1,3.4-5.1,3.4c-2.1,0-3.8-1.2-5.2-3.5c-1.4-2.3-2.1-5-2.2-8.2
				c-0.1-3.2,0.5-6,1.9-8.2c1.4-2.3,3.2-3.5,5.3-3.5c2.2,0,4,1.1,5.4,3.3C356.9,28.9,357.6,31.7,357.5,35z M353.7,35
				c0-1.8-0.3-3.2-0.9-4.3c-0.6-1.1-1.5-1.6-2.5-1.6c-1.1,0-1.9,0.6-2.5,1.6c-0.6,1.1-0.9,2.5-0.9,4.3c0,1.8,0.4,3.2,1,4.3
				c0.6,1.1,1.4,1.6,2.5,1.6c1,0,1.8-0.5,2.5-1.6C353.3,38.2,353.7,36.8,353.7,35z"/>
			<path class="st1" d="M363.2,45.5c-1.2,0.1-2.5,0.2-3.7,0.3c0.2-7.1,0.3-14.3,0.5-21.4c1.3,0.1,2.6,0.2,3.9,0.3
				c0,1.1-0.1,2.2-0.1,3.3c0.7-1.3,1.4-2.2,2.1-2.8c0.8-0.5,1.6-0.7,2.5-0.6c1.1,0.2,2,0.6,2.7,1.4c0.7,0.8,1.1,1.8,1.3,3.1
				c0.7-1.2,1.4-2,2.3-2.5c0.8-0.5,1.7-0.6,2.6-0.4c0.9,0.2,1.7,0.6,2.3,1.2c0.6,0.6,1.1,1.3,1.3,2.1c0.1,0.5,0.2,1,0.2,1.5
				c0,0.5,0,1.3-0.1,2.4c0,0.2,0,0.3-0.1,0.5c-0.3,2.9-0.6,5.7-1,8.6c-1.2,0.3-2.4,0.6-3.6,0.8c0.2-2.7,0.5-5.4,0.7-8.1
				c0.2-2,0.1-3.3-0.1-4c-0.3-0.7-0.8-1.1-1.6-1.2c-1-0.1-1.7,0.3-2.2,1.3c-0.5,1-0.8,2.6-1,5c-0.2,2.7-0.3,5.4-0.5,8.1
				c-1.2,0.2-2.4,0.4-3.7,0.6c0.2-3.2,0.3-6.4,0.5-9.7c0.1-2.3,0-3.9-0.2-4.7c-0.3-0.8-0.8-1.3-1.5-1.4c-1-0.1-1.8,0.4-2.3,1.6
				c-0.5,1.1-0.8,3-0.9,5.6C363.4,39.4,363.3,42.4,363.2,45.5z"/>
		</g>
		<path class="st1" d="M346.9,7.7c0,0-0.7,0.1-1.8,0.4c-3.7,1-11.9,3.9-14.4,10.6h3.6l11.9-10.9"/>
	</g>
	<g>
		<path class="st0" d="M379.8,3.2h-1.6V2.8c0-0.2,0.1-0.3,0.2-0.4c0.1-0.1,0.2-0.2,0.4-0.2h3.8v1h-1.6v4.5h-1.1V3.2z"/>
		<path class="st0" d="M383.1,2.8c0-0.2,0.1-0.3,0.2-0.4c0.1-0.1,0.2-0.2,0.4-0.2h1.1l1.1,4.2l1.1-4.2h1.7v5.5h-1.1V3.3l-1.1,4.4
			h-1.1l-1.1-4.4v4.4h-1.1V2.8z"/>
	</g>
</g>
</svg>
