<?xml version="1.0" encoding="utf-8"?>
<!-- Generator: Adobe Illustrator 24.0.1, SVG Export Plug-In . SVG Version: 6.00 Build 0)  -->
<svg version="1.1" id="Layer_1" xmlns="http://www.w3.org/2000/svg" xmlns:xlink="http://www.w3.org/1999/xlink" x="0px" y="0px"
	 viewBox="0 0 94.6 71.3" style="enable-background:new 0 0 94.6 71.3;" xml:space="preserve">
<title>07</title>
<g>
	<path d="M0.4,0.4v61.5h6.8c1.6,6.3,8,10.2,14.3,8.6c4.2-1.1,7.5-4.4,8.6-8.6h34.3c1.6,6.3,8,10.2,14.3,8.6c4.2-1.1,7.5-4.4,8.6-8.6
		h6.9V39.4l-8.8-17H63.8v-22L0.4,0.4z M18.7,64.8c-3.3,0.1-5.9-2.5-6-5.8c-0.1-3.3,2.5-5.9,5.8-6c3.3-0.1,5.9,2.5,6,5.8
		c0,0,0,0.1,0,0.1c0.1,3.2-2.5,5.8-5.7,5.9C18.7,64.8,18.7,64.8,18.7,64.8z M18.7,47.1c-5.4,0-10.1,3.6-11.5,8.8H6.4V6.4h51.4v49.5
		H30.1C28.7,50.7,24,47.1,18.7,47.1z M75.8,64.8c-3.3,0-5.9-2.6-5.9-5.9s2.6-5.9,5.9-5.9c3.3,0,5.9,2.6,5.9,5.9
		c0.1,3.2-2.5,5.8-5.7,5.9C75.9,64.8,75.8,64.8,75.8,64.8z M87.3,55.9c-1.6-6.3-8-10.2-14.3-8.6c-4.2,1.1-7.5,4.4-8.6,8.6h-0.6V43.3
		h24.4v12.6H87.3z M81.8,28.4l4.5,8.9H63.8v-8.9H81.8z"/>
</g>
</svg>
