<?xml version="1.0" encoding="utf-8"?>
<!-- Generator: Adobe Illustrator 24.0.1, SVG Export Plug-In . SVG Version: 6.00 Build 0)  -->
<svg version="1.1" id="Layer_1" xmlns="http://www.w3.org/2000/svg" xmlns:xlink="http://www.w3.org/1999/xlink" x="0px" y="0px"
	 viewBox="0 0 36.7 36.6" style="enable-background:new 0 0 36.7 36.6;" xml:space="preserve">
<g>
	<path d="M18.4,0.3c-9.9,0-18,8.1-18,18s8.1,18,18,18c1.7,0,3-1.4,3-3c0-0.7-0.3-1.4-0.8-2c-1.1-1.2-1-3.1,0.2-4.2
		c0.6-0.5,1.3-0.8,2-0.8h3.5c5.5,0,10-4.5,10-10C36.4,7.5,28.3,0.3,18.4,0.3z M26.4,23.3h-3.5c-3.3,0-6,2.7-6,6c0,1.5,0.5,2.9,1.5,4
		c-8.3,0-15-6.7-15-15s6.7-15,15-15c8.3,0,15,5.8,15,13C33.4,20.2,30.2,23.3,26.4,23.3z"/>
	<circle cx="8.4" cy="16.3" r="3"/>
	<circle cx="14.4" cy="10.3" r="3"/>
	<circle cx="22.4" cy="10.3" r="3"/>
	<circle cx="28.4" cy="16.3" r="3"/>
</g>
</svg>
