<?xml version="1.0" encoding="utf-8"?>
<!-- Generator: Adobe Illustrator 24.0.1, SVG Export Plug-In . SVG Version: 6.00 Build 0)  -->
<svg version="1.1" id="Layer_1" xmlns="http://www.w3.org/2000/svg" xmlns:xlink="http://www.w3.org/1999/xlink" x="0px" y="0px"
	 viewBox="0 0 28.3 22.4" style="enable-background:new 0 0 28.3 22.4;" xml:space="preserve">
<title>Icon</title>
<g>
	<path d="M27.5,5.9l-3-0.8V1.2c0-0.5-0.4-0.9-0.9-0.9c-0.2,0-0.4,0-0.5,0.1C21.8,1.2,15.4,3,11.3,4H5.8C5.1,4,4.5,4.4,4.2,4.9H3
		c-1.5,0-2.8,1.3-2.8,2.8l0,0v2.8c0,1.5,1.3,2.8,2.8,2.8c0,0,0,0,0,0h1.2c0.3,0.6,0.9,0.9,1.6,0.9H6l1.7,7.2
		c0.1,0.4,0.5,0.7,0.9,0.7h3.7c0.5,0,0.9-0.5,0.9-1c0,0,0-0.1,0-0.1l-1.6-6.7c4.1,1,10.2,2.7,11.4,3.5c0.1,0.1,0.3,0.1,0.5,0.1
		c0.5,0,0.9-0.4,0.9-0.9l0,0v-3.9l3-0.8c0.4-0.1,0.7-0.5,0.7-0.9V6.8C28.1,6.4,27.9,6,27.5,5.9z M2.1,10.5V7.7
		c0-0.5,0.4-0.9,0.9-0.9l0,0h0.9v4.7H3C2.5,11.5,2.1,11,2.1,10.5C2.1,10.5,2.1,10.5,2.1,10.5z M5.8,5.9h4.7v6.5H5.8V5.9z M9.3,20.3
		l-1.4-6.1h1.8l1.5,6.1H9.3z M22.6,15.6c-2.8-1.1-8.2-2.5-10.3-3v-7c2-0.5,7.4-1.9,10.3-3V15.6L22.6,15.6z M26.3,10.7l-1.9,0.5V7.1
		l1.9,0.5L26.3,10.7z"/>
</g>
</svg>
