<?xml version="1.0" encoding="utf-8"?>
<!-- Generator: Adobe Illustrator 24.0.1, SVG Export Plug-In . SVG Version: 6.00 Build 0)  -->
<svg version="1.1" id="Layer_1" xmlns:serif="http://www.serif.com/"
	 xmlns="http://www.w3.org/2000/svg" xmlns:xlink="http://www.w3.org/1999/xlink" x="0px" y="0px" viewBox="0 0 130.4 102.3"
	 style="enable-background:new 0 0 130.4 102.3;" xml:space="preserve">
<style type="text/css">
	.st0{fill-rule:evenodd;clip-rule:evenodd;}
</style>
<path class="st0" d="M129.5,91.6c0-5.3-4.3-9.7-9.7-9.7H41.3c-5.3,0-9.7,4.3-9.7,9.7v0c0,5.3,4.3,9.7,9.7,9.7h78.6
	C125.2,101.3,129.5,97,129.5,91.6L129.5,91.6z M10.6,82.1c5.2,0,9.5,4.3,9.5,9.5c0,5.2-4.3,9.5-9.5,9.5c-5.2,0-9.5-4.3-9.5-9.5
	C1.1,86.4,5.3,82.1,10.6,82.1z M31.6,51.1L31.6,51.1c0,5.3,4.3,9.7,9.7,9.7h78.6c5.3,0,9.7-4.3,9.7-9.7v0c0-5.3-4.3-9.7-9.7-9.7
	H41.3C36,41.4,31.6,45.7,31.6,51.1L31.6,51.1z M10.6,41.6c5.2,0,9.5,4.3,9.5,9.5c0,5.2-4.3,9.5-9.5,9.5c-5.2,0-9.5-4.3-9.5-9.5
	C1.1,45.8,5.3,41.6,10.6,41.6z M31.6,10.5L31.6,10.5c0,5.3,4.3,9.7,9.7,9.7h78.6c5.3,0,9.7-4.3,9.7-9.7v0c0-5.3-4.3-9.7-9.7-9.7
	H41.3C36,0.9,31.6,5.2,31.6,10.5L31.6,10.5z M10.6,1c5.2,0,9.5,4.3,9.5,9.5c0,5.2-4.3,9.5-9.5,9.5c-5.2,0-9.5-4.3-9.5-9.5
	C1.1,5.3,5.3,1,10.6,1z"/>
</svg>
