<?xml version="1.0" encoding="utf-8"?>
<!-- Generator: Adobe Illustrator 24.0.1, SVG Export Plug-In . SVG Version: 6.00 Build 0)  -->
<svg version="1.1" id="Layer_1" xmlns="http://www.w3.org/2000/svg" xmlns:xlink="http://www.w3.org/1999/xlink" x="0px" y="0px"
	 viewBox="0 0 384 384" style="enable-background:new 0 0 384 384;" xml:space="preserve">
<style type="text/css">
	.st0{fill:#4F4F4F;}
</style>
<g>
	<path class="st0" d="M0,338.3c0-82,0-164,0-246c0.3-0.8,0.6-1.6,0.8-2.5C5.2,68.4,18,54.5,38.9,48.3c5.5-1.6,11.4-1.6,17.4-2.4
		c0,4.4-0.1,7.6,0,10.8c0.9,20.1,17.8,31,32.9,29.2c16.4-2,27-14.4,27.1-30.9c0-2.8,0-5.6,0-8.3c50.8,0,100.9,0,151.1,0
		c0.3,5.1,0.3,10.2,1.1,15c2.3,14.1,15,24.5,29.3,24.5c14.5,0,27.2-10.8,29.3-25c0.7-4.8,0.7-9.6,1-14.4
		c22.2-2.6,45.1,12.3,52.9,34.3c1.3,3.6,2.1,7.4,3.1,11.1c0,82,0,164,0,246c-0.2,0.7-0.6,1.4-0.7,2.1c-4.1,20.6-16.1,34.2-35.7,41.2
		c-3,1.1-6.2,1.7-9.3,2.5c-97.5,0-195,0-292.5,0c-0.7-0.2-1.4-0.6-2.1-0.7C23,379.2,9.3,367,2.4,347.2C1.3,344.3,0.8,341.2,0,338.3z
		 M191.9,129c-39.6,0-79.2,0-118.9,0c-25.1,0-43,17.9-43,42.9c0,46.4,0,92.7,0,139.1c0,3.6,0.3,7.3,1.1,10.8
		c4.4,18.7,19.7,31.9,38.9,32c81.2,0.3,162.5,0.1,243.7,0.1c2.7,0,5.5-0.5,8.1-1.1C341.5,348,354,332,354,311.2
		c0.1-46.5,0-93,0-139.5c0-3.6-0.4-7.3-1.2-10.7c-4.7-19.7-20.8-32-41.6-32C271.4,129,231.7,129,191.9,129z"/>
	<path class="st0" d="M90.8,0c2.1,1.1,4.3,1.9,6.1,3.2c5.1,3.6,8.1,8.5,8.1,14.8c0.1,12.8,0.1,25.7,0,38.5
		c-0.1,10.6-8.4,18.5-19,18.4c-10.2-0.1-18.3-8.3-18.4-18.7c-0.1-12.1,0-24.2,0-36.3c0-9.6,4.2-15.7,13.1-19.2
		C81,0.6,81.4,0.3,81.8,0C84.8,0,87.8,0,90.8,0z"/>
	<path class="st0" d="M301.5,0c7.1,2.4,13.7,6.5,14.2,14.3c0.9,15.4,1.2,30.9,0,46.3c-0.8,9.8-10.6,15.5-20.5,14.3
		c-9.1-1.1-16.1-9-16.2-18.6c-0.1-12.2-0.1-24.5,0-36.7c0-9.4,4.3-15.4,13.1-18.8c0.4-0.2,0.8-0.5,1.1-0.8C296,0,298.8,0,301.5,0z"
		/>
	<path class="st0" d="M62.5,192.7c0-5.2-0.1-10.5,0-15.7c0.1-9.9,6.3-16.2,16.2-16.2c10.6-0.1,21.2-0.1,31.9,0
		c9.5,0.1,15.8,6.2,16,15.7c0.2,10.9,0.2,21.7,0,32.6c-0.1,9.1-6.1,15.4-15.2,15.6c-11.1,0.3-22.2,0.3-33.4,0
		c-9.3-0.2-15.2-6.6-15.4-15.9C62.4,203.5,62.5,198.1,62.5,192.7z"/>
	<path class="st0" d="M160,192.9c0-5.4-0.1-10.7,0-16.1c0.2-9.7,6.4-15.9,16.1-16c10.6-0.1,21.2-0.1,31.9,0
		c9.7,0.1,16,6.3,16.1,15.9c0.1,10.7,0.2,21.5,0,32.2c-0.1,9.3-6.2,15.6-15.5,15.8c-11,0.3-22,0.3-33,0c-9.5-0.2-15.4-6.6-15.5-16.1
		C159.9,203.4,160,198.1,160,192.9z"/>
	<path class="st0" d="M257.5,192.4c0-5.1-0.1-10.2,0-15.4c0.1-9.9,6.3-16.2,16.2-16.2c10.6-0.1,21.2-0.1,31.9,0
		c9.5,0.1,15.8,6.2,16,15.7c0.2,10.9,0.2,21.7,0,32.6c-0.1,9.2-6.1,15.4-15.2,15.7c-11.1,0.3-22.2,0.3-33.4,0
		c-9.3-0.2-15.2-6.5-15.4-15.9C257.4,203.4,257.5,197.9,257.5,192.4z"/>
	<path class="st0" d="M126.5,290.2c0,5.2,0.1,10.5,0,15.7c-0.1,9.9-6.2,16.2-16.1,16.3c-10.6,0.2-21.2,0.2-31.9,0
		c-9.9-0.2-16-6.5-16-16.4c-0.1-10.4-0.1-20.7,0-31.1c0.1-10.3,6.3-16.5,16.7-16.5c10.2,0,20.5,0,30.7,0c10.3,0,16.5,6.2,16.6,16.6
		C126.6,279.9,126.5,285.1,126.5,290.2z"/>
	<path class="st0" d="M192.2,258.2c5.2,0,10.5-0.1,15.7,0c9.7,0.1,16,6.3,16.1,16c0.1,10.7,0.2,21.5,0,32.2
		c-0.1,9.3-6.2,15.6-15.5,15.8c-11,0.3-22,0.2-33,0c-9.3-0.2-15.4-6.5-15.5-15.8c-0.2-10.7-0.1-21.5,0-32.2
		c0.1-9.7,6.4-15.8,16.1-16C181.4,258.2,186.8,258.2,192.2,258.2z"/>
	<path class="st0" d="M289.7,258.2c5.2,0,10.5-0.1,15.7,0c9.7,0.1,15.9,6.3,16.1,16c0.1,10.6,0.1,21.2,0,31.9
		c-0.1,9.7-6.2,16-15.9,16.2c-10.7,0.2-21.5,0.2-32.2,0c-9.7-0.2-15.8-6.5-15.9-16.2c-0.1-10.6-0.1-21.2,0-31.9
		c0.1-9.7,6.4-15.8,16.1-16C279,258.2,284.3,258.2,289.7,258.2z"/>
</g>
</svg>
