<?xml version="1.0" encoding="utf-8"?>
<!-- Generator: Adobe Illustrator 24.0.1, SVG Export Plug-In . SVG Version: 6.00 Build 0)  -->
<svg version="1.1" id="Layer_1" xmlns="http://www.w3.org/2000/svg" xmlns:xlink="http://www.w3.org/1999/xlink" x="0px" y="0px"
	 viewBox="0 0 76.2 76.2" style="enable-background:new 0 0 76.2 76.2;" xml:space="preserve">
<style type="text/css">
	.st0{fill:#FFFFFF;}
</style>
<g>
	<path class="st0" d="M38.1,76.2c-6.6,0-13.2,0-19.8,0c-4.9,0-8.8-2.8-10.3-7.3c-0.8-2.5-0.7-5-0.2-7.5c1.6-8.6,6.5-14.4,14.8-17.3
		c1.8-0.6,3.7-1,5.6-1c6.7-0.1,13.4-0.3,20.1,0c9.1,0.5,15.4,5.3,19,13.6c1.5,3.5,2,7.2,1.4,11c-0.7,4.5-4.7,8.2-9.2,8.5
		c-3.1,0.2-6.2,0.1-9.3,0.1C46,76.2,42.1,76.2,38.1,76.2z"/>
	<path class="st0" d="M38.1,0.2c10.1,0,18.5,8.2,18.5,18.3c0,10.3-8.2,18.7-18.4,18.7C28.2,37.3,19.8,29,19.6,19
		C19.5,9,27.6,0.2,38.1,0.2z"/>
</g>
</svg>
