<?xml version="1.0" encoding="utf-8"?>
<!-- Generator: Adobe Illustrator 24.0.1, SVG Export Plug-In . SVG Version: 6.00 Build 0)  -->
<svg version="1.1" id="Layer_1" xmlns="http://www.w3.org/2000/svg" xmlns:xlink="http://www.w3.org/1999/xlink" x="0px" y="0px"
	 viewBox="0 0 511 489" style="enable-background:new 0 0 511 489;" xml:space="preserve">
<style type="text/css">
	.st0{fill:#ED1D24;}
</style>
<path class="st0" d="M0,198.4c0-4,0-8,0-12c0.4-0.3,0.9-0.5,1-0.9c4.7-13.6,15-18.8,28.7-19.9c45.9-3.9,91.7-8.2,137.6-12.2
	c3.5-0.3,5.4-1.6,6.9-5C192.5,105.2,211,62.1,229.6,19c1.6-3.7,3.7-7.5,6.5-10.5c14-14.8,36.8-9.7,45.3,10.1
	c18.4,43,36.8,85.9,55.1,129c1.6,3.9,3.7,5.5,7.9,5.8c45.9,4,91.7,8,137.6,12.4c5.9,0.6,12,2.6,17.3,5.3c6.7,3.4,9.3,10.4,11.7,17.2
	c0,3.3,0,6.6,0,10c-2.7,8.9-8.9,15.1-15.8,21.1c-33.4,29-66.5,58.2-99.9,87.2c-3.9,3.4-4.9,6.2-3.7,11.3
	c10.6,45.5,21,91.1,31.1,136.7c1,4.7,1,10.1-0.3,14.7c-4.8,17.7-24.4,24.8-40.8,15.1c-40.5-24.1-81-48.3-121.4-72.6
	c-3.5-2.1-6-2-9.3,0.1c-40.3,24.2-80.7,48.2-121,72.3c-10.6,6.3-21.1,6.7-31.3-0.5c-9.4-6.6-12.9-17.6-10.1-30.1
	c10.4-45.7,20.8-91.5,31.3-137.2c0.9-3.9,0.1-6.2-2.9-8.8c-33.9-29.4-67.5-59.1-101.4-88.5C8.7,213.2,2.6,207.1,0,198.4z"/>
</svg>
