<?xml version="1.0" encoding="utf-8"?>
<!-- Generator: Adobe Illustrator 24.0.1, SVG Export Plug-In . SVG Version: 6.00 Build 0)  -->
<svg version="1.1" id="Layer_1" xmlns="http://www.w3.org/2000/svg" xmlns:xlink="http://www.w3.org/1999/xlink" x="0px" y="0px"
	 viewBox="0 0 603.3 665.6" style="enable-background:new 0 0 603.3 665.6;" xml:space="preserve">
<g>
	<g>
		<path d="M280.8,0c13.9,0,27.7,0,41.6,0c1.9,0.4,3.7,1.1,5.6,1.2c37.3,2.9,73.1,12.2,106.1,29.6c109.6,57.9,166,149.4,168.8,273.3
			c1,44.2-0.1,88.4,0.3,132.6c0.1,12.6-4.1,21.7-14.4,29.3c-40.1,29.9-79.7,60.4-119.7,90.5c-3.9,3-5.3,6-5.2,10.8
			c0.2,24.3,0.2,48.5,0.1,72.8c-0.1,15.4-10.1,25.4-25,25.5c-5.8,0.1-11.7,0.1-17.5,0c-14.8-0.2-24.6-10.1-24.8-25
			c-0.1-10,0.1-19.9-0.1-29.9c-0.2-10.1-6.4-16.8-15.1-16.7c-9,0-14.8,6.5-14.9,16.9c-0.1,9.7,0.1,19.5-0.1,29.2
			c-0.2,15-10.3,25.5-24.5,25.5c-14.2,0-24.4-10.4-24.6-25.4c-0.1-10,0.1-19.9-0.1-29.9c-0.2-10.3-6.4-16.6-16-16.4
			c-9.4,0.1-15.2,6.3-15.4,16.4c-0.1,10,0.1,19.9-0.1,29.9c-0.3,15.1-10.4,25.4-24.6,25.4c-14.2,0-24.3-10.4-24.5-25.5
			c-0.1-10,0.6-20-0.3-29.9c-0.4-4.5-2.8-9.6-5.8-13c-3.9-4.3-9.7-4.4-15.1-2c-6.2,2.8-8.7,8.2-8.8,14.7
			c-0.2,10.6,0.1,21.2-0.1,31.8c-0.3,13.7-10.5,23.5-24.1,23.7c-5.2,0.1-10.4,0-15.6,0c-18.2,0-27.6-9.4-27.6-27.5
			c0-23.8-0.1-47.7,0.1-71.5c0-4.3-1.3-7-4.8-9.6C94,526.5,53.7,495.7,13.2,465.2C4.1,458.4-0.1,450,0,438.7
			c0.2-44.8-0.1-89.7,0.2-134.5C0.3,289.6,1,275,3.1,260.7C13.2,188.9,45,128,98.5,78.9c42.3-38.8,91.8-63.6,148.4-73.8
			C258.1,3.1,269.5,1.7,280.8,0z M92.7,362.7c0.2,45.7,38,83.3,83.3,82.8c45.8-0.5,82.6-37.4,82.7-82.8c0.1-45.4-37.5-83.2-83-83.2
			C130.1,279.5,92.5,317.2,92.7,362.7z M510.3,363.4c1.1-44.8-35.7-82.6-81.5-83.9c-44.8-1.2-83.1,35.8-84.3,81.2
			c-1.2,45.7,35,83.1,82,84.7C471.2,447,509.1,409.9,510.3,363.4z M301.5,506.6c7.4,0,14.7,0.3,22.1-0.1c13.6-0.6,19.5-10.9,13-23
			c-7-13.1-14.2-26.2-21.6-39.2c-7-12.4-19.9-12.4-26.9,0c-7.3,13-14.5,26-21.6,39.2c-6.6,12.4-0.6,22.6,13.6,23
			C287.2,506.8,294.4,506.6,301.5,506.6z"/>
	</g>
</g>
</svg>
