<?xml version="1.0" encoding="utf-8"?>
<!-- Generator: Adobe Illustrator 24.0.1, SVG Export Plug-In . SVG Version: 6.00 Build 0)  -->
<svg version="1.1" id="Layer_1" xmlns="http://www.w3.org/2000/svg" xmlns:xlink="http://www.w3.org/1999/xlink" x="0px" y="0px"
	 viewBox="0 0 287.6 287.6" style="enable-background:new 0 0 287.6 287.6;" xml:space="preserve">
<style type="text/css">
	.st0{fill:#FFFFFF;}
</style>
<path class="st0" d="M186,219.7c-56.8,36.6-126.5,19.8-162.3-28.5C-11.7,143.5-7,77.7,34.8,35.5c41.8-42.2,108-47.4,156-12.2
	c48.6,35.6,65.9,105.7,29.2,162.5c0.9,1,1.9,2.1,3,3.1c19,19,38,37.9,56.9,56.9c11.4,11.4,10.1,28.5-2.6,37.4
	c-9.6,6.7-22.2,5.5-31.1-3.3c-14.6-14.5-29.1-29.1-43.7-43.7C197,230.8,191.6,225.3,186,219.7z M120,35.9
	c-46.2-0.1-83.9,37.4-84,83.6c-0.1,46.2,37.4,84,83.5,84.1c46.4,0.2,84.2-37.5,84.2-83.8C203.7,73.7,166.2,36,120,35.9z"/>
</svg>
