<?xml version="1.0" encoding="utf-8"?>
<!-- Generator: Adobe Illustrator 24.0.1, SVG Export Plug-In . SVG Version: 6.00 Build 0)  -->
<svg version="1.1" id="Layer_1" xmlns="http://www.w3.org/2000/svg" xmlns:xlink="http://www.w3.org/1999/xlink" x="0px" y="0px"
	 viewBox="0 0 25.1 25.1" style="enable-background:new 0 0 25.1 25.1;" xml:space="preserve">
<style type="text/css">
	.st0{fill:#C8C7C7;}
</style>
<g>
	<g>
		<path class="st0" d="M12.4,25.1c-2.5,0-5.1,0-7.6,0c-2.4,0-3.8-1.8-3.2-4.2c0.9-3.3,2.5-6.1,5.6-7.7c6.4-3.5,14-0.2,16,6.9
			c0.1,0.3,0.1,0.6,0.2,0.9c0.7,2-0.6,4.1-3.3,4.1C17.6,25.1,15,25.1,12.4,25.1z M12.5,23.1c0.5,0,1,0,1.5,0c2.1,0,4.2,0,6.3,0
			c1.1,0,1.5-0.6,1.3-1.7c0-0.2-0.1-0.3-0.1-0.5c-1.3-5.2-5.2-7.8-10.5-7c-3.7,0.5-7.1,4.2-7.5,8c-0.1,0.5,0.2,0.9,0.7,1.1
			c0.3,0.1,0.7,0.1,1,0.1C7.6,23.1,10,23.1,12.5,23.1z"/>
		<path class="st0" d="M12.5,0.1c3,0,5.4,2.4,5.4,5.4c0,2.9-2.5,5.4-5.4,5.4c-3,0-5.3-2.4-5.3-5.5C7.1,2.4,9.5,0,12.5,0.1z
			 M12.5,8.8c1.9,0,3.4-1.5,3.4-3.4s-1.6-3.5-3.5-3.5C10.6,2,9,3.6,9,5.4C9,7.3,10.6,8.8,12.5,8.8z"/>
	</g>
</g>
</svg>
