<?xml version="1.0" encoding="utf-8"?>
<!-- Generator: Adobe Illustrator 24.0.1, SVG Export Plug-In . SVG Version: 6.00 Build 0)  -->
<svg version="1.1"
	 id="Layer_1" image-rendering="optimizeQuality" text-rendering="geometricPrecision" shape-rendering="geometricPrecision"
	 xmlns="http://www.w3.org/2000/svg" xmlns:xlink="http://www.w3.org/1999/xlink" x="0px" y="0px" viewBox="0 0 383.9 388.4"
	 style="enable-background:new 0 0 383.9 388.4;" xml:space="preserve">
<style type="text/css">
	.st0{fill:none;}
	.st1{fill:#FFFFFF;}
</style>
<path class="st0" d="M0,0"/>
<g>
	<path class="st1" d="M298.1,0c3.8,0.5,7.6,0.9,11.4,1.7c28.8,5.9,50.3,21.7,64.1,47.6c9.2,17.3,12,35.8,9.4,55.2
		c-2.8,20.7-11.9,38.1-26.6,52.8c-24.9,24.9-49.8,49.8-74.7,74.8c-15.9,15.9-34.9,25.4-57.3,27.3c-29.3,2.6-54.5-6.5-74.8-28
		c-6-6.3-10.6-13.6-14.1-21.7c-0.2-0.5-0.2-1.5,0.2-1.8c6.7-5.7,13.7-10.8,22.3-13.4c7.6-2.3,15.2-1.5,22.5,1.1
		c6.2,2.1,12.2,4.7,18.2,7.2c14.6,6.2,28.5,5,41.6-4.1c2.3-1.6,4.3-3.5,6.2-5.5c24.2-24.1,48.3-48.3,72.5-72.4
		c9-9,13.7-19.6,13.2-32.3c-0.8-20-15.8-36.5-35.5-39.1c-14.1-1.9-26.1,2.5-36.1,12.5c-17,16.9-33.9,33.9-50.8,50.8
		c-0.6,0.6-1,1.2-1.5,1.9c-18.2-8.5-36.9-11.1-56.4-7.7c-0.1-0.2-0.3-0.3-0.4-0.5c3.4-4.5,6.4-9.3,10.3-13.3
		c11.8-12.3,23.9-24.3,35.9-36.4c9.8-9.8,19.6-19.6,29.4-29.3C240.5,13.8,256.7,5,275.5,1.6c3.7-0.7,7.5-1.1,11.2-1.6
		C290.5,0,294.3,0,298.1,0z"/>
	<path class="st1" d="M85.8,384c-3.8-0.5-7.6-0.9-11.4-1.7c-28.8-5.9-50.3-21.7-64.1-47.6c-9.2-17.3-12-35.8-9.4-55.2
		c2.8-20.7,11.9-38.1,26.6-52.8c24.8-24.9,49.7-49.7,74.6-74.6c13.5-13.5,29.5-22.8,48.3-26.4c32.4-6.2,61,1.4,85,24.5
		c5.5,5.3,10,11.4,13.6,18.1c-9.6,10.1-21.1,16.7-35.1,18.6c-2.7,0.4-5.5,0.9-8.2,1.1c-1,0.1-2.3-0.6-3.2-1.3
		c-7.7-6.6-16.6-10.7-26.6-12.1c-15.7-2.2-29.7,1.8-41,13.1c-24.6,24.4-49.1,48.9-73.5,73.5c-15.2,15.3-16.8,38.6-3.4,55.4
		c8.5,10.7,20,15.9,33.8,15.5c11.5-0.3,21-5,29-13.1c16.5-16.6,33.1-33,49.5-49.6c1.4-1.4,2.5-1.8,4.4-0.9c9,4.4,18.7,6.9,28.6,7.9
		c10,1,19.9,0.5,29.7-1.8c0.5-0.1,1-0.2,2-0.3c-1.5,2.4-2.7,4.7-4.2,6.6c-3.4,4.3-6.8,8.8-10.7,12.7c-21,21.1-42.1,42.2-63.2,63.2
		c-13.6,13.5-29.7,22.3-48.6,25.7c-3.7,0.7-7.5,1.1-11.2,1.6C93.4,384,89.6,384,85.8,384z"/>
</g>
</svg>
