<?xml version="1.0" encoding="utf-8"?>
<!-- Generator: Adobe Illustrator 24.0.1, SVG Export Plug-In . SVG Version: 6.00 Build 0)  -->
<svg version="1.1" id="Layer_1" xmlns="http://www.w3.org/2000/svg" xmlns:xlink="http://www.w3.org/1999/xlink" x="0px" y="0px"
	 viewBox="0 0 100 100" style="enable-background:new 0 0 100 100;" xml:space="preserve">
<g>
	<g>
		<path d="M91.4,76.9C88,80.3,84.7,83.6,81.3,87c-2.2-1.5-4.4-3-6.6-4.7c-1.2-1-2.1-1.1-3.6-0.3c-2.2,1.2-4.5,2-6.8,2.8
			c-0.8,0.3-1.1,0.6-1.2,1.4c-0.5,3-1,6.1-1.5,9.1c-2.4,0-4.7,0-7,0c0-7.3,0-14.5,0-21.8c7.6-0.4,13.7-3.5,18.3-9.5
			c3.4-4.5,4.9-9.6,4.6-15.2c-0.6-12-10.2-22-22.9-22.4c0-7.2,0-14.5,0-21.8c2.3,0,4.6,0,7.1,0c0.5,3,1.1,6.1,1.5,9.1
			c0.1,0.9,0.5,1.2,1.3,1.5c2.9,1.1,5.8,2.3,8.9,3.5c2.5-1.8,5.3-3.8,8-5.7c3.4,3.4,6.7,6.7,10.1,10.2c-1.5,2.2-3.1,4.5-4.8,6.7
			c-0.8,1.1-0.9,1.9-0.3,3.2c1.2,2.3,2,4.7,2.9,7.1c0.3,0.8,0.6,1.1,1.4,1.2c3,0.4,6,1,9.1,1.5c0,4.8,0,9.5,0,14.3
			c-3,0.5-6,1.1-9,1.5c-0.9,0.1-1.2,0.4-1.5,1.3c-1,2.6-2.1,5.2-3.2,7.8c-0.3,0.7-0.3,1,0.1,1.6C87.8,71.9,89.6,74.4,91.4,76.9z"/>
		<path d="M10,79.4C-3.4,61.7-2.4,36.6,10,20.6c1.1,1.2,2.1,2.4,3.2,3.4c2.7,2.3,5.5,4.6,8.4,6.7c0.6,0.5,0.9,0.8,0.7,1.6
			C20,44.2,20,56,22.3,67.8c0.1,0.4-0.1,1-0.4,1.2c-4.3,2.8-8.2,6.2-11.5,10.1C10.3,79.2,10.2,79.2,10,79.4z"/>
		<path d="M26.6,66.2c-2.1-10.8-2.1-21.4,0-32.3c7.4,3.6,15.1,5.5,23.3,5.5c0,0.5,0,1,0,1.4c0,6.2,0,12.3,0,18.5
			c0,1.2-0.4,1.5-1.5,1.5c-7.4,0.1-14.3,1.9-21,5.1C27.2,65.9,27,66,26.6,66.2z"/>
		<path d="M49.8,2.5c0,10.9,0,21.5,0,32.5c-2.5-0.2-4.9-0.3-7.3-0.7c-4.9-0.8-9.6-2.3-14-4.6c-0.3-0.2-0.8-0.8-0.7-1.1
			c2-7.3,4.8-14.2,9.9-19.9c2.5-2.8,5.4-5,9.1-5.9C47.8,2.7,48.8,2.6,49.8,2.5z"/>
		<path d="M27.7,70.8c6.9-3.7,14.2-5.6,22.2-5.6c0,10.8,0,21.5,0,32.3c-2.2,0-4.1-0.5-5.9-1.5c-3.5-1.7-6.1-4.3-8.3-7.5
			C31.7,83.2,29.4,77.2,27.7,70.8z"/>
		<path d="M23.3,26.5c-3.8-2.5-7.3-5.8-10.4-9.6C19.9,9.1,28.4,4,38.6,1.7c-3.9,3.1-7.1,6.9-9.3,11.3S25.3,22,23.3,26.5z"/>
		<path d="M38.6,98.2C28.5,95.9,20,90.8,13,83c3-3.8,6.6-7.1,10.7-9.8C26.5,82.9,30.5,91.8,38.6,98.2z"/>
	</g>
</g>
</svg>
