<?xml version="1.0" encoding="utf-8"?>
<!-- Generator: Adobe Illustrator 24.0.1, SVG Export Plug-In . SVG Version: 6.00 Build 0)  -->
<svg version="1.1" id="Layer_1" xmlns="http://www.w3.org/2000/svg" xmlns:xlink="http://www.w3.org/1999/xlink" x="0px" y="0px"
	 viewBox="0 0 294.8 287" style="enable-background:new 0 0 294.8 287;" xml:space="preserve">
<style type="text/css">
	.st0{fill:#515151;}
</style>
<g>
	<g>
		<path class="st0" d="M268.1,221.9c-10,10-19.6,19.7-29.5,29.6c-6.3-4.5-12.9-8.9-19.2-13.8c-3.5-2.8-6.2-3.3-10.5-1
			c-6.3,3.4-13.2,5.7-20,8.1c-2.2,0.8-3.2,1.7-3.5,4c-1.4,8.9-3,17.7-4.5,26.7c-6.9,0-13.6,0-20.5,0c0-21.2,0-42.3,0-63.8
			c22.1-1.1,40.1-10.1,53.5-27.8c9.8-13.1,14.2-28,13.4-44.3c-1.7-34.9-29.9-64.3-66.9-65.3c0-21.1,0-42.3,0-63.6
			c6.8,0,13.5,0,20.6,0c1.5,8.9,3.1,17.7,4.5,26.5c0.4,2.5,1.4,3.4,3.8,4.3c8.5,3.1,16.9,6.6,25.9,10.1c7.4-5.3,15.5-11.1,23.4-16.7
			c9.9,10,19.5,19.7,29.5,29.7c-4.4,6.3-9,13.1-14,19.6c-2.4,3.2-2.7,5.5-0.8,9.2c3.4,6.6,5.9,13.7,8.4,20.8c0.8,2.3,1.7,3.1,4,3.4
			c8.8,1.3,17.6,3,26.6,4.5c0,14,0,27.7,0,41.8c-8.8,1.5-17.6,3.1-26.4,4.5c-2.5,0.4-3.4,1.3-4.3,3.7c-2.9,7.7-6.1,15.3-9.4,22.8
			c-0.8,1.9-0.9,3,0.3,4.7C257.7,207.1,262.9,214.5,268.1,221.9z"/>
		<path class="st0" d="M30.5,229C-8.6,177.4-5.6,104,30.6,57.5c3.1,3.4,6,7,9.4,10c8,6.8,16.2,13.3,24.4,19.7
			c1.8,1.4,2.6,2.4,2.1,4.8c-6.8,34.3-6.7,68.7,0,103.1c0.2,1.1-0.4,3-1.3,3.6c-12.6,8.2-23.9,18-33.7,29.5
			C31.3,228.4,31,228.6,30.5,229z"/>
		<path class="st0" d="M79,190.5c-6-31.5-6-62.6,0-94.4c21.6,10.6,44,16,68,16.1c0,1.6,0,2.8,0,4c0,18-0.1,36,0.1,54
			c0,3.6-1.1,4.3-4.4,4.4c-21.5,0.4-41.9,5.5-61.2,14.9C80.8,189.8,80.1,190,79,190.5z"/>
		<path class="st0" d="M146.8,4.4c0,31.7,0,62.9,0,95c-7.2-0.7-14.3-1-21.2-2.1c-14.4-2.2-28.1-6.6-41-13.4c-1-0.5-2.3-2.3-2.1-3.1
			c5.8-21.3,14.1-41.4,29-58.1c7.3-8.1,15.8-14.6,26.6-17.1C140.9,5,143.7,4.9,146.8,4.4z"/>
		<path class="st0" d="M82.1,203.9c20.2-10.9,41.6-16.3,64.7-16.5c0,31.5,0,62.8,0,94.3c-6.3,0-11.9-1.6-17.3-4.3
			c-10.1-5-17.7-12.7-24.3-21.8C93.9,240.2,87.1,222.7,82.1,203.9z"/>
		<path class="st0" d="M69.2,74.7c-11.2-7.3-21.4-16.8-30.3-28C59.3,24,84.2,9.1,114,2.4c-11.4,9.1-20.8,20.1-27.3,33
			C80.3,48.1,75.1,61.4,69.2,74.7z"/>
		<path class="st0" d="M113.9,284.1c-29.6-6.7-54.4-21.6-74.9-44.3c8.9-11.2,19.2-20.6,31.3-28.6C78.8,239.4,90.4,265.3,113.9,284.1
			z"/>
	</g>
</g>
</svg>
