<?xml version="1.0" encoding="utf-8"?>
<!-- Generator: Adobe Illustrator 24.0.1, SVG Export Plug-In . SVG Version: 6.00 Build 0)  -->
<svg version="1.1" id="Layer_1" xmlns="http://www.w3.org/2000/svg" xmlns:xlink="http://www.w3.org/1999/xlink" x="0px" y="0px"
	 viewBox="0 0 100 100" style="enable-background:new 0 0 100 100;" xml:space="preserve">
<g>
	<path d="M88.6,0.6H11.8c-4.1,0-7.2,3.3-7.2,7.2v84.3c0,4.1,3.3,7.2,7.2,7.2h76.7c4.1,0,7.2-3.3,7.2-7.2V7.8
		C95.8,3.9,92.5,0.6,88.6,0.6z M11.8,6.9h76.7c0.5,0,0.9,0.4,0.9,0.9v26.3H11V7.8C11,7.3,11.3,6.9,11.8,6.9z M88.6,93.1H11.8
		c-0.5,0-0.9-0.4-0.9-0.9V40.5h78.5v51.7C89.5,92.7,89.1,93.1,88.6,93.1z"/>
	<rect x="23.6" y="49.4" width="13.9" height="10.8"/>
	<rect x="42.6" y="49.4" width="13.9" height="10.8"/>
	<rect x="23.6" y="68.4" width="13.9" height="10.8"/>
	<rect x="62.9" y="49.4" width="13.9" height="30.4"/>
	<rect x="42.6" y="68.4" width="13.9" height="10.8"/>
</g>
</svg>
