<?xml version="1.0" encoding="utf-8"?>
<!-- Generator: Adobe Illustrator 24.0.1, SVG Export Plug-In . SVG Version: 6.00 Build 0)  -->
<svg version="1.1" id="Layer_1" xmlns="http://www.w3.org/2000/svg" xmlns:xlink="http://www.w3.org/1999/xlink" x="0px" y="0px"
	 viewBox="0 0 100 100" style="enable-background:new 0 0 100 100;" xml:space="preserve">
<g>
	<path d="M87,2.5h-74c-3.9,0-6.9,3.2-6.9,6.9v81.2c0,3.9,3.2,6.9,6.9,6.9h73.9c3.9,0,6.9-3.2,6.9-6.9V9.4C94,5.6,90.8,2.5,87,2.5z
		 M13.1,8.5h73.9c0.5,0,0.9,0.4,0.9,0.9v25.3H12.3V9.4C12.3,8.9,12.6,8.5,13.1,8.5z M87,91.6h-74c-0.5,0-0.9-0.4-0.9-0.9V40.9h75.6
		v49.8C87.9,91.2,87.5,91.6,87,91.6z"/>
	<rect x="24.4" y="49.5" width="13.4" height="10.4"/>
	<rect x="42.7" y="49.5" width="13.4" height="10.4"/>
	<rect x="24.4" y="67.8" width="13.4" height="10.4"/>
	<rect x="62.3" y="49.5" width="13.4" height="29.3"/>
	<rect x="42.7" y="67.8" width="13.4" height="10.4"/>
</g>
</svg>
