<?xml version="1.0" encoding="utf-8"?>
<!-- Generator: Adobe Illustrator 24.0.1, SVG Export Plug-In . SVG Version: 6.00 Build 0)  -->
<svg version="1.1" id="Layer_1" xmlns="http://www.w3.org/2000/svg" xmlns:xlink="http://www.w3.org/1999/xlink" x="0px" y="0px"
	 viewBox="0 0 294.81 286.98" style="enable-background:new 0 0 294.81 286.98;" xml:space="preserve">
<style type="text/css">
	.st0{fill:#FFFFFF;}
</style>
<g>
	<g>
		<path class="st0" d="M268.09,221.92c-10.02,10.04-19.62,19.67-29.54,29.61c-6.3-4.49-12.93-8.88-19.17-13.79
			c-3.54-2.79-6.19-3.27-10.46-0.96c-6.3,3.42-13.22,5.73-20.01,8.14c-2.22,0.79-3.17,1.7-3.53,4.01
			c-1.37,8.87-2.97,17.71-4.51,26.73c-6.85,0-13.55,0-20.54,0c0-21.19,0-42.34,0-63.79c22.06-1.07,40.13-10.09,53.47-27.83
			c9.81-13.05,14.2-27.96,13.42-44.25c-1.68-34.86-29.95-64.33-66.91-65.32c0-21.13,0-42.28,0-63.63c6.84,0,13.53,0,20.55,0
			c1.52,8.86,3.15,17.67,4.49,26.53c0.38,2.5,1.44,3.4,3.75,4.25c8.51,3.1,16.89,6.57,25.85,10.12
			c7.43-5.29,15.54-11.06,23.43-16.67c9.88,9.96,19.53,19.68,29.52,29.74c-4.43,6.28-8.98,13.13-13.97,19.63
			c-2.43,3.17-2.66,5.5-0.78,9.21c3.36,6.64,5.9,13.72,8.41,20.75c0.8,2.25,1.74,3.09,4.05,3.44c8.84,1.35,17.65,2.96,26.59,4.49
			c0,13.97,0,27.68,0,41.79c-8.8,1.51-17.58,3.14-26.41,4.46c-2.48,0.37-3.41,1.32-4.29,3.67c-2.88,7.69-6.11,15.25-9.45,22.75
			c-0.82,1.85-0.91,3.04,0.29,4.69C257.67,207.08,262.87,214.54,268.09,221.92z"/>
		<path class="st0" d="M30.51,228.98C-8.62,177.42-5.64,103.96,30.58,57.54c3.15,3.36,5.99,7.03,9.45,9.98
			C48,74.3,56.19,80.81,64.45,87.22c1.8,1.4,2.55,2.42,2.07,4.81c-6.84,34.35-6.7,68.72,0,103.09c0.21,1.09-0.41,2.99-1.27,3.55
			c-12.64,8.23-23.9,17.99-33.68,29.48C31.34,228.42,31,228.6,30.51,228.98z"/>
		<path class="st0" d="M79.04,190.46c-5.99-31.46-5.99-62.64,0.01-94.42c21.56,10.59,43.98,15.99,68.01,16.14c0,1.62,0,2.83,0,4.04
			c0,17.99-0.1,35.99,0.09,53.98c0.04,3.57-1.14,4.3-4.43,4.36c-21.5,0.41-41.89,5.54-61.24,14.89
			C80.82,189.78,80.12,190.02,79.04,190.46z"/>
		<path class="st0" d="M146.82,4.42c0,31.75,0,62.93,0,94.96c-7.21-0.68-14.27-1.02-21.22-2.06c-14.39-2.15-28.12-6.55-41.01-13.38
			c-0.99-0.52-2.27-2.26-2.05-3.06c5.77-21.29,14.08-41.37,28.98-58.07c7.26-8.14,15.78-14.57,26.65-17.13
			C140.89,5.04,143.73,4.86,146.82,4.42z"/>
		<path class="st0" d="M82.09,203.95c20.23-10.86,41.63-16.29,64.71-16.49c0,31.53,0,62.79,0,94.34
			c-6.29,0.03-11.95-1.59-17.34-4.27c-10.08-5-17.74-12.74-24.26-21.75C93.92,240.21,87.07,222.68,82.09,203.95z"/>
		<path class="st0" d="M69.21,74.73C58,67.42,47.79,57.94,38.91,46.7C59.35,23.98,84.22,9.08,114.03,2.36
			C102.6,11.5,93.2,22.42,86.69,35.39C80.31,48.13,75.06,61.44,69.21,74.73z"/>
		<path class="st0" d="M113.93,284.1c-29.64-6.73-54.42-21.6-74.91-44.29c8.91-11.24,19.16-20.64,31.27-28.65
			C78.8,239.4,90.38,265.32,113.93,284.1z"/>
	</g>
</g>
</svg>
