<svg xmlns="http://www.w3.org/2000/svg" viewBox="0 0 48 48" x="0px" y="0px"><defs><style>.cls-1{fill:none;}</style></defs><title>Palette</title><g data-name="Bouding Box"><rect class="cls-1" width="48" height="48"></rect></g><g><path d="M24,6a18,18,0,0,0,0,36,3,3,0,0,0,2.22-5,3,3,0,0,1,2.24-5H32A10,10,0,0,0,42,22C42,13.16,33.94,6,24,6Zm8,23H28.46A6,6,0,0,0,24,39,15,15,0,0,1,24,9c8.27,0,15,5.83,15,13A7,7,0,0,1,32,29Z"></path><circle cx="14" cy="22" r="3"></circle><circle cx="20" cy="16" r="3"></circle><circle cx="28" cy="16" r="3"></circle><circle cx="34" cy="22" r="3"></circle></g></svg>