<?xml version="1.0" encoding="utf-8"?>
<!-- Generator: Adobe Illustrator 24.0.1, SVG Export Plug-In . SVG Version: 6.00 Build 0)  -->
<svg version="1.1" id="Layer_1" xmlns="http://www.w3.org/2000/svg" xmlns:xlink="http://www.w3.org/1999/xlink" x="0px" y="0px"
	 viewBox="0 0 100 100" style="enable-background:new 0 0 100 100;" xml:space="preserve">
<style type="text/css">
	.st0{fill:#515151;}
</style>
<title>07</title>
<g>
	<path class="st0" d="M3.1,14.8v61.5h6.8c1.6,6.3,8,10.2,14.3,8.6c4.2-1.1,7.5-4.4,8.6-8.6h34.3c1.6,6.3,8,10.2,14.3,8.6
		c4.2-1.1,7.5-4.4,8.6-8.6h6.9V53.8l-8.8-17H66.5v-22L3.1,14.8z M21.4,79.2c-3.3,0.1-5.9-2.5-6-5.8c-0.1-3.3,2.5-5.9,5.8-6
		c3.3-0.1,5.9,2.5,6,5.8c0,0,0,0.1,0,0.1c0.1,3.2-2.5,5.8-5.7,5.9C21.5,79.2,21.4,79.2,21.4,79.2z M21.4,61.5
		c-5.4,0-10.1,3.6-11.5,8.8H9.1V20.8h51.4v49.5H32.8C31.5,65.1,26.8,61.5,21.4,61.5z M78.5,79.2c-3.3,0-5.9-2.6-5.9-5.9
		s2.6-5.9,5.9-5.9c3.3,0,5.9,2.6,5.9,5.9c0.1,3.2-2.5,5.8-5.7,5.9C78.6,79.2,78.6,79.2,78.5,79.2z M90,70.3
		c-1.6-6.3-8-10.2-14.3-8.6c-4.2,1.1-7.5,4.4-8.6,8.6h-0.6V57.7h24.4v12.6H90z M84.5,42.8l4.5,8.9H66.5v-8.9H84.5z"/>
</g>
</svg>
