<?xml version="1.0" encoding="utf-8"?>
<!-- Generator: Adobe Illustrator 24.0.1, SVG Export Plug-In . SVG Version: 6.00 Build 0)  -->
<svg version="1.1"
	 id="Layer_1" xmlns:cc="http://creativecommons.org/ns#" xmlns:dc="http://purl.org/dc/elements/1.1/" xmlns:inkscape="http://www.inkscape.org/namespaces/inkscape" xmlns:rdf="http://www.w3.org/1999/02/22-rdf-syntax-ns#" xmlns:sodipodi="http://sodipodi.sourceforge.net/DTD/sodipodi-0.dtd" xmlns:svg="http://www.w3.org/2000/svg"
	 xmlns="http://www.w3.org/2000/svg" xmlns:xlink="http://www.w3.org/1999/xlink" x="0px" y="0px" viewBox="0 0 100 100"
	 style="enable-background:new 0 0 100 100;" xml:space="preserve">
<style type="text/css">
	.st0{fill-rule:evenodd;clip-rule:evenodd;fill:#515151;}
</style>
<g>
	<path class="st0" d="M50,0.9C23.2,0.9,0.9,23.2,0.9,50S23.2,99.1,50,99.1S99.1,76.8,99.1,50S77.5,0.9,50,0.9z M50,9.4
		c22.9,0,41.2,18.3,41.2,41.2S72.9,91.9,50,91.9S8.8,73.6,8.8,50.7C9.4,27.8,27.8,9.4,50,9.4z M70.3,30.4c-1.3,0-2,0.7-2.6,1.3
		L43.5,59.8L32.3,48c-1.3-1.3-3.9-1.3-5.9,0l0,0c-1.3,1.3-1.3,3.9,0,5.9l14.4,15c1.3,1.3,3.9,2,5.9,0l0,0l26.8-31.4
		c1.3-2,1.3-4.6-0.7-5.9C72.9,31,71.6,30.4,70.3,30.4L70.3,30.4z"/>
</g>
</svg>
