<?xml version="1.0" encoding="utf-8"?>
<!-- Generator: Adobe Illustrator 24.0.1, SVG Export Plug-In . SVG Version: 6.00 Build 0)  -->
<svg version="1.1" id="Layer_1" xmlns="http://www.w3.org/2000/svg" xmlns:xlink="http://www.w3.org/1999/xlink" x="0px" y="0px"
	 viewBox="0 0 48 48" style="enable-background:new 0 0 48 48;" xml:space="preserve">
<style type="text/css">
	.st0{fill:none;}
	.st1{fill:#515151;}
</style>
<title>Palette</title>
<g>
	<rect class="st0" width="48" height="48"/>
</g>
<g>
	<path class="st1" d="M24,6C14.1,6,6,14.1,6,24s8.1,18,18,18c1.7,0,3-1.4,3-3c0-0.7-0.3-1.4-0.8-2c-1.1-1.2-1-3.1,0.2-4.2
		c0.6-0.5,1.3-0.8,2-0.8H32c5.5,0,10-4.5,10-10C42,13.2,33.9,6,24,6z M32,29h-3.5c-3.3,0-6,2.7-6,6c0,1.5,0.5,2.9,1.5,4
		c-8.3,0-15-6.7-15-15S15.7,9,24,9c8.3,0,15,5.8,15,13C39,25.9,35.9,29,32,29z"/>
	<circle class="st1" cx="14" cy="22" r="3"/>
	<circle class="st1" cx="20" cy="16" r="3"/>
	<circle class="st1" cx="28" cy="16" r="3"/>
	<circle class="st1" cx="34" cy="22" r="3"/>
</g>
</svg>
