<?xml version="1.0" encoding="utf-8"?>
<!-- Generator: Adobe Illustrator 24.0.1, SVG Export Plug-In . SVG Version: 6.00 Build 0)  -->
<svg version="1.1" id="Layer_1" xmlns:serif="http://www.serif.com/"
	 xmlns="http://www.w3.org/2000/svg" xmlns:xlink="http://www.w3.org/1999/xlink" x="0px" y="0px" viewBox="0 0 138 134"
	 style="enable-background:new 0 0 138 134;" xml:space="preserve">
<style type="text/css">
	.st0{fill-rule:evenodd;clip-rule:evenodd;fill:#515151;}
</style>
<path class="st0" d="M133,109.1c0-5.3-4.3-9.7-9.7-9.7H44.8c-5.3,0-9.7,4.3-9.7,9.7v0c0,5.3,4.3,9.7,9.7,9.7h78.6
	C128.7,118.8,133,114.4,133,109.1L133,109.1z M14,99.6c5.2,0,9.5,4.3,9.5,9.5c0,5.2-4.3,9.5-9.5,9.5c-5.2,0-9.5-4.3-9.5-9.5
	C4.5,103.8,8.8,99.6,14,99.6z M35.1,68.5L35.1,68.5c0,5.3,4.3,9.7,9.7,9.7h78.6c5.3,0,9.7-4.3,9.7-9.7v0c0-5.3-4.3-9.7-9.7-9.7H44.8
	C39.4,58.9,35.1,63.2,35.1,68.5L35.1,68.5z M14,59c5.2,0,9.5,4.3,9.5,9.5c0,5.2-4.3,9.5-9.5,9.5c-5.2,0-9.5-4.3-9.5-9.5
	C4.5,63.3,8.8,59,14,59z M35.1,28L35.1,28c0,5.3,4.3,9.7,9.7,9.7h78.6c5.3,0,9.7-4.3,9.7-9.7v0c0-5.3-4.3-9.7-9.7-9.7H44.8
	C39.4,18.3,35.1,22.6,35.1,28L35.1,28z M14,18.5c5.2,0,9.5,4.3,9.5,9.5c0,5.2-4.3,9.5-9.5,9.5c-5.2,0-9.5-4.3-9.5-9.5
	C4.5,22.7,8.8,18.5,14,18.5z"/>
</svg>
