<svg xmlns="http://www.w3.org/2000/svg" xmlns:xlink="http://www.w3.org/1999/xlink" xmlns:serif="http://www.serif.com/" viewBox="0 0 138 134" version="1.1" xml:space="preserve" style="" x="0px" y="0px" fill-rule="evenodd" clip-rule="evenodd" stroke-linejoin="round" stroke-miterlimit="2"><path d="M132.992,109.083c-0,-5.346 -4.337,-9.683 -9.684,-9.683l-78.55,0c-5.346,0 -9.683,4.337 -9.683,9.683l0,0.009c0,5.346 4.337,9.683 9.683,9.683l78.55,0c5.347,0 9.684,-4.337 9.684,-9.683l-0,-0.009Zm-118.975,-9.504c5.247,0 9.508,4.261 9.508,9.508c0,5.248 -4.261,9.509 -9.508,9.509c-5.248,-0 -9.509,-4.261 -9.509,-9.508c0,-5.248 4.261,-9.509 9.509,-9.509Zm21.058,-31.035l0,-0c0,5.346 4.337,9.683 9.683,9.683l78.55,0c5.347,0 9.684,-4.337 9.684,-9.683l-0,-0.009c-0,-5.346 -4.337,-9.683 -9.684,-9.683l-78.55,0c-5.346,0 -9.683,4.337 -9.683,9.683l0,0.009Zm-21.058,-9.511c5.247,0 9.508,4.261 9.508,9.509c0,5.247 -4.261,9.508 -9.508,9.508c-5.248,0 -9.509,-4.261 -9.509,-9.508c0,-5.248 4.261,-9.509 9.509,-9.509Zm21.058,-31.037l0,-0c0,5.346 4.337,9.683 9.683,9.683l78.55,0c5.347,0 9.684,-4.337 9.684,-9.683l-0,-0.009c-0,-5.346 -4.337,-9.683 -9.684,-9.683l-78.55,0c-5.346,0 -9.683,4.337 -9.683,9.683l0,0.009Zm-21.058,-9.513c5.247,0 9.508,4.261 9.508,9.509c0,5.247 -4.261,9.508 -9.508,9.508c-5.248,-0 -9.509,-4.261 -9.509,-9.508c0,-5.248 4.261,-9.509 9.509,-9.509Z"></path></svg>