<svg xmlns="http://www.w3.org/2000/svg" viewBox="0 0 32 32" x="0px" y="0px"><title>Icon</title><g data-name="Layer 2"><path d="M29.29,10.67l-3-.76V6a.93.93,0,0,0-1.43-.79c-1.27.8-7.68,2.57-11.75,3.59H7.6A1.86,1.86,0,0,0,6,9.71H4.8A2.8,2.8,0,0,0,2,12.51v2.8a2.8,2.8,0,0,0,2.8,2.8H6A1.86,1.86,0,0,0,7.6,19h.2l1.7,7.21a.93.93,0,0,0,.91.72h3.73A.93.93,0,0,0,15,25.82l-1.58-6.69c4.08,1,10.15,2.73,11.37,3.5a.93.93,0,0,0,.49.14.93.93,0,0,0,.93-.93V17.9l3-.76a.93.93,0,0,0,.71-.91V11.57A.93.93,0,0,0,29.29,10.67ZM3.87,15.31v-2.8a.93.93,0,0,1,.93-.93h.93v4.67H4.8A.93.93,0,0,1,3.87,15.31ZM7.6,10.64h4.66v6.53H7.6ZM11.14,25.1,9.71,19h1.81L13,25.1ZM24.4,20.39c-2.82-1.08-8.23-2.5-10.27-3V10.43c2-.52,7.44-1.93,10.27-3v13Zm3.73-4.88L26.27,16V11.84l1.87.47Z"></path></g></svg>