<?xml version="1.0" encoding="utf-8"?>
<!-- Generator: Adobe Illustrator 24.0.1, SVG Export Plug-In . SVG Version: 6.00 Build 0)  -->
<svg version="1.1" id="Layer_1" xmlns="http://www.w3.org/2000/svg" xmlns:xlink="http://www.w3.org/1999/xlink" x="0px" y="0px"
	 viewBox="0 0 100 100" style="enable-background:new 0 0 100 100;" xml:space="preserve">
<title>Icon</title>
<g>
	<path d="M97.8,31L87,28.1v-14c0-1.8-1.4-3.2-3.2-3.2c-0.7,0-1.4,0-1.8,0.4c-4.7,2.9-27.6,9.3-42.3,12.9H20.1
		c-2.5,0-4.7,1.1-5.7,3.2H10c-5.4,0-10,4.7-10,10l0,0v10c0,5.4,4.7,10,10,10l0,0h4.3c1.1,2.2,3.2,3.2,5.7,3.2h0.7l6.1,25.8
		c0.4,1.4,1.8,2.5,3.2,2.5h13.3c1.8,0,3.2-1.8,3.2-3.6v-0.4l-5.7-24c14.7,3.6,36.2,9.7,40.9,12.5c0.4,0.4,1.1,0.4,1.8,0.4
		c1.8,0,3.2-1.4,3.2-3.2l0,0v-14l10.8-2.9c1.4-0.4,2.5-1.8,2.5-3.2V33.9C100,32.8,99.3,31.4,97.8,31z M6.8,47.5v-10
		c0-1.8,1.4-3.2,3.2-3.2l0,0h3.2v16.8H10C8.2,51.1,6.8,49.3,6.8,47.5L6.8,47.5z M20.1,30.6h16.8v23.3H20.1V30.6z M32.6,82.6l-5-21.9
		h6.5l5.4,21.9H32.6z M80.3,65.8c-10-3.9-29.4-9-36.9-10.8V29.9c7.2-1.8,26.5-6.8,36.9-10.8V65.8L80.3,65.8z M93.5,48.2L87.1,50
		V34.9l6.8,1.8L93.5,48.2z"/>
</g>
</svg>
