<?xml version="1.0" encoding="utf-8"?>
<!-- Generator: Adobe Illustrator 24.0.1, SVG Export Plug-In . SVG Version: 6.00 Build 0)  -->
<svg version="1.1" id="Layer_1" xmlns:serif="http://www.serif.com/"
	 xmlns="http://www.w3.org/2000/svg" xmlns:xlink="http://www.w3.org/1999/xlink" x="0px" y="0px" viewBox="0 0 100 100"
	 style="enable-background:new 0 0 100 100;" xml:space="preserve">
<style type="text/css">
	.st0{fill-rule:evenodd;clip-rule:evenodd;fill:#FFFFFF;}
</style>
<path class="st0" d="M99.4,81.2c0-4.1-3.3-7.5-7.5-7.5H31.5c-4.1,0-7.5,3.3-7.5,7.5l0,0c0,4.1,3.3,7.5,7.5,7.5H92
	C96.1,88.7,99.4,85.3,99.4,81.2L99.4,81.2z M7.8,73.9c4,0,7.3,3.3,7.3,7.3s-3.3,7.3-7.3,7.3s-7.3-3.3-7.3-7.3
	C0.5,77.1,3.8,73.9,7.8,73.9z M24.1,50L24.1,50c0,4.1,3.3,7.5,7.5,7.5H92c4.1,0,7.5-3.3,7.5-7.5l0,0c0-4.1-3.3-7.5-7.5-7.5H31.5
	C27.4,42.6,24.1,45.9,24.1,50L24.1,50z M7.8,42.7c4,0,7.3,3.3,7.3,7.3s-3.3,7.3-7.3,7.3S0.5,54,0.5,50S3.8,42.7,7.8,42.7z
	 M24.1,18.8L24.1,18.8c0,4.1,3.3,7.5,7.5,7.5H92c4.1,0,7.5-3.3,7.5-7.5l0,0c0-4.1-3.3-7.5-7.5-7.5H31.5
	C27.4,11.3,24.1,14.6,24.1,18.8L24.1,18.8z M7.8,11.5c4,0,7.3,3.3,7.3,7.3s-3.3,7.3-7.3,7.3s-7.3-3.3-7.3-7.3
	C0.5,14.7,3.8,11.5,7.8,11.5z"/>
</svg>
