<?xml version="1.0" encoding="utf-8"?>
<!-- Generator: Adobe Illustrator 24.0.1, SVG Export Plug-In . SVG Version: 6.00 Build 0)  -->
<svg version="1.1" id="Layer_1" xmlns="http://www.w3.org/2000/svg" xmlns:xlink="http://www.w3.org/1999/xlink" x="0px" y="0px"
	 viewBox="0 0 100 100" style="enable-background:new 0 0 100 100;" xml:space="preserve">
<style type="text/css">
	.st0{fill:#FFFFFF;}
</style>
<path class="st0" d="M40,95.4c0.5,0.5,1.3,0.5,1.7,0.5c1.3,0,2.1-0.5,3-1.3l16.7-16.7c0.8-0.8,1.3-1.7,1.3-3V51.7L95,11.2
	c0.8-1.3,1.3-3,0.5-4.6s-2.1-2.5-3.8-2.5H8.3c-1.7,0-3,0.8-3.8,2.5c-0.7,1.3-0.4,3,0.5,4.3l32.5,40.8v40
	C37.5,93.4,38.3,95.1,40,95.4z M17,12.5h65.9L55,47.5c-0.5,0.8-0.8,1.7-0.8,2.5v23.3l-8.3,8.3V50c0-0.8-0.5-1.7-0.8-2.5L17,12.5z"/>
</svg>
