<?xml version="1.0" encoding="utf-8"?>
<!-- Generator: Adobe Illustrator 24.0.1, SVG Export Plug-In . SVG Version: 6.00 Build 0)  -->
<svg version="1.1" id="Layer_1" xmlns="http://www.w3.org/2000/svg" xmlns:xlink="http://www.w3.org/1999/xlink" x="0px" y="0px"
	 viewBox="0 0 100 100" style="enable-background:new 0 0 100 100;" xml:space="preserve">
<style type="text/css">
	.st0{fill:#FFFFFF;}
</style>
<path class="st0" d="M39.2,99.1c0.5,0.5,1.4,0.5,1.8,0.5c1.4,0,2.3-0.5,3.2-1.4l18-18c0.9-0.9,1.4-1.8,1.4-3.2V51.8L98.7,8.1
	c0.9-1.4,1.4-3.2,0.5-5s-2.3-2.7-4.1-2.7H4.9c-1.8,0-3.2,0.9-4.1,2.7C0,4.5,0.4,6.3,1.3,7.7l35.1,44.1V95
	C36.5,96.9,37.4,98.7,39.2,99.1z M14.4,9.5h71.2L55.4,47.3c-0.5,0.9-0.9,1.8-0.9,2.7v25.2l-9,9V50c0-0.9-0.5-1.8-0.9-2.7L14.4,9.5z"
	/>
</svg>
