<svg xmlns="http://www.w3.org/2000/svg" data-name="Layer 1" viewBox="0 0 100 100" x="0px" y="0px"><title>07</title><g data-name="Group">
<path data-name="Compound Path" d="M3.1,14.8V76.3H9.9a11.8,11.8,0,0,0,22.9,0H67.1a11.8,11.8,0,0,0,22.9,0h6.9V53.8l-8.8-17H66.5v-22ZM21.4,79.2a5.9,5.9,0,1,1,5.8-5.9A5.8,5.8,0,0,1,21.4,79.2Zm0-17.7A11.8,11.8,0,0,0,9.9,70.3H9.1V20.8H60.5V70.3H32.8A11.7,11.7,0,0,0,21.4,61.5ZM78.5,79.2a5.9,5.9,0,1,1,5.9-5.9A5.8,5.8,0,0,1,78.5,79.2ZM90,70.3a11.8,11.8,0,0,0-22.9,0h-.6V57.7H90.9V70.3ZM84.5,42.8,89,51.7H66.5V42.8Z" fill="#ffffff"></path></g></svg>