<?xml version="1.0" encoding="utf-8"?>
<!-- Generator: Adobe Illustrator 24.0.1, SVG Export Plug-In . SVG Version: 6.00 Build 0)  -->
<svg version="1.1" id="Layer_1" xmlns="http://www.w3.org/2000/svg" xmlns:xlink="http://www.w3.org/1999/xlink" x="0px" y="0px"
	 viewBox="0 0 24 24" style="enable-background:new 0 0 24 24;" xml:space="preserve">
<style type="text/css">
	.st0{fill:#515151;}
</style>
<path class="st0" d="M9.6,22.9C9.7,23,9.9,23,10,23c0.3,0,0.5-0.1,0.7-0.3l4-4c0.2-0.2,0.3-0.4,0.3-0.7v-5.6l7.8-9.7
	c0.2-0.3,0.3-0.7,0.1-1.1C22.7,1.2,22.4,1,22,1H2C1.6,1,1.3,1.2,1.1,1.6C0.9,1.9,1,2.3,1.2,2.6L9,12.4V22C9,22.4,9.2,22.8,9.6,22.9z
	 M4.1,3h15.8l-6.7,8.4C13.1,11.6,13,11.8,13,12v5.6l-2,2V12c0-0.2-0.1-0.4-0.2-0.6L4.1,3z"/>
</svg>
