<?xml version="1.0" encoding="utf-8"?>
<!-- Generator: Adobe Illustrator 24.0.1, SVG Export Plug-In . SVG Version: 6.00 Build 0)  -->
<svg version="1.1" id="Layer_1" xmlns="http://www.w3.org/2000/svg" xmlns:xlink="http://www.w3.org/1999/xlink" x="0px" y="0px"
	 viewBox="0 0 32 32" style="enable-background:new 0 0 32 32;" xml:space="preserve">
<style type="text/css">
	.st0{fill:#515151;}
</style>
<title>Icon</title>
<g>
	<path class="st0" d="M29.3,10.7l-3-0.8V6c0-0.5-0.4-0.9-0.9-0.9c-0.2,0-0.4,0-0.5,0.1C23.6,6,17.2,7.8,13.1,8.8H7.6
		C6.9,8.8,6.3,9.1,6,9.7H4.8C3.3,9.7,2,11,2,12.5l0,0v2.8c0,1.5,1.3,2.8,2.8,2.8c0,0,0,0,0,0H6C6.3,18.7,6.9,19,7.6,19h0.2l1.7,7.2
		c0.1,0.4,0.5,0.7,0.9,0.7h3.7c0.5,0,0.9-0.5,0.9-1c0,0,0-0.1,0-0.1l-1.6-6.7c4.1,1,10.1,2.7,11.4,3.5c0.1,0.1,0.3,0.1,0.5,0.1
		c0.5,0,0.9-0.4,0.9-0.9l0,0v-3.9l3-0.8c0.4-0.1,0.7-0.5,0.7-0.9v-4.7C29.9,11.2,29.7,10.8,29.3,10.7z M3.9,15.3v-2.8
		c0-0.5,0.4-0.9,0.9-0.9l0,0h0.9v4.7H4.8C4.3,16.3,3.9,15.8,3.9,15.3C3.9,15.3,3.9,15.3,3.9,15.3z M7.6,10.6h4.7v6.5H7.6V10.6z
		 M11.1,25.1L9.7,19h1.8l1.5,6.1H11.1z M24.4,20.4c-2.8-1.1-8.2-2.5-10.3-3v-7c2-0.5,7.4-1.9,10.3-3V20.4L24.4,20.4z M28.1,15.5
		L26.3,16v-4.2l1.9,0.5L28.1,15.5z"/>
</g>
</svg>
