<?xml version="1.0" encoding="utf-8"?>
<!-- Generator: Adobe Illustrator 24.0.1, SVG Export Plug-In . SVG Version: 6.00 Build 0)  -->
<svg version="1.1" id="Layer_1" xmlns="http://www.w3.org/2000/svg" xmlns:xlink="http://www.w3.org/1999/xlink" x="0px" y="0px"
	 viewBox="0 0 100 100" style="enable-background:new 0 0 100 100;" xml:space="preserve">
<style type="text/css">
	.st0{fill:#515151;}
</style>
<title>07</title>
<g>
	<path class="st0" d="M0.5,14.5v64.9h7.2c1.7,6.7,8.4,10.8,15.1,9.1c4.4-1.2,7.9-4.6,9.1-9.1h36.2c1.7,6.7,8.4,10.8,15.1,9.1
		c4.4-1.2,7.9-4.6,9.1-9.1h7.3V55.7l-9.3-18H67.4V14.5L0.5,14.5z M19.8,82.5c-3.5,0.1-6.2-2.6-6.3-6.1c-0.1-3.5,2.6-6.2,6.1-6.3
		s6.2,2.6,6.3,6.1v0.1c0.1,3.4-2.6,6.1-6,6.2H19.8z M19.8,63.8c-5.7,0-10.7,3.8-12.1,9.3H6.8V20.9h54.3v52.3H31.8
		C30.5,67.6,25.5,63.8,19.8,63.8z M80.1,82.5c-3.5,0-6.2-2.7-6.2-6.2c0-3.5,2.7-6.2,6.2-6.2s6.2,2.7,6.2,6.2c0.1,3.4-2.6,6.1-6,6.2
		C80.2,82.5,80.2,82.5,80.1,82.5z M92.2,73.1c-1.7-6.7-8.4-10.8-15.1-9.1c-4.4,1.2-7.9,4.6-9.1,9.1h-0.6V59.8h25.8v13.3H92.2z
		 M86.4,44.1l4.8,9.4H67.4v-9.4C67.4,44.1,86.4,44.1,86.4,44.1z"/>
</g>
</svg>
