<?xml version="1.0" encoding="utf-8"?>
<!-- Generator: Adobe Illustrator 24.0.1, SVG Export Plug-In . SVG Version: 6.00 Build 0)  -->
<svg version="1.1"
	 id="Layer_1" xmlns:cc="http://creativecommons.org/ns#" xmlns:dc="http://purl.org/dc/elements/1.1/" xmlns:inkscape="http://www.inkscape.org/namespaces/inkscape" xmlns:rdf="http://www.w3.org/1999/02/22-rdf-syntax-ns#" xmlns:sodipodi="http://sodipodi.sourceforge.net/DTD/sodipodi-0.dtd" xmlns:svg="http://www.w3.org/2000/svg"
	 xmlns="http://www.w3.org/2000/svg" xmlns:xlink="http://www.w3.org/1999/xlink" x="0px" y="0px" viewBox="0 0 15.1 15.1"
	 style="enable-background:new 0 0 15.1 15.1;" xml:space="preserve">
<style type="text/css">
	.st0{fill-rule:evenodd;clip-rule:evenodd;fill:#515151;}
</style>
<g>
	<path class="st0" d="M7.5,0C3.4,0,0,3.4,0,7.5S3.4,15,7.5,15S15,11.6,15,7.5S11.7,0,7.5,0z M7.5,1.3c3.5,0,6.3,2.8,6.3,6.3
		s-2.8,6.3-6.3,6.3s-6.3-2.8-6.3-6.3C1.3,4.1,4.1,1.3,7.5,1.3z M10.6,4.5c-0.2,0-0.3,0.1-0.4,0.2L6.5,9L4.8,7.2C4.6,7,4.2,7,3.9,7.2
		l0,0c-0.2,0.2-0.2,0.6,0,0.9l2.2,2.3c0.2,0.2,0.6,0.3,0.9,0l0,0l4.1-4.8c0.2-0.3,0.2-0.7-0.1-0.9C11,4.6,10.8,4.5,10.6,4.5
		L10.6,4.5z"/>
</g>
</svg>
