<svg xmlns="http://www.w3.org/2000/svg" xmlns:xlink="http://www.w3.org/1999/xlink" version="1.1" x="0px" y="0px" viewBox="0 0 24 24" style="enable-background:new 0 0 24 24;fill: #ffffff" xml:space="preserve"><path d="M9.6171875,22.9238281C9.7412109,22.9755859,9.8710938,23,10,23c0.2597656,0,0.515625-0.1015625,0.7070313-0.2929688l4-4  C14.8945313,18.5195313,15,18.265625,15,18v-5.6494141L22.78125,2.625c0.2402344-0.3007813,0.2861328-0.7119141,0.1201172-1.0585938  C22.734375,1.2207031,22.3847656,1,22,1H2C1.6152344,1,1.265625,1.2207031,1.0986328,1.5664063  C0.9326172,1.9130859,0.9785156,2.3242188,1.21875,2.625L9,12.3505859V22C9,22.4042969,9.2431641,22.7695313,9.6171875,22.9238281z   M4.0810547,3h15.8378906L13.21875,11.375C13.0771484,11.5527344,13,11.7724609,13,12v5.5859375l-2,2V12  c0-0.2275391-0.0771484-0.4472656-0.21875-0.625L4.0810547,3z"></path></svg>