<?xml version="1.0" encoding="utf-8"?>
<!-- Generator: Adobe Illustrator 24.0.1, SVG Export Plug-In . SVG Version: 6.00 Build 0)  -->
<svg version="1.1" id="Layer_1" xmlns="http://www.w3.org/2000/svg" xmlns:xlink="http://www.w3.org/1999/xlink" x="0px" y="0px"
	 viewBox="0 0 100 100" style="enable-background:new 0 0 100 100;" xml:space="preserve">
<style type="text/css">
	.st0{fill:#FFFFFF;}
</style>
<g>
	<path class="st0" d="M50,0.4C22.7,0.4,0.4,22.7,0.4,50S22.7,99.6,50,99.6c4.7,0,8.3-3.9,8.3-8.3c0-1.9-0.8-3.9-2.2-5.5
		c-3-3.3-2.8-8.5,0.6-11.6c1.7-1.4,3.6-2.2,5.5-2.2H72c15.2,0,27.5-12.4,27.5-27.5C99.6,20.2,77.3,0.4,50,0.4z M72,63.8h-9.6
		c-9.1,0-16.5,7.4-16.5,16.5c0,4.1,1.4,8,4.1,11C27.1,91.3,8.7,72.9,8.7,50S27.1,8.7,50,8.7s41.3,16,41.3,35.8
		C91.3,55.2,82.8,63.8,72,63.8z"/>
	<circle class="st0" cx="22.5" cy="44.5" r="8.3"/>
	<circle class="st0" cx="39" cy="28" r="8.3"/>
	<circle class="st0" cx="61" cy="28" r="8.3"/>
	<circle class="st0" cx="77.5" cy="44.5" r="8.3"/>
</g>
</svg>
