<?xml version="1.0" encoding="utf-8"?>
<!-- Generator: Adobe Illustrator 24.0.1, SVG Export Plug-In . SVG Version: 6.00 Build 0)  -->
<svg version="1.1" id="Layer_1" xmlns="http://www.w3.org/2000/svg" xmlns:xlink="http://www.w3.org/1999/xlink" x="0px" y="0px"
	 viewBox="0 0 391.72 89.36" style="enable-background:new 0 0 391.72 89.36;" xml:space="preserve">
<style type="text/css">
	.st0{fill:#088AFF;}
	.st1{fill:#FFFFFF;}
</style>
<g>
	<g>
		<path class="st0" d="M323.21,59.46c0,0-30.99,30.04-132.22,5.59c0,0,81.2,46.04,155.06,9.06
			C346.06,74.12,331.81,73.07,323.21,59.46z"/>
		<path class="st1" d="M19.01,52.32c3.77,0,5.66-1.08,5.66-3.37c0-1.82-3.1-3.3-9.23-4.38c-7.89-1.42-11.93-4.92-12-10.51
			c0-7.68,6.07-11.32,14.22-11.46c4.58,0,8.22,1.01,10.92,3.03c2.63,2.09,4.04,4.99,4.25,8.69h-5.66c-2.09-0.07-3.44-0.81-3.98-2.22
			c-0.61-1.55-2.43-2.43-5.39-2.43c-3.5,0-5.26,0.94-5.26,2.76c0,1.82,2.29,3.24,6.94,4.11c6.07,1.21,10.04,2.76,12,4.58
			c1.68,1.75,2.49,3.91,2.49,6.34c0,8.76-6.87,12-16.31,12c-4.99,0-8.76-1.08-11.19-3.17c-2.7-2.02-4.04-5.12-4.04-9.23h9.17
			C11.8,50.97,14.63,52.32,19.01,52.32z"/>
		<path class="st1" d="M47.79,29.54h-0.94v9.4v10.35c0,1.48,0.88,2.29,2.63,2.29h2.76v6.81c-2.9,0.27-6.07,0.27-9.44-0.07
			c-3.37-0.34-4.99-2.43-4.92-6.4V12.96h4.65c2.36,0,4.31,2.16,4.31,4.52v5.66h5.39v1.95C52.24,27.65,50.29,29.54,47.79,29.54z"/>
		<path class="st1" d="M56.02,40.39c0.27-11.53,6.4-17.25,18.33-17.25h1.28v9.3H72.6c-4.99,0-7.48,2.63-7.48,7.82v18.54h-9.1V40.39z
			"/>
		<path class="st1" d="M95.71,59.6c-10.78-0.34-16.18-6.6-16.18-18.74c0-12.13,5.46-18.2,16.31-18.27
			c11.32,0,16.65,6.94,15.97,20.89H88.77c0.34,5.46,2.7,8.22,7.08,8.22c2.09,0,4.04-0.88,5.8-2.56c0.81-0.88,1.82-1.28,3.03-1.28
			h6.61C109.33,55.42,104.48,59.6,95.71,59.6z M88.91,37.09h13.41c-0.54-4.72-2.76-7.14-6.61-7.14
			C91.87,29.94,89.58,32.37,88.91,37.09z"/>
		<path class="st1" d="M131.57,52.32c3.77,0,5.66-1.08,5.66-3.37c0-1.82-3.1-3.3-9.23-4.38c-7.89-1.42-11.93-4.92-12-10.51
			c0-7.68,6.07-11.32,14.22-11.46c4.58,0,8.22,1.01,10.92,3.03c2.63,2.09,4.04,4.99,4.25,8.69h-5.66c-2.09-0.07-3.44-0.81-3.98-2.22
			c-0.61-1.55-2.43-2.43-5.39-2.43c-3.5,0-5.26,0.94-5.26,2.76c0,1.82,2.29,3.24,6.94,4.11c6.07,1.21,10.04,2.76,12,4.58
			c1.68,1.75,2.49,3.91,2.49,6.34c0,8.76-6.87,12-16.31,12c-4.99,0-8.76-1.08-11.19-3.17c-2.7-2.02-4.04-5.12-4.04-9.23h9.17
			C124.36,50.97,127.19,52.32,131.57,52.32z"/>
		<path class="st1" d="M166.01,52.32c3.77,0,5.66-1.08,5.66-3.37c0-1.82-3.1-3.3-9.23-4.38c-7.89-1.42-11.93-4.92-12-10.51
			c0-7.68,6.07-11.32,14.22-11.46c4.58,0,8.22,1.01,10.92,3.03c2.63,2.09,4.04,4.99,4.25,8.69h-5.66c-2.09-0.07-3.44-0.81-3.98-2.22
			c-0.61-1.55-2.43-2.43-5.39-2.43c-3.5,0-5.26,0.94-5.26,2.76c0,1.82,2.29,3.24,6.94,4.11c6.07,1.21,10.04,2.76,12,4.58
			c1.68,1.75,2.49,3.91,2.49,6.34c0,8.76-6.87,12-16.31,12c-4.99,0-8.76-1.08-11.19-3.17c-2.7-2.02-4.04-5.12-4.04-9.23h9.17
			C158.8,50.97,161.63,52.32,166.01,52.32z"/>
		<path class="st1" d="M193.85,28.12c2.29-3.71,5.66-5.53,10.11-5.53c9.5,0.34,14.22,6.54,14.22,18.67
			c0,11.86-5.53,17.86-16.58,18.06c-11.12,0.07-16.72-5.26-16.72-15.97v-30.4h4.52c2.97,0,4.45,1.55,4.45,4.52V28.12z M193.85,40.86
			c-0.07,7.21,2.36,10.85,7.48,10.85c5.12,0,7.68-3.64,7.68-10.85c-0.2-6.87-2.7-10.24-7.55-10.24S194.12,33.99,193.85,40.86z"/>
		<path class="st1" d="M231.45,32.44h-8.96c1.08-6.61,5.73-9.84,13.95-9.84c9.84,0,14.83,3.24,15.03,9.84v12.13
			c0,9.84-5.93,14.22-15.57,14.9c-8.56,0.67-14.49-3.3-14.49-11.19c0.2-8.56,6.4-10.85,15.43-11.73c3.84-0.47,5.8-1.62,5.8-3.57
			c-0.2-2.02-2.09-3.03-5.8-3.03C233.68,29.94,231.93,30.75,231.45,32.44z M242.78,44.16v-3.3c-2.09,0.88-4.52,1.62-7.14,2.16
			c-3.57,0.67-5.39,2.36-5.39,4.99c0.2,2.83,1.69,4.18,4.52,4.18C239.74,52.18,242.78,49.22,242.78,44.16z"/>
		<path class="st1" d="M266.1,17.34v41.45h-8.96V12.96h4.65C264.14,12.96,266.1,14.98,266.1,17.34z"/>
		<path class="st1" d="M281.46,17.34v41.45h-8.96V12.96h4.65C279.51,12.96,281.46,14.98,281.46,17.34z"/>
		<path class="st1" d="M302.09,52.32c3.77,0,5.66-1.08,5.66-3.37c0-1.82-3.1-3.3-9.23-4.38c-7.89-1.42-11.93-4.92-12-10.51
			c0-7.68,6.07-11.32,14.22-11.46c4.58,0,8.22,1.01,10.92,3.03c2.63,2.09,4.04,4.99,4.25,8.69h-5.66c-2.09-0.07-3.44-0.81-3.98-2.22
			c-0.61-1.55-2.43-2.43-5.39-2.43c-3.5,0-5.26,0.94-5.26,2.76c0,1.82,2.29,3.24,6.94,4.11c6.07,1.21,10.04,2.76,12,4.58
			c1.68,1.75,2.49,3.91,2.49,6.34c0,8.76-6.87,12-16.31,12c-4.99,0-8.76-1.08-11.19-3.17c-2.7-2.02-4.04-5.12-4.04-9.23h9.17
			C294.87,50.97,297.7,52.32,302.09,52.32z"/>
		<path class="st0" d="M386.5,34.75c0,18.01-14.6,32.62-32.62,32.62c-18.01,0-32.62-14.61-32.62-32.62s14.6-32.62,32.62-32.62
			C371.9,2.14,386.5,16.74,386.5,34.75z"/>
		<g>
			<path class="st1" d="M324.19,38.57c-0.09-0.73,0.08-1.32,0.52-1.81c0.44-0.48,1.01-0.72,1.72-0.67c0.71,0.05,1.35,0.37,1.91,0.99
				c0.56,0.63,0.88,1.38,0.95,2.21c0.08,0.83-0.11,1.5-0.54,1.98c-0.44,0.48-1.01,0.63-1.71,0.47c-0.7-0.15-1.32-0.56-1.88-1.18
				C324.6,39.93,324.28,39.28,324.19,38.57z"/>
			<path class="st1" d="M341.36,43.91c-0.49,0.4-1,0.67-1.54,0.82c-0.54,0.15-1.14,0.18-1.79,0.1c-2-0.24-3.66-1.36-5.03-3.16
				c-1.37-1.8-2.16-3.89-2.36-6.43c-0.19-2.49,0.3-4.55,1.52-6.34c1.21-1.79,2.9-2.92,5.04-3.17c0.71-0.09,1.35-0.06,1.93,0.06
				c0.57,0.13,1.12,0.37,1.65,0.73c0.05,1.79,0.1,3.59,0.15,5.39c-0.42-0.56-0.9-0.99-1.45-1.27c-0.54-0.28-1.11-0.4-1.71-0.36
				c-1.08,0.07-1.92,0.57-2.52,1.47c-0.59,0.9-0.85,2.03-0.76,3.43c0.08,1.43,0.47,2.58,1.16,3.47c0.69,0.89,1.58,1.39,2.67,1.46
				c0.61,0.03,1.13-0.1,1.59-0.38c0.45-0.29,0.87-0.76,1.24-1.42C341.22,40.18,341.29,42.05,341.36,43.91z"/>
			<path class="st1" d="M357.4,35.06c-0.05,3.33-0.77,6.12-2.13,8.37c-1.37,2.26-3.06,3.41-5.1,3.37c-2.06-0.04-3.77-1.24-5.16-3.5
				c-1.39-2.25-2.14-4.98-2.22-8.23c-0.08-3.24,0.55-5.97,1.92-8.24c1.37-2.28,3.17-3.5,5.34-3.53c2.18-0.04,3.98,1.11,5.36,3.35
				C356.79,28.89,357.44,31.69,357.4,35.06z M353.53,35.02c0.01-1.79-0.3-3.22-0.93-4.29c-0.63-1.06-1.48-1.6-2.54-1.59
				c-1.07,0.01-1.91,0.55-2.52,1.61c-0.61,1.06-0.9,2.48-0.87,4.26c0.03,1.77,0.35,3.19,0.97,4.26c0.62,1.08,1.44,1.63,2.48,1.63
				c1.02,0.01,1.85-0.53,2.47-1.6C353.2,38.24,353.52,36.81,353.53,35.02z"/>
			<path class="st1" d="M363.06,45.48c-1.23,0.12-2.46,0.23-3.69,0.31c0.15-7.13,0.3-14.26,0.45-21.39c1.3,0.09,2.6,0.2,3.9,0.33
				c-0.03,1.09-0.07,2.17-0.1,3.25c0.68-1.32,1.39-2.24,2.14-2.78c0.75-0.54,1.59-0.73,2.51-0.59c1.11,0.17,2,0.65,2.65,1.4
				c0.66,0.75,1.09,1.78,1.3,3.08c0.69-1.18,1.44-1.99,2.27-2.46c0.83-0.46,1.71-0.57,2.64-0.35c0.94,0.22,1.72,0.63,2.33,1.19
				c0.61,0.56,1.05,1.27,1.32,2.12c0.14,0.46,0.22,0.96,0.24,1.51c0.02,0.54-0.03,1.35-0.15,2.42c-0.02,0.16-0.03,0.31-0.05,0.47
				c-0.32,2.86-0.64,5.71-0.95,8.57c-1.2,0.3-2.42,0.58-3.63,0.84c0.23-2.71,0.47-5.41,0.7-8.12c0.17-2,0.13-3.34-0.14-4.04
				c-0.27-0.7-0.81-1.12-1.62-1.22c-0.98-0.12-1.73,0.29-2.24,1.26c-0.51,0.97-0.83,2.64-0.97,4.97c-0.17,2.7-0.34,5.39-0.51,8.09
				c-1.22,0.22-2.44,0.41-3.67,0.58c0.16-3.22,0.31-6.45,0.47-9.68c0.11-2.3,0.03-3.86-0.23-4.7c-0.27-0.84-0.78-1.3-1.52-1.35
				c-1.02-0.08-1.78,0.44-2.28,1.58c-0.5,1.13-0.78,3-0.87,5.58C363.25,39.39,363.16,42.44,363.06,45.48z"/>
		</g>
		<path class="st1" d="M346.79,7.69c0,0-0.7,0.12-1.82,0.43c-3.69,0.99-11.89,3.9-14.37,10.63h3.62l11.87-10.93"/>
	</g>
	<g>
		<path class="st0" d="M379.66,3.2h-1.62V2.81c0-0.16,0.06-0.29,0.17-0.41c0.11-0.11,0.24-0.17,0.4-0.17h3.78V3.2h-1.62v4.49h-1.12
			V3.2z"/>
		<path class="st0" d="M382.91,2.81c0-0.16,0.06-0.29,0.17-0.41c0.11-0.11,0.24-0.17,0.4-0.17h1.08l1.1,4.16l1.07-4.16h1.67v5.46
			h-1.05V3.28l-1.11,4.41h-1.15l-1.11-4.41v4.41h-1.05V2.81z"/>
	</g>
</g>
</svg>
