<?xml version="1.0" encoding="utf-8"?>
<!-- Generator: Adobe Illustrator 24.0.1, SVG Export Plug-In . SVG Version: 6.00 Build 0)  -->
<svg version="1.1" id="Layer_1" xmlns="http://www.w3.org/2000/svg" xmlns:xlink="http://www.w3.org/1999/xlink" x="0px" y="0px"
	 viewBox="0 0 50 50" style="enable-background:new 0 0 50 50;" xml:space="preserve">
<style type="text/css">
	.st0{fill:#545454;}
</style>
<g>
	<g>
		<path class="st0" d="M0.1,19c0.1,0.1,0.3,0.2,0.4,0.2c7,5.6,14,11.2,21,16.8c0.2,0.1,0.3,0.3,0.5,0.4c1-0.8,1.9-1.6,2.9-2.3
			c2.8-2.2,5.5-4.4,8.3-6.7c0.2-0.2,0.4-0.2,0.6-0.1c3.1,1.5,6.3,1.8,9.7,0.8c0.1,0,0.2,0,0.2-0.1c0,0,0,0,0.1,0c0,5,0,10.1,0,15.2
			c-14.6,0-29.2,0-43.7,0C0.1,35.2,0.1,27.1,0.1,19z"/>
		<path class="st0" d="M39.7,25.8c-5.6,0-10.2-4.6-10.2-10.2c0-5.6,4.6-10.2,10.2-10.2c5.6,0,10.2,4.6,10.2,10.2
			C49.9,21.2,45.3,25.8,39.7,25.8z M38.2,11.2c0,2.9,0,5.8,0,8.7c1,0,1.9,0,2.8,0c0-2.9,0-5.8,0-8.7C40.1,11.2,39.2,11.2,38.2,11.2z
			"/>
		<path class="st0" d="M31,25.4c-1.1,0.9-2.2,1.8-3.3,2.6c-1.8,1.4-3.6,2.9-5.4,4.3c-0.2,0.2-0.4,0.2-0.7,0
			c-6.3-5-12.6-10.1-18.9-15.1c-0.1-0.1-0.2-0.1-0.3-0.3c8.1,0,16.1,0,24.1,0c0.2,1.6,0.7,3.1,1.4,4.6C28.8,23.1,29.7,24.3,31,25.4z
			"/>
	</g>
</g>
</svg>
