<?xml version="1.0" encoding="utf-8"?>
<!-- Generator: Adobe Illustrator 24.0.1, SVG Export Plug-In . SVG Version: 6.00 Build 0)  -->
<svg version="1.1" id="Layer_1" xmlns="http://www.w3.org/2000/svg" xmlns:xlink="http://www.w3.org/1999/xlink" x="0px" y="0px"
	 viewBox="0 0 448 512" style="enable-background:new 0 0 448 512;" xml:space="preserve">
<style type="text/css">
	.st0{fill:#FFFFFF;}
</style>
<path class="st0" d="M412.5,112.7h-12.4c-8.7,0-15.8,7.1-15.8,15.8v146.9H93.8l99.7-99.2c5.6-5.6,5.6-14.6,0-20.2l-8.4-8.4
	c-5.6-5.6-14.6-5.6-20.2,0L26.6,285.5c-5.6,5.6-5.6,14.6,0,20.2L165,443.5c5.6,5.6,14.6,5.6,20.2,0l8.4-8.4c5.6-5.6,5.6-14.6,0-20.2
	l-99.7-99.2h320.2c1.1,0,3.2,0,3.2,0h11.1v-14.3v-11.9V128.5C428.3,119.7,421.2,112.7,412.5,112.7z"/>
</svg>
