<?xml version="1.0" encoding="utf-8"?>
<!-- Generator: Adobe Illustrator 24.0.1, SVG Export Plug-In . SVG Version: 6.00 Build 0)  -->
<svg version="1.1" id="Layer_1" xmlns="http://www.w3.org/2000/svg" xmlns:xlink="http://www.w3.org/1999/xlink" x="0px" y="0px"
	 viewBox="0 0 448 512" style="enable-background:new 0 0 448 512;" xml:space="preserve">
<style type="text/css">
	.st0{fill:#606060;}
</style>
<path class="st0" d="M152.5,396.3l19.6-19.6c4.8-4.8,4.7-12.5-0.2-17.1L91.2,282H436c6.6,0,12-5.4,12-12v-28c0-6.6-5.4-12-12-12
	H91.2l80.7-77.5c4.8-4.7,4.9-12.4,0.2-17.1l-19.6-19.6c-4.7-4.7-12.3-4.7-17,0L3.7,247.5c-4.7,4.7-4.7,12.3,0,17l131.8,131.8
	C140.2,401,147.8,401,152.5,396.3L152.5,396.3z"/>
</svg>
