<?xml version="1.0" encoding="utf-8"?>
<!-- Generator: Adobe Illustrator 24.0.1, SVG Export Plug-In . SVG Version: 6.00 Build 0)  -->
<svg version="1.1" id="Capa_1" xmlns="http://www.w3.org/2000/svg" xmlns:xlink="http://www.w3.org/1999/xlink" x="0px" y="0px"
	 viewBox="0 0 800 800" style="enable-background:new 0 0 800 800;" xml:space="preserve">
<style type="text/css">
	.st0{fill:#979EA8;}
</style>
<g>
	<path class="st0" d="M612.3,155.4c0-24.9-9.9-48.9-27.5-66.5l-61.4-61.4C505.8,9.9,481.8,0,456.9,0H236.6c-27,0-49,22-49,49v157.4
		h424.8L612.3,155.4L612.3,155.4z"/>
	<path class="st0" d="M50.9,671.7h84.2V501.4h52.5h424.8h52.5v170.3h84.2c27,0,49-22,49-49v-310c0-27-22-49-49-49H612.3H187.6H50.9
		c-27,0-49,22-49,49v310C1.9,649.8,23.8,671.7,50.9,671.7z M128.5,330.6c28.4,0,51.5,23,51.5,51.5c0,28.4-23,51.5-51.5,51.5
		S77,410.5,77,382C77,353.6,100,330.6,128.5,330.6z"/>
	<path class="st0" d="M615.9,775.6v-46.7v-28.6v-28.6V550.4h-10.2H194.2H184v121.2v28.6v28.6v46.7c0,13.5,11,24.5,24.5,24.5h382.8
		C604.9,800.1,615.9,789.1,615.9,775.6z M293.8,650.7h212.4c12.3,0,22.5,9.1,24.3,20.9c0.2,1.1,0.2,2.4,0.2,3.6
		c0,13.6-10.9,24.5-24.5,24.5H293.8c-13.6,0-24.5-10.9-24.5-24.5c0-1.2,0.1-2.4,0.2-3.6C271.2,659.8,281.4,650.7,293.8,650.7z"/>
</g>
</svg>
