<?xml version="1.0" encoding="utf-8"?>
<!-- Generator: Adobe Illustrator 24.0.1, SVG Export Plug-In . SVG Version: 6.00 Build 0)  -->
<svg version="1.1" id="Layer_1" xmlns="http://www.w3.org/2000/svg" xmlns:xlink="http://www.w3.org/1999/xlink" x="0px" y="0px"
	 viewBox="0 0 88.8 52.9" style="enable-background:new 0 0 88.8 52.9;" xml:space="preserve">
<style type="text/css">
	.st0{fill:#091282;}
</style>
<g>
	<g>
		<path class="st0" d="M62.7,36.2c0.5-1,0.8-2,1.3-3c2.9-7.1,5.9-14.2,8.9-21.3c0.2-0.5,0.5-0.9,0.8-1.4c0.6-0.8,1.4-1.2,2.4-1.2
			c1.9,0,3.7,0,5.6,0c0.3,0,0.3,0.1,0.3,0.3c0.5,2.4,1,4.8,1.5,7.2c0.9,4.3,1.9,8.6,2.7,12.9c0.5,2.1,0.8,4.2,1.3,6.3
			c-0.1,0-0.2,0-0.3,0c-1.9,0-3.8,0-5.7,0c-0.2,0-0.3-0.1-0.5-0.3c-0.2-1.2-0.5-2.2-0.7-3.4c0-0.2-0.1-0.3-0.5-0.3
			c-2.8,0-5.5,0-8.3,0c-0.2,0-0.3,0.1-0.5,0.3c-0.3,1.2-0.8,2.3-1.2,3.5c0,0.1-0.1,0.2-0.3,0.2C67.4,36.1,65.1,36.1,62.7,36.2
			C62.8,36.3,62.8,36.3,62.7,36.2z M77.1,16.8L77.1,16.8c-1.3,3.4-2.4,6.6-3.7,10c2,0,3.8,0,5.8,0C78.6,23.4,77.8,20.1,77.1,16.8z"
			/>
		<path class="st0" d="M1.8,10.2c0-0.2,0.1-0.6,0.1-0.8c0.1,0,0.2,0,0.3,0c3.6,0,7.3,0,11,0c0.3,0,0.7,0,1,0.1
			c1.4,0.3,2.2,1.3,2.6,2.8c0.9,5.1,2,10.1,2.9,15.2c0,0,0,0.1,0.1,0.1c0.1-0.1,0.1-0.2,0.1-0.3c2.3-5.8,4.7-11.8,7-17.6
			c0.1-0.2,0.2-0.3,0.5-0.3c2.2,0,4.3,0,6.5,0c0.1,0,0.2,0,0.3,0c0,0.1-0.1,0.2-0.1,0.3c-3.6,8.7-7.3,17.5-11,26.2
			c-0.1,0.2-0.2,0.3-0.5,0.3c-2.2,0-4.4,0-6.5,0c-0.3,0-0.5-0.1-0.5-0.3c-1.9-7-3.6-14.1-5.5-21.1c-0.3-1.3-1-2.1-2.2-2.6
			c-1.9-0.8-3.8-1.4-5.8-1.9C2,10.3,1.9,10.2,1.8,10.2z"/>
		<path class="st0" d="M63.1,15.8c-0.7-0.2-1.4-0.5-2.1-0.7c-1.5-0.5-3.1-0.7-4.8-0.5c-0.8,0.1-1.6,0.3-2.3,0.9
			c-0.9,0.8-0.9,1.7-0.1,2.6c0.6,0.5,1.2,0.9,1.7,1.3c1.2,0.7,2.4,1.4,3.7,2.1c0.9,0.6,1.6,1.3,2.3,2.1c0.9,1.2,1.4,2.6,1.3,4.1
			c-0.1,3.7-2,6.2-5.2,7.8c-1.7,0.8-3.6,1.2-5.6,1.3c-2.9,0.1-5.7-0.3-8.5-1.3c-0.1,0-0.2-0.1-0.3-0.1c0.5-2,0.8-3.8,1.3-5.8
			c0.2,0.1,0.6,0.2,0.8,0.3c1.9,0.8,3.8,1.3,5.9,1.4c1.2,0,2.3-0.1,3.3-0.8c0.6-0.3,1-0.8,1.2-1.6c0.1-0.6,0-1.2-0.5-1.5
			c-0.5-0.5-1-0.9-1.6-1.3c-1.3-0.8-2.6-1.5-3.8-2.2c-0.9-0.6-1.7-1.3-2.3-2.1c-1-1.4-1.4-2.9-1.3-4.5c0.3-3.5,2.6-5.7,5.7-7
			c2.3-0.9,4.7-1.2,7.1-1c1.6,0.1,3.3,0.5,4.8,0.9c0.5,0.1,0.5,0.1,0.3,0.6C63.9,12.3,63.4,14.1,63.1,15.8z"/>
		<path class="st0" d="M31.6,36.2c1.9-9,3.8-17.8,5.7-26.8c2.3,0,4.5,0,6.9,0c-0.1,0.8-0.3,1.6-0.5,2.4c-1,4.7-2,9.3-3,14.1
			c-0.7,3.4-1.4,6.8-2.1,10.1c0,0.2-0.1,0.2-0.3,0.2c-2.1,0-4.2,0-6.4,0C31.7,36.3,31.7,36.3,31.6,36.2z"/>
	</g>
</g>
</svg>
