<?xml version="1.0" encoding="utf-8"?>
<!-- Generator: Adobe Illustrator 24.0.1, SVG Export Plug-In . SVG Version: 6.00 Build 0)  -->
<svg version="1.1" id="Layer_1" xmlns="http://www.w3.org/2000/svg" xmlns:xlink="http://www.w3.org/1999/xlink" x="0px" y="0px"
	 viewBox="0 0 88.8 52.9" style="enable-background:new 0 0 88.8 52.9;" xml:space="preserve">
<style type="text/css">
	.st0{clip-path:url(#SVGID_1_);}
	.st1{fill:#E8ECED;}
	.st2{fill:#016CB6;}
	.st3{fill:#EEECE8;}
	.st4{fill:#F2EBE7;}
	.st5{fill:#F5EAE5;}
	.st6{fill:#E2EFFD;}
	.st7{fill:#F3ECDF;}
	.st8{fill:#E2F0F7;}
	.st9{fill:#60AFE7;}
	.st10{fill:#F0ECE7;}
	.st11{fill:#F4FAFA;}
	.st12{fill:#0B6FB0;}
	.st13{fill:#0969AA;}
	.st14{fill:#006CC3;}
	.st15{fill:#0A68AB;}
	.st16{fill:#096FB2;}
	.st17{fill:#13679E;}
	.st18{fill:#136499;}
	.st19{fill:#1B6FA5;}
	.st20{fill:#076CB5;}
	.st21{fill:#076DB5;}
	.st22{fill:#386B8E;}
	.st23{fill:#3385C0;}
	.st24{fill:#EDF9FA;}
	.st25{fill:#F4FBFB;}
	.st26{fill:#245E88;}
</style>
<g>
	<g>
		<g>
			<defs>
				<path id="SVGID_3_" d="M82.8,52H6c-2.8,0-5-2.2-5-5V6c0-2.8,2.2-5,5-5h76.8c2.8,0,5,2.2,5,5v40.9C87.8,49.7,85.6,52,82.8,52z"/>
			</defs>
			<clipPath id="SVGID_1_">
				<use xlink:href="#SVGID_3_"  style="overflow:visible;"/>
			</clipPath>
			<g class="st0">
				<g>
					<path class="st1" d="M44.2,57.2c-13.9,0-27.8,0-41.6,0c-3.5,0-6.6-2.5-7.5-5.8c-0.2-0.7-0.3-1.5-0.3-2.2c0-15.3,0-30.7,0-46
						c0-3.3,1.3-5.9,4.3-7.4C0.2-4.7,1.4-5,2.6-5c26.9,0,53.8,0,80.8,0c1.3,0,2.5,0,3.8,0.2C90.1-4.4,92-2.6,93.1,0
						c0.4,1,0.5,2.1,0.5,3.1c0,15.6,0,31.2,0,46.8c0,1.6-0.6,3-1.5,4.3c-1.6,2.3-3.8,3.2-6.5,3.2C71.8,57.2,58,57.2,44.2,57.2z
						 M92,2.1c-0.1,0.4-0.3,0.7-0.3,1.1c0,11.5,0,23,0,34.5c0,4.1,0,8.3,0,12.4c0,0.3,0.2,0.6,0.3,0.9c0.8,0,0.3-0.5,0.3-0.8
						c0-11.5,0-22.9,0-34.4c0-4.3,0-8.5,0-12.8C92.4,2.7,92.1,2.4,92,2.1z M84.4,56.5c0-0.1,0-0.2,0-0.4c0-0.1,0-0.2,0-0.4
						c1,0,1.9,0,2.9,0c0.6-0.3,1.3-0.6,1.9-1c0.1-0.1,0-0.5,0.1-0.8c-0.2,0.1-0.4,0.2-0.6,0.4c-0.2,0.1-0.4,0.3-0.6,0.4
						c-0.5,0.2-1,0.3-1.5,0.4c-0.5-0.1-1-0.2-1.5-0.2c-7.4,0-14.8,0-22.2,0c-1.1,0-2.1,0.2-3.2,0.2c-1.2,0-2.4-0.2-3.6-0.2
						c-13.9,0-27.8,0-41.7,0c-1,0-1.9,0.2-2.9,0.2c-1.6,0-3.2-0.1-4.8-0.1c-1.1,0-2.3,0.1-3.4,0.2c0,0.1,0.1,0.3,0.2,0.5
						c-0.9,0.2-1.9-0.4-2.7,0.3c0,0.1,0,0.3,0,0.4c0.9,0,1.9,0,2.8,0c0.4,0.1,0.7,0.3,1.1,0.3c26.6,0,53.2,0,79.7,0
						c0.6,0,1.1,0,1.7,0c0.2,0,0.3-0.1,0.5-0.1c0-0.1,0-0.1,0-0.2C85.9,56.5,85.2,56.5,84.4,56.5z M86.2,54.7
						c0.5-0.1,1.1-0.2,1.6-0.5c2.1-0.9,3.2-2.5,3.2-4.8c0-15.6,0-31.1,0-46.7c0-3-2.2-5.2-5.2-5.2c-27.6,0-55.3,0-82.9,0
						c-3.1,0-5.3,2.2-5.3,5.3c0,15.6,0,31.1,0,46.7c0,2.7,1.9,4.7,4.5,5.1c0.3,0,0.7,0.1,1,0.1c27.1,0,54.3,0,81.4,0
						C85.1,54.7,85.7,54.7,86.2,54.7z"/>
					<path class="st2" d="M2.1,54.5c-2.7-0.4-4.5-2.4-4.5-5.1c0-15.6,0-31.1,0-46.7c0-3.1,2.2-5.3,5.3-5.3c27.6,0,55.3,0,82.9,0
						c3,0,5.2,2.2,5.2,5.2c0,15.6,0,31.1,0,46.7c0,2.3-1.1,3.9-3.2,4.8c-0.5,0.2-1.1,0.3-1.6,0.5c-0.3,0-0.7-0.1-1-0.1
						c-27.4,0-54.8,0-82.2,0C2.7,54.5,2.4,54.5,2.1,54.5z M82.6,34.9c-0.1-0.1-0.2-0.2-0.4-0.4c-2.6-2.8-5.1-5.6-7.7-8.4
						c-0.4-0.5-0.1-0.7,0.2-1c2.7-2.9,5.3-5.8,8-8.8c0.2-0.2,0.2-0.5,0.3-0.7c-0.2-0.1-0.4-0.2-0.6-0.2c-3.7,0-7.4,0-11.1,0
						c-0.2,0-0.4,0.2-0.6,0.3c-0.9,1-1.8,2-2.7,3c-0.7-0.8-1.3-1.5-1.9-2.3c0-1-0.6-1.1-1.3-1.1c-8.5,0-17,0-25.6,0
						c-1.5,0-1.7,0.5-1.5,1.7c-0.5,1.1-0.9,2.3-1.5,3.6c-0.8-1.6-1.4-3-2.1-4.4c-0.1-0.3-0.6-0.6-0.9-0.6c-6.2,0-12.4,0-18.6-0.1
						c-0.5,0-0.7,0.1-0.9,0.6C11,22.5,8.2,29,5.4,35.4c0.7,0.3,1.4,0.7,2.1,0.7c2,0.1,4,0.1,6,0c0.9,0,1.7-0.1,2.2-0.1
						c0.4-0.8,0.8-1.4,1-2s0.3-1.1,1-1.1c0.8,0,1.8-0.3,2.2,0.8c0.1,0.4,0.3,0.9,0.4,1.3c0.2,0.6,0.6,1.1,1.4,1.1c14,0,28,0,42,0
						c0.4,0,0.9-0.5,1.3-0.7c0.9-1,1.9-2,2.8-3c1,1.1,1.9,2.1,2.7,3.1c-0.1,0.2-0.2,0.4-0.3,0.7c0.3,0,0.6,0,0.9,0
						c2.4,0,4.8,0,7.3,0c1.2,0,2.4,0.4,3.5-0.5c0.2,0.1,0.5,0.2,0.7,0.2c0.3-0.1,0.7-0.2,0.7-0.5C83.5,35,83.1,34.9,82.6,34.9
						L82.6,34.9z M38.3,15.1c8.3,0,16.7,0,25,0c0.3,0,0.6-0.2,1-0.3c-0.3-0.1-0.6-0.3-0.9-0.3c-8.2,0-16.4,0-24.6,0
						c-0.2,0-0.3,0-0.4,0c-0.1,0.1-0.3,0.2-0.4,0.3C38.1,14.8,38.2,14.9,38.3,15.1z M3.8-1.8c0,0.1,0,0.1,0,0.2
						c26.8,0,53.7,0,80.5,0c0-0.1,0-0.1,0-0.2C57.5-1.8,30.7-1.8,3.8-1.8z M17.9,33.4c0,0.1-0.1,0.2-0.1,0.3c0.2,0,0.4,0.1,0.6,0.1
						c0,0,0-0.1,0.1-0.2C18.2,33.5,18,33.4,17.9,33.4z"/>
					<path class="st3" d="M3.5,55.8c-0.1-0.2-0.2-0.4-0.2-0.5C4.4,55.2,5.6,55,6.7,55c1.6,0,3.2,0.1,4.8,0.1c1,0,1.9-0.2,2.9-0.2
						c13.9,0,27.8,0,41.7,0c1.2,0,2.4,0.2,3.6,0.2c1.1,0,2.1-0.2,3.2-0.2c7.4,0,14.8,0,22.2,0c0.5,0,1,0.1,1.5,0.2
						c0.2,0.2,0.5,0.4,0.7,0.5c-1,0-1.9,0-2.9,0C57.5,55.8,30.5,55.8,3.5,55.8z"/>
					<path class="st4" d="M3.5,55.8c27,0,54,0,80.9,0c0,0.1,0,0.2,0,0.4c-26.5,0-53,0-79.5,0c-0.3,0-0.5,0-0.8,0
						c-0.2,0-0.3,0.2-0.4,0.3l0,0c-0.9,0-1.9,0-2.8,0c0-0.1,0-0.3,0-0.4C1.6,55.4,2.6,56,3.5,55.8z"/>
					<path class="st5" d="M84.4,56.5c0.7,0,1.5,0,2.2,0c0,0.1,0,0.1,0,0.2c-0.2,0-0.3,0.1-0.5,0.1c-0.6,0-1.1,0-1.7,0
						c-26.6,0-53.2,0-79.7,0c-0.4,0-0.7-0.2-1.1-0.3l0,0C30.6,56.5,57.5,56.5,84.4,56.5z"/>
					<path class="st6" d="M84.4,56.5c-26.9,0-53.8,0-80.8,0c0.1-0.1,0.3-0.3,0.4-0.3c0.3-0.1,0.5,0,0.8,0c26.5,0,53,0,79.5,0
						C84.4,56.3,84.4,56.4,84.4,56.5z"/>
					<path class="st7" d="M92,2.1c0.1,0.3,0.3,0.6,0.3,0.9c0,4.3,0,8.5,0,12.8c0,11.5,0,22.9,0,34.4c0,0.2,0.4,0.8-0.3,0.8
						C92,34.7,92,18.4,92,2.1z"/>
					<path class="st8" d="M92,2.1c0,16.3,0,32.6,0,48.8c-0.1-0.3-0.3-0.6-0.3-0.9c0-4.1,0-8.3,0-12.4c0-11.5,0-23,0-34.5
						C91.7,2.8,91.9,2.5,92,2.1z"/>
					<path class="st9" d="M2.1,54.5c0.3,0,0.7,0,1,0c27.4,0,54.8,0,82.2,0c0.3,0,0.7,0.1,1,0.1c-0.6,0-1.1,0-1.7,0
						c-27.1,0-54.3,0-81.4,0C2.8,54.7,2.4,54.5,2.1,54.5z"/>
					<path class="st10" d="M87.3,55.8c-0.2-0.2-0.5-0.4-0.7-0.5c0.5-0.1,1-0.3,1.5-0.4c0.2-0.1,0.4-0.3,0.6-0.4
						c0.2-0.1,0.4-0.2,0.6-0.4c0,0.3,0.1,0.7-0.1,0.8C88.6,55.2,88,55.5,87.3,55.8z"/>
					<path class="st11" d="M83,15.6c-0.1,0.2-0.1,0.5-0.3,0.7c-2.7,2.9-5.3,5.9-8,8.8c-0.3,0.3-0.6,0.6-0.2,1
						c2.6,2.8,5.2,5.6,7.7,8.4c0.1,0.1,0.2,0.2,0.4,0.4l0,0c0.1,0.2,0.2,0.4,0.4,0.7c-0.4,0-0.8,0-1.1,0.1c-3.8,0-7.6,0-11.4,0
						c-0.9-1-1.8-2-2.7-3.1c-1,1.1-1.9,2.1-2.8,3c-13.8,0-27.7,0-41.5,0c-0.8,0-1.8,0.2-2.4-0.1c-0.6-0.4-0.8-1.4-1-2.1
						c-0.2-0.6-0.6-0.8-1.3-0.8c-2,0-2,0-2.8,1.9c-0.1,0.1-0.1,0.3-0.2,0.4c-0.2,0.8-0.8,1-1.5,1c-2-0.1-3.9-0.1-5.9-0.2
						c-1,0-2,0-3.1-0.1c2.8-6.4,5.5-12.9,8.3-19.3c0.2-0.5,0.5-0.6,0.9-0.6c6.2,0,12.4,0,18.6,0.1c0.3,0,0.8,0.3,0.9,0.6
						c0.7,1.4,1.3,2.8,2.1,4.4c0.5-1.3,1-2.5,1.5-3.6c0.3-1.3,1.2-1.5,2.5-1.5c7.9,0.1,15.7,0,23.6,0c0.9,0,1.8,0.1,2.4,0.9
						c0.6,0.7,1.2,1.4,1.9,2.3c0.9-1,1.8-2,2.7-3c0.4,0,0.8-0.1,1.1-0.1C75.6,15.7,79.3,15.7,83,15.6z M48.8,32.8c0.3,0,0.6,0,1,0
						c0.2,0,0.3,0.1,0.5,0.1c4.2,0,8.5,0,12.7,0c0.2,0,0.4-0.1,0.6-0.1c1.5-1.4,3-2.8,4.5-4.2c1,1.1,2.1,2.4,3.2,3.6
						c0.2,0.2,0.4,0.6,0.7,0.6c1.5,0.1,3,0,4.7,0c-2.2-2.5-4.3-4.8-6.5-7.1c2.2-2.4,4.3-4.7,6.6-7.2c-1.5,0-2.7-0.1-3.9,0
						c-0.4,0-1,0.3-1.3,0.6c-1.2,1.2-2.4,2.6-3.6,3.9c-1.4-1.5-2.7-2.9-4-4.3c-0.3-0.1-0.6-0.2-0.9-0.2c-4.6,0-9.2,0-13.9,0
						c-0.2,0-0.4,0-0.6,0.1c0,0.1-0.1,0.2-0.1,0.3c0,4.5,0,8.9,0,13.4C48.6,32.5,48.7,32.5,48.8,32.8z M29.7,32.8
						c0.1-0.3,0.3-0.5,0.3-0.8c0-2.7,0-5.3,0-8c0-0.3,0-0.6,0-1c0.2,0.2,0.3,0.3,0.4,0.4c1.1,2.4,2.3,4.8,3.2,7.3
						c0.6,1.6,1.4,2.5,3.2,2.1c0.6-0.1,0.9-0.2,1.1-0.7c0.7-1.7,1.4-3.3,2.2-4.9c0.6-1.4,1.2-2.8,1.9-4.2c0.1,0,0.1,0,0.2,0.1
						c0,3.2,0,6.5,0,9.7c1.3,0,2.5,0,3.7,0c0-4.8,0-9.5,0-14.3c-1.7,0-3.3,0-4.9,0c-0.6,0-0.8,0.1-1.1,0.7c-0.7,1.8-1.5,3.6-2.3,5.5
						c-0.4,1-0.8,1.9-1.3,3c-0.2-0.4-0.4-0.7-0.5-1c-1.1-2.5-2.2-4.9-3.4-7.3c-0.1-0.3-0.5-0.7-0.7-0.7c-1.8-0.1-3.5,0-5.4,0
						c0,4.1,0,8.1,0,12c-0.1,0-0.1,0-0.2,0c-1.7-4-3.4-8-5.2-12.1c-1.5,0-2.9,0-4.4,0c-0.6,0-0.9,0.2-1.1,0.8
						c-1.5,3.4-2.9,6.8-4.4,10.2c-0.5,1.1-0.9,2.1-1.3,3.2c0.2,0.1,0.2,0.1,0.3,0.1c0.7,0,1.4,0,2.1,0c1.6,0,1.6,0,2.2-1.4
						c0.1-0.3,0.3-0.7,0.4-1c0.2-0.5,0.4-0.7,1-0.7c1.1,0,2.2,0.1,3.3,0c2.1-0.3,3.4,0.3,3.7,2.5v0.1c0.3,0.2,0.5,0.5,0.8,0.5
						C25.5,32.8,27.6,32.8,29.7,32.8z"/>
					<path class="st12" d="M5.3,35.5c1,0,2,0,3.1,0.1c2,0.1,3.9,0.1,5.9,0.2c0.8,0,1.3-0.2,1.5-1c0-0.1,0.1-0.3,0.2-0.4
						c0.8-1.9,0.8-1.8,2.8-1.9c0.7,0,1,0.2,1.3,0.8c0.3,0.8,0.5,1.8,1,2.1c0.6,0.4,1.6,0.1,2.4,0.1c13.8,0,27.7,0,41.5,0
						c-0.4,0.2-0.9,0.7-1.3,0.7c-14,0-28,0-42,0c-0.8,0-1.2-0.4-1.4-1.1c-0.2-0.4-0.3-0.9-0.4-1.3c-0.4-1.2-1.4-0.8-2.2-0.8
						c-0.8,0-0.9,0.5-1,1.1s-0.6,1.1-1,2c-0.5,0-1.3,0.1-2.2,0.1c-2,0-4,0.1-6,0C6.7,36.3,6,35.8,5.3,35.5z"/>
					<ellipse class="st13" cx="44.1" cy="-1.7" rx="56.9" ry="0.1"/>
					<path class="st14" d="M38.3,15.1c-0.1-0.1-0.2-0.3-0.3-0.4c0.1-0.1,0.2-0.2,0.4-0.3c0.1,0,0.3,0,0.4,0c8.2,0,16.4,0,24.6,0
						c0.3,0,0.6,0.2,0.9,0.3c-8.3,0-16.7,0-25,0C38.9,14.7,38.6,15,38.3,15.1z"/>
					<path class="st15" d="M38.3,15.1c0.3-0.1,0.6-0.3,1-0.3c8.3,0,16.7,0,25,0c-0.3,0.1-0.6,0.3-1,0.3C55,15.1,46.6,15.1,38.3,15.1
						z"/>
					<path class="st16" d="M70.6,35.5c3.8,0,7.6,0,11.4,0v0.1c-1.1,0.9-2.3,0.5-3.5,0.5c-2.4,0.1-4.8,0-7.3,0c-0.3,0-0.6,0-0.9,0
						C70.4,36,70.5,35.8,70.6,35.5z"/>
					<path class="st17" d="M66.1,16.5c-0.6-0.8-1.4-0.9-2.4-0.9c-7.9,0-15.7,0-23.6,0c-1.2,0-2.1,0.1-2.5,1.5
						c-0.2-1.2,0.1-1.7,1.5-1.7c8.5,0,17,0,25.6,0C65.5,15.4,66.1,15.6,66.1,16.5z"/>
					<path class="st18" d="M83,15.6c-3.7,0-7.4,0-11.1,0c-0.4,0-0.8,0.1-1.1,0.1c0.2-0.1,0.4-0.3,0.6-0.3c3.7,0,7.4,0,11.1,0
						C82.6,15.4,82.8,15.6,83,15.6z"/>
					<path class="st19" d="M81.9,35.8L81.9,35.8c0.3-0.1,0.7-0.1,1.1-0.2c-0.2-0.3-0.3-0.5-0.4-0.7c0.4-0.1,0.9,0,0.7,0.6
						c-0.1,0.2-0.5,0.4-0.7,0.5C82.4,36,82.1,35.9,81.9,35.8z"/>
					<path class="st12" d="M17.9,33.4c0.2,0.1,0.4,0.1,0.5,0.2c0,0.1-0.1,0.2-0.1,0.2c-0.2,0-0.4-0.1-0.6-0.1
						C17.8,33.5,17.8,33.5,17.9,33.4z"/>
					<path class="st19" d="M82.6,34.9c-0.1-0.1-0.2-0.2-0.4-0.4C82.4,34.7,82.5,34.8,82.6,34.9z"/>
					<path class="st20" d="M29.7,32.8c-2.1,0-4.1,0-6.2,0c-0.3,0-0.5-0.3-0.8-0.5v-0.1C22.3,30,21,29.4,19,29.7
						c-1.1,0.2-2.2,0.1-3.3,0c-0.5,0-0.8,0.2-1,0.7c-0.1,0.3-0.3,0.7-0.4,1c-0.6,1.4-0.6,1.4-2.2,1.4c-0.7,0-1.4,0-2.1,0
						c-0.1,0-0.1,0-0.3-0.1c0.4-1.1,0.9-2.1,1.3-3.2c1.5-3.4,3-6.8,4.4-10.2c0.2-0.5,0.5-0.8,1.1-0.8c1.4,0,2.9,0,4.4,0
						c1.7,4,3.5,8,5.2,12.1c0.1,0,0.1,0,0.2,0c0-4,0-8,0-12c1.9,0,3.6,0,5.4,0c0.3,0,0.6,0.4,0.7,0.7c1.2,2.4,2.3,4.9,3.4,7.3
						c0.1,0.3,0.3,0.6,0.5,1c0.5-1.1,0.9-2,1.3-3c0.8-1.8,1.6-3.6,2.3-5.5c0.2-0.6,0.5-0.7,1.1-0.7c1.6,0,3.2,0,4.9,0
						c0,4.8,0,9.5,0,14.3c-1.2,0-2.4,0-3.7,0c0-3.3,0-6.5,0-9.7c-0.1,0-0.1,0-0.2-0.1c-0.6,1.4-1.2,2.8-1.9,4.2
						c-0.7,1.6-1.5,3.3-2.2,4.9c-0.2,0.6-0.6,0.6-1.1,0.7c-1.8,0.3-2.6-0.5-3.2-2.1c-0.9-2.5-2.1-4.9-3.2-7.3
						c-0.1-0.2-0.2-0.5-0.3-0.7c-0.1,0.2-0.4,0.5-0.4,0.7c0,1.1,0.1,2.3,0.1,3.4C29.8,28.8,29.7,30.8,29.7,32.8z M18.2,21.6
						c-0.7,1.7-1.3,3.2-2,4.8c1.4,0,2.6,0,4,0C19.6,24.8,18.9,23.3,18.2,21.6z"/>
					<path class="st21" d="M63.9,18.7c1.3,1.4,2.6,2.9,4,4.3c1.2-1.3,2.4-2.6,3.6-3.9c0.3-0.3,0.8-0.5,1.3-0.6c1.2-0.1,2.4,0,3.9,0
						c-2.3,2.5-4.4,4.8-6.6,7.2c2.1,2.3,4.2,4.6,6.5,7.1c-1.7,0-3.2,0-4.7,0c-0.2,0-0.5-0.3-0.7-0.6c-1.1-1.3-2.3-2.5-3.2-3.6
						c-1.5,1.4-3,2.8-4.5,4.2c-4.6,0-9.2,0-13.8,0c-0.3,0-0.6,0-1,0c0-4.4,0-8.7,0-13.1c0-0.8,0.2-1.1,1.1-1.1
						C54.5,18.7,59.2,18.7,63.9,18.7z M52.4,21.7c-0.1,0.7-0.1,1.4-0.2,2.2c2.6,0,5.1,0,7.6,0c0,1.1,0,2.1,0,3.2c-2.5,0-5,0-7.5,0
						c0,0.8,0,1.5,0,2.4c2.6,0,5.1,0,7.6,0c0,0.6,0.1,1.2,0.1,1.9c1.9-2,3.6-3.9,5.4-5.8c-1.8-2-3.5-4-5.3-5.9
						c-0.1,0-0.1,0.1-0.2,0.1c0,0.6,0,1.2,0,1.8c-2.2,0-4.4,0-6.6,0C53,21.6,52.7,21.7,52.4,21.7z"/>
					<path class="st22" d="M63.9,18.7c-4.7,0-9.4,0-14.1,0c-0.8,0-1.1,0.2-1.1,1.1c0.1,4.4,0,8.7,0,13.1c-0.1-0.2-0.2-0.3-0.2-0.5
						c0-4.5,0-8.9,0-13.4c0-0.1,0-0.2,0.1-0.3c0.2,0,0.4-0.1,0.6-0.1c4.6,0,9.2,0,13.9,0C63.4,18.5,63.6,18.6,63.9,18.7z"/>
					<path class="st23" d="M29.7,32.8c0.1-2,0.1-4,0.1-6c0-1.1-0.1-2.3-0.1-3.4c0-0.2,0.2-0.5,0.4-0.7c0.1,0.2,0.2,0.5,0.3,0.7
						c-0.1-0.1-0.2-0.2-0.4-0.4c0,0.4,0,0.7,0,1c0,2.7,0,5.3,0,8C30,32.2,29.8,32.5,29.7,32.8z"/>
					<path class="st22" d="M49.8,32.8c4.6,0,9.2,0,13.8,0c-0.2,0-0.4,0.1-0.6,0.1c-4.2,0-8.5,0-12.7,0
						C50.1,32.9,49.9,32.8,49.8,32.8z"/>
					<path class="st24" d="M18.2,21.6c0.7,1.7,1.3,3.2,2,4.8c-1.4,0-2.6,0-4,0C16.9,24.8,17.5,23.3,18.2,21.6z"/>
					<path class="st25" d="M59.9,21.6c0-0.6,0-1.2,0-1.8c0.1,0,0.1-0.1,0.2-0.1c1.8,2,3.5,3.9,5.3,5.9c-1.8,1.9-3.5,3.8-5.4,5.8
						c0-0.7-0.1-1.3-0.1-1.9c-2.5,0-5,0-7.6,0c0-0.8,0-1.6,0-2.4c2.5,0,5,0,7.5,0c0-1.1,0-2.1,0-3.2c-2.5,0-5,0-7.6,0
						c0.1-0.8,0.1-1.5,0.2-2.2c2.3,0,4.7,0,7,0C59.6,21.8,59.8,21.6,59.9,21.6z"/>
					<path class="st26" d="M59.9,21.6c-0.2,0.1-0.3,0.2-0.5,0.2c-2.3,0-4.7,0-7,0c0.3-0.1,0.6-0.2,0.9-0.2
						C55.5,21.6,57.7,21.6,59.9,21.6z"/>
				</g>
			</g>
		</g>
	</g>
</g>
</svg>
