<?xml version="1.0" encoding="utf-8"?>
<!-- Generator: Adobe Illustrator 24.0.1, SVG Export Plug-In . SVG Version: 6.00 Build 0)  -->
<svg version="1.1" id="Layer_1" xmlns="http://www.w3.org/2000/svg" xmlns:xlink="http://www.w3.org/1999/xlink" x="0px" y="0px"
	 viewBox="0 0 88.8 52.9" style="enable-background:new 0 0 88.8 52.9;" xml:space="preserve">
<style type="text/css">
	.st0{fill:#FF5A00;}
	.st1{fill:#EB001B;}
	.st2{fill:#F79E1B;}
</style>
<g>
	<rect id="rect19" x="34.5" y="8.4" class="st0" width="16.8" height="30.3"/>
	<path id="XMLID_330_" class="st1" d="M35.6,23.5c0-6.1,2.9-11.6,7.3-15.1C39.6,5.8,35.5,4.3,31,4.3c-10.6,0-19.2,8.6-19.2,19.2
		S20.4,42.7,31,42.7c4.5,0,8.6-1.6,11.9-4.1C38.5,35.2,35.6,29.7,35.6,23.5z"/>
	<path id="path22" class="st2" d="M74,23.5c0,10.6-8.6,19.2-19.2,19.2c-4.5,0-8.6-1.6-11.9-4.1c4.5-3.5,7.3-9,7.3-15.1
		s-2.9-11.6-7.3-15.1c3.3-2.6,7.4-4.1,11.9-4.1C65.4,4.3,74,13,74,23.5z"/>
</g>
</svg>
