<?xml version="1.0" encoding="utf-8"?>
<!-- Generator: Adobe Illustrator 24.0.1, SVG Export Plug-In . SVG Version: 6.00 Build 0)  -->
<svg version="1.1" id="Layer_1" xmlns="http://www.w3.org/2000/svg" xmlns:xlink="http://www.w3.org/1999/xlink" x="0px" y="0px"
	 viewBox="0 0 88.8 52.9" style="enable-background:new 0 0 88.8 52.9;" xml:space="preserve">
<style type="text/css">
	.st0{clip-path:url(#SVGID_2_);}
	.st1{fill-rule:evenodd;clip-rule:evenodd;fill:#FFFFFF;}
	.st2{fill-rule:evenodd;clip-rule:evenodd;}
	.st3{fill-rule:evenodd;clip-rule:evenodd;fill:#F47216;}
</style>
<g>
	<g>
		<g>
			<defs>
				<path id="SVGID_1_" d="M82.8,51.9H6c-2.8,0-5-2.2-5-5V6c0-2.8,2.2-5,5-5h76.8c2.8,0,5,2.2,5,5v40.9
					C87.8,49.7,85.5,51.9,82.8,51.9z"/>
			</defs>
			<clipPath id="SVGID_2_">
				<use xlink:href="#SVGID_1_"  style="overflow:visible;"/>
			</clipPath>
			<g class="st0">
				<path class="st1" d="M7.5-0.8c-6.3,0-6.3,0-6.3,0l0,0c0,0,0,0,0,57.5h76.9c9.8,0,12.6-2.8,12.6-6.3V-0.8c-89.5,0-2.8,0-6.3,0
					H7.5z"/>
				<path class="st2" d="M38.7,17.8c1,0,1.9,0.2,2.9,0.7v2.6c-1-0.9-1.8-1.3-3-1.3c-2.2,0-4,1.7-4,3.9c0,2.3,1.7,3.9,4.1,3.9
					c1.1,0,1.9-0.4,2.8-1.2V29c-1.1,0.5-1.9,0.7-3,0.7c-3.6,0-6.4-2.6-6.4-5.9C32.3,20.5,35.1,17.8,38.7,17.8L38.7,17.8z M27.6,17.9
					c1.3,0,2.5,0.4,3.6,1.3L30,20.7c-0.6-0.6-1.2-0.9-1.9-0.9c-1,0-1.8,0.5-1.8,1.3c0,0.6,0.4,0.9,1.8,1.4c2.7,0.9,3.5,1.7,3.5,3.6
					c0,2.2-1.7,3.7-4.2,3.7c-1.8,0-3.1-0.7-4.2-2.2l1.5-1.4c0.5,1,1.4,1.5,2.6,1.5c1.1,0,1.8-0.7,1.8-1.6c0-0.5-0.2-0.9-0.7-1.2
					c-0.2-0.1-0.7-0.3-1.6-0.6c-2.2-0.8-3-1.6-3-3.1C23.8,19.3,25.4,17.9,27.6,17.9z M54.5,18.1h2.6l3.2,7.6l3.3-7.6h2.6L61,29.8
					h-1.3L54.5,18.1L54.5,18.1z M8.9,18.1h3.5c3.8,0,6.5,2.3,6.5,5.7c0,1.7-0.8,3.3-2.2,4.4c-1.2,0.9-2.5,1.3-4.3,1.3H9L8.9,18.1
					L8.9,18.1z M19.9,18.1h2.4v11.4h-2.4V18.1z M67.2,18.1h6.7V20h-4.3v2.5h4.2v2h-4.2v3.1h4.3v1.9h-6.7V18.1L67.2,18.1z M75.4,18.1
					h3.5c2.7,0,4.3,1.2,4.3,3.4c0,1.7-1,2.9-2.8,3.2l3.8,4.8h-2.9L78,24.9h-0.3v4.6h-2.4L75.4,18.1L75.4,18.1z M77.8,19.9v3.4h0.7
					c1.5,0,2.3-0.6,2.3-1.8c0-1.1-0.8-1.7-2.3-1.7L77.8,19.9L77.8,19.9z M11.3,20v7.5h0.6c1.5,0,2.5-0.3,3.2-0.9
					c0.8-0.7,1.3-1.8,1.3-2.9s-0.5-2.1-1.3-2.8c-0.8-0.7-1.7-0.9-3.2-0.9L11.3,20L11.3,20z"/>
				<path class="st3" d="M48.8,17.7c3.6,0,6.4,2.7,6.4,6.1l0,0c0,3.3-2.9,6.1-6.4,6.1s-6.4-2.7-6.4-6.1l0,0
					C42.4,20.5,45.3,17.7,48.8,17.7L48.8,17.7z M90.7,32.3c-3,2.1-25.4,17.1-64.1,24.4h57.8c3.5,0,6.3,0,6.3,0V-0.8L90.7,32.3z"/>
			</g>
		</g>
	</g>
</g>
</svg>
