<?xml version="1.0" encoding="utf-8"?>
<!-- Generator: Adobe Illustrator 24.0.1, SVG Export Plug-In . SVG Version: 6.00 Build 0)  -->
<svg version="1.1" id="Layer_1" xmlns="http://www.w3.org/2000/svg" xmlns:xlink="http://www.w3.org/1999/xlink" x="0px" y="0px"
	 viewBox="0 0 280.1 220" style="enable-background:new 0 0 280.1 220;" xml:space="preserve">
<style type="text/css">
	.st0{fill:#0129D1;}
</style>
<g>
	<path class="st0" d="M280,30.3C280,12.9,266.9,0,249.5,0c-73,0-145.9,0-218.9,0C13.3,0,0.1,12.9,0.1,30.2C0,83.4,0,136.5,0.1,189.7
		c0,17.3,13.1,30.2,30.5,30.3c36.3,0.1,72.6,0,109,0c36.7,0,73.3,0,110,0c17.4,0,30.5-12.9,30.5-30.3
		C280.1,136.6,280.1,83.4,280,30.3z M32,19.9c22.5,0,45-0.1,67.5,0c49.2,0,98.3,0,147.5,0.1c9.8,0,13.1,3.3,13.1,13.3
		c0,2.2,0,4.4,0,6.6h-240c0-3.8,0.1-7.7,0.2-11.5C20.6,22.9,25.4,19.9,32,19.9z M260.1,109.2c0,26,0,52-0.1,78
		c0,9.5-3.3,12.8-13,12.8c-71.5,0-143,0-214.5,0c-9,0-12.5-3.5-12.5-12.3c0-33.6,0-67.2,0-100.8h240.1
		C260.1,94.4,260.1,101.8,260.1,109.2z"/>
	<circle class="st0" cx="213.4" cy="150" r="26"/>
	<path class="st0" d="M66.6,106.1H50.3c-3.9,0-7,3.1-7,7v16.3c0,3.9,3.1,7,7,7h16.3c3.9,0,7-3.1,7-7v-16.3
		C73.6,109.2,70.5,106.1,66.6,106.1z"/>
	<path class="st0" d="M108,106.1H91.6c-3.9,0-7,3.1-7,7v16.3c0,3.9,3.1,7,7,7H108c3.9,0,7-3.1,7-7v-16.3
		C115,109.2,111.8,106.1,108,106.1z"/>
	<path class="st0" d="M66.6,145.1H50.3c-3.9,0-7,3.1-7,7v16.3c0,3.9,3.1,7,7,7h16.3c3.9,0,7-3.1,7-7v-16.3
		C73.6,148.2,70.5,145.1,66.6,145.1z"/>
	<path class="st0" d="M108,145.1H91.6c-3.9,0-7,3.1-7,7v16.3c0,3.9,3.1,7,7,7H108c3.9,0,7-3.1,7-7v-16.3
		C115,148.2,111.8,145.1,108,145.1z"/>
</g>
</svg>
