<?xml version="1.0" encoding="utf-8"?>
<!-- Generator: Adobe Illustrator 24.0.1, SVG Export Plug-In . SVG Version: 6.00 Build 0)  -->
<svg version="1.1" id="Layer_1" xmlns="http://www.w3.org/2000/svg" xmlns:xlink="http://www.w3.org/1999/xlink" x="0px" y="0px"
	 viewBox="0 0 262 383.3" style="enable-background:new 0 0 262 383.3;" xml:space="preserve">
<style type="text/css">
	.st0{fill:#0326C3;}
</style>
<g>
	<path class="st0" d="M71.9,146.2c8.2-8.2,15.9-16,23.7-23.7c3.4-3.4,7.5-4.4,12-2.8c4.3,1.5,6.6,4.7,7.2,9.1
		c0.5,3.6-0.6,6.7-3.1,9.2c-10.6,10.6-21.1,21.2-31.8,31.7c-4.6,4.5-11.1,4.5-15.8,0c-5.4-5.2-10.7-10.5-15.9-15.9
		c-4.5-4.7-4.4-11.4-0.1-15.8c4.3-4.4,11.1-4.5,15.8-0.1C66.7,140.6,69.2,143.4,71.9,146.2z"/>
	<path class="st0" d="M71.6,213.9c8.5-8.5,16.2-16.3,24-24c3.4-3.4,7.4-4.5,12-2.9c4.3,1.5,6.7,4.7,7.3,9.1c0.5,3.6-0.6,6.7-3.1,9.2
		C101.2,216,90.6,226.6,80,237.1c-4.6,4.5-11.1,4.6-15.8,0.1c-5.4-5.2-10.7-10.5-15.9-15.9c-4.5-4.7-4.4-11.4-0.1-15.8
		c4.3-4.4,11.1-4.6,15.8-0.1C66.7,208,69,210.9,71.6,213.9z"/>
	<path class="st0" d="M71.8,281.1c8.4-8.4,16.1-16.2,23.9-24c3.4-3.4,7.5-4.4,12-2.7c4.3,1.5,6.6,4.7,7.2,9.2
		c0.5,3.6-0.7,6.7-3.2,9.2c-10.6,10.6-21.1,21.2-31.8,31.7c-4.6,4.5-11.1,4.5-15.8-0.1c-5.4-5.2-10.7-10.5-15.9-15.9
		c-4.5-4.7-4.3-11.5,0-15.8c4.4-4.3,11.1-4.4,15.8,0.1C66.7,275.3,69,278.1,71.8,281.1z"/>
	<path class="st0" d="M175.9,157.2c-9.6,0-19.2,0-28.8,0c-7.3,0-12.3-4.6-12.4-11.1c-0.1-6.7,5.1-11.3,12.6-11.3
		c19.1,0,38.1,0,57.2,0c7.5,0,12.6,4.6,12.6,11.3c-0.1,6.7-5.1,11.1-12.8,11.1C194.9,157.2,185.4,157.2,175.9,157.2z"/>
	<path class="st0" d="M175.9,202.1c9.6,0,19.2,0,28.8,0c7.3,0,12.3,4.6,12.4,11.1c0.1,6.7-5,11.3-12.5,11.3c-19.1,0-38.1,0-57.2,0
		c-7.5,0-12.6-4.6-12.6-11.3c0-6.6,5.1-11.1,12.7-11.2C157,202.1,166.4,202.1,175.9,202.1z"/>
	<path class="st0" d="M175.9,269.5c9.5,0,18.9,0,28.4,0c7.6,0,12.7,4.5,12.8,11.1c0.1,6.7-5.1,11.3-12.6,11.3c-19.1,0-38.1,0-57.2,0
		c-7.5,0-12.6-4.6-12.6-11.3c0.1-6.6,5.2-11.1,12.8-11.1C157,269.5,166.5,269.5,175.9,269.5z"/>
	<path class="st0" d="M262,77.4c-0.5-15.7-12.1-29.6-27.7-31.7c-9.1-1.2-18.4-0.6-27.6-0.8c-1.4,0-2.9,0-4.6,0c0-3.9,0-7.2,0-10.5
		c-0.1-7.3-4.7-11.8-12-11.9c-5.9,0-11.7-0.2-17.6,0.1c-2.8,0.1-4-0.9-4.7-3.5c-1-3.8-2.4-7.6-3.8-11.3c-1.8-5-5.5-7.7-10.8-7.7
		c-14.9-0.1-29.7-0.1-44.5,0c-5.3,0-9,2.7-10.8,7.7c-1.4,3.7-2.7,7.5-3.8,11.3c-0.7,2.6-1.9,3.6-4.7,3.5c-5.9-0.3-11.7-0.1-17.6-0.1
		c-7.3,0.1-11.9,4.7-12,11.9c0,3.4,0,6.9,0,10.5H36.3C14.1,45,0,59,0,81.2c0,49.4,0,98.8,0,148.2c0,39.8-0.1,79.6,0,119.4
		c0,14.8,6.9,25.4,20.3,31.7c2.8,1.3,5.9,1.9,8.8,2.9h203.6c0.2-0.1,0.4-0.3,0.6-0.4c19.7-5,28.7-16.7,28.7-36.9
		c0-88.1,0-176.1,0-264.2C262,80.4,262,78.9,262,77.4z M131,18.4c9.1,0,16.5,7.4,16.5,16.5s-7.4,16.5-16.5,16.5s-16.5-7.4-16.5-16.5
		S121.9,18.4,131,18.4z M239.6,81.6v264.9c0,10.3-3.9,14.3-14.2,14.3h-189c-9.8,0-13.9-4-13.9-13.8V81c0-9.5,4.2-13.6,13.7-13.6
		c7.7,0,15.4,0,23.8,0c0,3.9-0.1,7.3,0,10.8c0,6.8,4.7,11.6,11.5,11.6c39.7,0.1,79.3,0,119,0c7,0,11.6-4.8,11.7-11.9
		c0-3.3,0-6.7,0-10.3c1-0.1,1.8-0.3,2.7-0.3c7.6,0,15.2-0.1,22.8,0c7.2,0.1,11.8,4.7,11.9,12C239.6,80.1,239.6,80.9,239.6,81.6z"/>
</g>
</svg>
