<?xml version="1.0" encoding="utf-8"?>
<!-- Generator: Adobe Illustrator 24.0.1, SVG Export Plug-In . SVG Version: 6.00 Build 0)  -->
<svg version="1.1" id="Layer_1" xmlns="http://www.w3.org/2000/svg" xmlns:xlink="http://www.w3.org/1999/xlink" x="0px" y="0px"
	 viewBox="0 0 409.6 409.6" style="enable-background:new 0 0 409.6 409.6;" xml:space="preserve">
<style type="text/css">
	.st0{fill:#00017E;}
</style>
<g>
	<g>
		<path class="st0" d="M196.4,0c5.3,0,10.6,0,16,0c6.5,1.1,13.1,1.8,19.6,3.4c52.5,12.4,90.6,59.3,91.5,113.3
			c0.2,10.8,0.1,21.6,0.2,32.3c0,1.4,0.1,2.8,0.2,4.3c7.8,0,15.1,0,22.4,0c8.6,0,11.5,2.9,11.5,11.5c0,69.2,0,138.4,0,207.6
			c0,22-14.5,36.4-36.5,36.4c-77.8,0-155.7,0-233.5,0c-22.1,0-36.5-14.4-36.5-36.4c0-69.2,0-138.4,0-207.6c0-8.6,2.9-11.5,11.5-11.5
			c7.4,0,14.8,0,22.6,0c0-10.8,0.1-21.1,0-31.5c-0.2-20.3,4-39.6,13.6-57.6c16.1-29.9,40.4-50,73.1-59.4
			C179.8,2.5,188.2,1.6,196.4,0z M272.4,153.2c0-12.3,0.2-24.3,0-36.2c-0.2-14.6-4.9-27.8-14-39.1c-17.2-21.4-39.8-30.6-66.8-25.3
			c-27.3,5.3-45.1,22.3-52.8,49.1c-4.7,16.6-1.9,33.9-2.3,50.8c0,0.2,0.3,0.4,0.6,0.7C181.9,153.2,226.9,153.2,272.4,153.2z
			 M204,340.7c5.3,0,10.6,0.1,16,0c7.2-0.2,10.6-4.3,9.8-11.4c-1.7-14.7-3.3-29.3-4.8-44c-0.1-1.2,0.5-2.9,1.4-3.7
			c9.1-8.1,13-18,11.8-30.2c-1.9-19.4-22.5-34-41.4-28.9c-13.5,3.6-22.4,12.3-25.4,25.8c-2.9,12.9,1,24.1,11,33.1
			c1,0.9,1.7,2.9,1.6,4.3c-1.5,14.5-3.1,29.1-4.8,43.6c-0.8,7.2,2.6,11.2,9.8,11.4C193.9,340.8,199,340.7,204,340.7z"/>
	</g>
</g>
</svg>
