<?xml version="1.0" encoding="utf-8"?>
<!-- Generator: Adobe Illustrator 21.1.0, SVG Export Plug-In . SVG Version: 6.00 Build 0)  -->
<svg version="1.1" id="Layer_1" xmlns="http://www.w3.org/2000/svg" xmlns:xlink="http://www.w3.org/1999/xlink" x="0px" y="0px"
	 viewBox="0 0 397.5 102.2" style="enable-background:new 0 0 397.5 102.2;" xml:space="preserve">
<style type="text/css">
	.st0{fill:#FFFFFF;}
	.st1{fill:#00004B;}
	.st2{fill:#FFDF00;}
	.st3{opacity:0.5;}
	.st4{fill:#FCFCFC;}
	.st5{fill:#D6D6D6;}
</style>
<g>
	<g>
		<path class="st0" d="M375.4,100.4c-0.5,0-1.1,0-1.6-0.1l-12.5-2.1c-0.4-0.1-10-1.5-10.9-1.7l-11.9-2c-1.8-0.3-11-2.1-11.4-2.2
			c-2.4-0.4-4.6-1.8-6-3.8c-1.4-2-2-4.5-1.6-6.9l0.6-3.7c0-0.3,0.1-0.5,0.2-0.8c-0.2,0-0.4,0-0.7-0.1c-1.5-0.2-10.9-1.2-11-1.2
			c-0.4,0-1.2-0.1-2-0.2c-1.2-0.1-2.4-0.2-2.6-0.2c-0.4,0-12-1-13.9-1.1l-0.3,0c-2.3-0.2-5.5-0.4-7.1-0.5c-0.6,0-0.9-0.1-0.9-0.1
			c-0.2,0-2.8-0.2-2.8-0.2c-0.1,0-11.9-0.6-12.5-0.6c-0.2,0-0.4,0-0.6,0c-3.4-0.2-5.2-0.3-8.8-0.4l-0.6,0c-11-0.4-14.5-0.5-15.4-0.5
			l-0.4,0c-3.3,0-4.9-0.1-8.2-0.1l-2.2,0c0,0.1,0,0.1,0,0.2c0,4.8-2,13.8-15.6,19.5c-6.9,2.9-15.7,4.5-24.8,4.5
			c-9.1,0-17.9-1.6-24.8-4.5c-13.6-5.7-15.6-14.6-15.6-19.5c0-0.3,0-0.7,0-1c-1.1,0.1-2.1,0.2-2.6,0.2c-2.9,0.1-4.5,0.2-7.6,0.3
			l-18.8,1c-4,0.3-6,0.5-10,0.9c-0.2,0-0.6,0.1-0.9,0.1l0,0c0,0-7.8,0.9-8.7,1c-2.8,0.3-4.2,0.5-7.1,0.8c-0.4,0-10.8,1.3-10.8,1.3
			c-0.1,0-0.2,0-0.3,0c-1.3,0.1-14.2,1.8-16.5,2.1c-0.4,0.1-0.7,0.1-1.1,0.1c-0.2,0-0.4,0-0.6,0.1c-1.7,0.2-2.6,0.3-4.2,0.6
			c-0.4,0.1-25.6,3.8-26.7,3.9c-0.7,0.1-3,0.4-5,0.4c-0.6,0-1.2,0-1.6-0.1c-0.8-0.1-4.9-0.7-7.6-2.6c-1-0.6-2.3-2-4-4.1
			c-2.2-2.8-4.6-7.4-5.5-10.7l-0.6-2c-0.1-0.2-0.1-0.5-0.2-0.7c0-0.2-0.2-0.6-0.4-1.3l-0.2-0.6c-0.8-2.7-0.8-5.3-0.3-7.6
			c-1-1.6-1.9-3.3-2.7-5.1c-0.8-1.9-2-5.3-3.1-9.4c-0.7-2.5-1.1-4.5-1.3-7.1c-0.3-3.6,0.1-5.8,0.8-8.1l0.1-0.2
			c0.5-1.6,2-6.4,7.3-9.3l0.1,0c2.3-1.2,4.9-1.8,7.5-1.8c0.6,0,1.2,0,1.7,0.1l0.1,0c3.8,0.5,5.8,0.7,9.8,1.2c0.7,0.1,4.8,0.7,8,1.1
			c2.1,0.3,3.8,0.5,4,0.6c3,0.4,4.6,0.6,7.5,1l0.3,0l4.9,0.5c2.9,0.3,9,0.9,9,0.9c0.1,0,1.8,0.2,1.8,0.2c0.8,0.1,10.7,1.3,11.4,1.3
			l0.5,0.1c0.9,0.1,21.4,2.3,21.9,2.3c1.6,0.1,24.5,1.7,24.7,1.7c1.8,0.1,10.5,0.6,10.6,0.6c3.5,0.2,5.3,0.2,8.8,0.3
			c1.1,0,3.8,0.1,6.3,0.8c0.3,0.1,0.7,0.2,1,0.3c0-0.3,0-0.7,0-1c0-4.8,2-13.8,15.6-19.5c6.9-2.9,15.7-4.5,24.8-4.5
			c9.1,0,17.9,1.6,24.8,4.5c13.3,5.6,15.5,14.3,15.6,19.2l6.6-0.3c2.8-0.1,7.4-0.3,7.6-0.3c0.4,0,5-0.1,7.4-0.1
			c0.2,0,37-2.2,44.1-2.8c0,0,32.5-2.5,32.5-2.5l12.4-1.1c6-0.5,25.7-2,28.1-2.3l0.1,0c2.7-0.2,4-0.3,6.7-0.5c0.4,0,1.1-0.1,1.9-0.1
			c1.9,0,3.6,0.2,5.2,0.7c2.3,0.7,4.8,1.7,6.5,3.6c2.1,2.1,3.6,4,4.8,6.9c1.4,3.3,2,7,1.7,10.8c-0.2,2-0.3,3.1-0.5,5.5
			c-0.1,1-0.3,1.9-0.6,2.8c-0.4,1-0.8,2-1.4,2.9c0.2,1.3,0.6,3,0.7,5c0.2,2.6,0,7.2-0.3,9.7c-0.1,0.5-0.1,0.9-0.1,1.3l0,0.1
			c-0.1,1.3-0.2,2.6-0.6,4.5c-0.1,0.5-0.3,1.1-0.4,1.6l-0.1,0.2c-0.3,1-0.9,2.7-1.7,4.4c-0.2,0.4-0.3,0.6-0.5,0.9
			c-0.1,0.1-0.1,0.3-0.2,0.4c-0.6,1-2.1,3.5-4.8,5.5c0.2,1.6,0.2,3.2-0.1,4.9l-1,6c-0.4,2.4-1.8,4.6-3.8,6
			C379.1,99.8,377.3,100.4,375.4,100.4z"/>
		<path class="st1" d="M190,2.3c9,0,17.6,1.6,24.4,4.4c13,5.5,14.9,13.9,14.9,18.5c0,0.3,0,0.5,0,0.8c2.9-0.1,5.2-0.2,7.7-0.4
			c0,0,7.4-0.3,7.5-0.3c0.6,0,7.4-0.1,7.4-0.1c0.1,0,36.9-2.2,44.2-2.8c0,0,0,0,0.1,0c0.3,0,32.3-2.5,32.3-2.5l0.1,0
			c4-0.3,7.2-0.6,12-1c0,0,0,0,0.1,0c0.3,0,25.7-2,28.5-2.3c0,0,0.1,0,0.1,0c2.7-0.2,4-0.3,6.7-0.5c0.4,0,1.1-0.1,1.8-0.1
			c1.8,0,3.4,0.2,4.8,0.7c2.2,0.7,4.6,1.6,6.1,3.3c1.9,2,3.5,3.8,4.7,6.6c1.3,3.1,1.9,6.7,1.6,10.3c-0.2,2-0.3,3.1-0.5,5.4
			c-0.1,0.9-0.3,1.7-0.6,2.6c-0.4,1.1-0.9,2.1-1.6,3l0.1,0.3c0.2,1.3,0.6,3,0.7,5c0.2,2.6,0,7-0.3,9.6c-0.1,0.5-0.1,1-0.1,1.4
			c-0.1,1.3-0.2,2.5-0.6,4.3c-0.1,0.5-0.2,1-0.4,1.5l-0.1,0.2l0,0c-0.3,0.9-0.9,2.6-1.6,4.2c-0.2,0.4-0.3,0.6-0.4,0.9
			c-0.1,0.1-0.1,0.2-0.2,0.3c-0.6,1.2-2.2,3.7-5,5.5c0.3,1.4,0.4,3.2,0.1,5.2l-1,6c-0.4,2.2-1.6,4.1-3.4,5.3c-1.4,1-3.1,1.5-4.8,1.5
			c-0.5,0-0.9,0-1.4-0.1l-3.7-0.6c-0.4-0.1-2.2-0.4-2.6-0.4l-3.7-0.6c-0.4-0.1-2.2-0.4-2.6-0.4c0,0-10-1.5-10.9-1.7
			c-2.1-0.4-10.9-1.9-11.9-2c-1.8-0.3-11.4-2.2-11.4-2.2c-2.2-0.4-4.1-1.6-5.3-3.4c-1.3-1.8-1.8-4-1.4-6.2l0.6-3.7
			c0.1-0.6,0.3-1.3,0.6-1.8c-0.2,0-0.5-0.1-0.7-0.1c-0.4,0-0.9-0.1-1.3-0.1c-1.5-0.2-10.9-1.2-11-1.2c-0.9-0.1-4.3-0.4-4.6-0.4
			c-0.4,0-12-1-14-1.1c-0.1,0-0.2,0-0.2,0c-3.1-0.2-7.9-0.5-8-0.5c-0.1,0-2.8-0.2-2.8-0.2c0,0-11.9-0.6-12.6-0.6c-0.2,0-0.4,0-0.5,0
			c-3.4-0.2-5.2-0.3-8.8-0.4c-0.4,0-13.7-0.5-16.1-0.5c0,0-0.1,0-0.1,0l-0.1,0c0,0-0.1,0-0.1,0c-3.3,0-4.9-0.1-8.3-0.1v0l-0.2,0
			l-0.1,0l-0.2,0l-0.2,0c-0.1,0-0.3,0-0.4,0l-2,0c-0.1,0-0.1,0-0.2,0c0,0,0,0,0,0c0,0.4,0,0.9,0,1.3c0,4.6-1.9,13-14.9,18.5
			c-6.8,2.8-15.4,4.4-24.4,4.4c-9,0-17.6-1.6-24.4-4.4c-13-5.5-14.9-13.9-14.9-18.5c0-0.7,0-1.4,0.2-2.3c-1.7,0.3-3.2,0.4-3.8,0.4
			c-2.9,0.1-4.5,0.2-7.6,0.3l-18.8,1c-4,0.3-6,0.5-10,0.9c-0.3,0-0.6,0.1-0.9,0.1c0,0-7.8,0.9-8.8,1c-2.8,0.3-4.2,0.5-7.1,0.8
			c-0.4,0-10.8,1.3-10.8,1.3c-0.1,0-0.2,0-0.3,0c-1.4,0.1-15,1.9-16.6,2.1c-0.4,0-0.7,0.1-1,0.1l-0.1,0c-0.2,0-0.4,0-0.6,0.1
			c-1.7,0.2-2.6,0.3-4.2,0.6c-0.5,0.1-26.7,3.9-26.7,3.9c-0.7,0.1-2.9,0.4-4.8,0.4c-0.5,0-1.1,0-1.5-0.1c-2-0.2-5.2-1-7.2-2.4
			c-1.3-0.7-3.1-3-3.8-3.9c-2.2-2.8-4.5-7.4-5.3-10.3c-0.2-0.8-0.3-1.2-0.6-2c-0.1-0.2-0.1-0.4-0.2-0.6c-0.1-0.2-0.2-0.7-0.4-1.4
			c0-0.1,0-0.1-0.1-0.2l-0.1-0.3C8.8,58.5,9,56,9.6,54c-1-1.5-1.9-3.2-2.8-5.4c-0.8-1.8-2-5.2-3-9.3c-0.6-2.5-1.1-4.4-1.3-6.9
			c-0.3-3.5,0.1-5.5,0.7-7.7l0.1-0.2c0.5-1.5,1.8-6,6.8-8.7c0,0,0.1,0,0.1-0.1c2.1-1.1,4.6-1.7,7-1.7c0.5,0,1.1,0,1.6,0.1
			c0,0,0.1,0,0.1,0c3.8,0.5,5.8,0.7,9.8,1.2c1.2,0.1,11.4,1.6,12.1,1.7c3.1,0.4,4.7,0.6,7.8,1l0,0l4.9,0.5c2.9,0.3,9,0.9,9.1,0.9
			c0.1,0,1.8,0.2,1.8,0.2c0.8,0.1,10.8,1.3,11.5,1.3l0.5,0.1c0.9,0.1,21.9,2.3,21.9,2.3c0.2,0,24.7,1.7,24.7,1.7
			c1.8,0.1,10.6,0.6,10.6,0.6c3.6,0.2,5.3,0.2,8.8,0.3c1.1,0,3.7,0.1,6,0.8c0.9,0.2,1.7,0.5,2.5,0.9c-0.2-1-0.2-1.8-0.2-2.6
			c0-4.6,1.9-13,14.9-18.5C172.3,3.9,181,2.3,190,2.3 M190,0.3c-9.2,0-18.2,1.6-25.2,4.6c-13.8,5.8-16.1,14.9-16.2,20
			c-2.5-0.6-5.1-0.7-6.2-0.7c-3.5-0.1-5.2-0.1-8.8-0.3c-0.1,0-8.8-0.5-10.6-0.6l-0.1,0c-20.4-1.4-23.9-1.7-24.6-1.7
			c-0.8-0.1-21-2.2-21.8-2.3l-0.5-0.1c-0.7-0.1-10.6-1.2-11.4-1.3c0,0-1.8-0.2-1.8-0.2l-0.2,0c-1.1-0.1-6.2-0.6-8.9-0.9l-4.9-0.5
			c-3.1-0.4-4.7-0.6-7.8-1c-0.2,0-2-0.3-4-0.6c-3.3-0.5-7.4-1-8.1-1.1c-4-0.5-5.9-0.8-9.8-1.2l-0.1,0c-0.6-0.1-1.2-0.1-1.9-0.1
			c-2.8,0-5.6,0.7-8,2l-0.1,0.1c-5.7,3.1-7.3,8.2-7.8,9.9l-0.1,0.2c-0.7,2.3-1.1,4.7-0.8,8.5c0.2,2.7,0.6,4.7,1.3,7.3
			C2.8,44,4,47.5,4.8,49.4c0.7,1.8,1.6,3.4,2.5,4.9c-0.5,2.4-0.4,5,0.4,7.7l0.1,0.3c0,0.1,0.1,0.2,0.1,0.3c0.2,0.6,0.3,1.1,0.4,1.3
			c0.1,0.2,0.1,0.5,0.2,0.7c0.2,0.8,0.3,1.2,0.6,2c1,3.4,3.4,8.2,5.7,11.1c1.8,2.2,3.2,3.7,4.3,4.4c2.9,2,7.2,2.7,8,2.8
			c0.5,0.1,1.1,0.1,1.8,0.1c2,0,4.3-0.3,5.1-0.4c1.5-0.2,25.6-3.8,26.7-3.9c1.7-0.2,2.5-0.3,4.2-0.6c0.2,0,0.3,0,0.5-0.1l0,0
			c0.3,0,0.7-0.1,1.1-0.1c3.2-0.4,15.3-2,16.5-2.1c0.1,0,0.2,0,0.3,0c0,0,0,0,0,0c0,0,10.4-1.2,10.8-1.3c2.8-0.3,4.2-0.5,7.1-0.8
			c0.9-0.1,8.7-1,8.7-1c0.3,0,0.6-0.1,0.9-0.1c3.9-0.4,5.9-0.6,9.9-0.9l18.8-1c3.1-0.1,4.6-0.2,7.6-0.3c0.3,0,0.9,0,1.5-0.1
			c0,5.1,2.2,14.4,16.2,20.3c7,2.9,15.9,4.6,25.2,4.6c9.2,0,18.2-1.6,25.2-4.6c13.4-5.6,16-14.4,16.2-19.6l0.1,0c0.1,0,0.3,0,0.4,0
			l0.2,0l0.2,0l0.1,0l0.2,0c3.3,0,5,0,8.3,0.1l0.2,0l0.1,0l0.1,0c1,0,4.4,0.1,15.3,0.5l0.7,0c3.5,0.1,5.3,0.2,8.8,0.4
			c0.2,0,0.4,0,0.7,0c0.7,0,11.5,0.6,12.5,0.6l0,0c0,0,2.5,0.1,2.7,0.2c0,0,0.4,0,1,0.1c1.6,0.1,4.8,0.3,7,0.5c0.1,0,0.2,0,0.3,0
			c1.9,0.1,13.3,1,13.8,1.1c0.1,0,0.9,0.1,2.5,0.2c0.9,0.1,1.7,0.2,2.1,0.2c0,0,8.1,0.9,10.5,1.2l-0.6,3.4c-0.5,2.7,0.2,5.5,1.7,7.7
			c1.6,2.2,4,3.7,6.7,4.2c0.6,0.1,9.7,1.9,11.4,2.2l2.7,0.5l9.1,1.6c0.9,0.2,10.3,1.6,11,1.7l0.8,0.1l1.8,0.3l3.7,0.6l0.9,0.1
			l1.7,0.3l3.7,0.6c0.6,0.1,1.2,0.1,1.8,0.1c2.1,0,4.2-0.7,6-1.9c2.3-1.6,3.8-4,4.2-6.7l1-6c0.3-1.6,0.3-3.1,0.2-4.6
			c2.4-1.9,3.9-4.2,4.6-5.5c0.1-0.1,0.1-0.3,0.2-0.4c0.2-0.4,0.3-0.6,0.5-1c0.8-1.7,1.4-3.5,1.7-4.4l0,0l0.1-0.2
			c0.2-0.5,0.3-1.1,0.5-1.7c0.4-1.9,0.5-3.3,0.6-4.6l0,0c0-0.4,0.1-0.9,0.1-1.4c0.3-2.6,0.4-7.2,0.3-9.9c-0.1-1.9-0.4-3.5-0.6-4.8
			c0.5-0.9,1-1.8,1.3-2.7c0.4-1,0.6-2,0.7-3.1c0.2-2.3,0.3-3.4,0.5-5.5c0.3-4-0.3-7.9-1.8-11.3c-1.3-2.9-2.9-4.9-5-7.2
			c-1.9-2.1-4.5-3.1-6.9-3.9c-1.6-0.5-3.5-0.8-5.5-0.8c-0.8,0-1.5,0-2,0.1c-2.7,0.2-4,0.3-6.7,0.5l-0.1,0
			c-2.4,0.2-22.2,1.8-28.2,2.3l-0.3,0l-0.1,0c-4.7,0.4-7.8,0.7-11.7,1l-0.3,0l-0.1,0l0,0c0,0-32,2.4-32.3,2.5l-0.1,0
			c-7.1,0.6-43,2.7-44.1,2.8c-2.7,0.1-6.9,0.1-7.3,0.1c-0.1,0-0.2,0-7.6,0.3c-1.8,0.1-3.6,0.2-5.6,0.3c-0.4-5.3-3.2-13.6-16.2-19.1
			C208.1,1.9,199.2,0.3,190,0.3L190,0.3z"/>
	</g>
	<ellipse class="st1" cx="189.8" cy="50.8" rx="17.1" ry="18.5"/>
	<rect x="288" y="41.4" class="st1" width="15.9" height="15.9"/>
	<g>
		<path class="st2" d="M190,85.4c-16.6,0-29.7-5.8-29.7-13.3c0-5.7,7.3-10.4,18.9-12.4l1.6-0.3c0.8-2.9,1.2-6.6,1.4-10.9
			c0.1-4.1-0.2-7.6-1.1-10.6l-1.5-0.2c-11.7-1.9-19.3-6.8-19.3-12.4c0-7.4,13-13.3,29.7-13.3c16.6,0,29.7,5.8,29.7,13.3
			c0,4.9-5.6,9.3-15,11.6l-2,0.5l0.1-0.9c-0.1,0.1-0.1,0.2-0.2,0.3c-1.8,3.2-2.8,7.3-2.9,12.2c-0.1,4.2,0.1,7.8,0.5,10.7l0.9,0.2
			c11.4,2,18.5,6.7,18.5,12.3C219.7,79.6,206.6,85.4,190,85.4z M186.6,29.5c1.3,2.4,2,5.9,2.3,11.8c0.4-5.6,1.3-9.5,2.4-12.1
			c-0.7,0.8-1,1.5-1.1,1.6l-1.1,2.2l-1.3-2C187.5,30.3,187.1,29.9,186.6,29.5z"/>
		<path class="st1" d="M190,13.3c15.6,0,28.3,5.3,28.3,11.9c0,4.4-5.6,8.2-14,10.2l0.1-0.3c1.4-0.5,6.2-6.4,6.2-6.4
			s-5.6,0.9-9.2,7.3c-1.7,3-2.9,7.1-3.1,12.8c-0.1,5.3,0.2,9.2,0.7,12c1.3,6.8,3.8,7.2,3.8,7.2l-2-6.8c0,0,0-0.1,0-0.1
			c10.2,1.8,17.4,6,17.4,11c0,6.6-12.7,11.9-28.3,11.9c-15.6,0-28.3-5.3-28.3-11.9c0-5,7.4-9.3,17.8-11l-2.4,6.1
			c0,0,2.9-0.1,4.8-6.5c0.8-2.7,1.5-6.6,1.7-12.2c0.2-5.1-0.4-9-1.4-11.9c-2.8-8.4-8.7-9.3-8.7-9.3s4.1,6.2,6.4,9
			c-10.6-1.7-18.1-6-18.1-11.1C161.7,18.7,174.3,13.3,190,13.3 M189.1,30.1c-2.1-3.2-6-3.3-6.6-3.3c-0.1,0-0.1,0-0.1,0
			c3.3,2.4,5.3,5.6,5.3,20.9c0,15.3-5.9,21.6-5.9,21.6c6.4-4.7,7.6-10.9,8.5-27.4c0.9-16.5,6.7-17,6.7-17c-0.1,0-0.1,0-0.2,0
			C191.6,25,189.1,30.1,189.1,30.1 M190,10.6c-15.1,0-31.1,5.1-31.1,14.6c0,6.5,7.8,11.8,20.4,13.8l0.7,0.1c0.7,2.7,0.9,5.8,0.8,9.4
			c-0.1,3.9-0.5,7.1-1.1,9.8l-0.7,0.1c-12.4,2.1-20.1,7.4-20.1,13.7c0,9.5,16,14.6,31.1,14.6c15.1,0,31.1-5.1,31.1-14.6
			c0-6.3-7.5-11.5-19.6-13.7c-0.3-2.6-0.5-5.8-0.4-9.5c0.1-4.1,0.8-7.6,2.1-10.4l1.8-0.4c10.2-2.5,16.1-7.2,16.1-12.9
			C221,15.7,205,10.6,190,10.6L190,10.6z"/>
	</g>
	<g class="st3">
		<path class="st4" d="M191.5,55.6c0,0-2.1-18.9,4.2-26.8c0,0,1.5-2.4,3.8-1.5c2.3,0.9,0.3,5-1.7,7.1c-2,2.1-4.2,5.3-4.5,15.1
			C193.3,49.5,192.8,56.6,191.5,55.6z"/>
		<g>
			<path class="st4" d="M166.3,72c0.3,0.4,0.5,0.8,0.9,1.3c2.3,2.4,5.2,4.1,8.2,5.3c5.7,2.3,11.9,2.8,18,2.2l-0.2,1.7l0,0.3
				c-1.1,0.1-2.2,0.1-3.3,0.1c-15.1,0-27.4-5.1-27.4-11.5c0,0,0.1-1.4,1.6-1.5c0.8-0.1,1.4,0.6,1.7,1.3
				C166,71.5,166.2,71.8,166.3,72z"/>
			<path class="st4" d="M196.3,80.8l0.3,1.8c1.3-0.2,2.5-0.4,3.8-0.6c0,0,0.1,0,0.1,0l-0.3-1.8C198.9,80.4,197.6,80.6,196.3,80.8z"
				/>
			<path class="st4" d="M203.6,81.2l0-0.3l-0.2-1.7c-0.6,0.2-1.3,0.4-1.9,0.5l0.3,1.8C202.4,81.5,203,81.3,203.6,81.2z"/>
		</g>
		<g>
			<path class="st4" d="M166.5,25.5c0.2-0.4,0.5-0.8,0.9-1.3c2.3-2.4,5.2-4.1,8.2-5.3c5.7-2.3,11.9-2.8,18-2.2l-0.2-1.7l0-0.3
				c-1.1-0.1-2.2-0.1-3.3-0.1c-15.1,0-27.4,5.1-27.4,11.5c0,0,0.1,1.4,1.6,1.5c0.8,0.1,1.4-0.6,1.7-1.3
				C166.2,26,166.4,25.8,166.5,25.5z"/>
			<path class="st4" d="M196.5,16.7l0.3-1.8c1.3,0.2,2.5,0.4,3.8,0.6c0,0,0.1,0,0.1,0l-0.3,1.8C199.1,17.2,197.8,16.9,196.5,16.7z"
				/>
			<path class="st4" d="M203.8,16.3l0,0.3l-0.2,1.7c-0.6-0.2-1.3-0.4-1.9-0.5l0.3-1.8C202.6,16.1,203.2,16.2,203.8,16.3z"/>
		</g>
	</g>
	<g>
		<path class="st1" d="M101.9,62.1c0-0.2-0.2-1.1-0.3-1.3c-0.2-0.8-0.3-1.2-0.4-2c0-0.5-0.2-1.2-0.7-2.2l0-0.1c0-0.1,0-0.2-0.1-0.3
			c-0.1-0.3-0.2-0.8-0.4-1.3c-0.3-1-0.7-2-1.2-2.6c0,0,0,0,0,0c-0.3-0.3-0.4-0.6-0.6-0.8c0.8-2.4,0.9-4.7,0.2-7.9
			c-0.5-2-1-3.5-1.9-5c-1.7-2.8-3.9-4.2-5.5-4.9c-1.4-0.7-3.5-1.1-6.1-1.4c-1.4-0.1-2.2-0.2-3.6-0.4c-0.6-0.1-1.2-0.2-1.7-0.2
			c-0.2,0-0.5-0.1-0.7-0.1c-0.3-0.1-0.7-0.2-1.1-0.2l-0.5-0.1c-0.5-0.1-1.4-0.1-2.2-0.2c-0.6,0-1.3-0.1-1.6-0.1c-0.1,0-0.1,0-0.2,0
			c-1.3-0.2-1.9-0.2-3.2-0.4c-0.1,0-0.2,0-0.2,0c-0.5,0-1,0.2-1.3,0.5c-0.3,0.3-0.5,0.6-0.7,0.9c-0.2-0.5-0.5-0.9-0.9-1.4
			c-0.3-0.4-0.8-0.6-1.3-0.7l-1.6-0.2c0,0,0,0-0.1,0c-3.6-0.4-6.1-0.6-9-0.9l-5-0.5l-0.1,0c-3.1-0.4-4.7-0.6-7.8-1
			c-0.3,0-0.5-0.1-0.8-0.1c-0.4,0-0.8,0-1.2,0.1l0,0c-0.7,0.2-1.6,0.8-1.8,2.1c-1.3-1.5-2.3-2.3-3.8-2.8c-1.7-0.7-4.1-1-4.5-1
			c-4-0.5-5.9-0.8-9.8-1.2c-0.2,0-0.5,0-0.7,0c-1.1,0-2.3,0.3-3.1,0.7c-1.8,1-2.4,2.5-2.8,3.8L13.4,29c-0.4,1.2-0.6,2.1-0.4,4.5
			c0.2,1.9,0.5,3.4,1,5.5c0.9,3.6,2,6.7,2.6,8.2c1.6,3.9,3.4,5.9,4.9,7.3c0.6,0.6,1.2,1.1,1.8,1.5c-0.3,0-0.7,0.1-1.1,0.1
			c-0.8,0.1-1.6,0.5-2,1.1c-0.8,1.2-0.5,2.8-0.2,3.9l0.1,0.3c0,0,0,0,0,0c0.3,1,0.5,1.8,0.6,2c0,0.1,0,0.1,0,0.2
			c0.2,0.8,0.3,1.2,0.6,2c0.6,2,2.4,5.3,3.7,6.6c1.4,1.4,3.1,1.8,4.6,2.1c0.4,0.1,0.9,0.1,1.4,0.1c0.4,0,0.7,0,1.1-0.1l0.3-0.1
			l0.7-0.1c3.3-0.5,4.9-0.8,8.2-1.3c0.3,0,3.3-0.5,5-1.7c1.7-1.2,2.2-3.2,2.3-3.6c0,0,0-0.1,0-0.1c0.1-0.3,0.1-0.5,0.1-0.8
			c0.2-1.3,0.2-2.5,0.2-3.2l0-0.2c0-0.8-0.5-3.3-1-5.1c-0.5-1.9-1.8-5.4-2.7-7.2c-0.7-1.3-1.4-2.4-2.1-3.4c-0.1-0.2-0.3-0.4-0.4-0.6
			l0-0.1c-0.6-0.9-1.2-1.7-2.1-2.5l-0.1-0.1c-0.3-0.3-0.5-0.5-0.7-0.7c0.1,0,0.2,0,0.2,0c1.2,0,2.2-0.6,2.6-1.5c0.1,0,0.2,0,0.2,0
			c1.3,0.1,2.4,0.2,3.5,0.2c1.1,0.1,2.2,0.1,3.5,0.2c0.8,3.5,1.7,6.9,2.5,10.3c0.9,3.8,1.8,7.7,2.8,11.7c0.1,0.3,0.2,0.7,0.3,1.1
			c0.2,0.6,0.3,1.2,0.4,1.6c0,0.2,0,0.3,0.1,0.5c0,0.1-1.6,0.1-1.5,0.3c0.1,0.4,1.1,1.5,2.1,2c0.5,0.3,1.5,0.5,1.9,0.5
			c0.2,0,0.4,0,0.6-0.1l0.1,0c1.7-0.2,2.6-0.4,4.4-0.6c0.3,0,0.5-0.1,0.8-0.1c0.1,0,0.2,0,0.3,0c0.2,0,0.4,0,0.5-0.1
			c1-0.1,1.6-0.2,2.1-0.5c0.8-0.4,1.2-1.3,1-2.2c-0.2-1-0.5-2.1-0.8-3.3c-0.2-0.6-0.3-1.3-0.5-2.1c0,0,0-0.1,0-0.1
			c0-0.2-0.1-0.3-0.1-0.4c-0.1-0.2-0.1-0.4-0.2-0.6c-0.2-0.6-0.3-1.1-0.4-1.5c-0.1-0.4-0.1-0.7-0.2-1.2c0-0.1,0-0.1,0-0.2L65.7,56
			c-0.1-0.4-0.2-0.9-0.4-1.4c-0.1-0.4-0.3-0.9-0.4-1.4c-0.3-1.2-0.6-2.1-0.8-2.9c-0.3-1.1-0.5-1.8-0.8-2.7c-0.3-1.2-0.5-2-0.7-2.9
			c-0.1-0.3-0.1-0.6-0.2-1c0,0,0,0,0,0c0,0,0.1,0,0.1,0c1.9-0.1,2.8-0.1,4.7-0.2c0.6,0,1.2-0.1,1.7-0.5c0.3-0.2,0.5-0.5,0.7-0.8
			c0.2,0.9,0.5,2,0.8,3.3c1.4,5.6,1.6,6.3,3.1,13.4l0,0.1c0,0,0,0,0,0.1c0,0.2,0.1,0.3,0.1,0.5c0.1,0.2,0.1,0.5,0.2,0.7
			c0.3,1.4,0.4,2,0.7,3.3c0,0,0,0,0,0c0.3,1.1-1.6,1.2-1.1,2c0.4,0.7,1.2,1.4,1.6,1.6c0.7,0.4,1.6,0.8,2.4,0.8c0.1,0,0.2,0,0.4,0
			l0.4-0.1l0.2,0c1.4-0.1,2.1-0.2,3.5-0.3c0,0,0,0,0.1,0l2-0.2c0.5-0.1,1-0.2,1.5-0.6c0.6-0.4,0.9-1.1,0.9-1.8
			c-0.1-1-0.3-2.1-0.5-3.3c-0.3-1.3-0.5-2.1-0.9-3.7c-0.1-0.4-0.2-0.7-0.2-1c0.6,0,1.1-0.1,1.9-0.1c0.6,0,0.9,0,1.5,0
			c0.1,0,0.2,0.2,0.5,0.6c0.3,0.5,0.6,1.1,0.7,1.6c0.4,1.9,0.6,2.8,0.9,4.2c0,0-1.1,0.7-1.1,0.7c0.1,0.3,0.7,1.1,1.5,1.6
			c0.6,0.4,1.4,0.6,2.1,0.6c0.1,0,0.2,0,0.2,0c2.8-0.3,4.3-0.5,7.1-0.8c0.6-0.1,1.2-0.4,1.6-0.9c0.4-0.5,0.5-1.2,0.4-1.9L101.9,62.1
			z M26.5,40.2l0.5,0l3.2,0.3c0,0,0.1,0,0.1,0c0.1,0,0.6,0.1,0.9,0.1c0,0,0,0,0,0.1c-1.5-0.1-2.8-0.1-4.5-0.2c0,0,0,0-0.1,0
			C26.6,40.5,26.6,40.4,26.5,40.2z M34.3,57.4c0.1,0,0.1,0,0.2,0c0.3,0,0.5,0,0.5,0.1c0.1,0.1,0.1,0.1,0.2,0.1l0.1,0.1
			c0.1,0.1,0.1,0.1,0.1,0.2l0.2,0.9c-0.7,0.1-1.3,0.2-2,0.3c-0.6,0.1-1.2,0.2-1.9,0.3c-0.1,0-0.3,0-0.6,0.1
			c-0.1-0.2-0.2-0.3-0.2-0.4c-0.2-0.5-0.4-1-0.6-1.4C31.9,57.5,32.8,57.5,34.3,57.4z"/>
		<path class="st1" d="M180.7,49.1c-0.4-0.7-0.8-1.2-1.3-1.6c0.5-0.1,0.9-0.4,1.3-0.8c0.3-0.4,0.5-0.8,0.5-1.3v-0.7l0-1.6
			c0-1.4-0.7-2.8-2.1-4.3c-1.1-1.1-2-1.7-3.3-2.1c-1.5-0.4-3.6-0.4-4-0.4l-0.1,0l-3.8,0c-1.6,0-3.1,0-5.2,0c0,0,0,0,0,0c0,0,0,0,0,0
			c-1.6,0-3.1,0.6-3.5,0.8c-1.6,0.7-2.4,1.6-3,2.3l-0.1,0.1c-0.5,0.6-1.1,1.2-1.6,2.6c-0.1,0.2-0.1,0.4-0.2,0.6
			c-0.2-1.3-0.9-2.7-2.4-4c-1.1-1.1-2.1-1.7-3.4-2c-1.6-0.4-3.7-0.5-4.1-0.5c-3.6-0.1-5.4-0.2-9-0.3c-0.1,0-0.2,0-0.2,0h0
			c-1.5,0-2.9,0.5-3.3,0.7c-1.6,0.7-2.4,1.6-3,2.4l-0.1,0.1c-0.3,0.4-0.7,0.9-1,1.7l-0.2-1.1l-0.1-0.5l-0.2-1.8
			c-0.1-0.6-0.4-1.2-0.9-1.5c-0.3-0.2-0.9-0.5-1.8-0.6c-7.7-0.5-15.9-1-24.2-1.7c0,0-0.1,0-0.1,0l-1.2,0c0,0-0.1,0-0.1,0
			c0,0,0,0,0,0c-0.6,0-1.2,0.3-1.7,0.8c-0.3,0.3-0.5,0.8-0.5,1.6c0,0,0,0,0,0c0,0.4,0,0.7,0.2,1.7c0.7,3.8,1.3,6.3,2.3,10.8l0.1,0.6
			c0.5,2.2,0.8,3.9,1.1,5.2c0.6,2.5,0.9,4,1.4,6.5c0,0.2,0.1,0.3,0.1,0.5c0.1,0.2-0.2,1.5-0.1,1.7c0.3,0.5,0.8,1.1,1.2,1.3
			c0.7,0.4,1.2,0.5,2,0.5c0.1,0,0.2,0,0.3,0c1.1-0.1,1.6-0.2,2.7-0.3c0.2,0,0.4,0,0.6-0.1c0.3,0,0.6-0.1,0.7-0.1
			c4.1-0.4,6.1-0.6,10.3-1c0,0,0,0,0,0c2.9-0.3,4.3-0.4,7-0.6l0.5,0c0,0,0.1,0,0.1,0c0.1,0,0.2,0,0.3,0l0.3,0c0.4,0,0.7-0.1,0.9-0.3
			c0.4-0.2,0.7-0.4,0.9-0.8l0.1-0.2c0.4-0.6,0.4-1.5,0.1-2.1c0-0.1,0-0.3-0.1-0.4l0.2,0.3c0.5,0.7,0.8,0.9,1.3,1.2
			c1.3,0.9,2.6,1.3,3.9,1.6l0.1,0c0.5,0.1,1.1,0.3,1.9,0.3c0.2,0,0.3,0,0.5,0l1-0.1c3.3-0.1,4.8-0.2,7.8-0.3c1,0,3.3-0.2,4.7-0.9
			c1.5-0.7,2.4-2,2.6-2.3c0,0,0-0.1,0.1-0.1l0.3-0.5c0.4-0.6,0.6-1.1,0.7-1.5c0.5,1.1,1.2,2.3,1.8,2.9c1,1.1,2.5,1.6,3.7,2l0.1,0
			c0.5,0.2,1.1,0.3,2,0.3c0.1,0,0.2,0,0.3,0l1,0c3.1,0,4.6-0.1,7.7-0.1l0.2,0c0,0,0,0,0,0c1,0,3.4-0.2,5-0.8
			c1.6-0.7,2.6-1.8,2.9-2.2c0,0,0-0.1,0.1-0.1l0.3-0.5c0.6-0.8,0.8-1.4,1-1.8c0,0,0-0.1,0-0.1c0,0,0-0.1,0.1-0.1
			c0.3-0.7,0.5-2.2,0.5-3.1C181.7,52,181.3,50.2,180.7,49.1z M154.1,46.6c0.1-0.1,0.1-0.2,0.2-0.3c0.1,0.9,0.4,1.8,0.7,2.4
			c0.3,0.7,0.8,1.3,1.3,1.8c-0.4,0.2-0.6,0.4-0.8,0.6c-0.1,0.1-0.1,0.1-0.2,0.2c-0.2-0.8-0.5-1.7-0.9-2.2c-0.4-0.7-0.9-1.2-1.4-1.7
			C153.3,47.3,153.7,47,154.1,46.6z M128.5,48.8c0.4,0.9,1,1.5,1.6,2.1c-0.4,0.2-0.7,0.4-0.9,0.7c-0.2,0.3-0.5,0.6-0.6,1.1
			c-0.4-0.3-0.9-0.5-1.4-0.5c0,0-0.1,0-0.1,0c-0.1,0-0.4,0-0.7,0.1l-0.1,0l0,0l-0.3,0c-0.1,0-0.1,0-0.2,0c0,0-0.1,0-0.1,0l-0.3,0
			c0,0,0,0,0,0l0-0.6c0-0.1,0-0.1,0-0.2l-0.1-0.9c0-0.1,0-0.2-0.1-0.3c-0.1-0.2-0.1-0.6-0.2-0.9c0-0.1,0-0.3-0.1-0.4l0,0
			c0,0,0,0,0-0.1c0-0.4,0-0.7-0.1-1.2c0-0.1,0-0.7-0.1-1c0-0.1,0-0.2,0-0.3l0.1,0c0.1,0,0.2,0,0.2,0c1.2,0,1.9-0.4,2.4-0.8
			C127.7,46.7,128,47.9,128.5,48.8z"/>
	</g>
	<g>
		<g>
			<g>
				<path class="st5" d="M28.7,71.7c-0.5,0-0.9-0.1-1.2-0.1c-1.4-0.2-2.8-0.6-4.1-1.8c-1.1-1.2-2.9-4.3-3.4-6.2l-0.6-2
					c0,0,0-0.1,0-0.1c0-0.1-0.2-0.9-0.6-2.1l-0.1-0.3c-0.4-1.4-0.4-2.4,0.1-3c0.3-0.4,0.8-0.7,1.3-0.7c1.9-0.1,2.9-0.2,4.7-0.3
					c-1.4-0.3-2.9-1.3-4.8-3c-1.4-1.3-3.1-3.3-4.6-6.9c-0.6-1.5-1.7-4.4-2.6-8c-0.5-2.1-0.8-3.5-1-5.3c-0.2-2.4,0.1-3.2,0.4-4.2
					l0.1-0.2c0.4-1.2,0.9-2.5,2.3-3.3c0.8-0.4,1.8-0.6,2.7-0.6c0.2,0,0.4,0,0.6,0c3.8,0.5,5.8,0.7,9.8,1.2c0.4,0.1,2.6,0.3,4.2,1
					c1.3,0.5,2.3,1.2,3.5,2.7c1.6,1.9,2.7,3.8,3.2,5.8c0.4,1.8,0.7,2.8,1.2,4.8c0,0.1,0,0.3,0,0.4c-0.2,0.9-0.9,1.5-1.9,1.5
					c-0.1,0-0.1,0-0.2,0l-1.8-0.1c0,0-0.1,0-0.1,0L34,40.5l-0.6-0.1c0.5,0.1,0.9,0.3,1.2,0.5c0.6,0.3,0.9,0.6,1.3,0.9
					c0.1,0.1,0.2,0.2,0.3,0.2c0.6,0.5,0.9,0.7,1.3,1.2l0.1,0.1c0.9,0.8,1.3,1.4,2,2.4l0.5,0.7c0.7,1,1.4,2,2.1,3.3
					c0.9,1.7,2.1,5.1,2.6,7c0.5,1.8,0.9,4.2,0.9,4.9l0,0.3c0,0.6,0.1,1.7-0.1,3c-0.1,0.3-0.1,0.5-0.1,0.8c-0.1,0.3-0.5,2.1-2,3.1
					c-1.2,0.9-3.4,1.4-4.6,1.5c-3.3,0.5-5,0.8-8.3,1.3l-1,0.2C29.3,71.7,29,71.7,28.7,71.7z M28.4,58.6c0,0,0.1,0,0.2,0
					c0.4,0,0.8-0.1,1-0.1c0.8-0.1,1.4-0.2,1.9-0.3c0.9-0.1,1.7-0.3,2.9-0.4c0-0.2,0-0.5-0.1-1l-0.3-1c-0.1-0.4-0.3-0.6-0.5-0.7
					l-0.1-0.1c-0.1-0.1-0.2-0.1-0.4-0.2c-0.2-0.1-0.5-0.2-1-0.2c-0.1,0-0.2,0-0.2,0c-1.7,0.1-2.5,0.1-4.2,0.2
					c-0.5,0.1-0.9,0.1-1.2,0.1l-0.3,0c0.2,0.1,0.4,0.2,0.5,0.3c0.1,0.1,0.2,0.2,0.2,0.3c0.2,0.4,0.6,1.2,0.8,1.9
					C28,57.9,28.3,58.5,28.4,58.6C28.4,58.6,28.4,58.6,28.4,58.6z M24.1,39.9c2.8,0.1,4.3,0.2,7,0.3c0,0,0,0,0,0
					c-0.2-0.1-0.8-0.5-1.2-1.4c-0.1-0.3-0.2-0.5-0.3-0.6c-0.3-0.1-1.3-0.2-1.5-0.3l-3.3-0.4c0,0-1.1-0.1-1.1-0.1c-0.2,0-0.4,0-0.5,0
					c0,0-0.1,0-0.1,0c0,0,0,0-0.1,0.1c0,0.1,0,0.2,0.1,0.5l0.1,0.4c0.2,0.9,0.4,1.1,0.4,1.1l0.1,0.1C23.9,39.7,24,39.8,24.1,39.9z"
					/>
				<path class="st1" d="M17.2,24.4c0.2,0,0.3,0,0.5,0c3.8,0.5,5.8,0.7,9.8,1.2c0.7,0.1,2.6,0.4,4,0.9c1.1,0.4,1.9,1,3.1,2.4
					c2,2.3,2.7,4.2,3,5.3c0.4,1.8,0.7,2.8,1.2,4.8c-0.1,0.3-0.2,0.6-0.9,0.6c0,0-0.1,0-0.1,0c-0.7,0-1.1-0.1-1.8-0.1
					c-0.7-0.1-1-0.2-1.7-0.3c-0.6-0.1-0.9-0.1-1.5-0.2c-0.4,0-0.6,0-1-0.1c-0.1-0.1-0.5-0.3-0.8-1c-0.4-1-0.6-1-0.8-1.1
					c-0.2-0.1-1.6-0.3-1.9-0.3c-1.3-0.1-2-0.2-3.2-0.4c-0.4,0-0.7,0-1.1-0.1c0,0-0.1,0-0.1,0c-0.2,0-0.7,0-0.8,0.1
					c-0.4,0-0.5,0.3-0.6,0.3c0,0,0,0,0,0c-0.3,0.1-0.4,0.6-0.2,1.5c0,0.2,0.1,0.2,0.1,0.4c0.3,1.1,0.5,1.4,0.7,1.6
					c0.4,0.3,0.5,0.4,0.9,0.6c3.2,0.1,4.8,0.2,8,0.3c1.1,0,1.7,0.3,2.3,0.7c0.6,0.3,1,0.7,1.4,1c0.6,0.5,0.8,0.7,1.3,1.2
					c0.8,0.7,1.2,1.3,1.9,2.3c0.7,1.1,1.7,2.3,2.4,3.8c0.8,1.6,2,5,2.5,6.8c0.5,1.8,0.9,4.1,0.9,4.7c0,0.6,0.1,1.7-0.1,3
					c-0.1,0.3-0.1,0.5-0.1,0.8c-0.1,0.4-0.6,1.7-1.5,2.4c-1,0.7-3,1.2-4.1,1.4c-3.3,0.5-5,0.8-8.3,1.3c-0.4,0.1-0.6,0.1-1.1,0.2
					c-0.3,0.1-0.5,0.1-0.7,0.1c-0.4,0-0.7-0.1-1.1-0.1c-1.2-0.2-2.5-0.5-3.5-1.5c-1-1-2.7-4-3.2-5.7c-0.2-0.8-0.3-1.2-0.6-2
					c0-0.3-0.5-1.9-0.6-2.3c0-0.1-0.1-0.2-0.1-0.3c-0.3-0.9-0.5-2.4,0.5-2.5c2.1-0.2,3.2-0.2,5.4-0.4c0,0,0,0,0.1,0
					c0.2,0,0.3,0.1,0.5,0.2c0.2,0.4,0.5,1,0.8,1.7c0.2,0.5,0.6,1.3,0.9,1.6c0.3,0.2,0.6,0.3,0.9,0.3c0.1,0,0.1,0,0.1,0
					c0.4,0,0.8-0.1,1-0.1c2-0.3,3-0.5,5-0.7c0.7-0.1,1-0.8,0.6-2.3c-0.1-0.4-0.2-0.6-0.3-1c-0.2-0.8-0.7-1.1-0.9-1.3
					c-0.2-0.1-0.3-0.2-0.5-0.3c-0.5-0.2-1-0.3-1.5-0.3c-0.1,0-0.2,0-0.3,0c-1.7,0.1-2.6,0.1-4.3,0.2c-0.5,0.1-0.9,0.1-1.2,0.1
					c-0.3,0-0.4,0-0.7,0c-0.1,0-0.1,0-0.2,0c-1.3,0-2.9-0.9-5-2.8c-1.3-1.2-2.9-3-4.4-6.6c-0.6-1.5-1.7-4.5-2.5-7.9
					c-0.5-2-0.8-3.3-1-5.1c-0.2-2.4,0.1-3,0.4-4c0.3-1.1,0.7-2,1.8-2.7C15.5,24.7,16.3,24.4,17.2,24.4 M17.2,22.4
					C17.2,22.4,17.2,22.4,17.2,22.4c-1.1,0-2.3,0.3-3.2,0.8c-1.8,1-2.4,2.5-2.8,3.9l-0.1,0.2c-0.4,1.2-0.6,2.2-0.4,4.6
					c0.2,1.9,0.5,3.4,1,5.5c0.9,3.6,2,6.7,2.6,8.2c1.6,3.9,3.5,5.9,4.9,7.3c0.6,0.6,1.2,1,1.7,1.5c-0.3,0-0.6,0-1,0.1
					c-0.9,0.1-1.6,0.5-2.1,1.2c-0.9,1.2-0.5,2.8-0.2,3.9l0.1,0.3c0,0,0,0,0,0c0.3,1,0.5,1.8,0.6,2c0,0.1,0,0.2,0,0.2
					c0.2,0.8,0.3,1.2,0.6,2c0.6,2,2.4,5.3,3.7,6.6c1.4,1.5,3.1,1.9,4.6,2.1c0.4,0.1,0.9,0.1,1.4,0.1c0.4,0,0.7,0,1.1-0.1l0.2,0
					l0.8-0.1c3.3-0.5,4.9-0.8,8.2-1.3c0.3,0,3.4-0.5,5-1.7c1.7-1.2,2.2-3.2,2.3-3.6c0,0,0-0.1,0-0.1c0.1-0.3,0.1-0.5,0.1-0.8
					c0.2-1.3,0.2-2.5,0.2-3.2l0-0.2c0-0.8-0.5-3.4-1-5.1c-0.5-1.9-1.8-5.4-2.7-7.2c-0.7-1.3-1.4-2.4-2.1-3.4
					c-0.1-0.2-0.3-0.4-0.4-0.6l0-0.1c-0.7-0.9-1.2-1.7-2.1-2.5l0-0.1c-0.2-0.2-0.4-0.4-0.6-0.6c0,0,0.1,0,0.1,0
					c1.6,0,2.7-0.9,2.9-2.3c0-0.3,0-0.6,0-0.9c-0.5-2-0.8-3-1.2-4.8c-0.5-2.1-1.7-4.2-3.4-6.2c-1.4-1.6-2.4-2.4-3.9-3
					c-1.7-0.7-4.1-1-4.5-1c-4-0.5-5.9-0.8-9.8-1.2C17.6,22.4,17.4,22.4,17.2,22.4L17.2,22.4z M24.4,38.8c0-0.1-0.1-0.2-0.1-0.3
					l0.4,0l3.2,0.3c0,0,0.1,0,0.1,0c0.1,0,0.4,0,0.6,0.1C27.4,38.9,26.1,38.9,24.4,38.8C24.4,38.8,24.4,38.8,24.4,38.8L24.4,38.8z
					 M28.3,55.9c1.4-0.1,2.2-0.1,3.8-0.2c0.1,0,0.1,0,0.2,0c0.3,0,0.4,0,0.5,0.1c0.1,0.1,0.1,0.1,0.2,0.1l0.1,0.1
					c0.1,0.1,0.1,0.1,0.1,0.2l0.2,0.9c-0.7,0.1-1.3,0.2-1.9,0.3c-0.6,0.1-1.2,0.2-1.9,0.3c-0.1,0-0.3,0-0.5,0.1
					c-0.1-0.1-0.1-0.3-0.2-0.4C28.6,56.7,28.5,56.3,28.3,55.9L28.3,55.9z"/>
			</g>
			<g>
				<path class="st5" d="M56.2,67.7c-0.2,0-0.5-0.1-0.7-0.2c-0.6-0.3-0.8-0.9-0.8-1.2c0-0.2-0.1-0.3-0.1-0.5c0-0.1,0-0.3-0.1-0.5
					c-0.1-0.5-0.3-1.1-0.4-1.7c-0.1-0.4-0.2-0.7-0.3-1c-0.9-4-1.9-7.9-2.8-11.7c-0.9-3.6-1.7-7.2-2.6-11c-1.6-0.1-2.9-0.2-4.2-0.3
					c-1.1-0.1-2.1-0.1-3.5-0.2c-0.4,0-0.7-0.2-0.8-0.5c-0.1-0.1-0.1-0.2-0.1-0.2c-0.1-0.1-0.1-0.2-0.2-0.3c-0.2-0.3-0.3-0.6-0.4-1
					L39,36.6c0-0.2-0.1-0.4-0.2-0.5l0-0.1c-0.1-0.3-0.2-0.6-0.3-1c-0.8-3.1-1.1-4.5-1.6-6.6c0,0,0-0.1,0-0.1
					c-0.1-1.4,0.8-1.8,1.1-1.8c0.3-0.1,0.7-0.1,1-0.1c0.2,0,0.4,0,0.6,0c3.1,0.4,4.7,0.6,7.7,1l0.3,0l5,0.5c3,0.3,5.5,0.6,9.1,0.9
					l1.6,0.2c0.3,0,0.5,0.2,0.7,0.4c0.5,0.6,0.8,1.3,1.1,2l0.1,0.3c0.1,0.3,0.2,0.6,0.3,1c0.1,0.3,0.1,0.5,0.2,0.7
					c0.1,0.3,0.2,0.7,0.3,1.2c0,0,0,0.1,0,0.1c0.1,0.6,0.1,0.9,0.3,1.6c0.1,0.4,0.2,0.7,0.3,1c0.1,0.2,0.2,0.5,0.2,0.9
					c0.2,0.7,0.2,1.8-0.6,2.3c-0.3,0.2-0.7,0.3-1.2,0.3c-1.9,0.1-2.8,0.1-4.7,0.2c0,0-0.1,0-0.1,0c-0.5,0-0.9,0-1.2,0
					c0.2,0.8,0.3,1.5,0.5,2.2c0.2,0.9,0.4,1.7,0.7,2.9c0.2,0.9,0.5,1.7,0.8,2.8c0.2,0.8,0.5,1.7,0.8,2.9c0.1,0.5,0.3,0.9,0.4,1.4
					c0.2,0.5,0.3,1,0.4,1.4l0.4,1.6c0,0,0,0.1,0,0.1l0.2,1.2c0.1,0.5,0.3,1.2,0.4,1.6c0.1,0.2,0.1,0.3,0.2,0.5
					c0,0.1,0.1,0.3,0.1,0.4c0.2,0.8,0.4,1.5,0.5,2.1c0.3,1.2,0.5,2.2,0.8,3.3c0.1,0.5-0.1,0.9-0.5,1.1c-0.4,0.2-0.9,0.3-1.8,0.4
					c-0.2,0-0.4,0-0.5,0c-0.1,0-0.2,0-0.3,0c-0.3,0-0.6,0.1-0.9,0.1c-1.7,0.2-2.6,0.3-4.4,0.6l-0.1,0C56.5,67.7,56.3,67.7,56.2,67.7
					z"/>
				<path class="st1" d="M38.9,27.4c0.2,0,0.3,0,0.5,0c3.2,0.4,4.8,0.6,8,1c5.8,0.6,8.7,0.9,14.1,1.4c0.6,0.1,1,0.1,1.6,0.2
					c0.4,0.5,0.6,1,0.9,1.7c0.2,0.5,0.2,0.7,0.4,1.2c0.2,0.7,0.3,1.1,0.5,1.9c0.1,0.7,0.2,1,0.3,1.7c0.2,0.8,0.3,1.1,0.6,2
					c0.1,0.2,0.2,0.9-0.2,1.1c-0.1,0-0.2,0.1-0.6,0.1c-1.9,0.1-2.8,0.1-4.7,0.2c-0.6,0-1.1,0-1.5,0c-0.3,0-0.6,0-0.9,0c0,0,0,0,0,0
					c0,0.3,0.1,0.5,0.1,0.8c0.5,2.2,0.7,3.3,1.3,5.6c0.4,1.6,0.8,2.8,1.6,5.7c0.3,1.1,0.6,2.1,0.8,2.7c0.2,0.7,0.2,1,0.4,1.6
					c0.1,0.5,0.1,0.7,0.2,1.2c0.1,0.6,0.3,1.3,0.5,1.8c0.1,0.3,0.1,0.5,0.3,0.9c0.5,2.2,0.9,3.8,1.3,5.3c-0.3,0.1-1,0.2-1.4,0.3
					c-0.3,0-0.5,0-0.8,0.1c-0.3,0-0.6,0.1-0.9,0.1c-1.7,0.2-2.6,0.3-4.4,0.6c-0.1,0-0.3,0-0.4,0c-0.1,0-0.1,0-0.2,0
					c-0.2-0.1-0.2-0.3-0.3-0.6c-0.1-0.2,0-0.4-0.1-0.9c-0.1-0.8-0.5-2-0.7-2.8C53,54.3,51.2,47,49.3,39c-0.2,0-0.4,0-0.6,0
					c-3.1-0.2-4.8-0.3-7.9-0.5c-0.1-0.3-0.2-0.3-0.4-0.6c-0.1-0.1-0.2-0.3-0.3-0.7c-0.1-0.3-0.1-0.4-0.2-0.6
					c-0.1-0.3-0.2-0.5-0.3-0.8c-0.1-0.3-0.2-0.6-0.3-0.9c-0.8-3.1-1.1-4.5-1.6-6.6c0-0.4,0-0.7,0.3-0.7
					C38.4,27.4,38.7,27.4,38.9,27.4 M38.9,25.3C38.9,25.3,38.9,25.3,38.9,25.3c-0.4,0-0.8,0-1.2,0.1l0,0c-0.8,0.2-2,1-1.9,2.9
					c0,0.1,0,0.2,0,0.3c0.5,2.1,0.8,3.5,1.6,6.6c0.1,0.4,0.2,0.8,0.4,1.1l0,0.1c0.1,0.2,0.1,0.3,0.1,0.4l0.2,0.6
					c0.1,0.5,0.2,0.9,0.5,1.3c0.1,0.2,0.2,0.3,0.2,0.4c0,0,0.1,0.1,0.1,0.2c0.3,0.6,1,1,1.7,1.1c1.3,0.1,2.4,0.2,3.5,0.2
					c1.1,0.1,2.2,0.1,3.4,0.2c0.8,3.5,1.7,6.9,2.5,10.2c0.9,3.8,1.8,7.7,2.8,11.7c0.1,0.3,0.2,0.7,0.3,1.1c0.2,0.6,0.3,1.2,0.4,1.6
					c0,0.2,0,0.3,0.1,0.4c0,0.1,0,0.4,0.1,0.6c0.1,0.4,0.3,1.4,1.4,1.9c0.4,0.2,0.7,0.3,1.2,0.3c0.2,0,0.5,0,0.6-0.1l0.1,0
					c1.7-0.2,2.6-0.4,4.4-0.6c0.3,0,0.5-0.1,0.8-0.1c0.1,0,0.2,0,0.3,0c0.2,0,0.4,0,0.5-0.1c1-0.1,1.6-0.2,2.1-0.5
					c0.8-0.4,1.3-1.4,1.1-2.3c-0.2-1-0.5-2.1-0.8-3.3c-0.2-0.6-0.3-1.3-0.5-2.1c0,0,0-0.1,0-0.1c0-0.2-0.1-0.3-0.1-0.4
					c-0.1-0.2-0.1-0.4-0.2-0.6c-0.2-0.6-0.3-1.1-0.4-1.5C64,56.8,64,56.5,63.9,56c0-0.1,0-0.1,0-0.2l-0.4-1.6
					c-0.1-0.4-0.2-0.9-0.4-1.4c-0.1-0.4-0.3-0.9-0.4-1.4c-0.3-1.2-0.6-2.1-0.8-2.9c-0.3-1.1-0.5-1.8-0.7-2.7c-0.3-1.2-0.5-2-0.7-2.9
					c-0.1-0.3-0.1-0.6-0.2-0.9c0,0,0,0,0.1,0c1.9-0.1,2.8-0.1,4.7-0.2c0.6,0,1.2-0.1,1.8-0.5c1.1-0.8,1.3-2.3,1-3.4
					c-0.1-0.3-0.2-0.6-0.2-0.9c-0.1-0.3-0.2-0.6-0.3-1c-0.2-0.6-0.2-0.9-0.3-1.5c0-0.1,0-0.2,0-0.2c-0.1-0.5-0.2-0.9-0.3-1.2
					c-0.1-0.2-0.1-0.4-0.2-0.7c0,0,0,0,0,0c-0.1-0.5-0.2-0.7-0.3-1.1L66,31.1c0,0,0-0.1,0-0.1c-0.3-0.7-0.6-1.5-1.2-2.3
					c-0.3-0.4-0.8-0.7-1.3-0.7l-1.6-0.2c0,0,0,0-0.1,0c-3.6-0.4-6.1-0.6-9-0.9l-5-0.5l-0.2,0c-3-0.4-4.6-0.6-7.8-1
					C39.4,25.3,39.2,25.3,38.9,25.3L38.9,25.3z"/>
			</g>
			<g>
				<path class="st5" d="M75.3,65.2c-0.5,0-0.9-0.2-1.2-0.6c-0.1-0.1-0.2-0.3-0.2-0.4c-0.2-0.9-0.3-1.5-0.6-2.6
					c-0.3-1.2-0.4-1.9-0.7-3.4c0-0.1-0.1-0.4-0.2-0.6c0-0.2-0.1-0.3-0.1-0.5l0-0.1c-1.5-6.9-1.7-7.8-3.1-13.4
					c-0.7-2.9-1.1-4.4-1.7-7c-0.2-1-0.5-2.1-0.7-3.1c-0.2-0.9-0.4-1.6-0.5-2c-0.1-0.6,0.1-1.2,0.5-1.6c0.2-0.2,0.4-0.3,0.7-0.3
					c0,0,0.1,0,0.1,0c0.7,0.1,2.8,0.3,4.5,0.4c1.2,0.1,2.2,0.2,2.6,0.3l0.5,0.1c0.5,0.1,5.7,0.7,7.1,1c3,0.5,4.7,0.8,5.7,1.3
					c1.4,0.6,3.5,1.9,5.1,4.5c0.8,1.4,1.3,2.7,1.8,4.7c0.7,3,0.6,5.1-0.1,7.4c-0.1,0.2-0.1,0.3-0.2,0.5c0.4,0.5,0.6,0.7,1,1.2
					c0.5,0.6,0.9,1.6,1.1,2.5c0.3,0.4,0.3,0.8,0.4,1.1c0,0.1,0.1,0.5,0.1,0.5c0.5,1,0.6,1.6,0.6,2c0.2,0.8,0.3,1.3,0.5,2.1l0.4,1.8
					c0.1,0.4,0,0.8-0.2,1.1c-0.2,0.3-0.6,0.5-0.9,0.5c-2.8,0.3-4.3,0.5-7.1,0.8c0,0-0.1,0-0.1,0c-0.4,0-0.7-0.2-0.9-0.5
					c-0.4-0.6-0.6-1.4-0.6-1.6c-0.3-1.5-0.5-2.4-0.9-4.3c-0.1-0.6-0.4-1.2-0.8-1.8c-0.6-1-0.9-1.1-1.2-1.1l-1.5,0
					c-0.8,0-1.5,0.1-2.2,0.1c-0.3,0-0.6,0-1,0c0,0.1,0.1,0.3,0.1,0.4c0.1,0.7,0.2,1.3,0.4,2c0.1,0.9,0.5,2.5,0.8,3.9
					c0.3,1.2,0.5,2.2,0.6,2.7c0.1,0.5-0.2,0.9-0.6,1.1c-0.4,0.2-1,0.2-2.1,0.4c-0.2,0-0.4,0-0.6,0.1c-1.4,0.1-2.1,0.2-3.5,0.3
					l-0.6,0.1C75.4,65.2,75.3,65.2,75.3,65.2z M81.9,44.3c0.3,0,0.6,0,0.9,0c0.4,0,0.8,0,1.2,0c0.3,0,0.7,0,0.9,0c0,0,0.1,0,0.1,0
					c0.3,0,0.4,0,0.5-0.1c0,0,0,0,0,0c0.1-0.2,0.2-1-0.2-2.5c-0.2-0.7-0.7-1-0.9-1.2c-0.1,0-0.1-0.1-0.1-0.1
					c-0.1-0.1-0.3-0.2-0.5-0.3c-1.5-0.4-3.7-0.6-5.7-0.6c-0.1,0-0.2,0-0.4,0c0.1,0.3,0.2,0.7,0.3,1.2c0.1,0.6,0.3,1.2,0.3,1.4
					c0,0.1,0.5,2,0.5,2.1c0.6,0,1,0,1.6,0c0.3,0,0.6,0,1,0C81.6,44.3,81.7,44.3,81.9,44.3z"/>
				<path class="st1" d="M67.5,30.7c1.3,0.2,6.2,0.6,7.2,0.7c0.2,0,0.3,0,0.5,0.1c0.4,0,5.6,0.7,7.1,1c2.9,0.4,4.6,0.8,5.5,1.2
					c1.7,0.7,3.4,2,4.6,4.1c0.8,1.4,1.3,2.7,1.7,4.4c0.7,3.1,0.5,5-0.1,6.8c-0.1,0.2-0.2,0.5-0.2,0.7c0,0.1-0.1,0.3-0.1,0.4
					c0,0.1,0.2,0.2,0.3,0.3c0.4,0.5,0.6,0.8,1,1.3c0.4,0.5,0.8,1.5,1,2.2c0.3,0.4,0.3,0.7,0.4,1.2c0,0.1,0,0.2,0.1,0.3
					c0.3,0.6,0.6,1.7,0.6,1.7c0,0,0,0,0,0c0.2,0.9,0.3,1.4,0.5,2.3c0,0.2,0.2,1.1,0.3,1.3c0,0.2,0.1,0.3,0.1,0.5
					c0.1,0.3-0.1,0.4-0.2,0.4c-2.8,0.3-4.3,0.5-7.1,0.8c-0.2-0.3-0.4-0.9-0.5-1.3c-0.3-1.5-0.5-2.4-0.9-4.3
					c-0.2-0.7-0.5-1.5-0.9-2.2c-0.6-1-1.2-1.5-2.1-1.6c-0.6,0-1,0-1.6-0.1c-1.7,0.1-2.7,0.1-4.4,0.2c0.2,1.2,0.4,2.4,0.6,3.6
					c0.2,1.6,1.2,5.6,1.4,6.6c-0.4,0.2-1.6,0.3-2.4,0.4c-1.4,0.1-2.1,0.2-3.5,0.3c-0.3,0-0.4,0-0.7,0.1c0,0-0.1,0-0.1,0
					c-0.1,0-0.2,0-0.3-0.2c-0.2-0.9-0.3-1.5-0.6-2.7c-0.3-1.2-0.4-1.9-0.7-3.4c-0.1-0.3-0.2-0.7-0.3-1.1c-1.5-7.1-1.7-7.9-3.1-13.5
					c-0.7-2.9-1.1-4.4-1.7-6.9c-0.4-1.8-1.1-4.3-1.2-5.1C67.3,31.1,67.4,30.9,67.5,30.7 M80.5,45.4c0.3,0,0.6,0,1,0
					c0.1,0,0.3,0,0.5,0c0.5,0,1.4,0,2.1,0c0.4,0,0.7,0,1,0c0,0,0.1,0,0.1,0c0.7,0,1-0.2,1.2-0.4c0.3-0.3,0.6-1.5,0-3.5
					c-0.3-1.1-1.2-1.6-1.4-1.8c-0.2-0.2-0.6-0.4-0.9-0.5c-1.7-0.4-4-0.6-6-0.6c-0.6,0-1.2,0-1.7,0.1c0,0.2,0.2,0.8,0.3,1
					c0.1,0.5,0.5,2.3,0.7,2.8c0,0.2,0.7,2.8,0.7,2.9C79.1,45.4,79.7,45.4,80.5,45.4 M67.5,28.6c-0.5,0-1,0.2-1.4,0.5
					c-0.7,0.6-1.1,1.6-0.9,2.5c0.1,0.4,0.3,1.1,0.5,2.1c0.2,1,0.5,2.1,0.7,3.1c0,0,0,0,0,0c0.6,2.5,1,4,1.7,7
					c1.4,5.6,1.6,6.3,3.1,13.4l0,0.1c0,0,0,0,0,0.1c0,0.2,0.1,0.3,0.1,0.5c0.1,0.2,0.1,0.5,0.2,0.7c0.3,1.4,0.4,2,0.7,3.3
					c0,0,0,0,0,0c0.3,1.1,0.4,1.7,0.6,2.6c0.1,0.3,0.2,0.6,0.4,0.8c0.5,0.6,1.2,1,2,1c0.1,0,0.2,0,0.4,0l0.4,0l0.2,0
					c1.4-0.1,2.1-0.2,3.5-0.3c0,0,0,0,0.1,0c0.2,0,0.4,0,0.6-0.1c1.2-0.1,1.9-0.2,2.4-0.5c0.8-0.4,1.3-1.3,1.2-2.2
					c-0.1-0.5-0.3-1.4-0.6-2.8c-0.3-1.3-0.7-3-0.8-3.8c0,0,0-0.1,0-0.1c-0.1-0.4-0.1-0.8-0.2-1.2c0.6,0,1.2,0,2-0.1
					c0.6,0,0.9,0,1.4,0c0.1,0.1,0.2,0.2,0.4,0.6c0.3,0.5,0.6,1.1,0.7,1.6c0.4,1.9,0.6,2.8,0.9,4.2c0,0,0,0,0,0.1
					c0.1,0.3,0.3,1.2,0.7,1.9c0.4,0.6,1.1,1,1.8,1c0.1,0,0.2,0,0.2,0c2.8-0.3,4.3-0.5,7.1-0.8c0.6-0.1,1.2-0.4,1.6-1
					c0.4-0.6,0.5-1.2,0.4-1.9l-0.1-0.5c0-0.2-0.2-1.1-0.3-1.3c-0.2-0.8-0.3-1.2-0.4-2c0-0.5-0.2-1.2-0.7-2.2l0-0.1
					c0-0.1,0-0.2-0.1-0.3c-0.1-0.3-0.2-0.8-0.4-1.3c-0.3-1-0.7-2-1.2-2.7c0,0,0,0,0,0c-0.3-0.3-0.4-0.5-0.6-0.8
					c0.8-2.4,0.9-4.7,0.1-7.9c-0.5-2-1-3.5-1.9-5c-1.7-2.8-4-4.2-5.6-4.9c-1.1-0.5-2.8-0.9-6-1.4c-1.6-0.3-6.8-1-7.2-1l-0.5-0.1
					c-0.4,0-1.5-0.1-2.7-0.3c-1.7-0.2-3.8-0.4-4.5-0.4C67.7,28.6,67.6,28.6,67.5,28.6L67.5,28.6z M79.7,43.3
					c-0.2-0.7-0.3-1.3-0.3-1.4c-0.1-0.2-0.2-0.8-0.3-1.3c1.6,0.1,3.2,0.2,4.4,0.5c0,0,0.1,0,0.1,0.1c0,0,0.1,0.1,0.2,0.1
					c0.2,0.2,0.5,0.4,0.6,0.8c0.2,0.5,0.2,1,0.3,1.3c-0.2,0-0.3,0-0.6,0c-0.4,0-0.8,0-1.2,0c-0.4,0-0.7,0-1,0c-0.2,0-0.4,0-0.5,0
					c-0.4,0-0.7,0-0.9,0C80.2,43.3,79.9,43.3,79.7,43.3L79.7,43.3z"/>
			</g>
			<g>
				<path class="st5" d="M103.1,62c-1,0-1.6-0.8-1.8-1.6c-0.1-0.3-0.4-1.3-0.5-1.5c0-0.1-0.1-0.2-0.1-0.2c-0.5-2.4-0.8-4-1.4-6.5
					c-0.3-1.4-0.7-3-1.1-5.2l-0.1-0.6c-1-4.5-1.5-7-2.3-10.8c-0.2-1-0.2-1.1-0.2-1.4c0,0,0-0.1,0-0.1c0-0.3,0-0.6,0.2-0.9
					c0.2-0.3,0.5-0.4,0.9-0.4c0,0,1.3,0,1.3,0c0,0,0,0,0.1,0c8.3,0.7,16.5,1.3,24.2,1.7c0.7,0,1,0.2,1.3,0.4
					c0.3,0.2,0.5,0.5,0.5,0.8l0.2,2.4l0.4,2.5c0,0.1,0.1,0.2,0.1,0.4l0,0c0,0.2,0,0.4-0.1,0.6c-0.4,0.8-1.1,1.2-2.2,1.2
					c-0.1,0-0.1,0-0.2,0l-2.9-0.1c-4.1-0.3-6.2-0.4-10.5-0.7l-1.6-0.1c0,0.2,0.2,1.5,0.3,1.9l6.6,0c0.4,0,1.4,0,2.3,0
					c0.7,0,1.3,0,1.5,0c0,0,0.1,0,0.1,0c0.1,0,0.6,0,1.2,0.1c0.5,0,1,0.1,1.2,0.1c1,0,1,1,1,1.4c0,0.2,0,0.5,0.1,0.6
					c0.1,0.4,0.1,0.7,0,1.1c0,0,0,0.3,0,0.3c0.1,0.3,0.1,0.8,0.2,1.2c0,0.2,0,0.4,0.1,0.5c0,0,0,0.1,0,0.1l0,1
					c0,0.3-0.1,0.5-0.3,0.8c-0.2,0.2-0.5,0.3-0.7,0.3c-4.8,0.1-7.4,0.2-11.8,0.4c0.1,0.5,0.3,1.1,0.4,1.6l1.5-0.1
					c1.6-0.1,4.8-0.2,5.2-0.2c0.3-0.1,0.7-0.1,1.3-0.1c0,0,0.1,0,0.1,0c0.5,0,3.7-0.2,4.1-0.3c0,0,0.1,0,0.1,0
					c0.2,0,1.8-0.1,2.7-0.1c0.2-0.2,0.4-0.3,0.7-0.3c0.4,0,0.9,0.2,1,0.9l0,0.1c0,0.1,0.1,0.3,0.1,0.5c0.1,0.7,0.2,1.2,0.3,1.7
					c0.1,0.4,0.1,0.8,0.2,1.3c0,0.2,0.1,0.6,0.1,1.1c0,0.2,0.1,0.6,0.1,0.8c0.1,0.3,0.1,0.6-0.1,0.9l-0.1,0.2
					c-0.1,0.2-0.3,0.3-0.5,0.4c-0.5,0.2-1.7,0.2-1.7,0.2c0,0,0,0,0,0c-2.8,0.2-4.2,0.3-7.1,0.6c-4.2,0.3-6.2,0.5-10.3,1
					c-0.1,0-0.4,0-0.7,0.1c-0.2,0-0.4,0-0.6,0.1c-1.1,0.1-1.6,0.2-2.7,0.3C103.2,62,103.1,62,103.1,62z"/>
				<path class="st1" d="M96.8,33.8C96.8,33.8,96.8,33.8,96.8,33.8c0.5,0,0.8,0,1.3,0c8.1,0.7,16.1,1.2,24.2,1.7
					c0.5,0,0.7,0.2,0.8,0.3c0.1,0.9,0.1,1.4,0.2,2.4c0.2,1,0.2,1.5,0.4,2.5c0,0.2,0,0.2,0,0.2c0,0,0,0,0,0c0,0,0,0,0,0.2
					c-0.2,0.4-0.5,0.6-1.2,0.6c0,0-0.1,0-0.2,0c-1.2,0-1.7-0.1-2.9-0.1c-4.1-0.3-6.2-0.4-10.5-0.7c-1,0-1.6-0.1-2.6-0.1
					c-0.1,0.1-0.1,0.1-0.2,0.1c0.1,0.8,0.4,2.9,0.6,3.7c0.3,0.1,0.5,0.2,0.8,0.2c0.9,0,1.7,0,2.4,0c1.3,0,2.4,0,4.1,0
					c0,0,0.1,0,0.1,0c0.7,0,3.3,0,3.8,0c0,0,0,0,0.1,0c0.2,0,2.1,0.1,2.3,0.1c0,0,0.1,0.8,0.1,1.1c0.1,0.4,0.1,0.6,0,0.9
					c0,0.1,0,0.3,0,0.4c0.1,0.5,0.2,1.3,0.2,1.7c0,0.4,0,0.6,0,1c-5.2,0.2-7.8,0.3-13.1,0.5c0,0.1,0,0.1,0,0.2
					c0.1,0.5,0.7,3,0.9,3.4c1-0.1,1.4-0.1,2.4-0.2c1.6-0.1,5-0.2,5.2-0.2c0.1,0,0.8-0.1,1.2-0.1c0,0,0.1,0,0.1,0
					c0.1,0,4.2-0.3,4.3-0.3c0.2,0,3.1-0.1,3.2-0.1c0,0,0,0,0,0c0.1,0,0.2,0.1,0.3,0.2c0,0.1,0,0.1,0,0.1c0,0,0,0,0,0
					c0,0,0-0.1,0-0.1c0-0.1,0-0.2-0.1-0.3c0,0.1,0.1,0.3,0.1,0.4c0.2,1.2,0.3,1.8,0.5,3c0.1,0.4,0.2,1.9,0.2,2
					c-0.1,0.1-0.1,0.1-0.1,0.2c-0.2,0.1-1,0.1-1.3,0.1c0,0,0,0,0,0c-2.9,0.2-4.3,0.4-7.1,0.6c-4.2,0.3-6.2,0.5-10.4,1
					c-0.3,0-0.9,0.1-1.3,0.1c-1.1,0.1-1.6,0.2-2.7,0.3c0,0-0.1,0-0.1,0c-0.4,0-0.7-0.4-0.8-0.7c-0.1-0.4-0.4-1.4-0.5-1.7
					c-0.8-3.7-1.1-5.2-2.5-11.7c-1.1-4.9-1.6-7.4-2.4-11.4c-0.2-1.2-0.2-1-0.2-1.4C96.6,33.9,96.6,33.8,96.8,33.8 M125.3,53
					c0,0,0,0.1,0,0.2C125.3,53.2,125.3,53.1,125.3,53C125.3,53,125.3,53,125.3,53 M96.8,31.8c-0.7,0-1.3,0.3-1.7,0.8
					c-0.3,0.3-0.6,0.8-0.5,1.6c0,0,0,0,0,0c0,0.4,0,0.7,0.2,1.7c0.7,3.8,1.3,6.3,2.3,10.8l0.1,0.6c0.5,2.2,0.8,3.9,1.1,5.2
					c0.6,2.5,0.9,4,1.4,6.5c0,0.2,0.1,0.3,0.2,0.5c0.1,0.2,0.3,1,0.4,1.2c0.3,1.4,1.5,2.4,2.8,2.4c0.1,0,0.2,0,0.3,0
					c1.1-0.1,1.6-0.2,2.7-0.3c0.2,0,0.4,0,0.6-0.1c0.3,0,0.6-0.1,0.7-0.1c4.1-0.4,6.1-0.6,10.3-1c0,0,0,0,0,0c2.9-0.3,4.3-0.4,7-0.6
					c0.2,0,1.4,0,2.1-0.3c0.4-0.2,0.7-0.4,1-0.8l0.1-0.2c0.3-0.5,0.4-1.1,0.3-1.7c0-0.1,0-0.4-0.1-0.6c-0.1-0.6-0.1-0.9-0.1-1.2
					c-0.1-0.5-0.1-0.9-0.2-1.3c-0.1-0.5-0.2-1-0.3-1.6c0-0.3-0.1-0.5-0.2-0.6l0,0c-0.4-1.6-1.7-1.7-2-1.7c0,0,0,0,0,0
					c-0.4,0-0.8,0.1-1.1,0.3c-0.5,0-1.2,0.1-1.6,0.1c0.3-0.4,0.4-0.9,0.4-1.3l0-1c0-0.1,0-0.1,0-0.2c0-0.1,0-0.3-0.1-0.5
					c0-0.4-0.1-0.8-0.2-1.2l0,0c0,0,0,0,0-0.1c0-0.4,0-0.7-0.1-1.2c0-0.1,0-0.4,0-0.5c0-0.6-0.2-1.1-0.4-1.4l0.2,0
					c0.1,0,0.2,0,0.2,0c2,0,2.8-1.1,3.1-1.8c0.2-0.4,0.2-0.8,0.2-1.2c0-0.2,0-0.3-0.1-0.5l-0.1-0.6l-0.3-1.9l-0.1-0.5l-0.2-1.8
					c-0.1-0.6-0.4-1.2-0.9-1.5c-0.3-0.2-0.9-0.5-1.8-0.6c-7.7-0.5-15.9-1-24.2-1.7c0,0-0.1,0-0.1,0l-1.2,0
					C96.8,31.8,96.8,31.8,96.8,31.8L96.8,31.8z"/>
			</g>
			<g>
				<path class="st5" d="M135.3,59.7c-0.6,0-1.2-0.1-1.6-0.2c-1.3-0.4-2.7-0.8-3.7-1.6c-0.9-0.8-2.2-2.7-2.3-3.8l-0.1-0.9
					c0-0.2-0.1-0.8-0.1-1l0-0.1c-0.1-0.8,0.1-1.3,0.4-1.5c0.4-0.4,0.9-0.6,1.6-0.7c0.5,0,0.9,0,1.3,0c0,0-0.1,0-0.1-0.1
					c-1.2-0.6-2.6-1.4-3.4-3.1c-0.3-0.7-0.8-1.9-1-3.5c-0.1-1-0.2-1.7,0.1-2.7c0.3-1.2,0.7-1.8,1.2-2.3l0.1-0.1
					c0.6-0.7,1.2-1.5,2.6-2.1c0.4-0.2,1.6-0.6,2.9-0.6l0.2,0c3.7,0.2,5.5,0.2,9.1,0.3c0.2,0,2.3,0,3.8,0.4c1.1,0.3,2,0.8,3,1.8
					c1.3,1.2,2,2.4,2.1,3.6l0.2,2.3c0,0.3-0.1,0.5-0.2,0.7c-0.5,0.6-1.3,0.7-1.9,0.7l-0.9,0c0.6,0.3,0.9,0.7,1.4,1.1l0.2,0.2
					c0.4,0.4,1,1,1.4,1.6c0.5,0.9,1,2.6,1.1,3.5c0.1,1,0,2.4-0.1,2.8c0,0,0,0.1,0,0.1l0,0.1c-0.1,0.3-0.3,0.8-0.7,1.6l-0.3,0.5
					c-0.2,0.4-1,1.4-2.3,2c-1.2,0.6-3.3,0.8-4.4,0.8c-3.2,0.1-4.8,0.2-7.9,0.3l-1,0.1C135.5,59.7,135.4,59.7,135.3,59.7z
					 M136.6,51.3c0.1,0,0.2,0,0.4,0c0.2,0,0.5,0,0.7,0c0.2,0,0.3,0,0.4,0c0.9,0,1.6,0,2.3-0.1c0.7,0,1.4-0.1,2.4-0.1l0-0.1
					c0,0,0,0,0,0c0,0-0.1,0-0.2,0c-0.4-0.1-0.8-0.1-1.2-0.1l-4,0c-0.2,0-0.3,0-0.4,0l-0.1,0c-0.1,0-0.2,0-0.3,0
					C136.5,51,136.5,51.1,136.6,51.3C136.6,51.2,136.6,51.2,136.6,51.3C136.6,51.2,136.6,51.3,136.6,51.3z M136.4,43.6
					c2.5,0,3.9,0,6.2,0c0-0.1,0-0.1-0.1-0.1c0,0-0.1-0.1-0.1-0.1c-0.3-0.1-0.5-0.1-0.6-0.1c0,0-0.1,0-0.1,0c0,0,0,0-0.1,0
					c-0.2,0-0.3,0-0.4,0c-0.1,0-0.1,0-0.2,0c0,0-0.1,0-0.1,0c0,0,0,0,0,0c-0.6,0-1,0-1.4,0c-0.5,0-0.9,0-1.5,0l-1,0
					c-0.1,0-0.1,0-0.3,0c-0.2,0-0.4,0-0.5,0l0,0c0,0-0.1,0-0.1,0c0,0,0,0.1,0,0.1l0,0L136.4,43.6z"/>
				<path class="st1" d="M133,36.2c0,0,0.1,0,0.1,0c3.6,0.2,5.4,0.2,9.1,0.3c0.7,0,2.4,0.1,3.6,0.4c1,0.3,1.6,0.7,2.5,1.5
					c1.5,1.4,1.7,2.3,1.8,2.9c0.1,0.9,0.1,1.4,0.2,2.3c-0.1,0.2-0.3,0.3-1.1,0.3c0,0,0,0,0,0c-0.6,0-1,0-1.6,0
					c-0.6,0-0.9-0.1-1.5-0.1c-0.5,0-0.8,0-1.3,0c-0.4,0-0.6,0-0.9,0c-0.1,0-0.2-0.5-0.4-0.8c-0.2-0.3-0.5-0.6-0.7-0.6
					c-0.2,0-0.6-0.1-0.8-0.1c0,0-0.1,0-0.1,0c-0.2,0-0.3,0-0.4,0c-0.1,0-0.2,0-0.3,0c-1.2,0-1.8,0-2.9,0c-0.4,0-0.6,0-1,0
					c0,0,0,0,0,0c-0.1,0-0.2,0-0.4,0.1c-0.2,0-0.3,0-0.4,0c0,0-0.1,0-0.1,0c-0.4,0-0.6,0.1-0.6,0.1c0,0,0,0,0,0
					c-0.3,0.1-0.5,0.8-0.5,1.1c0,0.1,0,0.1,0,0.2c0.1,0.4,0.2,0.5,0.4,0.6c0.3,0.1,0.4,0.2,0.7,0.3c3,0,4.5,0,7.4,0.1
					c1,0,1.2,0.2,1.7,0.3c0.5,0.1,0.9,0.2,1.3,0.4c0.4,0.2,0.6,0.2,1,0.5c0.6,0.3,0.9,0.6,1.3,1c0.5,0.5,1.1,1,1.4,1.6
					c0.4,0.7,0.8,2.2,0.9,3.1c0.1,0.9,0,2.2-0.1,2.5c-0.1,0.3-0.2,0.7-0.7,1.5c-0.1,0.2-0.2,0.3-0.3,0.5c-0.2,0.2-0.8,1.1-1.8,1.6
					c-1,0.5-2.9,0.7-3.9,0.7c-3.1,0.1-4.7,0.2-7.9,0.3c-0.4,0-0.6,0-1,0.1c-0.1,0-0.2,0-0.3,0c-0.5,0-1-0.1-1.4-0.2
					c-1.1-0.3-2.3-0.7-3.2-1.4c-0.8-0.7-1.9-2.4-2-3.2c-0.1-0.4-0.1-0.6-0.1-0.9c0-0.2-0.1-0.8-0.1-1c0-0.1,0-0.1,0-0.1
					c-0.1-0.4,0-1,1-1c2.1,0,3.2,0,5.3-0.1c0,0,0,0,0,0c0.2,0,0.4,0.1,0.5,0.1c0.1,0.2,0.2,0.4,0.3,0.7c0.1,0.2,0.3,0.6,0.5,0.7
					c0.2,0.1,0.6,0.1,0.9,0.1c0,0,0,0,0,0c0.4,0,0.9,0,1,0c1.9,0,2.8-0.1,4.7-0.2c0.6,0,1.1-0.3,1-1c0-0.2,0-0.3,0-0.4
					c0-0.3-0.3-0.5-0.5-0.6c-0.1-0.1-0.2-0.1-0.4-0.2c-0.4-0.1-0.9-0.1-1.4-0.1c0,0-0.1,0-0.1,0c-1.6,0-2.4,0-4,0
					c-0.1,0-0.3,0-0.4,0c-0.1,0-0.2,0-0.3,0c-0.1,0-0.2,0-0.3,0c0,0,0,0-0.1,0c-0.3,0-0.4,0-0.7,0c0,0,0,0,0,0
					c-1.3,0-2.7-0.4-4.3-1.2c-1-0.5-2.2-1.2-2.9-2.6c-0.3-0.6-0.7-1.8-0.9-3.2c-0.1-0.8-0.1-1.4,0.1-2.3c0.3-1.1,0.6-1.5,1.1-2.1
					c0.5-0.7,1-1.3,2.2-1.8C131.1,36.5,132.1,36.2,133,36.2 M133,34.1C133,34.1,133,34.1,133,34.1c-1.5,0-2.9,0.5-3.3,0.7
					c-1.6,0.7-2.4,1.7-3,2.4l-0.1,0.1c-0.5,0.6-1,1.3-1.4,2.8c-0.3,1.1-0.2,2-0.1,3c0.2,1.5,0.6,2.9,1.1,3.9c0.4,0.8,1,1.5,1.6,2
					c-0.4,0.2-0.6,0.4-0.8,0.6c-0.3,0.4-0.8,1.1-0.6,2.4l0,0.1c0,0.2,0.1,0.8,0.2,1l0.1,0.9c0.2,1.5,1.7,3.6,2.7,4.4
					c1.2,1,2.7,1.5,4,1.9l0.1,0c0.5,0.1,1.1,0.3,1.9,0.3c0.2,0,0.3,0,0.5,0l1-0.1c3.3-0.1,4.8-0.2,7.8-0.3c1,0,3.3-0.2,4.8-0.9
					c1.5-0.7,2.4-2,2.6-2.3c0,0,0-0.1,0.1-0.1l0.3-0.5c0.5-0.8,0.7-1.5,0.8-1.8l0-0.1c0-0.1,0-0.2,0.1-0.2c0.1-0.5,0.2-2.1,0.2-3.1
					c-0.1-1.1-0.6-2.9-1.2-4c-0.4-0.7-0.9-1.2-1.3-1.6c0.4-0.2,0.8-0.4,1.1-0.9c0.3-0.4,0.5-0.9,0.4-1.4l-0.2-2.3
					c-0.1-1.4-0.9-2.8-2.4-4.3c-1.1-1.1-2.1-1.7-3.4-2c-1.6-0.4-3.7-0.5-4.1-0.5c-3.6-0.1-5.4-0.2-9-0.3
					C133.1,34.1,133.1,34.1,133,34.1L133,34.1z"/>
			</g>
			<g>
				<path class="st5" d="M160.5,59.2c-0.7,0-1.2-0.2-1.7-0.3c-1.3-0.4-2.5-0.8-3.4-1.7c-0.8-0.9-1.8-2.7-1.9-3.7l-0.1-0.9l0-0.1
					c0-0.3-0.1-0.6-0.1-0.9l0-0.1c0-0.7,0.2-1.2,0.5-1.4c0.4-0.4,0.9-0.6,1.6-0.6l1.2,0c-1.1-0.6-2.3-1.4-3-2.9
					c-0.3-0.6-0.6-1.8-0.7-3.4c-0.1-0.9,0-1.6,0.3-2.5c0.4-1.2,0.9-1.7,1.4-2.3l0.1-0.1c0.6-0.7,1.3-1.4,2.7-2.1
					c0.8-0.4,2-0.7,3.1-0.7c0,0,9.1,0.1,9.1,0.1c0.3,0,2.4,0,3.8,0.4c1.1,0.3,1.9,0.8,2.9,1.8c1.2,1.3,1.8,2.5,1.8,3.6l0,2.3
					c0,0.2-0.1,0.5-0.2,0.7c-0.4,0.5-1,0.7-1.9,0.7l-1.1,0c0.6,0.3,1,0.6,1.4,1.1l0.2,0.2c0.4,0.4,0.9,1,1.3,1.6
					c0.5,0.9,0.8,2.5,0.8,3.5c0,0.9-0.2,2.2-0.4,2.8c0,0-0.1,0.2-0.1,0.2c-0.1,0.3-0.4,0.9-0.9,1.6l-0.3,0.5
					c-0.2,0.3-1.1,1.3-2.5,1.9c-1.3,0.5-3.4,0.7-4.6,0.7c-3.2,0-4.8,0.1-7.9,0.1C161.7,59.2,160.5,59.2,160.5,59.2z M162.4,51.1
					C162.4,51.1,162.4,51.1,162.4,51.1C162.4,51.1,162.4,51.1,162.4,51.1z M162.4,51.1c0.1,0,0.2,0,0.3,0c0.2,0,0.4,0,0.5,0
					c0.2,0,0.3,0,0.4,0l0.1,0c1.9-0.1,2.8-0.1,4.7-0.1c0,0,0.1,0,0.1,0v0c0,0-0.1,0-0.1,0c-0.3-0.1-0.8-0.1-1.3-0.1l-3.9,0
					c-0.1,0-0.2,0-0.3,0c0,0-0.1,0-0.1,0c0,0-0.1,0-0.2,0c-0.1,0-0.1,0-0.2,0C162.3,50.9,162.4,51,162.4,51.1z M162.9,43.6l6.1,0
					c0-0.1,0-0.1,0-0.2c-0.1,0-0.2,0-0.3-0.1c-0.1,0-0.1,0-0.2,0l-0.7,0.1c-0.1,0-0.1,0-0.2,0c0,0-3-0.1-3-0.1l-1,0
					c-0.1,0-0.2,0-0.3,0.1c-0.3,0-0.4,0-0.5,0c-0.1,0-0.1,0-0.2,0c0,0,0,0,0,0c0,0,0,0,0,0C162.7,43.6,162.8,43.6,162.9,43.6z"/>
				<path class="st1" d="M160.4,36.5c3.6,0,5.5,0,9.1,0.1c0,0,0,0,0,0c0.7,0,2.4,0.1,3.5,0.4c0.9,0.2,1.5,0.6,2.4,1.5
					c1.3,1.4,1.5,2.4,1.5,2.9c0,0.9,0,1.4,0,2.3c-0.1,0.2-0.4,0.3-1.1,0.3c0,0,0,0,0,0c-0.7,0-1,0-1.6,0c-0.6,0-0.9-0.1-1.5-0.1
					c-0.5,0-0.8,0-1.3,0c-0.4,0-0.6,0-0.9,0c-0.1,0-0.4-0.2-0.5-0.6c-0.1-0.4-0.3-0.7-0.6-0.7c-0.2-0.1-0.3-0.1-0.5-0.1
					c-0.2,0-0.3,0-0.4,0c-0.1,0-0.1,0-0.2,0c-0.2,0-0.4,0.1-0.6,0.1c-1.2,0-1.8,0-3-0.1c-0.4,0-0.6,0-1,0c-0.1,0-0.2,0-0.4,0.1
					c-0.2,0-0.4,0-0.5,0c-0.4,0-0.6,0.1-0.6,0.1c-0.3,0.1-0.6,0.7-0.6,1.1c0,0.1,0.2,0.7,0.4,0.8c0.2,0.1,0.4,0.1,0.7,0.2
					c3,0,4.5,0,7.4,0c0,0,0,0,0,0c1,0,1.2,0.2,1.7,0.3c0.4,0.2,0.8,0.3,1.3,0.4c0.4,0.1,0.6,0.2,1,0.4c0.6,0.3,0.9,0.6,1.3,1
					c0.4,0.5,1,1,1.3,1.6c0.4,0.7,0.7,2.2,0.7,3c0,0.9-0.2,2-0.3,2.4c-0.1,0.2-0.3,0.8-0.8,1.6c-0.1,0.2-0.2,0.3-0.3,0.5
					c-0.2,0.2-1,1.1-2.1,1.6c-1.1,0.5-3.1,0.6-4.2,0.6c0,0,0,0,0,0c-3.2,0-4.8,0.1-7.9,0.1c-0.4,0-0.6,0-1,0c-0.1,0-0.1,0-0.2,0
					c-0.6,0-1-0.1-1.5-0.3c-1.1-0.3-2.2-0.7-2.9-1.5c-0.7-0.7-1.6-2.3-1.6-3.1c0-0.3,0-0.5-0.1-0.9c0-0.3-0.1-0.7-0.1-0.9
					c0,0,0-0.1,0-0.1c0-0.4,0.1-0.9,1-0.9c2.1,0,3.1,0,5.2,0c0,0,0,0,0,0c0.2,0,0.4,0,0.5,0.1c0.1,0.2,0.2,0.5,0.2,0.7
					c0,0.2,0.2,0.6,0.5,0.7c0.2,0.1,0.7,0.2,0.9,0.2c0,0,0,0,0,0c0.3,0,0.8,0,1,0c0,0,0.1,0,0.1,0c1.9-0.1,2.8-0.1,4.7-0.1
					c0.6,0,1.1-0.3,1.1-1c0-0.2,0-0.3,0-0.4c0-0.3-0.2-0.5-0.4-0.6c-0.1-0.1-0.3-0.1-0.5-0.1c-0.4-0.1-1-0.2-1.6-0.2c0,0,0,0,0,0
					c-1.6,0-2.4,0-4,0c-0.1,0-0.3,0-0.5,0c0,0-0.1,0-0.1,0c-0.1,0-0.3,0-0.5,0c0,0,0,0,0,0c-0.3,0-0.4,0-0.7,0c0,0,0,0,0,0
					c-1.3,0-2.6-0.4-4.2-1.1c-0.9-0.5-2.1-1.1-2.7-2.5c-0.3-0.6-0.5-1.7-0.6-3c0-0.8,0-1.3,0.2-2.2c0.3-1.1,0.7-1.4,1.3-2
					c0.6-0.7,1.2-1.3,2.4-1.8C158.4,36.8,159.5,36.5,160.4,36.5 M160.4,34.4C160.4,34.4,160.4,34.4,160.4,34.4
					c-1.6,0-3.1,0.6-3.5,0.8c-1.6,0.7-2.4,1.6-3.1,2.3l-0.1,0.1c-0.5,0.6-1.1,1.2-1.6,2.6c-0.4,1.1-0.4,1.9-0.3,2.9
					c0.1,1.4,0.4,2.8,0.8,3.7c0.3,0.7,0.8,1.3,1.2,1.8c-0.3,0.2-0.6,0.4-0.8,0.6c-0.4,0.4-0.8,1.1-0.7,2.2l0,0c0,0.3,0,0.7,0.1,0.9
					l0,0.1l0.1,0.8c0.1,1.5,1.4,3.5,2.2,4.4c1,1.1,2.5,1.6,3.7,2l0.1,0c0.5,0.2,1.1,0.3,2,0.3c0.1,0,0.2,0,0.3,0l1,0
					c3.1,0,4.6-0.1,7.7-0.1l0.2,0c0,0,0,0,0,0c1,0,3.4-0.2,5-0.8c1.6-0.7,2.6-1.9,2.9-2.2c0,0,0-0.1,0.1-0.1l0.3-0.5
					c0.6-0.8,0.8-1.4,1-1.8l0-0.1c0-0.1,0-0.1,0.1-0.1c0.3-0.8,0.5-2.2,0.5-3.2c0-1.1-0.4-2.9-0.9-4c-0.3-0.6-0.8-1.2-1.2-1.6
					c0.4-0.1,0.9-0.4,1.2-0.8c0.3-0.4,0.5-0.8,0.5-1.3v-0.3l0-2c0-1.4-0.7-2.9-2.1-4.3c-1.1-1.1-2-1.7-3.3-2.1
					c-1.5-0.4-3.6-0.4-4-0.4l-0.1,0l-3.8,0C164.1,34.4,162.6,34.4,160.4,34.4C160.4,34.4,160.4,34.4,160.4,34.4L160.4,34.4z"/>
			</g>
		</g>
	</g>
	<g>
		<path class="st1" d="M328.9,80.8l3.9,0.7l-0.6,3.7l-3.9-0.7L328.9,80.8z"/>
		<path class="st1" d="M342.1,83l3.4,1c-0.3,0.7-0.7,1.3-1.3,1.7c-0.5,0.5-1.2,0.8-1.9,0.9c-0.7,0.2-1.6,0.2-2.7,0
			c-1-0.2-1.8-0.4-2.5-0.7c-0.6-0.3-1.2-0.7-1.6-1.2c-0.4-0.5-0.7-1.1-0.9-1.7c-0.2-0.6-0.2-1.4,0-2.3c0.2-1,0.5-1.8,0.9-2.4
			c0.3-0.4,0.7-0.8,1.2-1.1c0.5-0.3,1-0.5,1.5-0.6c0.8-0.2,1.7-0.2,2.8,0c1.6,0.3,2.7,0.7,3.4,1.4c0.7,0.7,1.2,1.6,1.3,2.7l-3.5-0.1
			c0-0.4-0.2-0.8-0.4-1c-0.2-0.3-0.6-0.4-1.1-0.5c-0.6-0.1-1.1,0-1.6,0.4c-0.4,0.4-0.7,1-0.9,1.9c-0.1,0.8-0.1,1.4,0.2,1.9
			c0.3,0.5,0.7,0.8,1.3,0.8c0.5,0.1,0.9,0,1.3-0.2C341.5,83.8,341.8,83.5,342.1,83z"/>
		<path class="st1" d="M346.9,82.8c0.3-1.4,0.9-2.6,2.1-3.3c1.1-0.8,2.5-1,4.2-0.7c1.9,0.3,3.2,1.1,4,2.4c0.6,1,0.8,2.2,0.6,3.5
			c-0.3,1.5-0.9,2.6-2.1,3.3c-1.1,0.8-2.6,1-4.3,0.7c-1.5-0.3-2.7-0.9-3.5-1.8C347,85.7,346.7,84.3,346.9,82.8z M350.6,83.4
			c-0.1,0.8-0.1,1.5,0.2,2c0.3,0.5,0.7,0.7,1.2,0.8c0.5,0.1,1,0,1.4-0.4c0.4-0.3,0.7-1,0.8-1.8c0.1-0.8,0.1-1.5-0.2-1.9
			c-0.3-0.5-0.7-0.7-1.2-0.8c-0.5-0.1-1,0-1.4,0.4C351,82,350.7,82.6,350.6,83.4z"/>
		<path class="st1" d="M360.4,80.2l3.4,0.6l-0.2,1.4c0.6-0.5,1.2-0.8,1.7-1c0.5-0.2,1.2-0.2,1.9-0.1c0.8,0.1,1.3,0.4,1.7,0.7
			c0.4,0.3,0.7,0.8,0.9,1.4c0.7-0.5,1.3-0.9,1.8-1c0.5-0.1,1.1-0.2,1.8,0c1,0.2,1.8,0.6,2.2,1.3c0.5,0.7,0.6,1.7,0.4,3l-1,6
			l-3.7-0.6l0.9-5.4c0.1-0.4,0-0.8-0.1-1c-0.2-0.4-0.5-0.6-0.8-0.6c-0.4-0.1-0.8,0-1.1,0.3c-0.3,0.3-0.5,0.7-0.6,1.4l-0.8,4.9
			l-3.7-0.6l0.9-5.2c0.1-0.4,0.1-0.7,0.1-0.9c0-0.3-0.1-0.5-0.3-0.6c-0.2-0.2-0.4-0.3-0.6-0.3c-0.4-0.1-0.8,0-1.1,0.3
			c-0.3,0.3-0.5,0.8-0.7,1.5l-0.8,4.8l-3.7-0.6L360.4,80.2z"/>
	</g>
	<path class="st1" d="M385.8,29.9c-0.7-1.7-1.6-2.6-3-3.1c-0.6-0.2-1.4-0.3-2.4-0.3h0c-0.5,0-0.9,0-1.2,0c-2.7,0.2-4.1,0.3-6.8,0.5
		c-1.5,0.1-2.8,1-3.2,1.3c-1.3,1-2,2.2-2.7,3.4l-0.1,0.2c-0.3,0.5-0.5,1-0.8,1.6c-0.5-2.2-1.4-3.7-2.9-4.5c-0.9-0.5-2-0.7-3.4-0.7
		c-0.4,0-0.8,0-1.3,0.1c-0.4,0-0.8,0-1.1,0.1c-0.4,0-0.7,0-1.2,0.1l-0.1,0c-0.4,0-0.8,0-1.1,0l-0.2,0c-0.2,0-0.6,0-0.8,0
		c-0.3,0-0.6,0-0.6,0c-0.6,0-2.4,0.2-2.9,0.3l-2.2,0.2c-0.7,0-1.4,0.3-1.8,0.9c0,0,0,0,0,0c-0.5-0.5-1.1-0.7-1.8-0.7
		c-0.1,0-0.2,0-0.3,0c-4.9,0.4-8.1,0.7-12.2,1l-5.1,0.4c-0.1,0-0.1,0-0.2,0l-0.9,0.2c-0.4,0.1-0.8,0.2-1.2,0.6
		c-0.4-0.3-0.9-0.5-1.4-0.5c-0.1,0-0.2,0-0.2,0l-2.9,0.2l-3.3,0.3c-1.1,0.1-2,0.8-2.3,1.8c-1,2.5-1.6,4.3-2.8,7.8c0-0.2,0-0.3,0-0.5
		c0,0,0,0,0-0.1c-0.2-2.3-0.2-3-0.2-3.8c0-0.3,0-0.5,0-0.9c0,0,0-0.1,0-0.1c0-0.4-0.1-1.1-0.1-1.3c0-0.5-1.2-2.2-1.8-2.9
		s-1.9-1.3-1.9-1.3l-0.7,2.1c-0.1,0-0.1,0-0.2,0c-0.3,0-2,0.2-2.8,0.2l-0.1,0c0,0,0,0,0,0c-0.1,0-0.1,0-0.2,0l-0.3,0
		c-0.1,0-0.6,0-0.9,0c-0.2,0-0.4,0-0.4,0c-0.4,0-0.7,0.2-1,0.3c-0.3-0.1-0.7-0.3-1.3-0.3c-0.1,0-0.2,0-0.3,0
		c-7.3,0.6-11.3,0.9-18.8,1.4c-0.1,0-0.1,0-0.2,0l-0.9,0.1l-0.1,0c-0.9,0.1-1.8,0.8-1.9,2c0,0,0,0.1,0,0.1c-0.1,0.4-0.1,0.6-0.1,1.5
		l-0.1,6.6l0,3.1c0-0.6,0-1.2,0-1.3c0-0.1,0-0.3,0-0.6c0-0.2,0-0.4,0-0.4c0,0,0,0,0,0c0-0.3,0-1.6,0-2l0-0.3c0,0,0-0.2,0-0.5
		c0-0.4,0-1,0-1.2c0-0.3,0-0.5,0-0.7c0-0.2,0-0.4,0-0.6c0-0.5,0-1,0-1.4c0-0.7,0-1,0-1.7c0-0.6-0.2-1.2-0.7-1.6
		c-0.5-0.5-1-1.3-1.5-1.7c-0.5-0.4-1.3-0.9-1.6-0.9c-2.3,0-2.2,2-4.4,2.1c-1.5,0.1-2.6,1.2-2.6,2.7l0,0.4c0,0.3,0,0.5,0.1,0.8l0,0.1
		c0,0.2,0,0.5,0,0.8c0,0.4,0,0.8,0,1.1c0,1.1,0.1,2,0,3.5c0,0,0,0.1,0,0.1c0,0.9,0,1.7,0,2l0,0.1l0,0.1c0,0.4,0,0.9,0,1.3
		c0,1.3,0.1,3.1,0.1,4.7c-0.3-0.1-0.6-0.2-1-0.2c-1,0-1.5,0-2.5-0.1l-0.4,0c-0.4,0-0.7,0-1.1,0c-0.8,0-1.4,0-1.9,0
		c-0.2,0-0.4,0-0.7,0c0-1,0-1.9-0.1-2.8l-0.1-2.9c0,0,0-0.1,0-0.1c-0.1-0.7-0.1-1-0.1-1.5c0-0.2,0-0.4,0-0.7c0,0,0,0,0,0
		c0-0.1,0-0.2,0-0.3c0-0.1,0-0.1,0-0.2c0-2.1,0-3.1,0-5c0,0,0-0.1,0-0.1c0-0.2,0-0.3,0-0.6c0-1.1-0.8-2.2-1.6-2.9
		c-0.6-0.6-1.9-1.2-2.2-1.3l-0.5,1.9c-0.1,0-0.1,0-0.2,0l-0.1,0l-0.9,0c0,0,0,0-0.1,0l-2.4,0.1c0,0-0.1,0-0.1,0
		c-0.6,0-1.2,0.2-1.6,0.7c-0.1,0.1-0.1,0.2-0.2,0.2c-0.1-0.1-0.2-0.2-0.3-0.3c-0.2-0.1-0.8-0.6-1.8-0.6c0,0-0.1,0-0.1,0l-7,0.3
		c-3.3,0.2-6.3,0.3-10.6,0.5c0,0,0,0,0,0c-0.1,0-0.2,0-0.3,0c-0.2,0-0.4,0-0.7,0.1c-1.1,0.1-1.9,1-2,2.1c0,0.3,0,0.5,0,0.8
		c0,0.1,0,0.3,0,0.7c0,0.3,0,0.5,0,0.8c-0.8-1.5-2-2.6-3.5-3.3c-1-0.4-2.2-0.6-3.8-0.6c-0.3,0-0.6,0-0.9,0l-2.6,0.1
		c-0.2,0-0.5,0-0.7,0c-0.2,0-0.3,0-0.5,0c-0.1,0-0.1,0-0.2,0c-0.3,0-3.5,0.1-4.5,0.2l0,0l-2.5,0.1c-0.5,0-1,0.2-1.4,0.6
		c-0.5,0.5-0.8,1.2-0.9,1.9c0,0.2,0,0.5,0,0.6c0,0.1,0,0.1,0,0.2c0,0,0,0,0,0.1l0,0.7c0,0.7,0,1.2,0,2.1c0,0,0,0,0,0.1l0,3.9
		c0,0.9,0,1.5,0,2.2c0,1.2,0,2.4-0.1,5.2c0,0.2,0,0.4,0,0.6c0,0.1,0,0.1,0,0.2l0,1.6l0,0.7c0,0,0,0,0,0l0,1.1v1.1
		c0,0.3,0.1,0.6,0.2,0.8c0.4,0.9,1.2,1.5,2.2,1.5l0.4,0l0.1,0l2.7,0.1c0,0,0,0,0.1,0c0,0,0,0,0,0l1.6,0c0.5,0,1-0.1,1.5-0.4
		c0.6-0.3,0.9-0.9,1-1.5c0.1-1,0.2-1.9,0.2-2.7l0-2.5c0,0,0,0,0,0l1.4,0l0.7,0c0.1,0.2,0.1,0.4,0.1,0.6c0,1.3,0,2-0.1,3.3
		c0,0-2,0.5-2,0.5c0,0.5,0.8,1.4,1.3,1.8c0.8,0.7,1.7,1,2.8,1c0,0,0,0,0,0c2.3,0,3.6,0,5.9,0c0.6,0,1.3-0.3,1.7-0.8
		c0.2-0.2,0.3-0.4,0.4-0.6c0.5,1,1.5,1.4,2.4,1.4c0,0,0.1,0,0.1,0l2.1,0c0.1,0,0.2,0,0.3,0l0.2,0l0.2,0c0.1,0,0.2,0,0.3,0
		c0,0,0,0,0,0c3.3,0,5,0,8.3,0.1c0,0,0,0,0,0c0,0,0,0,0,0c2.2,0,3.4,0,5.6,0c0.1,0,0.3,0,0.6,0c0.8,0,1.1-0.1,1.4-0.2
		c0.3-0.1,0.6-0.3,0.8-0.6c0.1,0.1,0.1,0.2,0.2,0.2c0.6,0.7,1.5,0.7,2,0.7c0.3,0,0.7,0,1.1,0c0.3,0,0.6,0,0.9,0
		c0.8,0.1,1.3,0.1,2.1,0.2c0.7,0.1,1.4,0.2,1.6,0.2c0.1,0,0.2,0,0.3,0c3.6,0.1,5.5,0.2,9,0.4c0,0,0.1,0,0.1,0c0.5,0,1-0.2,1.4-0.6
		c0,0,0,0,0,0c0.7,0.4,1.5,0.4,2,0.4c0.1,0,0.2,0,0.2,0c0.1,0,0.1,0,0.2,0l3.6,0.2c0.1,0,0.3,0.1,0.6,0.1c0.1,0,0.1,0,0.2,0
		c1.2,0,2.1-0.7,2.4-1.8c0.2,1.5,1.4,2.1,2.5,2.2l2.1,0.1c0,0,0,0,0,0c0.3,0,0.6,0,0.9,0.1c0,0,0,0,0.1,0c3.1,0.2,4.7,0.3,7.8,0.5
		c0,0,0,0,0,0c2.1,0.1,3.1,0.2,5.2,0.3c0.4,0,0.8,0.1,0.9,0.1c0.4,0,0.7,0,1-0.1c0.4-0.1,0.7-0.3,1-0.7l0.1-0.2
		c0.3-0.4,0.5-0.9,0.5-1.3c0-0.3,0.1-1.3,0.2-1.6c0-0.1,0-0.2,0.1-0.3l0.4-3.4l0-0.3l0-0.3c0-0.1,0-0.3,0-0.4c0,0,0-0.1,0-0.1
		c0.1-0.8-0.1-1.4-0.5-1.9c-0.4-0.5-1-0.7-1.6-0.8l-0.4,0c0-0.2,0-0.3,0-0.4c0-0.2,0-0.4,0.1-0.7c0-0.3,0-0.6,0-0.8
		c0-0.2,0-0.3,0-0.5c0,0,0,0,0,0c0-0.2,0-0.8,0.1-1.5c0-0.8,0.1-1.8,0.1-2.1l0.1-1.1c0,0,0-0.1,0-0.1c0-0.1,0-0.3,0-0.4
		c0-0.3,0.1-0.6,0.1-1c0-0.1,0-0.2,0-0.3l0.4,0c0.8,0,1.5-0.3,2.1-0.8c0,1,0.1,2.1,0.2,3.4c0,0,0,0.1,0,0.1c0.1,0.6,0.1,0.9,0.1,1.3
		c0,0.1,0,0.2,0,0.4c0,0.4,0,0.7,0.1,1.1c0.1,0.5,0.1,1,0.1,1.6l0,0l0.1,1.4l0,1.6c0,0.6,0,0.8,0,1.2c0,0.5,0.1,1.3,0.1,3.2
		c0,1.1,0.1,1.9,0.1,2.5c0,0.4-0.2,0.5-0.2,0.9c0,0.3-0.4,0.2-0.3,0.2c-0.8-0.9-1.2,0-1.2-0.1c0,0.2,0.4,0.9,1.1,1.5
		c0.8,0.6,1.9,1.1,2.9,1.2c0,0,0.1,0,0.2,0c0.6,0.1,1,0.2,1.2,0.2c0.4,0.1,1.5,0.2,2,0.2c1,0.1,1.5,0.1,2.5,0.2c0,0,0.1,0,0.1,0
		c0.9,0.1,1.4,0.1,2.3,0.1c0,0,0.1,0,0.1,0h0.9c0.8,0,1.5-0.5,1.9-1.2c0.4-0.8,0.5-1.3,0.7-1.9c0.1-0.2,0.2-0.5,0.3-0.8
		c0.8-2.3,1.3-3.9,2.1-6.4c0.2-0.7,0.4-1.4,0.7-2.2c0.4-1.2,0.5-1.8,0.8-2.9c0.3-0.8,0.5-1.4,0.6-2c0.2-0.6,0.4-1.2,0.7-2.1
		c0-0.1,0.1-0.3,0.2-0.6c0.2-0.7,0.7-2.1,0.9-2.5c0.1-0.2,0.2-0.4,0.2-0.7c-0.2,1.4-0.5,3-0.8,4.8c-0.6,4.1-1,6.7-1.4,8.7
		c-0.3,2-0.6,3.6-0.9,5.7c0,0,0,0,0,0.1c0,0.2-0.1,0.5-0.1,0.8c0,0.4-2.5,0.9-2.4,1.1c0.1,0.7,0.8,1.6,1.6,2.2c0.5,0.4,2,0.9,2.6,1
		c0.4,0,0.8,0.1,1.2,0.1c0.4,0,0.9,0.1,1.4,0.2c0,0,0.1,0,0.1,0c0.4,0,0.7,0.1,0.8,0.1c0.1,0,0.1,0,0.2,0c3.3,0.4,4.9,0.6,8.2,1
		c0,0,0,0,0,0c2.2,0.2,3.3,0.4,5.4,0.6c0.4,0.1,0.8,0.1,1.1,0.1c0.4,0,1.1,0,1.7-0.5c0.4,0.6,0.9,0.9,1.7,1l0.5,0.1l2.6,0.5
		c0,0,0,0,0.1,0l1.6,0.2c0.1,0,0.3,0,0.4,0c0.4,0,0.8-0.1,1.2-0.3c0.6-0.3,1-0.8,1.2-1.4c0.3-1,0.5-2.2,0.7-3.5
		c0.2-1.6,0.3-2.5,0.6-4.4c0.1-0.8,0.2-1.5,0.3-2.2l1.1,0.1l0.3,0.1c0,0.2,0.1,0.4,0.1,0.7c0.1,0.9,0,1.8-0.1,2.6
		c-0.3,2.5-0.5,3.6-0.8,5.3c0,0-1.9,1.2-1.9,1.2c0.3,0.6,0.6,1.2,1.3,1.7c0.8,0.5,1.3,0.9,2.3,1c2.2,0.3,3.3,0.5,5.5,0.8
		c0.1,0,0.2,0,0.3,0c1,0,2.1-0.6,2.4-2.1l0.1-0.5c0-0.1,0-0.2,0.1-0.5c0,0.1,0.1,0.2,0.1,0.3c0.7,1.9,2.1,2.7,2.9,3.2
		c0.5,0.3,1.1,0.7,2.1,0.8l0.3,0l0.5,0.1c2.5,0.3,3.8,0.5,6.3,0.9l0.2,0c0.3,0,1,0.1,1.8,0.1c1.1,0,2.1-0.2,2.8-0.5
		c1.7-0.7,2.8-2.5,2.9-2.9c0,0,0,0,0-0.1c0.1-0.3,0.2-0.5,0.4-0.8c0.5-1.1,1-2.5,1.3-3.3c0-0.1,0.1-0.3,0.1-0.3
		c0-0.1,0.1-0.2,0.1-0.3c0.3-1.4,0.3-2.3,0.5-3.5c0-0.5,0.1-1,0.1-1.6c0.2-2.1,0.4-6.1,0.2-8.2c-0.1-1.5-0.4-2.8-0.6-4
		c0-0.2-0.1-0.4-0.1-0.6c-0.2-1.1-0.4-2.1-0.8-3c0,0,0,0,0,0c-0.2-0.4-0.5-1.1-0.9-1.8l0.8,0c0.6,0,2.2-0.3,2.9-2.2
		c0.1-0.2,0.1-0.3,0.1-0.5c0.2-2.3,0.3-3.4,0.5-5.4C386.9,34,386.6,31.8,385.8,29.9z M247.6,52.3l-0.8,0l0-0.3c0-0.1,0-0.1,0-0.2
		l0-0.3l0-0.6c0-0.2,0-0.8-0.1-1.6c0-0.5,0-0.9,0-1.1c0,0,0-0.8-0.1-1.5l0.1,0c0.3,0,0.4,0,0.5,0c0.2,0,0.4,0,0.6,0
		c0.3,0,0.5-0.1,0.7-0.2c0,1.2,0.1,2.5,0.1,3.8l0,0.4c0,0.3,0,0.6,0,0.8c0,0.1,0,0.2,0,0.2c0,0.3,0,0.6,0,0.9
		C248.4,52.4,248,52.3,247.6,52.3z M226.2,51.6C226.2,51.6,226.2,51.6,226.2,51.6c0-0.1-0.1-0.1-0.1-0.2c0.1-0.2,0.2-0.5,0.4-0.7
		c0,0.5,0,1.1,0,1.5C226.4,52,226.3,51.8,226.2,51.6z M376.7,42.1c-0.8,0-1.6,0-2.4,0l0-0.1c0,0,0-0.1,0-0.1l0.5,0l1.9,0
		C376.7,42,376.7,42.1,376.7,42.1z M374.6,59C374.6,59,374.6,59,374.6,59l-0.1,1.1c0,0.1,0,0.2,0,0.3c-0.7-0.1-1.3-0.1-2.1-0.1
		c-0.1,0-0.3,0-0.4,0l0-0.2c0-0.4,0.1-0.8,0.1-1.2L374.6,59z M340.8,56.7c0,0-0.3,0-0.6,0c0-0.1,0.1-0.2,0.1-0.3
		c0.1-0.4,0.1-0.7,0.1-1c0-0.2,0.1-0.5,0.1-0.8c0,0,0-0.1,0-0.1c0-0.3,0.1-0.6,0.1-0.9c0-0.2,0.1-0.5,0.1-0.8c0-0.2,0.1-0.7,0.2-1.2
		c0.1-0.5,0.2-1.2,0.2-1.5c0,0,0,0,0-0.1l0-0.3l0-0.2c0.1-0.4,0.1-0.7,0.2-1.2c0-0.2,0-0.4,0.1-0.6l0.2-1.5c0,0,0-0.1,0-0.1l0-0.2
		c0-0.5,0.1-1.1,0.1-1.8c0-0.3-0.1-0.7-0.2-1l0.8,0c0.4,0,1.1-0.1,1.7-0.5c-0.1,0.5-0.1,1.1-0.2,1.8c-0.7,5.5-1,7.1-1.8,12.6
		C341.7,56.9,341.3,56.8,340.8,56.7z M363.2,56.7c0-0.3-0.2-1.4-0.3-2l0.1-0.3c0,0,0,0,0,0c0.1-0.3,0.2-0.6,0.3-0.9c0,0,0,0,0,0
		c0.3-0.8,0.6-1.7,0.9-2.6c0.3,1.7,0.8,2.9,1.3,3.8c0.2,0.4,0.5,0.9,0.8,1.4c-0.2,0-0.5,0-0.7-0.1c-0.1,0-0.2,0-0.2,0
		c-0.6,0-1.4,0.2-2.1,1C363.2,56.9,363.2,56.8,363.2,56.7z"/>
	<g>
		<g>
			<g>
				<path class="st5" d="M216.3,59.4c-0.5,0-1-0.4-1-0.9c0-0.4,0-0.9,0-1.3c0-1.4,0-2,0.1-3.4c0-0.3-0.1-0.8-0.2-1.1
					c-0.2-0.4-0.3-0.4-0.4-0.5l-1.2-0.1l-2.4,0c0,0.3,0,0.6,0,1.1l0,2.5c0,0.8-0.1,1.7-0.2,2.6c0,0.3-0.2,0.6-0.5,0.8
					c-0.3,0.2-0.7,0.3-1,0.3l-1.6,0l-2.8-0.1l-0.5,0c-0.8,0-1.1-0.5-1.3-0.8c-0.1-0.1-0.1-0.3-0.1-0.4v-2.2l0.1-2.3
					c0-0.1,0-0.1,0-0.2c0-0.2,0-0.3,0-0.5c0.1-2.8,0.1-4,0.1-5.2c0-0.6,0-1.3,0-2.2v-3.9c0-0.9,0-1.4,0-2.1l0-0.9c0-0.2,0-0.4,0-0.6
					c0-0.4,0.2-0.9,0.6-1.2c0.2-0.2,0.4-0.3,0.7-0.3l2.5-0.1v0c0.7-0.1,4-0.2,4.5-0.2c0.1,0,0.1,0,0.2,0c0.2,0,0.4,0,0.5,0
					c0.2,0,0.5,0,0.7,0l2.6-0.1c0.3,0,0.6,0,0.8,0c1.5,0,2.6,0.2,3.4,0.6c1.5,0.6,2.6,1.9,3.3,3.5c0.4,1.1,0.6,2.1,0.6,3.6
					c0,2.2-0.4,3.8-1.4,5.4c0,0.1-0.1,0.1-0.1,0.2c0.1,0.2,0.3,0.4,0.4,0.6c0.4,0.7,0.5,1.8,0.6,2c0,0.2,0.1,1,0.1,1.3
					c0,0.5,0.1,1.1,0.1,1.4l0,3.5c0,0.9-0.7,1.4-1.3,1.4C219.9,59.4,218.6,59.4,216.3,59.4C216.3,59.4,216.3,59.4,216.3,59.4z
					 M210.9,42.6c0,0.7-0.1,1.5-0.1,1.7c0,0.2,0,0.6,0,1c0.1,0,0.2,0,0.3,0c0.4,0,0.9,0,1.4-0.1c0.3,0,1-0.1,2-0.1
					c0.3,0,0.6,0,0.8,0c0.3,0,0.4,0,0.4,0c0,0,0.3-0.3,0.3-1.1c0-0.9-0.1-1.1-0.2-1.4c0,0,0,0,0-0.1c-0.4,0-0.8,0-1.2,0
					C213.2,42.5,211.8,42.5,210.9,42.6z"/>
				<path class="st1" d="M216.4,37.1c1.6,0,2.5,0.2,3,0.5c1.1,0.5,2.1,1.4,2.7,2.9c0.4,1,0.5,2,0.5,3.2c0,2.3-0.4,3.6-1.2,4.8
					c-0.1,0.2-0.2,0.3-0.3,0.5c-0.1,0.1-0.1,0.2-0.2,0.3c0,0.1-0.1,0.1-0.1,0.2c0.1,0.1,0.1,0.1,0.2,0.2c0.1,0.1,0.4,0.4,0.6,0.8
					c0.2,0.4,0.4,1.1,0.4,1.6c0,0.3,0.1,1.1,0.1,1.2c0,0.5,0.1,1.1,0.1,1.3c0,0.8,0,1.1,0,1.9c0,0.2,0,1,0,1.1c0,0.2,0,0.3,0,0.4
					c0,0.3-0.2,0.4-0.3,0.4c-2.3,0-3.6,0-5.9,0c0-0.4,0-0.9,0-1.3c0-1.3,0-2,0.1-3.4c0-0.5-0.1-1-0.3-1.5c-0.3-0.7-0.7-1-1.3-1.1
					c-0.5,0-0.7,0-1.2-0.1c-1.3,0-2,0-3.3,0c-0.2,0.8-0.2,1.3-0.2,2.1c0,1,0,1.5,0,2.5c0,0.8-0.1,1.6-0.2,2.5
					c-0.2,0.1-0.3,0.1-0.5,0.1c-0.7,0-1,0-1.6,0c-1.1,0-1.7-0.1-2.8-0.1c-0.2,0-0.3,0-0.5,0c-0.2,0-0.3,0-0.3-0.2c0-0.9,0-1.3,0-2.2
					c0-0.9,0-1.3,0.1-2.2c0-0.2,0-0.4,0-0.7c0.1-4.2,0.1-4.8,0.2-7.4c0-1.6,0-2.4,0-4c0-1.1,0-1.7,0-2.8c0-0.2,0-0.4,0-0.7
					c0-0.2,0.1-0.4,0.3-0.6c1,0,1.5-0.1,2.5-0.1c0.1,0,3.6-0.2,4.4-0.2c0.1,0,0.1,0,0.1,0c0.2,0,0.4,0,0.6,0c0.2,0,0.5,0,0.8,0
					c1.1,0,1.6-0.1,2.6-0.1C215.9,37.1,216.2,37.1,216.4,37.1 M209.8,46.4c1.1,0,1.7-0.1,2.8-0.1c0.4,0,2-0.1,2.7-0.1
					c0.5,0,0.8-0.1,1-0.2s0.7-0.8,0.7-2c0-1.1-0.1-1.4-0.3-1.8c-0.1-0.3-0.4-0.6-0.7-0.6c-0.4,0-1,0-1.6,0c-1.6,0-3.5,0.1-4.6,0.3
					c-0.1,0.7-0.1,2.3-0.1,2.6C209.8,44.7,209.8,46,209.8,46.4 M216.4,35c-0.3,0-0.6,0-0.9,0l-2.6,0.1c-0.2,0-0.5,0-0.7,0
					c-0.2,0-0.3,0-0.5,0c-0.1,0-0.1,0-0.2,0c-0.3,0-3.5,0.1-4.5,0.2l0,0l-2.5,0.1c-0.5,0-1,0.2-1.4,0.6c-0.5,0.5-0.8,1.2-0.9,1.9
					c0,0.2,0,0.5,0,0.6c0,0.1,0,0.1,0,0.2c0,0,0,0,0,0.1l0,0.7c0,0.7,0,1.2,0,2.1c0,0,0,0,0,0.1l0,3.9c0,0.9,0,1.5,0,2.2
					c0,1.2,0,2.4-0.1,5.2c0,0.2,0,0.4,0,0.6c0,0.1,0,0.1,0,0.2l0,1.6l0,0.6c0,0,0,0,0,0v1.1l0,1.1c0,0.3,0.1,0.6,0.2,0.8
					c0.4,0.9,1.2,1.5,2.2,1.5l0.4,0l0.1,0l2.7,0.1c0,0,0,0,0.1,0c0,0,0,0,0,0l1.6,0c0.5,0,1-0.1,1.5-0.4c0.6-0.3,0.9-0.9,1-1.5
					c0.1-1,0.2-1.9,0.2-2.7l0-2.5c0,0,0,0,0,0l1.4,0l0.7,0c0.1,0.2,0.1,0.4,0.1,0.6c0,1.3,0,2-0.1,3.3c0,0,0,0,0,0c0,0.5,0,1,0,1.4
					c0.1,1.1,1,1.9,2.1,1.9c0,0,0,0,0,0c2.3,0,3.6,0,5.9,0c0.6,0,1.3-0.3,1.7-0.8c0.4-0.5,0.6-1,0.6-1.7l0-0.4l0-1.1
					c0-0.7,0-1.1,0-1.9c0,0,0-0.1,0-0.1c0-0.2,0-0.8-0.1-1.4c0-0.4-0.1-1.3-0.1-1.3c-0.1-0.4-0.2-1.5-0.7-2.3c0,0,0,0,0,0
					c0,0,0-0.1-0.1-0.1c0.9-1.6,1.3-3.3,1.3-5.5c0-1.6-0.2-2.7-0.7-3.9c-0.8-1.9-2.1-3.4-3.8-4.1C219.3,35.2,218,35,216.4,35
					L216.4,35z M211.9,43.6c0.8,0,1.7-0.1,2.6-0.1c0.2,0,0.3,0,0.5,0c0,0.1,0,0.3,0,0.5c0,0.1,0,0.1,0,0.1c-0.1,0-0.3,0-0.5,0
					c-1,0-1.6,0-2,0.1c-0.2,0-0.4,0-0.6,0C211.9,44.1,211.9,43.9,211.9,43.6L211.9,43.6z"/>
			</g>
			<g>
				<path class="st5" d="M238.3,59.5c-3.3,0-5-0.1-8.3-0.1l-3.2,0c0,0,0,0-0.1,0c-0.6,0-1.6-0.2-1.6-1.8c0-0.2,0-0.4,0-0.6
					c0-0.4,0-0.8,0-1c0-2.1,0-3.3-0.1-5.4c0-1-0.1-4.7-0.1-4.7c0-2.9-0.1-4.7-0.1-7.8c0-0.4,0-0.6,0-0.8c0-0.2,0-0.4,0-0.6
					c0-0.6,0.5-1.1,1.1-1.2c0.2,0,0.4,0,0.6,0c0.1,0,0.2,0,0.3,0c4.3-0.2,7.3-0.4,10.6-0.5l7-0.3c0.1,0,0.2,0,0.2,0
					c1.2,0,1.4,0.8,1.4,1.1c0,0,0,0.1,0,0.1c0,0.9,0,1.3,0,2.2c0,0.9,0,2.9,0,3.4c0,0.5-0.4,0.9-1,1l-0.1,0c-0.3,0-0.4,0-1,0.1
					l-2.4,0.1c-0.9,0-4,0.1-7.2,0.3l-1.4,0c0,0.2,0,0.9,0,1.1c0.8,0,1.4,0,2.1-0.1c0.7,0,1.4,0,2.4-0.1l3-0.1c0,0,1.6,0,1.6,0
					c0.3,0,0.5,0.1,0.7,0.3c0.2,0.2,0.3,0.5,0.3,0.7c0,0.1,0,0.3,0,0.6c0,0.2,0,0.4,0,0.6l0,0.6c0,1.7,0.1,2.8,0,3.1
					c0,0.5-0.5,1-1,1c0,0,0,0,0,0c-0.7,0-1.4,0-2,0c-1.3,0-2.4,0-3.6,0c-1.1,0-2.2,0-3.5,0c0,0.5,0,1.1,0.1,1.5l0.9,0
					c1.3,0,3.2,0.1,3.2,0.1c0.3,0,1.1,0,1.6,0c0.2,0,0.4,0,0.4,0c0.1,0,0.5,0,1.4,0c0.6,0,1.5,0,1.7,0c0,0,0.1,0,0.1,0
					c0,0,0.5,0,0.6,0c0.1,0,0.2,0,0.3,0l1.6,0c0.6,0,1.2,0.4,1.2,1.3c0,0,0,0.2,0,0.3c0,0.2,0,0.5,0,0.6c0,0.8,0,1.5,0,2
					c0,0.2,0,0.4,0,0.5c0,1.7-0.1,1.9-0.3,2.1c-0.1,0.2-0.3,0.3-0.5,0.4c-0.1,0-0.3,0.1-1,0.1c-0.2,0-0.4,0-0.5,0
					C241.7,59.4,240.6,59.4,238.3,59.5C238.4,59.5,238.3,59.5,238.3,59.5C238.3,59.5,238.3,59.5,238.3,59.5z"/>
				<path class="st1" d="M244.6,35.7c0.3,0,0.4,0,0.4,0.2c0,0.9,0,1.3,0,2.2c0,1,0,2.9,0,3.4c-0.3,0-0.5,0-1.1,0.1
					c-0.9,0-1.4,0-2.4,0.1c-0.9,0-4,0.1-7.2,0.3c-0.8,0-1.4,0-2.2,0.1c-0.1,0.1-0.1,0.1-0.2,0.1c0,0.7,0,2.3,0.1,3c0,0,0.1,0,0.1,0
					c0.2,0,0.3,0,0.5,0c2-0.1,3,0,4.9-0.1c0.3,0,2.8-0.1,2.9-0.1c0.2,0,1.6,0,1.6,0c0,0.2,0,0.8,0,1.1c0,0.4,0.1,3.2,0.1,3.6
					c-0.7,0-1.4,0-2,0c-2.7,0-4.6,0.1-7.6,0.1c-0.2,0-0.4,0-0.6,0c0,0.1,0.1,3.2,0.2,3.6c0.7,0,1.1,0,1.9,0c1.2,0,1.9,0.1,3.1,0.1
					c0,0,0.1,0,0.1,0c0.5,0,2,0,2.1,0c0,0,0,0,0,0c0.2,0,3.1,0,3.2-0.1c0,0,0,0,0,0c0.1,0,0.4,0,0.6,0c0.1,0,0.2,0,0.2,0
					c0.2,0,1.6,0,1.7,0c0.2,0,0.2,0.1,0.2,0.3c0,0.1,0,0.7,0,0.9c0,1.1,0,2.1,0,2.5c0,0.4,0,1.4-0.1,1.5c-0.1,0-0.4,0-0.7,0
					c-0.2,0-0.4,0-0.5,0c-2.3,0-3.4,0-5.7,0c-3.3,0-5-0.1-8.3-0.1c-0.1,0-0.2,0-0.3,0c-0.1,0-0.3,0-0.4,0c-0.1,0-0.2,0-0.3,0
					c-0.9,0-1.3,0-2.2,0c0,0-0.1,0-0.1,0c-0.5,0-0.6-0.2-0.6-0.8c0-0.4,0-1.2,0-1.6c0-3.2-0.1-4.3-0.1-9.1c-0.1-3.6-0.1-5.4-0.1-8.8
					c0-1-0.1-0.9,0-1.3c0-0.1,0-0.2,0.2-0.2c0.4-0.1,0.6,0,1-0.1c7-0.3,10.5-0.5,17.6-0.8C244.5,35.7,244.6,35.7,244.6,35.7
					 M244.6,33.6c-0.1,0-0.2,0-0.3,0l-7,0.3c-3.3,0.2-6.3,0.3-10.6,0.5c0,0,0,0,0,0c-0.1,0-0.2,0-0.3,0c-0.2,0-0.4,0-0.7,0.1
					c-1.1,0.1-1.9,1-2,2.1c0,0.3,0,0.5,0,0.8c0,0.1,0,0.3,0,0.7c0,3.1,0.1,4.9,0.1,7.8l0,1c0,1.6,0,2.7,0.1,3.7c0,2,0.1,3.2,0.1,5.3
					c0,0.3,0,0.7,0,1c0,0.2,0,0.4,0,0.6c0,0,0,0,0,0.1c0.1,2,1.4,2.8,2.7,2.8c0,0,0.1,0,0.1,0l2.1,0c0.1,0,0.2,0,0.3,0l0.2,0l0.2,0
					c0.1,0,0.2,0,0.3,0c0,0,0,0,0,0c3.3,0,5,0,8.3,0.1c0,0,0,0,0,0c0,0,0,0,0,0c2.2,0,3.4,0,5.6,0c0.1,0,0.3,0,0.6,0
					c0.8,0,1.1-0.1,1.4-0.2c0.4-0.1,0.7-0.4,1-0.7c0.3-0.5,0.5-0.9,0.5-2.7c0-0.1,0-0.2,0-0.5c0-0.5,0-1.2,0-2c0-0.1,0-0.4,0-0.6
					c0-0.1,0-0.3,0-0.3c0-1.5-1.2-2.3-2.3-2.3l-1.5,0c0.4-0.4,0.7-0.9,0.7-1.4c0-0.3,0-1.1,0-3.2c0-0.3,0-0.5,0-0.6
					c0-0.2,0-0.4,0-0.6c0-0.2,0-0.4,0-0.5c0-0.4-0.1-0.9-0.4-1.2c0.1,0,0.2,0,0.3,0c0.6,0,0.8,0,1.1-0.1l0.1,0c1-0.1,1.8-0.9,1.9-2
					c0-0.6,0-2.5,0-3.5c0-0.9,0-1.3,0-2.2c0-0.1,0-0.2,0-0.3C247,34.9,246.4,33.6,244.6,33.6L244.6,33.6z"/>
			</g>
			<g>
				<path class="st5" d="M263.9,60.4c-3.5-0.2-5.3-0.3-9-0.4c-0.1,0-0.1,0-0.2,0c-0.2,0-1.1-0.1-1.7-0.2c-0.9-0.1-1.3-0.1-2.2-0.2
					c-0.3,0-0.6,0-1,0c-0.4,0-0.8,0-1.1,0c-0.4,0-0.9,0-1.2-0.4c-0.2-0.2-0.2-0.4-0.2-0.7c0-0.1,0-0.3,0-0.5c0-0.3,0-0.7,0-0.7
					l0-0.6c0-0.1,0-0.4,0-0.6c0-0.2,0-0.4,0-0.5c0-0.1,0-0.2,0-0.3l0-0.2c0-0.3-0.1-3.2-0.1-3.2l0-2.4c0-0.1,0-0.2,0-0.3
					c0-0.2,0-0.5,0-0.8l0-0.4c-0.1-2.9-0.1-5.3-0.1-7.7c0-0.9,0-1.4,0.1-1.8c0-0.5,0-0.7,0-1.1c0,0,0-0.9,0-1.2c0-0.3,0-0.8,0.4-1.2
					c0.2-0.2,0.5-0.4,0.9-0.4c0,0,0,0,0.1,0l2.5-0.1l1.2,0c0.4,0,2,0,2.3,0.1c0.5,0.1,0.9,0.5,0.9,1.1c0,0.3,0,0.4,0,0.7
					c0,1.9,0,3,0,5.1c0,0,0,0.1,0,0.1c0,0.1,0,0.3,0,0.4l0,0.7c0,0.5,0,0.9,0.1,1.6l0.1,6.4l0,0.3c0.6,0,1.1,0,1.7,0
					c0.6,0,1.2,0,1.9,0c0.4,0,0.7,0,1,0l0.4,0c1,0,1.5,0,2.5,0.1c1.1,0,1.7,0.8,1.8,1.9c0.1,2.8,0.1,4.1,0.1,6.4
					c0,0.3-0.1,0.6-0.3,0.7C264.5,60.3,264.3,60.4,263.9,60.4C264,60.4,264,60.4,263.9,60.4z"/>
				<path class="st1" d="M252.2,35.5c0.5,0,1.9,0,2.2,0.1c0,0.3,0,0.5,0,0.8c0,1.9,0,2.9,0,5c0,0.2,0,0.4,0,0.6c0,1,0,1.3,0.1,2.3
					c0.1,2.5,0.1,3.8,0.1,6.3c0,0.5,0.1,0.8,0.1,1.3c1.8,0.1,2.7,0,4.5,0.1c0.5,0,0.9,0,1.4,0c1,0,1.5,0,2.5,0.1
					c0.7,0,0.8,0.6,0.8,0.8c0.1,2.7,0.1,4.1,0.1,6.4c-3.5-0.2-5.4-0.3-9-0.4c-0.3-0.1-1.3-0.2-1.8-0.2c-0.9-0.1-1.3-0.1-2.2-0.2
					c-0.6,0-1.6,0-2.1,0c-0.2,0-0.4,0-0.4,0c0-0.1-0.1-1.1-0.1-1.3c0-0.2,0-0.4,0-0.6c0-0.1,0-0.9,0-1.1c0-0.1,0-0.3,0-0.5
					c0-0.3,0-3-0.1-3.2c0-1,0-1.5,0-2.4c0-0.3,0-0.6,0-1c-0.1-3-0.2-5.6-0.1-8.2c0-1.9,0.1-2.3,0.1-2.9c0-0.4,0-0.7,0-1.2
					c0-0.2,0-0.6,0.3-0.6c0,0,0,0,0.1,0c1,0,1.5-0.1,2.5-0.1c0.4,0,0.6,0,1.1,0C252.1,35.5,252.2,35.5,252.2,35.5 M252.2,33.5
					c-0.1,0-0.1,0-0.2,0l-0.1,0l-0.9,0c0,0,0,0-0.1,0l-2.4,0.1c0,0-0.1,0-0.1,0c-0.6,0-1.2,0.2-1.6,0.7c-0.7,0.7-0.7,1.7-0.7,2
					c0,0.2,0,0.4,0,0.6c0,0.2,0,0.3,0,0.5c0,0.3,0,0.5,0,1c0,0.4,0,1-0.1,1.8c-0.1,2.4,0,4.9,0.1,7.8l0,0.4c0,0.3,0,0.6,0,0.8
					c0,0.1,0,0.2,0,0.2c0,1,0,1.5,0,2.4c0,0.2,0,2.8,0.1,3.2c0,0,0,0.1,0,0.1c0,0.1,0,0.3,0,0.4c0,0.1,0,0.3,0,0.5
					c0,0.3,0,0.5,0,0.7l0,0.6c0,0.1,0,0.3,0,0.8c0,0.2,0,0.4,0,0.5c0,0.5,0.2,0.9,0.5,1.3c0.6,0.7,1.5,0.7,2,0.7c0.3,0,0.7,0,1.1,0
					c0.3,0,0.6,0,0.9,0c0.8,0.1,1.3,0.1,2.1,0.2c0.7,0.1,1.4,0.2,1.6,0.2c0.1,0,0.2,0,0.3,0c3.6,0.1,5.5,0.2,9,0.4c0,0,0.1,0,0.1,0
					c0.5,0,1-0.2,1.4-0.6c0.4-0.4,0.6-0.9,0.6-1.5c0-2.3,0-3.7-0.1-6.4c0-1.6-1.2-2.8-2.8-2.9c-1,0-1.5,0-2.5-0.1l-0.4,0
					c-0.4,0-0.7,0-1.1,0c-0.8,0-1.4,0-1.9,0c-0.2,0-0.4,0-0.7,0c0-1,0-1.9-0.1-2.8l-0.1-2.9c0,0,0-0.1,0-0.1c-0.1-0.7-0.1-1-0.1-1.5
					c0-0.2,0-0.4,0-0.7c0,0,0,0,0,0c0-0.1,0-0.2,0-0.3c0-0.1,0-0.1,0-0.2c0-2.1,0-3.1,0-5c0,0,0-0.1,0-0.1c0-0.2,0-0.3,0-0.6
					c0-1.1-0.7-2-1.8-2.1C254.2,33.5,252.5,33.5,252.2,33.5L252.2,33.5z"/>
			</g>
			<g>
				<path class="st5" d="M272.1,60.6c-0.2,0-0.3-0.1-0.4-0.1l-3.8-0.2c0,0-0.1,0-0.1,0c0,0-0.2,0-0.3,0c-0.9,0-1.9-0.1-2-1.1
					c0-0.2-0.1-2.2-0.1-2.2c0,0,0-2.1,0-2.3c0-0.2,0-0.3,0-0.5c0-0.2,0-0.4,0-0.7c0-0.6-0.1-5.3-0.2-8c0-0.4,0-0.9,0-1.2l0-0.2
					c0-0.3,0-1.1,0-2c0-1.6,0-2.4,0-3.6l0-1.1c0-0.3,0-0.6-0.1-0.9l0-0.1c0-0.3-0.1-0.5-0.1-0.7l0-0.4c0-0.9,0.7-1.6,1.6-1.7
					c2.2-0.1,3.3-0.2,5.6-0.3c0,0,0.1,0,0.1,0c0.4,0,0.8,0.1,1,0.4c0.2,0.2,0.4,0.6,0.4,0.9l0,1.7c0,0.3,0.1,0.9,0,1.4
					c0,0.2,0,0.4,0,0.6c0,0.2,0,0.4,0,0.7c0,0.2,0,0.7,0,1.1c0,0.2,0,0.8,0,0.8c0,0.6,0,1.7,0,2c0,0.1,0,1,0,1c0,0.3,0,1.5,0,2.4
					c0,0.6,0,1.1,0,1.1c0,0.3,0,0.6,0,0.8c0,0.2,0,0.3,0,0.5c0,0.8,0,2.6,0,3c0,0.3,0,0.7,0,1c0,0.3,0,0.6,0,0.8c0,0,0,0.1,0,0.1
					c0,0.2,0,1.6,0,1.9c0,0.9,0,1.7,0,2.3l0,0.1c0,0.1,0,0.2,0,0.3c0,0.1,0,0.3,0,0.4c0,0.9-0.6,1.6-1.5,1.6
					C272.2,60.6,272.1,60.6,272.1,60.6z"/>
				<path class="st1" d="M272.2,34.4c0.2,0,0.4,0.1,0.4,0.3c0,0.7,0,1,0,1.8c0,0.3,0.1,0.8,0,1.3c0,0.5,0,0.8,0,1.4
					c0,0.3,0,1.5,0,1.6c0,0.1,0,2,0,2.4c0,0.1,0,0.9,0,1c0,0.5,0.1,3.3,0.1,3.5c0,0.5,0,0.9,0,1.4c0,0.4,0,2.6,0,3.1
					c0,0.5,0,1.5,0,1.7c0,0.2,0,1.7,0,2c0,0.9,0,1.8,0,2.4c0,0.3,0,0.4,0,0.7c0,0.4-0.1,0.5-0.4,0.5c0,0,0,0,0,0
					c-0.2,0-0.2-0.1-0.5-0.1c-1.5-0.1-2.2-0.1-3.7-0.2c-0.3-0.1-1.5,0-1.5-0.2c0-0.1,0-2,0-2c0-0.3,0-2.1,0-2.3
					c0-0.4-0.1-0.7-0.1-1.1c0-0.6-0.1-5.4-0.2-8c0-0.4,0-1.2,0-1.3c0,0,0-1.1,0-2.1c0.1-2,0-2.9,0-4.6c0-0.4,0-0.7-0.1-0.9
					c0-0.3-0.1-0.5-0.1-0.7c0-0.1,0-0.2,0-0.4c0-0.4,0.3-0.6,0.6-0.6C268.8,34.6,269.9,34.5,272.2,34.4
					C272.2,34.4,272.2,34.4,272.2,34.4 M272.2,32.4c0,0-0.1,0-0.2,0c-2.3,0.1-3.4,0.2-5.6,0.3c-1.5,0.1-2.6,1.2-2.6,2.7l0,0.4
					c0,0.3,0,0.5,0.1,0.8l0,0.1c0,0.2,0,0.5,0,0.8c0,0.4,0,0.8,0,1.1c0,1.1,0.1,2,0,3.5c0,0,0,0.1,0,0.1c0,0.9,0,1.7,0,2l0,0.1
					l0,0.1c0,0.4,0,0.9,0,1.3c0,2.6,0.2,7.3,0.2,8c0,0.3,0,0.5,0,0.7c0,0.2,0,0.3,0,0.4c0,0.2,0,1.1,0,1.8l0,0.6c0,0,0,2,0.1,2.2
					c0,0,0,0,0,0.1c0.3,1.8,2.1,1.9,3,2c0.1,0,0.2,0,0.2,0c0.1,0,0.1,0,0.2,0l3.6,0.2c0.1,0,0.3,0.1,0.6,0.1c0.1,0,0.1,0,0.2,0
					c1.4,0,2.5-1.1,2.5-2.6c0-0.2,0-0.3,0-0.5c0-0.1,0-0.1,0-0.2l0-0.1c0-0.6,0-1.4,0-2.3c0,0,0,0,0-0.1c0-0.2,0-1.5,0-1.8
					c0-0.1,0-0.1,0-0.2c0-0.1,0-0.4,0-0.7c0-0.3,0-0.7,0-1c0,0,0-0.1,0-0.1c0-0.4,0-2.3,0-3c0-0.2,0-0.3,0-0.5c0-0.3,0-0.5,0-0.9
					c0-0.1,0-0.6,0-1.2c0-0.9,0-2.1,0-2.4c0-0.1,0-0.3,0-0.6c0-0.2,0-0.4,0-0.4c0,0,0,0,0,0c0-0.3,0-1.6,0-2l0-0.3c0,0,0-0.2,0-0.5
					c0-0.4,0-1,0-1.2c0-0.3,0-0.5,0-0.7c0-0.2,0-0.4,0-0.6c0-0.5,0-1,0-1.4c0-0.7,0-1,0-1.7c0-0.6-0.2-1.2-0.7-1.6
					C273.5,32.6,272.9,32.4,272.2,32.4L272.2,32.4z"/>
			</g>
			<g>
				<path class="st5" d="M294.1,62c0,0-0.5,0-0.8,0c-2.1-0.1-3.1-0.2-5.2-0.3c-3.1-0.2-4.7-0.3-7.8-0.5c-0.3,0-0.7,0-1-0.1l-2.1-0.1
					c-0.6,0-1.6-0.3-1.6-1.8c0-0.2,0-0.4,0-0.5c0-0.2,0-0.3,0-0.6c0-0.2,0-0.3,0-0.5l0-0.2c0-1.9,0-3.2,0.1-5c0-1.5,0-3.3,0.1-6.1
					l0.1-10.6c0-0.9,0-1,0.1-1.3c0,0,0-0.1,0-0.1c0-0.7,0.5-1.1,1-1.1l0.9-0.1c0,0,0.1,0,0.1,0c7.6-0.5,11.6-0.8,18.8-1.4
					c0.1,0,0.1,0,0.2,0c0.6,0,0.9,0.2,1.1,0.3c0.3,0.2,0.5,0.6,0.4,1c-0.1,0.9-0.2,1.4-0.3,2.5c0,0.5-0.1,0.7-0.1,1
					c0,0.2-0.1,0.5-0.1,1.1l-0.1,1.4c0,0.4,0,1-0.4,1.4c-0.4,0.4-0.9,0.4-1.5,0.4l-0.4,0l-2.3,0.1c-3,0-4.6,0-7.2,0.1l-0.9,0
					l-1.2,0.1c0,0.3-0.1,1.6-0.1,1.9c1-0.1,1.8-0.1,2.6-0.1c0.6,0,1.1,0,1.9-0.1c0.2,0,0.6,0,1.1,0c0.8,0,1.7,0,2,0c0,0,0.2,0,0.2,0
					c0.4,0,1.3,0,1.4,0c0,0,0,0,0,0c0.3,0,0.5,0.1,0.7,0.3c0.2,0.2,0.3,0.5,0.3,0.8c0,0.2,0,0.5,0,0.8c0,0.5,0,0.9,0,1.2
					c0,0.3-0.1,2.3-0.1,3.4c0,0.7,0,1.2,0,1.4c0,0.6-0.5,1-1,1c0,0,0,0,0,0c-2-0.1-3.6-0.1-5.4-0.1c-1.3,0-2.6,0-4.1,0
					c0,0,0,0.1,0,0.1c0,0.3,0,0.9,0,1.4l0.9,0c0.6,0,1,0.1,1.5,0.1c0.5,0,0.9,0,1.6,0.1c0,0,0,0,0,0c0.2,0,1,0,1.8,0
					c0.7,0,1.4,0,1.6,0c0,0,0,0,0,0c0.1,0,0.7,0,3.8,0.2l0.4,0c0.3,0,0.6,0.2,0.8,0.4c0.4,0.4,0.3,1,0.3,1.1c0,0.2-0.3,2.6-0.4,3.8
					c0,0.1,0,0.1,0,0.2c-0.1,0.2-0.2,1.5-0.2,1.8c0,0.3-0.1,0.5-0.2,0.7l-0.1,0.2c-0.1,0.2-0.3,0.3-0.5,0.3
					C294.6,62,294.4,62,294.1,62z"/>
				<path class="st1" d="M297,32.7c0.3,0,0.5,0.1,0.5,0.2c-0.1,0.9-0.2,1.4-0.3,2.5c-0.1,1.1-0.1,0.8-0.2,2.1c0,0.6,0,0.9-0.1,1.5
					c0,1-0.1,0.8-1.3,0.9c-0.9,0-1.4,0.1-2.3,0.1c-3.2,0-4.8,0-8.1,0.1c-0.8,0-1.2,0.1-2,0.1c-0.1,0.1-0.1,0.1-0.2,0.2
					c0,0.8-0.1,2.9-0.1,3.8c0.2,0,0.3,0,0.5,0c0,0,0.1,0,0.1,0c2-0.1,3-0.1,5-0.2c0.4,0,2.6-0.1,3-0.1c0,0,0,0,0.1,0
					c0,0,0.1,0,0.1,0c0.5,0,1.4,0,1.4,0c0,0.6,0,1.5,0,2c0,0.5-0.2,4.3-0.2,4.8c-4-0.2-6.5,0-10.5-0.2c0,0.1,0,1,0,1.1
					c0,0.5,0,2,0,2.4c0.7,0,1.1,0,1.8,0.1c1.2,0.1,1.8,0.1,3,0.2c0.1,0,3.1,0,3.4,0c0,0,0,0,0,0c0.3,0,4.1,0.2,4.2,0.2
					c0.2,0,0.2,0.1,0.2,0.4c0,0.2-0.3,2.6-0.4,3.8c-0.1,0.3-0.3,2.1-0.3,2.2c-0.1,0.1-0.1,0.1-0.1,0.2c-0.1,0-0.2,0-0.3,0
					c-0.3,0-0.6,0-0.7,0c-2.1-0.1-3.2-0.2-5.3-0.3c-3.1-0.2-4.7-0.3-7.8-0.5c-0.3,0-0.7,0-1-0.1c-0.8-0.1-1.2-0.1-2.1-0.1
					c-0.7,0-0.7-0.4-0.6-0.8c0-0.4,0-0.6,0-1c0-0.3,0-0.4,0-0.7c0.1-3.6,0.1-5,0.1-11.1c0.1-4.5,0.1-6.9,0.1-10.6
					c0-1.1,0-0.9,0.1-1.4c0-0.1,0-0.2,0.1-0.2c0.4-0.1,0.6-0.1,1-0.1c7.4-0.5,11.3-0.8,18.9-1.4C297,32.7,297,32.7,297,32.7
					 M297,30.7c-0.1,0-0.2,0-0.3,0c-7.3,0.6-11.3,0.9-18.8,1.4c-0.1,0-0.1,0-0.2,0l-0.9,0.1l-0.1,0c-0.9,0.1-1.8,0.8-1.9,2
					c0,0,0,0.1,0,0.1c-0.1,0.4-0.1,0.6-0.1,1.5l-0.1,6.6l0,3.9c0,2.8-0.1,4.6-0.1,6.1c0,1.7,0,3-0.1,5l0,0.2c0,0.2,0,0.4,0,0.6
					c0,0.2,0,0.4,0,0.5c0,0.1,0,0.3,0,0.4l0,0c0,1.9,1.3,2.7,2.6,2.8l2.1,0.1c0,0,0,0,0,0c0.3,0,0.6,0,0.9,0.1c0,0,0,0,0.1,0
					c3.1,0.2,4.7,0.3,7.8,0.5c0,0,0,0,0,0c2.1,0.1,3.1,0.2,5.2,0.3c0.4,0,0.8,0.1,0.9,0.1c0.4,0,0.7,0,1-0.1c0.4-0.1,0.7-0.3,1-0.7
					l0.1-0.2c0.3-0.4,0.5-0.9,0.5-1.3c0-0.3,0.1-1.3,0.2-1.6c0-0.1,0-0.2,0.1-0.3c0.1-1.2,0.4-3.7,0.4-3.9c0.1-0.8-0.1-1.4-0.5-1.9
					c-0.4-0.5-1-0.7-1.6-0.8l-0.4,0c-0.2,0-0.4,0-0.5,0c0.5-0.3,0.9-0.9,1-1.6c0-0.2,0-0.7,0-1.4c0-1.1,0.1-3,0.1-3.3
					c0-0.3,0-0.8,0-1.3c0-0.3,0-0.6,0-0.8c0-0.6-0.2-1.1-0.6-1.5c-0.1-0.1-0.3-0.2-0.4-0.3l0.9,0l0.5,0c0.1,0,0.2,0,0.3,0
					c0.6,0,1.5,0,2.2-0.8c0.7-0.7,0.7-1.6,0.7-2.2c0-0.5,0-0.8,0.1-1.4c0.1-0.6,0.1-0.8,0.1-1c0-0.2,0.1-0.4,0.1-1
					c0.1-1,0.2-1.5,0.3-2.4c0.1-0.8-0.2-1.5-0.9-2C298.6,31.1,298,30.7,297,30.7L297,30.7z"/>
			</g>
			<g>
				<path class="st5" d="M309.5,63.4c-1-0.1-1.5-0.1-2.4-0.1c-1.1-0.1-1.6-0.1-2.6-0.2c-0.4,0-1.4-0.1-1.9-0.2
					c-0.2,0-0.8-0.1-1.1-0.2l-0.3,0c-1.1-0.1-1.3-0.8-1.3-1.1c0-0.1-0.1-0.2,0-0.4c0-0.5-0.1-0.9-0.1-1.3c-0.1-0.7-0.1-1.4-0.1-2.5
					c-0.1-2-0.1-2.8-0.2-3.3c0-0.4,0-0.7,0-1.2l0-1.7l-0.1-1.4c0-0.5-0.1-1.1-0.1-1.6c0-0.4-0.1-0.7-0.1-1l0-0.3
					c0-0.4,0-0.7-0.1-1.4c-0.2-4.6-0.3-6.9-0.7-10.3c0-0.3-0.1-1.7-0.1-2c0-0.8,0.5-1.4,1.1-1.4c0,0,0.1,0,0.3,0c0.3,0,0.8,0,0.9,0
					l0.3,0c0,0,0.3,0,0.3,0c0.9,0,2.7-0.1,2.9-0.2c0,0,0.1,0,0.1,0l1.8-0.2c0,0,0.1,0,0.1,0c0.2,0,0.4,0,0.6,0.1
					c0.1,0,0.2,0.1,0.2,0.1c0.1,0,0.2,0.1,0.3,0.2c0.2,0.2,0.3,0.5,0.2,0.8c0,0.1,0,0.8,0.1,1.3c0,0.4,0,0.6,0,0.9
					c0,0.8,0,1.5,0.2,3.8c0.1,2.4,0.1,4.2,0.1,6.2c0,0.6,0,1.2,0,1.9l0.6-2.2c0.5-2.3,0.7-2.7,0.8-3c0.1-0.2,0.1-0.4,0.4-1.4
					c0,0,0-0.1,0-0.1c1.2-3.9,1.9-5.7,2.9-8.3c0.2-0.6,0.8-1.1,1.4-1.1l6.3-0.5c0,0,0.1,0,0.1,0c0.4,0,0.7,0.1,0.9,0.4
					c0.1,0.2,0.3,0.5,0.3,1c0,0.2-0.3,1-0.5,1.3l-0.2,0.5c-0.7,1.7-0.9,2.5-1.2,3.3c-0.1,0.3-0.2,0.6-0.3,1
					c-0.1,0.4-0.3,0.9-0.4,1.4c-0.3,1-0.6,2-0.8,2.6c-0.2,0.4-0.6,1.8-0.9,2.6c-0.1,0.3-0.2,0.6-0.2,0.7c-0.3,0.8-0.5,1.4-0.7,2.1
					c-0.2,0.6-0.4,1.2-0.7,2.1c-0.3,1.1-0.4,1.7-0.8,2.8l-0.7,2.2c-0.8,2.5-1.3,4.1-2.1,6.3c-0.1,0.3-0.2,0.6-0.3,0.8
					c-0.2,0.5-0.3,1-0.7,1.7c-0.2,0.4-0.5,0.6-0.9,0.6H309.5z"/>
				<path class="st1" d="M320.5,31c0.1,0,0.2,0,0.1,0.2c0,0.1-0.2,0.8-0.3,1c-0.1,0.2-0.1,0.3-0.2,0.5c-1,2.5-1,3-1.5,4.5
					c-0.3,1-0.9,3.1-1.3,3.9c-0.2,0.6-1,2.9-1.1,3.3c-0.6,1.7-0.8,2.5-1.3,4.2c-0.3,1.2-0.5,1.7-0.8,2.9c-1.2,3.8-1.7,5.7-2.8,8.5
					c-0.4,1.1-0.4,1.4-0.9,2.5c-0.4,0-0.5,0-0.9,0c-0.9-0.1-1.4-0.1-2.3-0.1c-1-0.1-1.6-0.1-2.6-0.2c0,0,0,0,0,0
					c-0.2,0-1.2-0.1-1.8-0.2c-0.3,0-1.3-0.2-1.4-0.2c-0.1,0-0.4,0-0.4-0.1c0-0.1-0.1-0.2,0-0.3c0-1.2-0.2-2.1-0.2-3.9
					c-0.1-3.6-0.2-3.3-0.2-4.4c0-0.7,0-1,0-1.7c0-0.6,0-0.9-0.1-1.5c0-0.6-0.1-1.1-0.1-1.7c0-0.3-0.1-0.6-0.1-0.9
					c0-0.5,0-0.9-0.1-1.8c-0.2-4.6-0.3-6.9-0.7-10.3c0-0.4-0.1-1.6-0.1-1.9c0-0.2,0.1-0.4,0.2-0.4c0,0,1.1,0,1.3,0
					c0.1,0,0.2,0,0.3,0c0.1,0,0.1,0,0.2,0c1,0,3-0.2,3.1-0.2c0.7-0.1,1.1-0.1,1.8-0.2c0,0,0,0,0,0c0,0,0.1,0,0.2,0
					c0,0,0.1,0,0.1,0.1c0,0.1,0,1.1,0.1,1.6c0,1.3,0,1.7,0.2,4.7c0.1,4,0,6.4,0,10.9c0,0.8-0.1,1.6,0,2.1c0,1.1,0,1.5,0.1,1.7
					c0.9-1.8,1-2.6,1.9-6c0.3-1,0.4-1.5,0.7-2.6c1-4.1,0.7-2,1.2-4.5c1.2-3.8,1.8-5.7,2.9-8.3c0.1-0.3,0.4-0.5,0.6-0.5
					C316.7,31.3,318,31.2,320.5,31C320.5,31,320.5,31,320.5,31 M320.5,28.9c-0.1,0-0.2,0-0.2,0l-2.9,0.2l-3.3,0.3
					c-1.1,0.1-2,0.8-2.3,1.8c-1,2.5-1.6,4.3-2.8,7.8c0-0.2,0-0.3,0-0.5c0,0,0,0,0-0.1c-0.2-2.3-0.2-3-0.2-3.8c0-0.3,0-0.5,0-0.9
					c0,0,0-0.1,0-0.1c0-0.4-0.1-1.1-0.1-1.3c0-0.5-0.1-1-0.5-1.4c-0.1-0.2-0.3-0.3-0.5-0.4c-0.1-0.1-0.3-0.2-0.4-0.2
					c-0.3-0.1-0.6-0.2-0.9-0.2c-0.1,0-0.1,0-0.2,0l-1.9,0.2c-0.1,0-0.1,0-0.2,0c-0.3,0-2,0.2-2.8,0.2l-0.1,0c0,0,0,0,0,0
					c-0.1,0-0.1,0-0.2,0l-0.3,0c-0.1,0-0.6,0-0.9,0c-0.2,0-0.4,0-0.4,0c-1.2,0.1-2.1,1.1-2.1,2.5c0,0.4,0.1,1.7,0.1,2.1
					c0.4,3.3,0.5,5.7,0.7,10.2c0,0,0,0.1,0,0.1c0.1,0.6,0.1,0.9,0.1,1.3c0,0.1,0,0.2,0,0.4c0,0.4,0,0.7,0.1,1.1
					c0.1,0.5,0.1,1,0.1,1.6l0.1,1.4l0,1.6c0,0.6,0,0.8,0,1.2c0,0.5,0.1,1.3,0.1,3.2c0,1.1,0.1,1.9,0.1,2.5c0,0.4,0.1,0.8,0.1,1.2
					c0,0.3,0,0.5,0.1,0.6c0,0,0-0.1,0-0.3c0,0.1,0,2,2.3,2.2c0,0,0.1,0,0.2,0c0.6,0.1,1,0.2,1.2,0.2c0.4,0.1,1.5,0.2,2,0.2
					c1,0.1,1.5,0.1,2.5,0.2c0,0,0.1,0,0.1,0c0.9,0.1,1.4,0.1,2.3,0.1c0,0,0.1,0,0.1,0h0.9c0.8,0,1.5-0.5,1.9-1.2
					c0.4-0.8,0.5-1.3,0.7-1.9c0.1-0.2,0.2-0.5,0.3-0.8c0.8-2.3,1.3-3.9,2.1-6.4c0.2-0.7,0.4-1.4,0.7-2.2c0.4-1.2,0.5-1.8,0.8-2.9
					c0.3-0.8,0.5-1.4,0.6-2c0.2-0.6,0.4-1.2,0.7-2.1c0-0.1,0.1-0.3,0.2-0.6c0.2-0.7,0.7-2.1,0.9-2.5c0.2-0.6,0.5-1.6,0.9-2.6
					c0.2-0.5,0.3-1,0.4-1.4c0.1-0.4,0.2-0.7,0.3-1c0.3-0.9,0.5-1.5,1.1-3.3c0.1-0.2,0.1-0.3,0.2-0.4c0.2-0.4,0.5-1.2,0.5-1.5
					c0.1-0.7-0.1-1.3-0.5-1.8C321.8,29.2,321.2,28.9,320.5,28.9L320.5,28.9z"/>
			</g>
			<g>
				<path class="st5" d="M336.5,66.6c-0.1,0-0.6,0-1-0.1c-2.2-0.2-3.3-0.4-5.5-0.6c-3.3-0.4-4.9-0.6-8.2-1c0,0,0,0-0.1,0
					c-0.2,0-0.6-0.1-1-0.1c-0.5-0.1-1-0.1-1.4-0.2c-0.4,0-0.8-0.1-1.2-0.1c-0.3,0-0.6-0.2-0.8-0.4c-0.4-0.5-0.3-1.1-0.2-1.6
					c0-0.2,0.1-0.7,0.1-1.1c0-0.3,0.1-0.6,0.1-0.8c0.3-2.1,0.6-3.7,0.9-5.7c0.3-2.1,0.7-4.6,1.4-8.7c1-6.1,1.5-9.5,2.2-13.7
					c0.2-1,0.2-1.1,0.3-1.4c0,0,0-0.1,0-0.2c0.2-0.7,0.7-0.9,1-1l0.9-0.2c0,0,0.1,0,0.1,0l17.2-1.5c0.1,0,0.1,0,0.2,0
					c0.7,0,1,0.3,1.1,0.4c0.3,0.2,0.4,0.6,0.3,0.9c-0.1,0.9-0.2,1.5-0.4,2.8c-0.2,1.3-0.3,2.1-0.5,3.7c0,0.4-0.1,0.5-0.1,0.6
					c0,0.1,0,0.2-0.1,0.6c0,0.1,0,0.2-0.1,0.3c-0.4,1.2-1.2,1.8-2.2,1.8l-2.1,0.1c-3-0.1-4.5-0.1-7.6-0.1l-1.2,0
					c-0.1,0.5-0.2,1-0.3,1.5c-0.1,0.3-0.1,0.7-0.2,1l0.9,0c1.2,0,2-0.1,3.5-0.1c0.3,0,3.2-0.1,4.2-0.1c0,0,0.4,0,0.4,0
					c0.3,0,0.5,0.1,0.7,0.3c0.2,0.2,0.3,0.5,0.3,0.7c0,0.7-0.2,1.8-0.3,2.6l0,0.3c-0.1,0.5-0.4,2.4-0.6,3.8c-0.1,0.6-0.2,1-0.2,1.2
					c0,0.3-0.1,0.5-0.1,0.8c0,0.3-0.1,0.5-0.1,0.9c0,0.1,0,0.2,0,0.2c0,0.2,0,0.4-0.1,0.6c-0.1,0.5-0.5,0.8-1,0.8c0,0-0.1,0-0.1,0
					c-3.6-0.3-5.6-0.5-9-0.8c0,0.1,0,0.2,0,0.3c-0.1,0.4-0.1,1.7-0.2,2.7l0.9,0.1c0.9,0.1,1.5,0.2,2.2,0.2l0.8,0.1
					c0.7,0.1,2.2,0.1,2.4,0.1c0.2,0,0.4,0,0.6,0c0.2,0,0.5,0,0.5,0c0.3,0,0.9,0.1,2.6,0.3c0.3,0,0.5,0.1,0.5,0.1c0.2,0,1,0.1,1,0.1
					c0.3,0,0.6,0.2,0.8,0.4c0.3,0.4,0.3,0.9,0.2,1.3c0,0.1-0.1,0.5-0.2,1.1c-0.2,1-0.4,2.4-0.5,3.3c0,0,0,0.1,0,0.1
					c-0.1,0.2-0.2,1.2-0.3,1.7c-0.1,0.6-0.1,0.7-0.1,0.8c0,0.2-0.1,0.3-0.2,0.4C337.4,66.6,336.9,66.6,336.5,66.6z"/>
				<path class="st1" d="M341.6,29.2c0.3,0,0.4,0.1,0.5,0.2c-0.1,0.9-0.2,1.5-0.4,2.8c-0.2,1.3-0.3,2.1-0.5,3.7
					c-0.1,0.8-0.1,0.4-0.1,1.2c-0.3,0.7-0.6,1.1-1.2,1.1c-0.9,0-1.3,0-2.1,0.1c-3-0.1-4.5-0.1-7.6-0.1c-0.8,0-1.1,0-1.9,0.1
					c-0.1,0.1-0.1,0.1-0.2,0.2c-0.2,1.1-0.6,3.2-0.8,4.4c0.1,0,0.1,0,0.2,0c0.2,0,0.5,0,0.6,0c2-0.1,2.9-0.1,4.8-0.2
					c0.3,0,4.5-0.1,4.5-0.1c0,0.7-0.2,2.1-0.3,2.8c-0.1,0.7-0.8,4.4-0.8,5c-0.1,0.7-0.1,1-0.2,1.7c-0.1,0.7,0,0.1-0.1,0.8
					c-3.9-0.4-5.9-0.5-10-0.9c0,0.1-0.2,1.1-0.2,1.2c-0.1,0.7-0.2,3.2-0.2,3.8c0.7,0.1,1.1,0.1,1.8,0.2c1.2,0.2,1.8,0.2,3,0.3
					c0.7,0.1,2.3,0.1,2.5,0.1c0.3,0,0.6,0,1,0c0,0,0,0,0,0c0.3,0,2.8,0.3,3.1,0.3c0.2,0,1,0.1,1,0.1c0.1,0,0.1,0.2,0.1,0.5
					c0,0.2-0.5,2.9-0.7,4.4c-0.1,0.4-0.4,2.4-0.4,2.6c0,0-0.2,0-0.4,0c-0.3,0-0.7,0-0.8-0.1c-2.2-0.2-3.3-0.4-5.5-0.6
					c-3.3-0.4-4.9-0.6-8.2-1c-0.3-0.1-0.8-0.1-1.1-0.1c-0.9-0.1-1.7-0.2-2.6-0.3c-0.2,0-0.1-0.5-0.1-0.9c0.1-0.4,0.2-1.5,0.2-1.9
					c0.7-4.2,1-6.2,2.2-14.4c1-6.1,1.5-9.4,2.2-13.7c0.2-1.3,0.2-1.1,0.3-1.5c0-0.1,0-0.2,0.2-0.2c0.4-0.1,0.6-0.1,0.9-0.2
					C331.4,30.1,334.8,29.8,341.6,29.2C341.5,29.2,341.6,29.2,341.6,29.2 M341.6,27.2c-0.1,0-0.2,0-0.3,0c-4.9,0.4-8,0.7-12.1,1
					l-5.1,0.4c-0.1,0-0.1,0-0.2,0l-0.9,0.2c-0.7,0.1-1.6,0.6-1.8,1.7c0,0,0,0.1,0,0.1c-0.1,0.4-0.2,0.6-0.3,1.6
					c-0.7,4.3-1.2,7.6-2.2,13.7c-0.6,4.1-1,6.7-1.4,8.7c-0.3,2-0.6,3.6-0.9,5.7c0,0,0,0,0,0.1c0,0.2-0.1,0.5-0.1,0.8
					c0,0.4-0.1,0.9-0.1,1.1c-0.1,0.6-0.3,1.6,0.4,2.4c0.4,0.5,0.9,0.8,1.5,0.9c0.4,0,0.8,0.1,1.2,0.1c0.4,0,0.9,0.1,1.4,0.2
					c0,0,0.1,0,0.1,0c0.4,0,0.7,0.1,0.8,0.1c0.1,0,0.1,0,0.2,0c3.3,0.4,4.9,0.6,8.2,1c0,0,0,0,0,0c2.2,0.2,3.3,0.4,5.4,0.6
					c0.4,0.1,0.8,0.1,1.1,0.1c0.4,0,1.3,0,1.9-0.7c0.2-0.2,0.4-0.5,0.4-0.8c0-0.2,0.1-0.3,0.2-1c0.1-0.4,0.2-1.4,0.3-1.6
					c0-0.1,0-0.2,0.1-0.2c0.1-0.9,0.4-2.3,0.5-3.3c0.1-0.6,0.2-1,0.2-1.1c0.1-0.5,0.2-1.3-0.4-2.1c-0.4-0.5-0.9-0.8-1.5-0.8
					c-0.1,0-0.8-0.1-1.1-0.1c-0.1,0-0.3,0-0.5-0.1c-1.9-0.2-2.4-0.3-2.6-0.3c-0.2,0-0.3,0-0.5,0c-0.2,0-0.3,0-0.4,0c0,0-0.1,0-0.1,0
					c-0.2,0-1.7-0.1-2.3-0.1c-0.3,0-0.6-0.1-0.9-0.1c-0.7-0.1-1.2-0.1-2.1-0.2c0-0.3,0-0.6,0.1-0.9c2.9,0.2,4.8,0.4,8,0.7
					c0.1,0,0.1,0,0.2,0c1,0,1.8-0.7,2-1.7c0.1-0.3,0.1-0.5,0.1-0.8c0,0,0,0,0-0.1c0,0,0-0.1,0-0.1c0-0.3,0.1-0.6,0.1-0.9
					c0-0.2,0.1-0.5,0.1-0.8c0-0.2,0.1-0.6,0.2-1.2c0.3-1.7,0.6-3.3,0.6-3.8l0-0.3c0.1-1,0.3-2,0.3-2.7c0-0.6-0.2-1.1-0.6-1.5
					c-0.4-0.4-0.9-0.6-1.5-0.6c0,0,0,0,0,0c0,0-0.2,0-0.6,0c-1.2,0-3.7,0.1-3.9,0.1c-1.3,0-2.2,0.1-3.1,0.1c0-0.1,0.1-0.3,0.1-0.4
					l0.4,0c3,0,4.5,0.1,7.5,0.1c0,0,0,0,0,0c0,0,0,0,0.1,0l2.1-0.1c0.8,0,2.3-0.4,3.1-2.4c0.1-0.2,0.1-0.4,0.1-0.5
					c0-0.4,0-0.5,0.1-0.6c0-0.1,0-0.2,0.1-0.7c0.2-1.6,0.3-2.4,0.4-3.7c0.2-1.3,0.3-1.8,0.4-2.8c0.1-0.7-0.1-1.4-0.7-1.9
					C342.9,27.4,342.3,27.2,341.6,27.2L341.6,27.2z"/>
			</g>
			<g>
				<path class="st5" d="M357.1,69.7c0,0-0.1,0-0.1,0c-2.2-0.3-3.3-0.5-5.5-0.8c-0.5-0.1-0.8-0.4-0.9-0.9c-0.1-0.6,0-1.5,0.1-1.7
					c0.3-1.7,0.4-2.9,0.8-5.4c0.1-0.9,0.1-1.9,0.1-2.8c-0.1-1.1-0.2-1.4-0.3-1.5l-1-0.2l-2.1-0.2c-0.3,1.2-0.4,2.1-0.5,3.2
					c-0.3,1.9-0.4,2.8-0.6,4.4c-0.2,1.3-0.4,2.4-0.6,3.3c-0.1,0.3-0.3,0.6-0.6,0.7c-0.3,0.1-0.5,0.2-0.8,0.2c-0.1,0-0.2,0-0.2,0
					l-1.6-0.2l-2.7-0.5l-0.5-0.1c-0.6-0.1-1-0.5-1.2-1.1c0-0.1,0-0.3,0-0.4c0.1-0.9,0.2-1.5,0.4-2.8c0.2-1.3,0.3-2.1,0.6-3.7
					c0.1-0.3,0.1-0.6,0.1-0.9c0-0.1,0-0.3,0.1-0.4l0.3-2.1c0.9-6.1,1.2-7.6,1.9-13.4c0.4-3.3,0.7-5,1-7.8c0.2-1.2,0.3-2,0.4-2.8
					c0.1-0.5,0.1-0.9,0.2-1.5c0-0.2,0-0.4,0.1-0.6c0-0.2,0-0.4,0.1-0.5c0.1-0.9,0.7-1.3,1.3-1.3c0,0,0,0,0,0l2.3-0.2
					c0.4-0.1,2.3-0.2,2.9-0.3c0.1,0,1.7-0.1,1.7-0.1c0.3,0,0.7,0,1,0l0.1,0c0.5,0,0.9-0.1,1.2-0.1c0.4,0,0.7,0,1.2-0.1
					c0.4,0,0.8-0.1,1.2-0.1c1.3,0,2.2,0.2,3,0.6c1.5,0.8,2.3,2.6,2.6,5.3c0.2,1.8,0.1,3.7-0.2,6.6c-0.5,4.6-1.2,7.9-2.5,11.1
					c-0.1,0.3-0.3,0.7-0.4,1l-0.2,0.6c0,0.1,0,0.1,0.1,0.2c0.1,0.3,0.2,1.1,0.3,1.9c0.1,0.6,0,1.5,0,2.4c0,0.5,0,0.9,0,1.3
					c0,0.6,0,1.1-0.1,2l-0.1,0.4c0,1-0.1,2.2-0.2,2.7c-0.2,1.3-0.2,1.9-0.4,3c0,0.3-0.2,1.3-0.2,1.5l-0.1,0.5
					C358.3,69.6,357.5,69.7,357.1,69.7C357.1,69.7,357.1,69.7,357.1,69.7z M349.4,44.3c0.5,0,1,0,1.7,0.1c0.3,0,0.7,0,1.1,0
					c0.5,0,0.6,0,1.2-0.1l0.1,0c0.3-0.1,0.4-0.2,0.5-0.3c0.3-0.5,0.6-2.8,0.6-3.4c0-0.6-0.1-1.7-0.2-2.3c-0.7-0.1-1.5-0.1-2.3-0.1
					c-0.7,0-1.4,0-2,0.1c0,0.2,0,0.3-0.1,0.4c0,0.4-0.4,3.4-0.7,5.3C349.4,44.1,349.4,44.2,349.4,44.3z"/>
				<path class="st1" d="M356.8,28.2c1.3,0,2,0.2,2.4,0.5c1,0.5,1.8,1.8,2.1,4.5c0.2,1.8,0.1,3.8-0.2,6.4c-0.5,4.9-1.3,8.1-2.4,10.8
					c-0.1,0.4-0.3,0.7-0.4,1.1c-0.1,0.2-0.1,0.4-0.2,0.6c-0.1,0.1-0.1,0.2-0.1,0.3c0.1,0.1,0.2,0.2,0.2,0.4c0.1,0.3,0.2,1,0.3,1.8
					c0.1,0.8-0.1,2.5-0.1,3.5c0,0.6,0,1.1-0.1,1.9c0,0.2,0,0.3-0.1,0.5c0,0.9-0.1,2.2-0.2,2.6c-0.2,1.3-0.2,2-0.4,3
					c0,0.3-0.2,1.3-0.2,1.5c0,0.2,0,0.3-0.1,0.5c0,0.3-0.1,0.4-0.3,0.4c0,0,0,0,0,0c-2.2-0.3-3.3-0.5-5.5-0.8c0-0.4,0-1,0.1-1.5
					c0.3-1.7,0.4-2.8,0.8-5.4c0.1-0.9,0.1-2,0.1-3c-0.1-1.5-0.3-2.2-0.9-2.4c-0.5-0.1-0.7-0.2-1.2-0.3c-1.2-0.1-1.9-0.2-3.1-0.3
					c-0.4,1.6-0.6,2.7-0.8,4.2c-0.3,1.9-0.4,2.8-0.6,4.4c-0.2,1.2-0.4,2.3-0.6,3.2c-0.1,0.1-0.3,0.1-0.4,0.1c0,0-0.1,0-0.1,0
					c-0.6-0.1-0.9-0.1-1.6-0.2c-1.1-0.2-1.6-0.3-2.6-0.5c-0.2,0-0.3,0-0.5-0.1c-0.1,0-0.2-0.1-0.3-0.3c0.1-0.9,0.2-1.5,0.4-2.8
					c0.2-1.3,0.3-2.1,0.6-3.7c0.1-0.3,0.1-0.9,0.2-1.3c1.2-8,1.4-9,2.2-15.5c0.4-3.3,0.7-5,1-7.8c0.3-2,0.4-2.8,0.5-4.3
					c0.1-0.4,0.1-0.8,0.1-1.2c0-0.2,0.1-0.4,0.3-0.4c0,0,0,0,0,0c0.9-0.1,1.4-0.1,2.4-0.2c0.2,0,2.2-0.2,2.9-0.3
					c0.1,0,1-0.1,1.4-0.1c0.3,0,0.7-0.1,1.2-0.1c0,0,0.1,0,0.1,0c1-0.1,1.5,0,2.5-0.1C356.1,28.3,356.5,28.2,356.8,28.2 M348.2,45.3
					c0.2,0,0.3,0,0.5,0c0.8,0,1.4,0,2.4,0.1c0.3,0,0.7,0,1.1,0c0.6,0,0.8,0,1.4-0.1c0.5-0.1,1-0.3,1.3-0.8c0.4-0.7,0.8-3.4,0.8-3.9
					c0-0.7-0.1-1.9-0.2-2.6c-0.1-0.4-0.3-0.6-0.6-0.8c-0.7-0.1-1.7-0.2-2.6-0.2c-1,0-2.1,0.1-2.9,0.2c-0.1,0.3-0.1,0.9-0.2,1.2
					C349,39.1,348.2,45.2,348.2,45.3 M356.8,26.2c-0.4,0-0.8,0-1.3,0.1c-0.4,0-0.8,0-1.1,0.1c-0.4,0-0.7,0-1.2,0.1l-0.1,0
					c-0.4,0-0.8,0-1.1,0l-0.2,0c-0.2,0-0.6,0-0.8,0c-0.3,0-0.6,0-0.6,0c-0.6,0-2.4,0.2-2.9,0.3l-2.2,0.2c-1.2,0-2.2,0.9-2.3,2.2
					c0,0.2,0,0.4-0.1,0.6c0,0.2,0,0.4-0.1,0.5c0,0,0,0,0,0c-0.1,0.6-0.1,1-0.2,1.5c-0.1,0.8-0.2,1.6-0.4,2.8c-0.4,2.8-0.6,4.4-1,7.8
					c-0.8,5.8-1,7.2-1.9,13.3l-0.3,2.1c0,0.1,0,0.3-0.1,0.5c0,0.2-0.1,0.6-0.1,0.7c0,0,0,0.1,0,0.1c-0.2,1.6-0.4,2.4-0.6,3.7
					c-0.2,1.3-0.3,1.9-0.4,2.8c0,0.3,0,0.5,0,0.8c0.2,1,1,1.7,2,1.9l0.5,0.1l2.6,0.5c0,0,0,0,0.1,0l1.6,0.2c0.1,0,0.3,0,0.4,0
					c0.4,0,0.8-0.1,1.2-0.3c0.6-0.3,1-0.8,1.2-1.4c0.3-1,0.5-2.2,0.7-3.5c0.2-1.6,0.3-2.5,0.6-4.4c0.1-0.8,0.2-1.5,0.3-2.2l1.1,0.1
					l0.3,0.1c0,0.2,0.1,0.4,0.1,0.7c0.1,0.9,0,1.8-0.1,2.6c-0.3,2.5-0.5,3.6-0.8,5.3c0,0,0,0,0,0c0,0.4-0.2,1.3-0.1,2
					c0.1,0.9,0.8,1.7,1.8,1.8c2.2,0.3,3.3,0.5,5.5,0.8c0.1,0,0.2,0,0.3,0c1,0,2.1-0.6,2.4-2.1l0.1-0.5c0-0.2,0.2-1.3,0.2-1.5
					c0.1-1.1,0.2-1.7,0.4-3c0.1-0.6,0.2-1.8,0.2-2.7l0-0.4c0.1-0.9,0.1-1.4,0.1-2.1c0-0.3,0-0.8,0-1.2c0-0.9,0.1-1.9,0-2.6
					c0-0.3-0.2-1.4-0.3-2l0.1-0.3c0,0,0,0,0,0c0.1-0.3,0.2-0.6,0.3-0.9c0,0,0,0,0,0c1.3-3.3,2-6.7,2.5-11.3c0.3-3,0.4-5,0.2-6.8
					c-0.3-3.1-1.3-5.1-3.2-6.1C359.4,26.4,358.3,26.2,356.8,26.2L356.8,26.2z M351.1,39.2c0.3,0,0.7,0,1.1,0c0.5,0,0.9,0,1.4,0
					c0,0.5,0.1,1,0.1,1.4c0,0.5-0.3,2.1-0.5,2.7c-0.4,0-0.5,0-0.9,0c-0.4,0-0.8,0-1.1,0c-0.2,0-0.4,0-0.5,0
					C350.8,41.6,351,40,351.1,39.2L351.1,39.2z"/>
			</g>
			<g>
				<path class="st5" d="M373.9,72c-0.6,0-1.2,0-1.7-0.1l-6.5-0.9l-0.8-0.1c-0.8-0.1-1.3-0.4-1.7-0.6c-0.9-0.6-2-1.3-2.5-2.7
					c-0.5-1.3-0.7-4.3-0.5-5.9l0.2-1.7c0-0.2,0.1-0.7,0.1-1.2c0-0.3,0.1-0.6,0.1-0.8l0-0.3c0.2-1.9,0.9-2.9,2.1-2.9c0,0,0.1,0,0.1,0
					c0.8,0.1,1.4,0.1,2,0.1c0.4,0,0.8,0,1.3,0.1c-1.1-0.7-1.8-2-2.4-3c-0.6-1.3-1.4-3.2-1.4-6.4c0-1.2,0.1-3.8,0.4-7
					c0.2-1.8,0.4-3,0.8-4.6c0.5-2.1,0.9-2.8,1.4-3.7l0.1-0.2c0.6-1.2,1.2-2.2,2.3-3.1c0.6-0.5,1.7-1,2.6-1.1
					c2.7-0.2,4.1-0.3,6.9-0.5c0.2,0,0.6,0,1,0c0.8,0,1.5,0.1,2,0.3c1.1,0.3,1.7,1,2.4,2.5c0.7,1.7,1.1,3.8,0.9,5.9
					c-0.2,2-0.3,3.1-0.5,5.4c0,0.1,0,0.2-0.1,0.3c-0.4,1.2-1.3,1.5-1.9,1.5c0,0-1.3,0-1.3,0c-0.1,0-0.2,0-0.2,0
					c-0.4-0.1-1.6-0.2-2.1-0.2l-0.1,0c-0.3,0-0.6,0-0.9-0.1c-0.5-0.1-0.9-0.5-0.9-1c0-0.2-0.1-0.5-0.1-1c0-0.1,0-0.2,0-0.3
					c-0.1,0-0.3,0-0.4,0c0,0-0.1,0-0.2,0c0,0-2.3-0.1-2.3-0.1l-0.7,0c-0.1,0-0.4,0.1-0.5,0.1c-0.1,0-0.1,0-0.1,0
					c0,0.1-0.1,0.3-0.2,0.9l0,0.4c-0.1,0.5-0.1,0.8-0.1,0.9l5.4,0c1,0,2,0.4,2.6,1.1c0.5,0.6,1.1,1.7,1.3,2.4
					c0.3,0.9,0.5,1.8,0.7,2.9l0.1,0.6c0.2,1.1,0.5,2.4,0.6,3.8c0.1,2,0,5.9-0.2,8c-0.1,0.6-0.1,1.1-0.1,1.6
					c-0.1,1.2-0.2,2.1-0.4,3.4c0,0.1,0,0.1,0,0.1l-0.1,0.3c-0.2,0.7-0.7,2.1-1.2,3.2c-0.1,0.3-0.2,0.5-0.4,0.8
					c-0.1,0.2-1,1.9-2.5,2.5C375.7,71.9,374.9,72,373.9,72z M369.8,59c1.1,0,1.7,0.1,2.9,0.2c0.1-0.2,0.2-0.5,0.3-1.3l0.1-1
					c0.1-0.5-0.1-0.7-0.1-0.7l-0.1-0.1c0-0.1-0.1-0.1-0.2-0.2c-0.1-0.1-0.2-0.2-0.5-0.2l-3.1-0.2l-0.1,0c-0.2,0-0.4,0-0.5,0
					c-0.1,0-0.1,0-0.2,0c0.1,0.2,0.1,0.3,0.1,0.5c0,0.5,0,1.1-0.1,1.6l0,0.5c0,0.3,0,0.7,0.1,0.9c0,0,0.6,0,0.6,0c0.1,0,0.1,0,0.2,0
					C369.4,59,369.6,59,369.8,59z"/>
				<path class="st1" d="M377.8,26.4c0.6,0,1.2,0,1.7,0.2c0.7,0.2,1.2,0.6,1.7,1.9c0.9,2.1,0.9,4.2,0.8,5.4c-0.2,2-0.3,3.1-0.5,5.4
					c-0.1,0.4-0.4,0.8-1,0.8c-0.5,0-0.8,0-1.3,0c-0.5-0.1-1.8-0.2-2.3-0.2c0,0-0.1,0-0.1,0c-0.3,0-0.5,0-0.8-0.1
					c0-0.1-0.1-0.3-0.1-0.9c0-1-0.1-1.2-0.3-1.2c0,0,0,0,0,0c0,0,0,0,0,0c-0.2,0-0.8,0-1.1,0c-0.1,0-0.1,0-0.2,0
					c-0.9,0-1.4,0-2.3-0.1c-0.3,0-0.5,0-0.8,0c-0.1,0-0.6,0.1-0.8,0.1c-0.3,0.1-0.4,0.2-0.6,0.3c-0.2,0.2-0.4,0.7-0.4,1.5
					c0,0.1,0,0.2,0,0.4c-0.1,1-0.1,1.3,0,1.5c0.2,0.3,0.3,0.4,0.5,0.6c2.3,0,3.5,0,5.8-0.1c0,0,0,0,0,0c0.8,0,1.4,0.3,1.8,0.7
					c0.4,0.4,0.9,1.4,1.2,2.1c0.3,0.7,0.5,1.6,0.7,2.7c0.2,1.2,0.6,2.7,0.7,4.3c0.1,1.9,0,5.8-0.2,7.8c-0.2,2.1-0.2,3.1-0.6,4.9
					c-0.2,0.5-0.7,2.2-1.3,3.4c-0.1,0.3-0.2,0.5-0.4,0.7c-0.2,0.4-1,1.6-1.9,2c-0.5,0.2-1.3,0.3-2,0.3c-0.6,0-1.1,0-1.5-0.1
					c-2.6-0.4-3.9-0.5-6.5-0.9c-0.3,0-0.5-0.1-0.8-0.1c-0.6-0.1-0.9-0.3-1.3-0.5c-0.8-0.5-1.6-1-2-2.1c-0.4-1.1-0.7-3.9-0.5-5.4
					c0.1-0.7,0.1-1,0.2-1.7c0-0.4,0.2-1.6,0.2-2c0-0.1,0-0.2,0-0.3c0.1-0.8,0.3-2,1.1-2c0,0,0,0,0.1,0c1.6,0.1,2.4,0.1,4.1,0.2
					c0,0,0.1,0,0.1,0c0.1,0,0.2,0,0.4,0c0,0,0,0,0.1,0c0,0.7-0.1,1.3-0.1,2c0,0.5,0,1.3,0.2,1.6c0.1,0.3,0.5,0.4,0.7,0.4
					c0.1,0,0.2,0,0.3,0c0.2,0,0.4,0,0.5,0c0.1,0,0.1,0,0.2,0c0.2,0,0.5,0,0.7,0c1.1,0,1.7,0.1,3,0.2c0,0,0,0,0.1,0
					c0.5,0,0.9-0.7,1.1-2.2c0-0.4,0.1-0.6,0.1-1c0.1-0.8-0.2-1.3-0.3-1.4c-0.1-0.1-0.2-0.2-0.3-0.4c-0.3-0.3-0.7-0.5-1.2-0.5
					c-1.3-0.1-1.9-0.1-3.2-0.2c-0.3,0-0.5,0-0.7,0c-0.1,0-0.1,0-0.2,0c-0.2,0-0.3,0-0.6,0c-1-0.1-2-1-3-3c-0.6-1.2-1.3-2.8-1.3-6
					c0-1.3,0.1-3.9,0.4-6.9c0.2-1.7,0.3-2.9,0.7-4.5c0.5-2.1,0.9-2.7,1.4-3.7c0.6-1.1,1.1-2,2.1-2.7c0.5-0.4,1.4-0.8,2.1-0.9
					c2.7-0.2,4.1-0.3,6.8-0.5C377.1,26.4,377.4,26.4,377.8,26.4 M377.8,24.3C377.8,24.3,377.8,24.3,377.8,24.3c-0.5,0-0.9,0-1.2,0
					c-2.7,0.2-4.1,0.3-6.8,0.5c-1.5,0.1-2.8,1-3.2,1.3c-1.3,1-2,2.2-2.7,3.4l-0.1,0.2c-0.5,0.9-0.9,1.7-1.4,3.9
					c-0.4,1.7-0.6,2.9-0.8,4.8c-0.3,3.2-0.4,5.8-0.4,7.1c0.1,3.5,0.9,5.5,1.5,6.8c0.2,0.4,0.5,0.9,0.8,1.4c-0.2,0-0.5,0-0.7-0.1
					c-0.1,0-0.2,0-0.2,0c-1,0-2.7,0.5-3.1,3.8l0,0.3c0,0,0,0,0,0.1c0,0.2-0.1,0.4-0.1,0.7c-0.1,0.6-0.1,0.9-0.1,1.2
					c-0.1,0.7-0.1,1-0.2,1.7c-0.2,1.8,0.1,5,0.6,6.4c0.7,1.9,2.1,2.7,2.9,3.2c0.5,0.3,1.1,0.7,2.1,0.8l0.3,0l0.5,0.1
					c2.5,0.3,3.8,0.5,6.3,0.9l0.2,0c0.3,0,1,0.1,1.8,0.1c1.1,0,2.1-0.2,2.8-0.5c1.7-0.7,2.8-2.5,2.9-2.9c0,0,0,0,0-0.1
					c0.1-0.3,0.2-0.5,0.4-0.8c0.5-1.1,1-2.5,1.3-3.3c0-0.1,0.1-0.3,0.1-0.3c0-0.1,0.1-0.2,0.1-0.3c0.3-1.4,0.3-2.3,0.5-3.5
					c0-0.5,0.1-1,0.1-1.6c0.2-2.1,0.4-6.1,0.2-8.2c-0.1-1.5-0.4-2.8-0.6-4c0-0.2-0.1-0.4-0.1-0.6c-0.2-1.1-0.4-2.1-0.8-3
					c0,0,0,0,0,0c-0.2-0.4-0.5-1.1-0.9-1.8l0.8,0c0.6,0,2.2-0.3,2.9-2.2c0.1-0.2,0.1-0.3,0.1-0.5c0.2-2.3,0.3-3.4,0.5-5.4
					c0.2-2.3-0.1-4.5-1-6.4c-0.7-1.7-1.6-2.6-3-3.1C379.6,24.4,378.8,24.3,377.8,24.3L377.8,24.3z M371.7,39.7l0.5,0l1.9,0
					c0,0.1,0,0.1,0,0.2c-0.8,0-1.6,0-2.4,0l0-0.1C371.7,39.8,371.7,39.7,371.7,39.7L371.7,39.7z M369.3,58l0-0.2
					c0-0.4,0.1-0.8,0.1-1.2l2.6,0.2c0,0,0,0,0,0l-0.1,1c0,0.1,0,0.2,0,0.3c-0.7-0.1-1.3-0.1-2.1-0.1C369.6,58,369.5,58,369.3,58
					L369.3,58z"/>
			</g>
		</g>
	</g>
</g>
</svg>
