<?xml version="1.0" encoding="utf-8"?>
<!-- Generator: Adobe Illustrator 24.0.1, SVG Export Plug-In . SVG Version: 6.00 Build 0)  -->
<svg version="1.1" id="Layer_1" xmlns="http://www.w3.org/2000/svg" xmlns:xlink="http://www.w3.org/1999/xlink" x="0px" y="0px"
	 viewBox="0 0 390.1 86.9" style="enable-background:new 0 0 390.1 86.9;" xml:space="preserve">
<style type="text/css">
	.st0{fill:#088AFF;}
	.st1{fill:#FFFFFF;}
</style>
<g>
	<g>
		<path class="st0" d="M320.8,57.3c0,0-31,30-132.2,5.6c0,0,81.2,46,155.1,9.1C343.6,72,329.4,70.9,320.8,57.3z"/>
		<g>
			<path d="M16.6,50.2c3.8,0,5.7-1.1,5.7-3.4c0-1.8-3.1-3.3-9.2-4.4C5.1,41,1.1,37.5,1,31.9c0-7.7,6.1-11.3,14.2-11.5
				c4.6,0,8.2,1,10.9,3c2.6,2.1,4,5,4.2,8.7h-5.7c-2.1-0.1-3.4-0.8-4-2.2c-0.6-1.6-2.4-2.4-5.4-2.4c-3.5,0-5.3,0.9-5.3,2.8
				c0,1.8,2.3,3.2,6.9,4.1c6.1,1.2,10,2.8,12,4.6c1.7,1.8,2.5,3.9,2.5,6.3c0,8.8-6.9,12-16.3,12c-5,0-8.8-1.1-11.2-3.2
				c-2.7-2-4-5.1-4-9.2h9.2C9.4,48.8,12.2,50.2,16.6,50.2z"/>
			<path d="M45.4,27.4h-0.9v9.4v10.4c0,1.5,0.9,2.3,2.6,2.3h2.8v6.8c-2.9,0.3-6.1,0.3-9.4-0.1c-3.4-0.3-5-2.4-4.9-6.4v-39h4.7
				c2.4,0,4.3,2.2,4.3,4.5V21h5.4v2C49.8,25.5,47.9,27.4,45.4,27.4z"/>
			<path d="M53.6,38.3C53.9,26.7,60,21,71.9,21h1.3v9.3h-3c-5,0-7.5,2.6-7.5,7.8v18.5h-9.1V38.3z"/>
			<path d="M93.3,57.5c-10.8-0.3-16.2-6.6-16.2-18.7c0-12.1,5.5-18.2,16.3-18.3c11.3,0,16.6,6.9,16,20.9H86.3
				c0.3,5.5,2.7,8.2,7.1,8.2c2.1,0,4-0.9,5.8-2.6c0.8-0.9,1.8-1.3,3-1.3h6.6C106.9,53.3,102,57.5,93.3,57.5z M86.5,34.9h13.4
				c-0.5-4.7-2.8-7.1-6.6-7.1C89.4,27.8,87.1,30.2,86.5,34.9z"/>
			<path d="M129.1,50.2c3.8,0,5.7-1.1,5.7-3.4c0-1.8-3.1-3.3-9.2-4.4c-7.9-1.4-11.9-4.9-12-10.5c0-7.7,6.1-11.3,14.2-11.5
				c4.6,0,8.2,1,10.9,3c2.6,2.1,4,5,4.2,8.7h-5.7c-2.1-0.1-3.4-0.8-4-2.2c-0.6-1.6-2.4-2.4-5.4-2.4c-3.5,0-5.3,0.9-5.3,2.8
				c0,1.8,2.3,3.2,6.9,4.1c6.1,1.2,10,2.8,12,4.6c1.7,1.8,2.5,3.9,2.5,6.3c0,8.8-6.9,12-16.3,12c-5,0-8.8-1.1-11.2-3.2
				c-2.7-2-4-5.1-4-9.2h9.2C121.9,48.8,124.8,50.2,129.1,50.2z"/>
			<path d="M163.6,50.2c3.8,0,5.7-1.1,5.7-3.4c0-1.8-3.1-3.3-9.2-4.4c-7.9-1.4-11.9-4.9-12-10.5c0-7.7,6.1-11.3,14.2-11.5
				c4.6,0,8.2,1,10.9,3c2.6,2.1,4,5,4.2,8.7h-5.7c-2.1-0.1-3.4-0.8-4-2.2c-0.6-1.6-2.4-2.4-5.4-2.4c-3.5,0-5.3,0.9-5.3,2.8
				c0,1.8,2.3,3.2,6.9,4.1c6.1,1.2,10,2.8,12,4.6c1.7,1.8,2.5,3.9,2.5,6.3c0,8.8-6.9,12-16.3,12c-5,0-8.8-1.1-11.2-3.2
				c-2.7-2-4-5.1-4-9.2h9.2C156.4,48.8,159.2,50.2,163.6,50.2z"/>
			<path d="M191.4,26c2.3-3.7,5.7-5.5,10.1-5.5c9.5,0.3,14.2,6.5,14.2,18.7c0,11.9-5.5,17.9-16.6,18.1c-11.1,0.1-16.7-5.3-16.7-16
				V10.8h4.5c3,0,4.4,1.6,4.4,4.5V26z M191.4,38.7c-0.1,7.2,2.4,10.9,7.5,10.9s7.7-3.6,7.7-10.9c-0.2-6.9-2.7-10.2-7.5-10.2
				C194.2,28.5,191.7,31.8,191.4,38.7z"/>
			<path d="M229,30.3h-9c1.1-6.6,5.7-9.8,14-9.8c9.8,0,14.8,3.2,15,9.8v12.1c0,9.8-5.9,14.2-15.6,14.9C224.9,58,219,54,219,46.1
				c0.2-8.6,6.4-10.9,15.4-11.7c3.8-0.5,5.8-1.6,5.8-3.6c-0.2-2-2.1-3-5.8-3C231.2,27.8,229.5,28.6,229,30.3z M240.3,42v-3.3
				c-2.1,0.9-4.5,1.6-7.1,2.2c-3.6,0.7-5.4,2.4-5.4,5c0.2,2.8,1.7,4.2,4.5,4.2C237.3,50,240.3,47.1,240.3,42z"/>
			<path d="M263.7,15.2v41.5h-9V10.8h4.7C261.7,10.8,263.7,12.8,263.7,15.2z"/>
			<path d="M279,15.2v41.5h-9V10.8h4.7C277.1,10.8,279,12.8,279,15.2z"/>
			<path d="M299.7,50.2c3.8,0,5.7-1.1,5.7-3.4c0-1.8-3.1-3.3-9.2-4.4c-7.9-1.4-11.9-4.9-12-10.5c0-7.7,6.1-11.3,14.2-11.5
				c4.6,0,8.2,1,10.9,3c2.6,2.1,4,5,4.2,8.7h-5.7c-2.1-0.1-3.4-0.8-4-2.2c-0.6-1.6-2.4-2.4-5.4-2.4c-3.5,0-5.3,0.9-5.3,2.8
				c0,1.8,2.3,3.2,6.9,4.1c6.1,1.2,10,2.8,12,4.6c1.7,1.8,2.5,3.9,2.5,6.3c0,8.8-6.9,12-16.3,12c-5,0-8.8-1.1-11.2-3.2
				c-2.7-2-4-5.1-4-9.2h9.2C292.4,48.8,295.3,50.2,299.7,50.2z"/>
		</g>
		<path class="st0" d="M384.1,32.6c0,18-14.6,32.6-32.6,32.6c-18,0-32.6-14.6-32.6-32.6S333.4,0,351.4,0
			C369.5,0,384.1,14.6,384.1,32.6z"/>
		<g>
			<path class="st1" d="M321.8,36.4c-0.1-0.7,0.1-1.3,0.5-1.8c0.4-0.5,1-0.7,1.7-0.7c0.7,0,1.3,0.4,1.9,1c0.6,0.6,0.9,1.4,1,2.2
				c0.1,0.8-0.1,1.5-0.5,2c-0.4,0.5-1,0.6-1.7,0.5c-0.7-0.2-1.3-0.6-1.9-1.2C322.2,37.8,321.8,37.1,321.8,36.4z"/>
			<path class="st1" d="M338.9,41.8c-0.5,0.4-1,0.7-1.5,0.8c-0.5,0.1-1.1,0.2-1.8,0.1c-2-0.2-3.7-1.4-5-3.2
				c-1.4-1.8-2.2-3.9-2.4-6.4c-0.2-2.5,0.3-4.5,1.5-6.3c1.2-1.8,2.9-2.9,5-3.2c0.7-0.1,1.4-0.1,1.9,0.1c0.6,0.1,1.1,0.4,1.6,0.7
				c0,1.8,0.1,3.6,0.2,5.4c-0.4-0.6-0.9-1-1.4-1.3c-0.5-0.3-1.1-0.4-1.7-0.4c-1.1,0.1-1.9,0.6-2.5,1.5c-0.6,0.9-0.9,2-0.8,3.4
				c0.1,1.4,0.5,2.6,1.2,3.5c0.7,0.9,1.6,1.4,2.7,1.5c0.6,0,1.1-0.1,1.6-0.4c0.5-0.3,0.9-0.8,1.2-1.4
				C338.8,38,338.9,39.9,338.9,41.8z"/>
			<path class="st1" d="M355,32.9c0,3.3-0.8,6.1-2.1,8.4c-1.4,2.3-3.1,3.4-5.1,3.4c-2.1,0-3.8-1.2-5.2-3.5c-1.4-2.3-2.1-5-2.2-8.2
				c-0.1-3.2,0.5-6,1.9-8.2c1.4-2.3,3.2-3.5,5.3-3.5c2.2,0,4,1.1,5.4,3.3C354.4,26.8,355,29.6,355,32.9z M351.1,32.9
				c0-1.8-0.3-3.2-0.9-4.3c-0.6-1.1-1.5-1.6-2.5-1.6c-1.1,0-1.9,0.6-2.5,1.6c-0.6,1.1-0.9,2.5-0.9,4.3c0,1.8,0.4,3.2,1,4.3
				c0.6,1.1,1.4,1.6,2.5,1.6c1,0,1.8-0.5,2.5-1.6C350.8,36.1,351.1,34.7,351.1,32.9z"/>
			<path class="st1" d="M360.6,43.3c-1.2,0.1-2.5,0.2-3.7,0.3c0.2-7.1,0.3-14.3,0.5-21.4c1.3,0.1,2.6,0.2,3.9,0.3
				c0,1.1-0.1,2.2-0.1,3.3c0.7-1.3,1.4-2.2,2.1-2.8c0.8-0.5,1.6-0.7,2.5-0.6c1.1,0.2,2,0.6,2.7,1.4c0.7,0.8,1.1,1.8,1.3,3.1
				c0.7-1.2,1.4-2,2.3-2.5c0.8-0.5,1.7-0.6,2.6-0.4c0.9,0.2,1.7,0.6,2.3,1.2c0.6,0.6,1.1,1.3,1.3,2.1c0.1,0.5,0.2,1,0.2,1.5
				c0,0.5,0,1.3-0.1,2.4c0,0.2,0,0.3-0.1,0.5c-0.3,2.9-0.6,5.7-1,8.6c-1.2,0.3-2.4,0.6-3.6,0.8c0.2-2.7,0.5-5.4,0.7-8.1
				c0.2-2,0.1-3.3-0.1-4c-0.3-0.7-0.8-1.1-1.6-1.2c-1-0.1-1.7,0.3-2.2,1.3c-0.5,1-0.8,2.6-1,5c-0.2,2.7-0.3,5.4-0.5,8.1
				c-1.2,0.2-2.4,0.4-3.7,0.6c0.2-3.2,0.3-6.4,0.5-9.7c0.1-2.3,0-3.9-0.2-4.7c-0.3-0.8-0.8-1.3-1.5-1.4c-1-0.1-1.8,0.4-2.3,1.6
				c-0.5,1.1-0.8,3-0.9,5.6C360.8,37.3,360.7,40.3,360.6,43.3z"/>
		</g>
		<path class="st1" d="M344.4,5.6c0,0-0.7,0.1-1.8,0.4c-3.7,1-11.9,3.9-14.4,10.6h3.6l11.9-10.9"/>
	</g>
	<g>
		<path class="st0" d="M380.5,1.1h-1.6V0.7c0-0.2,0.1-0.3,0.2-0.4c0.1-0.1,0.2-0.2,0.4-0.2h3.8v1h-1.6v4.5h-1.1V1.1z"/>
		<path class="st0" d="M383.7,0.7c0-0.2,0.1-0.3,0.2-0.4c0.1-0.1,0.2-0.2,0.4-0.2h1.1l1.1,4.2l1.1-4.2h1.7v5.5h-1.1V1.1l-1.1,4.4
			h-1.1l-1.1-4.4v4.4h-1.1V0.7z"/>
	</g>
</g>
</svg>
