<?xml version="1.0" encoding="utf-8"?>
<!-- Generator: Adobe Illustrator 24.0.1, SVG Export Plug-In . SVG Version: 6.00 Build 0)  -->
<svg version="1.1" id="Layer_1" xmlns="http://www.w3.org/2000/svg" xmlns:xlink="http://www.w3.org/1999/xlink" x="0px" y="0px"
	 viewBox="0 0 490 54" style="enable-background:new 0 0 490 54;" xml:space="preserve">
<style type="text/css">
	.st0{fill:#FFFFFF;}
	.st1{fill:#A5A8AE;}
	.st2{clip-path:url(#SVGID_2_);}
	.st3{fill:#E8ECED;}
	.st4{fill:#016CB6;}
	.st5{fill:#EEECE8;}
	.st6{fill:#F2EBE7;}
	.st7{fill:#F5EAE5;}
	.st8{fill:#E2EFFD;}
	.st9{fill:#F3ECDF;}
	.st10{fill:#E2F0F7;}
	.st11{fill:#60AFE7;}
	.st12{fill:#F0ECE7;}
	.st13{fill:#F4FAFA;}
	.st14{fill:#0B6FB0;}
	.st15{fill:#0969AA;}
	.st16{fill:#006CC3;}
	.st17{fill:#0A68AB;}
	.st18{fill:#096FB2;}
	.st19{fill:#13679E;}
	.st20{fill:#136499;}
	.st21{fill:#1B6FA5;}
	.st22{fill:#076CB5;}
	.st23{fill:#076DB5;}
	.st24{fill:#386B8E;}
	.st25{fill:#3385C0;}
	.st26{fill:#EDF9FA;}
	.st27{fill:#F4FBFB;}
	.st28{fill:#245E88;}
	.st29{clip-path:url(#SVGID_4_);}
	.st30{fill-rule:evenodd;clip-rule:evenodd;fill:#FFFFFF;}
	.st31{fill-rule:evenodd;clip-rule:evenodd;}
	.st32{fill-rule:evenodd;clip-rule:evenodd;fill:#F47216;}
	.st33{fill:#091282;}
	.st34{fill:#FF5A00;}
	.st35{fill:#EB001B;}
	.st36{fill:#F79E1B;}
</style>
<g>
	<path class="st0" d="M272.1,53c-3,0-5.5-2.5-5.5-5.5v-41c0-3,2.5-5.5,5.5-5.5h76.8c3,0,5.5,2.5,5.5,5.5v40.9c0,3-2.5,5.5-5.5,5.5
		L272.1,53L272.1,53z"/>
	<path class="st1" d="M348.9,1.5c2.8,0,5,2.2,5,5v40.9c0,2.8-2.2,5-5,5h-76.8c-2.8,0-5-2.2-5-5V6.5c0-2.8,2.2-5,5-5H348.9
		 M348.9,0.5h-76.8c-3.3,0-6,2.7-6,6v40.9c0,3.3,2.7,6,6,6h76.8c3.3,0,6-2.7,6-6V6.5C354.9,3.2,352.2,0.5,348.9,0.5L348.9,0.5z"/>
</g>
<g>
	<g>
		<defs>
			<path id="SVGID_1_" d="M348.9,52.5h-76.8c-2.8,0-5-2.2-5-5v-41c0-2.8,2.2-5,5-5h76.8c2.8,0,5,2.2,5,5v40.9
				C353.9,50.2,351.7,52.5,348.9,52.5z"/>
		</defs>
		<clipPath id="SVGID_2_">
			<use xlink:href="#SVGID_1_"  style="overflow:visible;"/>
		</clipPath>
		<g class="st2">
			<g>
				<path class="st3" d="M310.3,57.7c-13.9,0-27.8,0-41.6,0c-3.5,0-6.6-2.5-7.5-5.8c-0.2-0.7-0.3-1.5-0.3-2.2c0-15.3,0-30.7,0-46
					c0-3.3,1.3-5.9,4.3-7.4c1.1-0.5,2.3-0.8,3.5-0.8c26.9,0,53.8,0,80.8,0c1.3,0,2.5,0,3.8,0.2c2.9,0.4,4.8,2.2,5.9,4.8
					c0.4,1,0.5,2.1,0.5,3.1c0,15.6,0,31.2,0,46.8c0,1.6-0.6,3-1.5,4.3c-1.6,2.3-3.8,3.2-6.5,3.2C337.9,57.7,324.1,57.7,310.3,57.7z
					 M358.1,2.6c-0.1,0.4-0.3,0.7-0.3,1.1c0,11.5,0,23,0,34.5c0,4.1,0,8.3,0,12.4c0,0.3,0.2,0.6,0.3,0.9c0.8,0,0.3-0.5,0.3-0.8
					c0-11.5,0-22.9,0-34.4c0-4.3,0-8.5,0-12.8C358.5,3.2,358.2,2.9,358.1,2.6z M350.5,57c0-0.1,0-0.2,0-0.4c0-0.1,0-0.2,0-0.4
					c1,0,1.9,0,2.9,0c0.6-0.3,1.3-0.6,1.9-1c0.1-0.1,0-0.5,0.1-0.8c-0.2,0.1-0.4,0.2-0.6,0.4c-0.2,0.1-0.4,0.3-0.6,0.4
					c-0.5,0.2-1,0.3-1.5,0.4c-0.5-0.1-1-0.2-1.5-0.2c-7.4,0-14.8,0-22.2,0c-1.1,0-2.1,0.2-3.2,0.2c-1.2,0-2.4-0.2-3.6-0.2
					c-13.9,0-27.8,0-41.7,0c-1,0-1.9,0.2-2.9,0.2c-1.6,0-3.2-0.1-4.8-0.1c-1.1,0-2.3,0.1-3.4,0.2c0,0.1,0.1,0.3,0.2,0.5
					c-0.9,0.2-1.9-0.4-2.7,0.3c0,0.1,0,0.3,0,0.4c0.9,0,1.9,0,2.8,0c0.4,0.1,0.7,0.3,1.1,0.3c26.6,0,53.2,0,79.7,0
					c0.6,0,1.1,0,1.7,0c0.2,0,0.3-0.1,0.5-0.1c0-0.1,0-0.1,0-0.2C352,57,351.3,57,350.5,57z M352.3,55.2c0.5-0.1,1.1-0.2,1.6-0.5
					c2.1-0.9,3.2-2.5,3.2-4.8c0-15.6,0-31.1,0-46.7c0-3-2.2-5.2-5.2-5.2c-27.6,0-55.3,0-82.9,0c-3.1,0-5.3,2.2-5.3,5.3
					c0,15.6,0,31.1,0,46.7c0,2.7,1.9,4.7,4.5,5.1c0.3,0,0.7,0.1,1,0.1c27.1,0,54.3,0,81.4,0C351.2,55.2,351.8,55.2,352.3,55.2z"/>
				<path class="st4" d="M268.2,55.1c-2.7-0.4-4.5-2.4-4.5-5.1c0-15.6,0-31.1,0-46.7c0-3.1,2.2-5.3,5.3-5.3c27.6,0,55.3,0,82.9,0
					c3,0,5.2,2.2,5.2,5.2c0,15.6,0,31.1,0,46.7c0,2.3-1.1,3.9-3.2,4.8c-0.5,0.2-1.1,0.3-1.6,0.5c-0.3,0-0.7-0.1-1-0.1
					c-27.4,0-54.8,0-82.2,0C268.8,55,268.5,55.1,268.2,55.1z M348.7,35.4c-0.1-0.1-0.2-0.2-0.4-0.4c-2.6-2.8-5.1-5.6-7.7-8.4
					c-0.4-0.5-0.1-0.7,0.2-1c2.7-2.9,5.3-5.8,8-8.8c0.2-0.2,0.2-0.5,0.3-0.7c-0.2-0.1-0.4-0.2-0.6-0.2c-3.7,0-7.4,0-11.1,0
					c-0.2,0-0.4,0.2-0.6,0.3c-0.9,1-1.8,2-2.7,3c-0.7-0.8-1.3-1.5-1.9-2.3c0-1-0.6-1.1-1.3-1.1c-8.5,0-17,0-25.6,0
					c-1.5,0-1.7,0.5-1.5,1.7c-0.5,1.1-0.9,2.3-1.5,3.6c-0.8-1.6-1.4-3-2.1-4.4c-0.1-0.3-0.6-0.6-0.9-0.6c-6.2,0-12.4,0-18.6-0.1
					c-0.5,0-0.7,0.1-0.9,0.6c-2.7,6.4-5.5,12.9-8.3,19.3c0.7,0.3,1.4,0.7,2.1,0.7c2,0.1,4,0.1,6,0c0.9,0,1.7-0.1,2.2-0.1
					c0.4-0.8,0.8-1.4,1-2s0.3-1.1,1-1.1c0.8,0,1.8-0.3,2.2,0.8c0.1,0.4,0.3,0.9,0.4,1.3c0.2,0.6,0.6,1.1,1.4,1.1c14,0,28,0,42,0
					c0.4,0,0.9-0.5,1.3-0.7c0.9-1,1.9-2,2.8-3c1,1.1,1.9,2.1,2.7,3.1c-0.1,0.2-0.2,0.4-0.3,0.7c0.3,0,0.6,0,0.9,0c2.4,0,4.8,0,7.3,0
					c1.2,0,2.4,0.4,3.5-0.5c0.2,0.1,0.5,0.2,0.7,0.2c0.3-0.1,0.7-0.2,0.7-0.5C349.6,35.5,349.2,35.4,348.7,35.4L348.7,35.4z
					 M304.4,15.6c8.3,0,16.7,0,25,0c0.3,0,0.6-0.2,1-0.3c-0.3-0.1-0.6-0.3-0.9-0.3c-8.2,0-16.4,0-24.6,0c-0.2,0-0.3,0-0.4,0
					c-0.1,0.1-0.3,0.2-0.4,0.3C304.2,15.3,304.3,15.4,304.4,15.6z M269.9-1.3c0,0.1,0,0.1,0,0.2c26.8,0,53.7,0,80.5,0
					c0-0.1,0-0.1,0-0.2C323.6-1.3,296.8-1.3,269.9-1.3z M284,33.9c0,0.1-0.1,0.2-0.1,0.3c0.2,0,0.4,0.1,0.6,0.1c0,0,0-0.1,0.1-0.2
					C284.3,34,284.1,33.9,284,33.9z"/>
				<path class="st5" d="M269.6,56.3c-0.1-0.2-0.2-0.4-0.2-0.5c1.1-0.1,2.3-0.2,3.4-0.2c1.6,0,3.2,0.1,4.8,0.1c1,0,1.9-0.2,2.9-0.2
					c13.9,0,27.8,0,41.7,0c1.2,0,2.4,0.2,3.6,0.2c1.1,0,2.1-0.2,3.2-0.2c7.4,0,14.8,0,22.2,0c0.5,0,1,0.1,1.5,0.2
					c0.2,0.2,0.5,0.4,0.7,0.5c-1,0-1.9,0-2.9,0C323.6,56.3,296.6,56.3,269.6,56.3z"/>
				<path class="st6" d="M269.6,56.3c27,0,54,0,80.9,0c0,0.1,0,0.2,0,0.4c-26.5,0-53,0-79.5,0c-0.3,0-0.5,0-0.8,0
					c-0.2,0-0.3,0.2-0.4,0.3l0,0c-0.9,0-1.9,0-2.8,0c0-0.1,0-0.3,0-0.4C267.7,55.9,268.7,56.5,269.6,56.3z"/>
				<path class="st7" d="M350.5,57c0.7,0,1.5,0,2.2,0c0,0.1,0,0.1,0,0.2c-0.2,0-0.3,0.1-0.5,0.1c-0.6,0-1.1,0-1.7,0
					c-26.6,0-53.2,0-79.7,0c-0.4,0-0.7-0.2-1.1-0.3l0,0C296.7,57,323.6,57,350.5,57z"/>
				<path class="st8" d="M350.5,57c-26.9,0-53.8,0-80.8,0c0.1-0.1,0.3-0.3,0.4-0.3c0.3-0.1,0.5,0,0.8,0c26.5,0,53,0,79.5,0
					C350.5,56.8,350.5,56.9,350.5,57z"/>
				<path class="st9" d="M358.1,2.6c0.1,0.3,0.3,0.6,0.3,0.9c0,4.3,0,8.5,0,12.8c0,11.5,0,22.9,0,34.4c0,0.2,0.4,0.8-0.3,0.8
					C358.1,35.2,358.1,18.9,358.1,2.6z"/>
				<path class="st10" d="M358.1,2.6c0,16.3,0,32.6,0,48.8c-0.1-0.3-0.3-0.6-0.3-0.9c0-4.1,0-8.3,0-12.4c0-11.5,0-23,0-34.5
					C357.8,3.3,358,3,358.1,2.6z"/>
				<path class="st11" d="M268.2,55.1c0.3,0,0.7,0,1,0c27.4,0,54.8,0,82.2,0c0.3,0,0.7,0.1,1,0.1c-0.6,0-1.1,0-1.7,0
					c-27.1,0-54.3,0-81.4,0C268.9,55.2,268.5,55.1,268.2,55.1z"/>
				<path class="st12" d="M353.4,56.3c-0.2-0.2-0.5-0.4-0.7-0.5c0.5-0.1,1-0.3,1.5-0.4c0.2-0.1,0.4-0.3,0.6-0.4
					c0.2-0.1,0.4-0.2,0.6-0.4c0,0.3,0.1,0.7-0.1,0.8C354.7,55.7,354.1,56,353.4,56.3z"/>
				<path class="st13" d="M349.1,16.1c-0.1,0.2-0.1,0.5-0.3,0.7c-2.7,2.9-5.3,5.9-8,8.8c-0.3,0.3-0.6,0.6-0.2,1
					c2.6,2.8,5.2,5.6,7.7,8.4c0.1,0.1,0.2,0.2,0.4,0.4l0,0c0.1,0.2,0.2,0.4,0.4,0.7c-0.4,0-0.8,0-1.1,0.1c-3.8,0-7.6,0-11.4,0
					c-0.9-1-1.8-2-2.7-3.1c-1,1.1-1.9,2.1-2.8,3c-13.8,0-27.7,0-41.5,0c-0.8,0-1.8,0.2-2.4-0.1c-0.6-0.4-0.8-1.4-1-2.1
					c-0.2-0.6-0.6-0.8-1.3-0.8c-2,0-2,0-2.8,1.9c-0.1,0.1-0.1,0.3-0.2,0.4c-0.2,0.8-0.8,1-1.5,1c-2-0.1-3.9-0.1-5.9-0.2
					c-1,0-2,0-3.1-0.1c2.8-6.4,5.5-12.9,8.3-19.3c0.2-0.5,0.5-0.6,0.9-0.6c6.2,0,12.4,0,18.6,0.1c0.3,0,0.8,0.3,0.9,0.6
					c0.7,1.4,1.3,2.8,2.1,4.4c0.5-1.3,1-2.5,1.5-3.6c0.3-1.3,1.2-1.5,2.5-1.5c7.9,0.1,15.7,0,23.6,0c0.9,0,1.8,0.1,2.4,0.9
					c0.6,0.7,1.2,1.4,1.9,2.3c0.9-1,1.8-2,2.7-3c0.4,0,0.8-0.1,1.1-0.1C341.7,16.2,345.4,16.2,349.1,16.1z M314.9,33.3
					c0.3,0,0.6,0,1,0c0.2,0,0.3,0.1,0.5,0.1c4.2,0,8.5,0,12.7,0c0.2,0,0.4-0.1,0.6-0.1c1.5-1.4,3-2.8,4.5-4.2c1,1.1,2.1,2.4,3.2,3.6
					c0.2,0.2,0.4,0.6,0.7,0.6c1.5,0.1,3,0,4.7,0c-2.2-2.5-4.3-4.8-6.5-7.1c2.2-2.4,4.3-4.7,6.6-7.2c-1.5,0-2.7-0.1-3.9,0
					c-0.4,0-1,0.3-1.3,0.6c-1.2,1.2-2.4,2.6-3.6,3.9c-1.4-1.5-2.7-2.9-4-4.3c-0.3-0.1-0.6-0.2-0.9-0.2c-4.6,0-9.2,0-13.9,0
					c-0.2,0-0.4,0-0.6,0.1c0,0.1-0.1,0.2-0.1,0.3c0,4.5,0,8.9,0,13.4C314.7,33,314.8,33.1,314.9,33.3z M295.8,33.3
					c0.1-0.3,0.3-0.5,0.3-0.8c0-2.7,0-5.3,0-8c0-0.3,0-0.6,0-1c0.2,0.2,0.3,0.3,0.4,0.4c1.1,2.4,2.3,4.8,3.2,7.3
					c0.6,1.6,1.4,2.5,3.2,2.1c0.6-0.1,0.9-0.2,1.1-0.7c0.7-1.7,1.4-3.3,2.2-4.9c0.6-1.4,1.2-2.8,1.9-4.2c0.1,0,0.1,0,0.2,0.1
					c0,3.2,0,6.5,0,9.7c1.3,0,2.5,0,3.7,0c0-4.8,0-9.5,0-14.3c-1.7,0-3.3,0-4.9,0c-0.6,0-0.8,0.1-1.1,0.7c-0.7,1.8-1.5,3.6-2.3,5.5
					c-0.4,1-0.8,1.9-1.3,3c-0.2-0.4-0.4-0.7-0.5-1c-1.1-2.5-2.2-4.9-3.4-7.3c-0.1-0.3-0.5-0.7-0.7-0.7c-1.8-0.1-3.5,0-5.4,0
					c0,4.1,0,8.1,0,12c-0.1,0-0.1,0-0.2,0c-1.7-4-3.4-8-5.2-12.1c-1.5,0-2.9,0-4.4,0c-0.6,0-0.9,0.2-1.1,0.8
					c-1.5,3.4-2.9,6.8-4.4,10.2c-0.5,1.1-0.9,2.1-1.3,3.2c0.2,0.1,0.2,0.1,0.3,0.1c0.7,0,1.4,0,2.1,0c1.6,0,1.6,0,2.2-1.4
					c0.1-0.3,0.3-0.7,0.4-1c0.2-0.5,0.4-0.7,1-0.7c1.1,0,2.2,0.1,3.3,0c2.1-0.3,3.4,0.3,3.7,2.5v0.1c0.3,0.2,0.5,0.5,0.8,0.5
					C291.6,33.3,293.7,33.3,295.8,33.3z"/>
				<path class="st14" d="M271.4,36.1c1,0,2,0,3.1,0.1c2,0.1,3.9,0.1,5.9,0.2c0.8,0,1.3-0.2,1.5-1c0-0.1,0.1-0.3,0.2-0.4
					c0.8-1.9,0.8-1.8,2.8-1.9c0.7,0,1,0.2,1.3,0.8c0.3,0.8,0.5,1.8,1,2.1c0.6,0.4,1.6,0.1,2.4,0.1c13.8,0,27.7,0,41.5,0
					c-0.4,0.2-0.9,0.7-1.3,0.7c-14,0-28,0-42,0c-0.8,0-1.2-0.4-1.4-1.1c-0.2-0.4-0.3-0.9-0.4-1.3c-0.4-1.2-1.4-0.8-2.2-0.8
					c-0.8,0-0.9,0.5-1,1.1s-0.6,1.1-1,2c-0.5,0-1.3,0.1-2.2,0.1c-2,0-4,0.1-6,0C272.8,36.8,272.1,36.3,271.4,36.1z"/>
				<ellipse class="st15" cx="310.2" cy="-1.2" rx="56.9" ry="0.1"/>
				<path class="st16" d="M304.4,15.6c-0.1-0.1-0.2-0.3-0.3-0.4c0.1-0.1,0.2-0.2,0.4-0.3c0.1,0,0.3,0,0.4,0c8.2,0,16.4,0,24.6,0
					c0.3,0,0.6,0.2,0.9,0.3c-8.3,0-16.7,0-25,0C305,15.2,304.7,15.5,304.4,15.6z"/>
				<path class="st17" d="M304.4,15.6c0.3-0.1,0.6-0.3,1-0.3c8.3,0,16.7,0,25,0c-0.3,0.1-0.6,0.3-1,0.3
					C321.1,15.6,312.7,15.6,304.4,15.6z"/>
				<path class="st18" d="M336.7,36.1c3.8,0,7.6,0,11.4,0v0.1c-1.1,0.9-2.3,0.5-3.5,0.5c-2.4,0.1-4.8,0-7.3,0c-0.3,0-0.6,0-0.9,0
					C336.5,36.5,336.6,36.3,336.7,36.1z"/>
				<path class="st19" d="M332.2,17c-0.6-0.8-1.4-0.9-2.4-0.9c-7.9,0-15.7,0-23.6,0c-1.2,0-2.1,0.1-2.5,1.5
					c-0.2-1.2,0.1-1.7,1.5-1.7c8.5,0,17,0,25.6,0C331.6,15.9,332.2,16.1,332.2,17z"/>
				<path class="st20" d="M349.1,16.1c-3.7,0-7.4,0-11.1,0c-0.4,0-0.8,0.1-1.1,0.1c0.2-0.1,0.4-0.3,0.6-0.3c3.7,0,7.4,0,11.1,0
					C348.7,15.9,348.9,16.1,349.1,16.1z"/>
				<path class="st21" d="M348,36.3L348,36.3c0.3-0.1,0.7-0.1,1.1-0.2c-0.2-0.3-0.3-0.5-0.4-0.7c0.4-0.1,0.9,0,0.7,0.6
					c-0.1,0.2-0.5,0.4-0.7,0.5C348.5,36.5,348.2,36.4,348,36.3z"/>
				<path class="st14" d="M284,33.9c0.2,0.1,0.4,0.1,0.5,0.2c0,0.1-0.1,0.2-0.1,0.2c-0.2,0-0.4-0.1-0.6-0.1
					C283.9,34.1,283.9,34,284,33.9z"/>
				<path class="st21" d="M348.7,35.4c-0.1-0.1-0.2-0.2-0.4-0.4C348.5,35.2,348.6,35.3,348.7,35.4z"/>
				<path class="st22" d="M295.8,33.3c-2.1,0-4.1,0-6.2,0c-0.3,0-0.5-0.3-0.8-0.5v-0.1c-0.4-2.2-1.7-2.8-3.7-2.5
					c-1.1,0.2-2.2,0.1-3.3,0c-0.5,0-0.8,0.2-1,0.7c-0.1,0.3-0.3,0.7-0.4,1c-0.6,1.4-0.6,1.4-2.2,1.4c-0.7,0-1.4,0-2.1,0
					c-0.1,0-0.1,0-0.3-0.1c0.4-1.1,0.9-2.1,1.3-3.2c1.5-3.4,3-6.8,4.4-10.2c0.2-0.5,0.5-0.8,1.1-0.8c1.4,0,2.9,0,4.4,0
					c1.7,4,3.5,8,5.2,12.1c0.1,0,0.1,0,0.2,0c0-4,0-8,0-12c1.9,0,3.6,0,5.4,0c0.3,0,0.6,0.4,0.7,0.7c1.2,2.4,2.3,4.9,3.4,7.3
					c0.1,0.3,0.3,0.6,0.5,1c0.5-1.1,0.9-2,1.3-3c0.8-1.8,1.6-3.6,2.3-5.5c0.2-0.6,0.5-0.7,1.1-0.7c1.6,0,3.2,0,4.9,0
					c0,4.8,0,9.5,0,14.3c-1.2,0-2.4,0-3.7,0c0-3.3,0-6.5,0-9.7c-0.1,0-0.1,0-0.2-0.1c-0.6,1.4-1.2,2.8-1.9,4.2
					c-0.7,1.6-1.5,3.3-2.2,4.9c-0.2,0.6-0.6,0.6-1.1,0.7c-1.8,0.3-2.6-0.5-3.2-2.1c-0.9-2.5-2.1-4.9-3.2-7.3
					c-0.1-0.2-0.2-0.5-0.3-0.7c-0.1,0.2-0.4,0.5-0.4,0.7c0,1.1,0.1,2.3,0.1,3.4C295.9,29.3,295.8,31.3,295.8,33.3z M284.3,22.1
					c-0.7,1.7-1.3,3.2-2,4.8c1.4,0,2.6,0,4,0C285.7,25.3,285,23.8,284.3,22.1z"/>
				<path class="st23" d="M330,19.2c1.3,1.4,2.6,2.9,4,4.3c1.2-1.3,2.4-2.6,3.6-3.9c0.3-0.3,0.8-0.5,1.3-0.6c1.2-0.1,2.4,0,3.9,0
					c-2.3,2.5-4.4,4.8-6.6,7.2c2.1,2.3,4.2,4.6,6.5,7.1c-1.7,0-3.2,0-4.7,0c-0.2,0-0.5-0.3-0.7-0.6c-1.1-1.3-2.3-2.5-3.2-3.6
					c-1.5,1.4-3,2.8-4.5,4.2c-4.6,0-9.2,0-13.8,0c-0.3,0-0.6,0-1,0c0-4.4,0-8.7,0-13.1c0-0.8,0.2-1.1,1.1-1.1
					C320.6,19.2,325.3,19.2,330,19.2z M318.5,22.2c-0.1,0.7-0.1,1.4-0.2,2.2c2.6,0,5.1,0,7.6,0c0,1.1,0,2.1,0,3.2c-2.5,0-5,0-7.5,0
					c0,0.8,0,1.5,0,2.4c2.6,0,5.1,0,7.6,0c0,0.6,0.1,1.2,0.1,1.9c1.9-2,3.6-3.9,5.4-5.8c-1.8-2-3.5-4-5.3-5.9
					c-0.1,0-0.1,0.1-0.2,0.1c0,0.6,0,1.2,0,1.8c-2.2,0-4.4,0-6.6,0C319.1,22.1,318.8,22.2,318.5,22.2z"/>
				<path class="st24" d="M330,19.2c-4.7,0-9.4,0-14.1,0c-0.8,0-1.1,0.2-1.1,1.1c0.1,4.4,0,8.7,0,13.1c-0.1-0.2-0.2-0.3-0.2-0.5
					c0-4.5,0-8.9,0-13.4c0-0.1,0-0.2,0.1-0.3c0.2,0,0.4-0.1,0.6-0.1c4.6,0,9.2,0,13.9,0C329.5,19,329.7,19.1,330,19.2z"/>
				<path class="st25" d="M295.8,33.3c0.1-2,0.1-4,0.1-6c0-1.1-0.1-2.3-0.1-3.4c0-0.2,0.2-0.5,0.4-0.7c0.1,0.2,0.2,0.5,0.3,0.7
					c-0.1-0.1-0.2-0.2-0.4-0.4c0,0.4,0,0.7,0,1c0,2.7,0,5.3,0,8C296.1,32.7,295.9,33,295.8,33.3z"/>
				<path class="st24" d="M315.9,33.3c4.6,0,9.2,0,13.8,0c-0.2,0-0.4,0.1-0.6,0.1c-4.2,0-8.5,0-12.7,0
					C316.2,33.4,316,33.3,315.9,33.3z"/>
				<path class="st26" d="M284.3,22.1c0.7,1.7,1.3,3.2,2,4.8c-1.4,0-2.6,0-4,0C283,25.3,283.6,23.8,284.3,22.1z"/>
				<path class="st27" d="M326,22.1c0-0.6,0-1.2,0-1.8c0.1,0,0.1-0.1,0.2-0.1c1.8,2,3.5,3.9,5.3,5.9c-1.8,1.9-3.5,3.8-5.4,5.8
					c0-0.7-0.1-1.3-0.1-1.9c-2.5,0-5,0-7.6,0c0-0.8,0-1.6,0-2.4c2.5,0,5,0,7.5,0c0-1.1,0-2.1,0-3.2c-2.5,0-5,0-7.6,0
					c0.1-0.8,0.1-1.5,0.2-2.2c2.3,0,4.7,0,7,0C325.7,22.3,325.9,22.1,326,22.1z"/>
				<path class="st28" d="M326,22.1c-0.2,0.1-0.3,0.2-0.5,0.2c-2.3,0-4.7,0-7,0c0.3-0.1,0.6-0.2,0.9-0.2
					C321.6,22.1,323.8,22.1,326,22.1z"/>
			</g>
		</g>
	</g>
</g>
<g>
	<path class="st0" d="M402.9,52.9c-3,0-5.5-2.5-5.5-5.5V6.5c0-3,2.5-5.5,5.5-5.5h76.8c3,0,5.5,2.5,5.5,5.5v40.9c0,3-2.5,5.5-5.5,5.5
		H402.9z"/>
	<path class="st1" d="M479.7,1.5c2.8,0,5,2.2,5,5v40.9c0,2.8-2.2,5-5,5h-76.8c-2.8,0-5-2.2-5-5V6.5c0-2.8,2.2-5,5-5H479.7
		 M479.7,0.5h-76.8c-3.3,0-6,2.7-6,6v40.9c0,3.3,2.7,6,6,6h76.8c3.3,0,6-2.7,6-6V6.5C485.7,3.2,483,0.5,479.7,0.5L479.7,0.5z"/>
</g>
<g>
	<g>
		<defs>
			<path id="SVGID_3_" d="M479.7,52.4h-76.8c-2.8,0-5-2.2-5-5V6.5c0-2.8,2.2-5,5-5h76.8c2.8,0,5,2.2,5,5v40.9
				C484.7,50.2,482.4,52.4,479.7,52.4z"/>
		</defs>
		<clipPath id="SVGID_4_">
			<use xlink:href="#SVGID_3_"  style="overflow:visible;"/>
		</clipPath>
		<g class="st29">
			<path class="st30" d="M404.4-0.3c-6.3,0-6.3,0-6.3,0l0,0c0,0,0,0,0,57.5H475c9.8,0,12.6-2.8,12.6-6.3V-0.3c-89.5,0-2.8,0-6.3,0
				H404.4z"/>
			<path class="st31" d="M435.6,18.3c1,0,1.9,0.2,2.9,0.7v2.6c-1-0.9-1.8-1.3-3-1.3c-2.2,0-4,1.7-4,3.9c0,2.3,1.7,3.9,4.1,3.9
				c1.1,0,1.9-0.4,2.8-1.2v2.6c-1.1,0.5-1.9,0.7-3,0.7c-3.6,0-6.4-2.6-6.4-5.9C429.2,21,432,18.3,435.6,18.3L435.6,18.3z
				 M424.5,18.4c1.3,0,2.5,0.4,3.6,1.3l-1.2,1.5c-0.6-0.6-1.2-0.9-1.9-0.9c-1,0-1.8,0.5-1.8,1.3c0,0.6,0.4,0.9,1.8,1.4
				c2.7,0.9,3.5,1.7,3.5,3.6c0,2.2-1.7,3.7-4.2,3.7c-1.8,0-3.1-0.7-4.2-2.2l1.5-1.4c0.5,1,1.4,1.5,2.6,1.5c1.1,0,1.8-0.7,1.8-1.6
				c0-0.5-0.2-0.9-0.7-1.2c-0.2-0.1-0.7-0.3-1.6-0.6c-2.2-0.8-3-1.6-3-3.1C420.7,19.8,422.3,18.4,424.5,18.4z M451.4,18.6h2.6
				l3.2,7.6l3.3-7.6h2.6l-5.2,11.7h-1.3L451.4,18.6L451.4,18.6z M405.8,18.6h3.5c3.8,0,6.5,2.3,6.5,5.7c0,1.7-0.8,3.3-2.2,4.4
				c-1.2,0.9-2.5,1.3-4.3,1.3h-3.4L405.8,18.6L405.8,18.6z M416.8,18.6h2.4V30h-2.4V18.6z M464.1,18.6h6.7v1.9h-4.3V23h4.2v2h-4.2
				v3.1h4.3V30h-6.7V18.6L464.1,18.6z M472.3,18.6h3.5c2.7,0,4.3,1.2,4.3,3.4c0,1.7-1,2.9-2.8,3.2l3.8,4.8h-2.9l-3.3-4.6h-0.3V30
				h-2.4L472.3,18.6L472.3,18.6z M474.7,20.4v3.4h0.7c1.5,0,2.3-0.6,2.3-1.8c0-1.1-0.8-1.7-2.3-1.7L474.7,20.4L474.7,20.4z
				 M408.2,20.5V28h0.6c1.5,0,2.5-0.3,3.2-0.9c0.8-0.7,1.3-1.8,1.3-2.9s-0.5-2.1-1.3-2.8c-0.8-0.7-1.7-0.9-3.2-0.9L408.2,20.5
				L408.2,20.5z"/>
			<path class="st32" d="M445.7,18.2c3.6,0,6.4,2.7,6.4,6.1l0,0c0,3.3-2.9,6.1-6.4,6.1s-6.4-2.7-6.4-6.1l0,0
				C439.3,21,442.2,18.2,445.7,18.2L445.7,18.2z M487.6,32.8c-3,2.1-25.4,17.1-64.1,24.4h57.8c3.5,0,6.3,0,6.3,0V-0.3L487.6,32.8z"
				/>
		</g>
	</g>
</g>
<g>
	<path class="st0" d="M7.9,53c-3,0-5.5-2.5-5.5-5.5v-41c0-3,2.5-5.5,5.5-5.5h76.8c3,0,5.5,2.5,5.5,5.5v40.9c0,3-2.5,5.5-5.5,5.5
		L7.9,53L7.9,53z"/>
	<path class="st1" d="M84.7,1.5c2.8,0,5,2.2,5,5v40.9c0,2.8-2.2,5-5,5H7.9c-2.8,0-5-2.2-5-5V6.5c0-2.8,2.2-5,5-5H84.7 M84.7,0.5H7.9
		c-3.3,0-6,2.7-6,6v40.9c0,3.3,2.7,6,6,6h76.8c3.3,0,6-2.7,6-6V6.5C90.7,3.2,88,0.5,84.7,0.5L84.7,0.5z"/>
</g>
<g>
	<g>
		<path class="st33" d="M60.7,38.4c0.4-0.9,0.7-1.7,1.1-2.6c2.5-6.1,5.1-12.2,7.6-18.3c0.2-0.4,0.4-0.8,0.7-1.2c0.5-0.7,1.2-1,2.1-1
			c1.6,0,3.2,0,4.8,0c0.3,0,0.3,0.1,0.3,0.3c0.4,2.1,0.9,4.1,1.3,6.2c0.8,3.7,1.6,7.4,2.3,11.1c0.4,1.8,0.7,3.6,1.1,5.4
			c-0.1,0-0.2,0-0.3,0c-1.6,0-3.3,0-4.9,0c-0.2,0-0.3-0.1-0.4-0.3c-0.2-1-0.4-1.9-0.6-2.9c0-0.2-0.1-0.3-0.4-0.3c-2.4,0-4.7,0-7.1,0
			c-0.2,0-0.3,0.1-0.4,0.3c-0.3,1-0.7,2-1,3c0,0.1-0.1,0.2-0.3,0.2C64.7,38.3,62.7,38.3,60.7,38.4C60.8,38.5,60.8,38.5,60.7,38.4z
			 M73,21.7L73,21.7c-1.1,2.9-2.1,5.7-3.2,8.6c1.7,0,3.3,0,5,0C74.3,27.4,73.6,24.6,73,21.7z"/>
		<path class="st33" d="M8.4,16.1c0-0.2,0.1-0.5,0.1-0.7c0.1,0,0.2,0,0.3,0c3.1,0,6.3,0,9.4,0c0.3,0,0.6,0,0.9,0.1
			c1.2,0.3,1.9,1.1,2.2,2.4c0.8,4.4,1.7,8.7,2.5,13c0,0,0,0.1,0.1,0.1c0.1-0.1,0.1-0.2,0.1-0.3c2-5,4-10.1,6-15.1
			c0.1-0.2,0.2-0.3,0.4-0.3c1.9,0,3.7,0,5.6,0c0.1,0,0.2,0,0.3,0c0,0.1-0.1,0.2-0.1,0.3c-3.1,7.5-6.3,15-9.4,22.5
			c-0.1,0.2-0.2,0.3-0.4,0.3c-1.9,0-3.8,0-5.6,0c-0.3,0-0.4-0.1-0.4-0.3c-1.6-6-3.1-12.1-4.7-18.1c-0.3-1.1-0.9-1.8-1.9-2.2
			c-1.6-0.7-3.3-1.2-5-1.6C8.6,16.2,8.5,16.1,8.4,16.1z"/>
		<path class="st33" d="M61,20.9c-0.6-0.2-1.2-0.4-1.8-0.6c-1.3-0.4-2.7-0.6-4.1-0.4c-0.7,0.1-1.4,0.3-2,0.8
			c-0.8,0.7-0.8,1.5-0.1,2.2c0.5,0.4,1,0.8,1.5,1.1c1,0.6,2.1,1.2,3.2,1.8c0.8,0.5,1.4,1.1,2,1.8c0.8,1,1.2,2.2,1.1,3.5
			c-0.1,3.2-1.7,5.3-4.5,6.7c-1.5,0.7-3.1,1-4.8,1.1c-2.5,0.1-4.9-0.3-7.3-1.1c-0.1,0-0.2-0.1-0.3-0.1c0.4-1.7,0.7-3.3,1.1-5
			c0.2,0.1,0.5,0.2,0.7,0.3c1.6,0.7,3.3,1.1,5.1,1.2c1,0,2-0.1,2.8-0.7c0.5-0.3,0.9-0.7,1-1.4c0.1-0.5,0-1-0.4-1.3
			c-0.4-0.4-0.9-0.8-1.4-1.1c-1.1-0.7-2.2-1.3-3.3-1.9c-0.8-0.5-1.5-1.1-2-1.8c-0.9-1.2-1.2-2.5-1.1-3.9c0.3-3,2.2-4.9,4.9-6
			c2-0.8,4-1,6.1-0.9c1.4,0.1,2.8,0.4,4.1,0.8c0.4,0.1,0.4,0.1,0.3,0.5C61.7,17.9,61.3,19.4,61,20.9z"/>
		<path class="st33" d="M34,38.4c1.6-7.7,3.3-15.3,4.9-23c2,0,3.9,0,5.9,0c-0.1,0.7-0.3,1.4-0.4,2.1c-0.9,4-1.7,8-2.6,12.1
			c-0.6,2.9-1.2,5.8-1.8,8.7c0,0.2-0.1,0.2-0.3,0.2c-1.8,0-3.6,0-5.5,0C34.1,38.5,34.1,38.5,34,38.4z"/>
	</g>
</g>
<g>
	<path class="st0" d="M140,53c-3,0-5.5-2.5-5.5-5.5v-41c0-3,2.5-5.5,5.5-5.5h76.8c3,0,5.5,2.5,5.5,5.5v40.9c0,3-2.5,5.5-5.5,5.5
		L140,53L140,53z"/>
	<path class="st1" d="M216.8,1.5c2.8,0,5,2.2,5,5v40.9c0,2.8-2.2,5-5,5H140c-2.8,0-5-2.2-5-5V6.5c0-2.8,2.2-5,5-5H216.8 M216.8,0.5
		H140c-3.3,0-6,2.7-6,6v40.9c0,3.3,2.7,6,6,6h76.8c3.3,0,6-2.7,6-6V6.5C222.8,3.2,220.1,0.5,216.8,0.5L216.8,0.5z"/>
</g>
<g>
	<rect id="rect19" x="172" y="10.8" class="st34" width="16.8" height="30.3"/>
	<path id="XMLID_330_" class="st35" d="M173.1,25.9c0-6.1,2.9-11.6,7.3-15.1c-3.3-2.6-7.4-4.1-11.9-4.1c-10.6,0-19.2,8.6-19.2,19.2
		s8.6,19.2,19.2,19.2c4.5,0,8.6-1.6,11.9-4.1C176,37.6,173.1,32.1,173.1,25.9z"/>
	<path id="path22" class="st36" d="M211.5,25.9c0,10.6-8.6,19.2-19.2,19.2c-4.5,0-8.6-1.6-11.9-4.1c4.5-3.5,7.3-9,7.3-15.1
		s-2.9-11.6-7.3-15.1c3.3-2.6,7.4-4.1,11.9-4.1C202.9,6.7,211.5,15.4,211.5,25.9z"/>
</g>
</svg>
