<?xml version="1.0" encoding="utf-8"?>
<!-- Generator: Adobe Illustrator 24.0.1, SVG Export Plug-In . SVG Version: 6.00 Build 0)  -->
<svg version="1.1" id="Layer_2_1_" xmlns="http://www.w3.org/2000/svg" xmlns:xlink="http://www.w3.org/1999/xlink" x="0px" y="0px"
	 viewBox="0 0 30.4 28" style="enable-background:new 0 0 30.4 28;" xml:space="preserve">
<style type="text/css">
	.st0{fill:#FFFFFF;}
	.st1{fill:#A9A9A9;}
</style>
<g>
	<g>
		<g>
			<path class="st0" d="M10,15.8c0.8-1,1.5-1.9,2.3-2.8c3.6-4.2,7.4-8,11.9-11.3c0.5-0.3,0.9-0.7,1.4-1c0.2-0.1,0.4-0.2,0.5-0.2
				c1,0,2,0,3,0c0.3,0,0.6,0.1,0.7,0.4c0.1,0.3,0,0.5-0.2,0.8c-4.1,3.7-7.4,8-10.6,12.5c-2.9,4.1-5.7,8.3-8.2,12.7
				c-0.1,0.2-0.2,0.3-0.3,0.4c-0.3,0.2-0.7,0.1-0.9-0.3c-0.4-0.6-0.8-1.3-1.2-1.9c-2.4-3.5-4.9-7-7.4-10.6c-0.1-0.1-0.2-0.3-0.3-0.4
				c-0.2-0.3-0.2-0.6,0.1-0.8c0.7-0.7,1.3-1.3,2-2c0.3-0.3,0.5-0.2,0.9,0c1.1,0.7,2.2,1.5,3.2,2.3C7.9,14.4,8.9,15.1,10,15.8z"/>
			<path class="st1" d="M10.1,27.9c-0.1,0-0.1,0-0.2,0c-0.3-0.1-0.6-0.3-0.8-0.6l-0.4-0.6c-0.3-0.4-0.5-0.8-0.8-1.2
				c-1.9-2.8-3.9-5.6-5.8-8.3l-1.6-2.3c-0.1-0.1-0.2-0.2-0.2-0.3C0,14,0,13.4,0.4,13c0.7-0.7,1.3-1.3,2-2c0.2-0.2,0.8-0.6,1.5-0.1
				L4,11.1c1,0.7,2.1,1.5,3.1,2.2l2.7,1.9l0.3-0.4c0.6-0.7,1.1-1.4,1.7-2.1c4-4.7,7.9-8.4,12-11.4c0.5-0.3,1-0.7,1.5-1
				c0.2-0.1,0.5-0.3,0.8-0.3c0.7,0,1.5,0,2.3,0l0.7,0c0.8,0,1,0.5,1.1,0.7c0.2,0.5,0.1,0.9-0.3,1.3c-4.2,3.9-7.7,8.4-10.5,12.4
				c-2.8,3.9-5.5,8.1-8.2,12.6c-0.1,0.3-0.3,0.5-0.5,0.6C10.5,27.9,10.3,27.9,10.1,27.9z M3.2,11.7C3.2,11.7,3.2,11.7,3.2,11.7
				c-0.7,0.7-1.4,1.3-2,2c0,0-0.1,0.1,0,0.2c0.1,0.1,0.1,0.2,0.2,0.3l0.1,0.1L3,16.6c1.9,2.8,3.9,5.5,5.8,8.3
				c0.3,0.4,0.6,0.9,0.8,1.3l0.4,0.6c0.1,0.1,0.1,0.1,0.2,0.2c0.1,0,0.1-0.1,0.2-0.3c2.7-4.6,5.4-8.8,8.2-12.7
				c2.9-4,6.4-8.6,10.7-12.5c0.1-0.1,0.1-0.2,0.1-0.2c0,0,0-0.1-0.2-0.1l-0.7,0c-0.7,0-1.5,0-2.2,0c-0.1,0-0.2,0-0.3,0.1
				c-0.5,0.3-0.9,0.6-1.4,0.9c-4,2.9-7.9,6.6-11.8,11.2c-0.6,0.7-1.1,1.3-1.7,2l-0.9,1.1l-3.5-2.4c-1-0.7-2.1-1.5-3.1-2.2l-0.1-0.1
				C3.2,11.8,3.2,11.7,3.2,11.7z"/>
		</g>
	</g>
</g>
</svg>
