<?xml version="1.0" encoding="utf-8"?>
<!-- Generator: Adobe Illustrator 24.0.1, SVG Export Plug-In . SVG Version: 6.00 Build 0)  -->
<svg version="1.1" id="Layer_3" xmlns="http://www.w3.org/2000/svg" xmlns:xlink="http://www.w3.org/1999/xlink" x="0px" y="0px"
	 viewBox="0 0 320.2 320.2" style="enable-background:new 0 0 320.2 320.2;" xml:space="preserve">
<style type="text/css">
	.st0{fill:#E4E3FD;}
</style>
<g>
	<path class="st0" d="M57.6,320.2c-5.6-2.1-7.4-6.2-7.4-12c0.1-98.8,0.1-197.6,0.1-296.4c0-6.4,2.1-9.9,6.7-11.3
		c5.5-1.7,11.2,2,11.9,7.7c0,0.1,0,0.2,0,0.3c-1.7,7.3,3.6,8.8,8.6,10.5c12.6,4.3,25.5,5,38.6,3.1C135,19.5,153,13,171.3,8
		c16.6-4.6,33.3-8.5,50.7-7.9c15.3,0.6,29.5,4.7,42.7,12.5c4,2.3,5.3,5.9,5.3,10.2c0,14.4,0,28.8,0,43.2c0,26.5,0,53,0,79.4
		c0,1.4,0,2.7-0.2,4c-1,6.9-7.3,10.3-13.7,7.3c-5.3-2.4-10.5-5.3-15.9-7.1c-15.3-5-30.9-4.1-46.3-0.4c-16,3.9-31.7,8.7-47.6,13
		c-12.5,3.4-25,6.4-38,7.1C96,170,83.8,168.7,72,164.5c-0.8-0.3-1.7-0.5-3-0.8c0,1.6,0,3,0,4.3c0,46.7-0.1,93.4,0.1,140.1
		c0,5.8-1.7,9.9-7.1,12.1C60.5,320.2,59,320.2,57.6,320.2z"/>
</g>
</svg>
