<?xml version="1.0" encoding="utf-8"?>
<!-- Generator: Adobe Illustrator 24.0.1, SVG Export Plug-In . SVG Version: 6.00 Build 0)  -->
<svg version="1.1" id="Layer_2" xmlns="http://www.w3.org/2000/svg" xmlns:xlink="http://www.w3.org/1999/xlink" x="0px" y="0px"
	 viewBox="0 0 320.2 320.2" style="enable-background:new 0 0 320.2 320.2;" xml:space="preserve">
<g>
	<g>
		<path d="M0,194.5c0.6-2.6,1.1-5.3,1.9-7.8c6.3-19.6,19.5-31.5,39.7-35.4c0.9-0.2,1.8-0.4,3.2-0.7c-25.6-4.7-36.5-25.8-34.6-43.2
			c2.3-20.7,19.1-35.9,39.4-35.8c19.6,0,36.7,14.9,39.1,34.1c2.6,20.4-10.1,40.2-33.6,44.8c9,0,17.6,0.2,26.1-0.1
			c4.7-0.2,8.6-2.8,12.2-5.8c12.8-11,25.6-22,38.4-33c3.7-3.2,7.8-4.4,12.4-2.3c4.7,2.2,6.5,6.1,6.5,11.1c-0.1,11.1-0.1,22.3,0,33.4
			c0,4.4-1.5,7.8-4.8,10.6c-14.8,12.6-29.6,25.4-44.4,38c-1.8,1.5-2.4,3.1-2.4,5.3c0.1,26.8,0,53.6,0,80.3c0,8.6-3.4,12-11.9,12
			c-25.1,0-50.2-0.1-75.3,0.1c-5.8,0-9.9-1.9-12-7.5C0,260,0,227.3,0,194.5z"/>
		<path d="M264.5,150.7c-23.1-4.9-35.9-24.9-33-45.4c2.7-19.5,20.6-34.5,40-33.7c20.7,0.8,37,16.4,38.5,36.8
			c1.5,20.4-12.9,38.3-34.9,42.1c1.6,0.4,2.3,0.7,3.1,0.8c24,3.8,41.8,24.2,41.9,48.4c0.1,30,0,60,0,90c0,6.4-3.9,10.3-10.3,10.3
			c-26.2,0-52.3,0-78.5,0c-6.7,0-10.3-3.9-10.3-11c0-27.1,0-54.2,0-81.3c0-2.4-0.7-4-2.6-5.5c-14.9-12.6-29.6-25.3-44.4-38
			c-3.1-2.7-4.7-5.9-4.6-10.1c0.1-11.3,0.1-22.5,0-33.8c0-5.1,1.8-8.9,6.5-11.1c4.6-2.2,8.7-0.9,12.4,2.3
			c12.7,10.9,25.5,21.8,38.2,32.8c5,4.3,10.5,6.5,17.1,6.4C250.6,150.6,257.6,150.7,264.5,150.7z"/>
		<path d="M150.7,49.5c0-6.4,0-12.9,0-19.3c0-5.8,3.9-10,9.3-10.1c5.5-0.1,9.5,4.2,9.5,10.2c0,12.9,0,25.8,0,38.7
			c0,5.9-3.9,10-9.3,10c-5.5,0-9.4-4.1-9.5-10.1C150.7,62.4,150.7,55.9,150.7,49.5z"/>
		<path d="M229.8,60.9c-0.6,1.1-1.4,3.7-3.1,5.5c-6.4,6.7-13,13.2-19.6,19.7c-3.9,3.9-9.8,3.8-13.5,0.1c-3.7-3.8-3.6-9.4,0.4-13.4
			c6.5-6.6,13.1-13.2,19.7-19.7c3.1-3.1,6.9-3.7,10.6-2C227.8,52.7,229.5,55.6,229.8,60.9z"/>
		<path d="M119.5,89.6c-2.1-1.1-4.6-1.9-6.3-3.5c-6.8-6.5-13.4-13.1-19.9-19.8c-3.7-3.8-3.7-9.6-0.2-13.2c3.7-3.8,9.4-3.8,13.4,0.1
			c6.7,6.6,13.3,13.2,19.9,19.9c2.9,2.9,3.6,6.5,2,10.4C127,86.9,123.7,89,119.5,89.6z"/>
	</g>
</g>
</svg>
