<?xml version="1.0" encoding="utf-8"?>
<!-- Generator: Adobe Illustrator 24.0.1, SVG Export Plug-In . SVG Version: 6.00 Build 0)  -->
<svg version="1.1" id="Layer_2_1_" xmlns="http://www.w3.org/2000/svg" xmlns:xlink="http://www.w3.org/1999/xlink" x="0px" y="0px"
	 viewBox="0 0 346.7 323.7" style="enable-background:new 0 0 346.7 323.7;" xml:space="preserve">
<style type="text/css">
	.st0{fill:#8A8989;}
</style>
<g>
	<g>
		<path class="st0" d="M112.4,182.2c9-11,17.6-21.8,26.6-32.3c40.8-48.1,85.2-92.4,136.3-129.8c5.3-3.9,10.8-7.6,16.4-11.1
			c1.8-1.1,4.1-2,6.2-2c11.5-0.2,23-0.1,34.4-0.1c3.6,0,6.5,1.2,7.8,4.7c1.3,3.4,0.3,6.3-2.4,8.8c-46.6,42.5-85.2,92-121.8,143
			c-33.7,47-64.9,95.7-94.2,145.7c-1,1.8-2.3,3.7-4,4.8c-3.6,2.5-7.7,1.1-10.4-3.2c-4.5-7.2-8.7-14.6-13.5-21.5
			C65.7,248.7,37.5,208.4,9.3,168c-1.1-1.5-2.3-3-3.3-4.6c-2-3.1-1.9-6.7,0.7-9.3c7.5-7.6,15.2-15.2,22.9-22.6c3-2.9,6.2-2.7,10.2,0
			c12.4,8.6,24.8,17.2,37.1,25.9C88.6,165.6,100.4,173.8,112.4,182.2z"/>
	</g>
</g>
</svg>
