<?xml version="1.0" encoding="utf-8"?>
<!-- Generator: Adobe Illustrator 24.0.1, SVG Export Plug-In . SVG Version: 6.00 Build 0)  -->
<svg version="1.1" id="Layer_1" xmlns="http://www.w3.org/2000/svg" xmlns:xlink="http://www.w3.org/1999/xlink" x="0px" y="0px"
	 viewBox="0 0 320.2 320.2" style="enable-background:new 0 0 320.2 320.2;" xml:space="preserve">
<style type="text/css">
	.st0{fill:#E4E3FD;}
</style>
<g>
	<g>
		<path class="st0" d="M72.1,157.6C59,136,54.1,112.8,58.2,88.4c6.8-40,29.5-67.8,67.6-82.2c43.9-16.6,96,1.5,121.2,41.5
			c25,39.6,21.6,89.5-8.3,123.4c-2.3,2.7-4,3-7.5,1.8c-5.4-1.9-11.3-3.1-17-3.3c-13.3-0.5-26.6-0.1-40-0.2c-2,0-4.4-0.5-5.9-1.7
			c-29.3-23.2-60.6-26.9-94.3-10.5C73.6,157.2,73.1,157.3,72.1,157.6z M142.6,104.6c-2.7,2.2-6,3.7-7.2,6.3
			c-1.1,2.4-0.8,6.2,0.3,8.9c0.9,2.2,3.3,4.5,5.6,5.4c8.1,3.1,10.8,8.6,9.8,17.1c-0.5,4.6,4.2,8.3,8.8,8.4c4.8,0.1,8.9-3.7,9.2-8.6
			c0.2-2.3,0.3-4.7,0.1-7c-0.3-3.2,0.7-4.9,3.8-6.5c16.5-8.7,20.2-30.2,7.6-43.7c-5.2-5.6-11.7-8.7-19.4-8.9c-4.7-0.2-8.6-2-10-6.8
			c-1.2-4-0.2-7.6,3.4-10.2c4.3-3.1,8.5-2.2,12.5,0.6c2.2,1.5,3.9,3.6,6,5.3c4,3.4,9.1,3.3,12.7,0c3.8-3.5,4.1-8.7,0.5-13
			c-2.2-2.5-4.4-5.5-7.3-6.7c-8.2-3.4-11-9-10-17.7c0.6-5-4-8.5-9.1-8.4c-4.9,0.1-8.6,3.4-8.9,8.2c-0.2,2.5-0.3,5-0.1,7.5
			c0.3,3.3-0.7,5.2-4,6.9c-10.8,5.9-16,15.4-14.6,27.8c1.4,11.8,8.1,19.8,19.5,23.5c3.3,1,6.9,1,10.2,1.8c5.5,1.3,8.2,6.1,7,11.4
			c-1.1,4.7-6.2,7.9-11.3,6.5c-2.6-0.7-4.9-2.6-7.4-4C148.1,107.5,145.9,106.3,142.6,104.6z"/>
		<path class="st0" d="M75.8,301.2c0-2.3,0-4.1,0-5.9c0-37.5,0.1-75-0.1-112.5c0-4.1,1.4-6.2,4.8-8.2c23-13.4,53.7-11.4,73.9,5.9
			c6.6,5.6,13.1,8.1,21.6,7.7c13.3-0.5,26.7-0.3,40-0.1c14.3,0.3,23.4,13.2,18.2,25.8c-3.5,8.7-10.6,11.9-19.5,12c-18,0-36,0-54,0.1
			c-6.3,0-9.9,3.6-9.8,9.4c0.1,4.9,3.4,8.8,8.3,8.8c21.8,0.1,43.7,0.2,65.5-0.1c5.7-0.1,10.4-3.2,14-7.7
			c15.7-19.6,31.5-39.3,47.3-58.8c7.1-8.8,17.6-10.7,26.1-4.7c8.6,6.1,10.5,17.2,4.2,26.6c-8.5,12.6-17.2,25-25.8,37.5
			c-8.8,12.8-17.5,25.5-26.4,38.2c-12,17.2-28.2,26.2-49.4,26.1c-44.3-0.2-88.7,0-133,0C79.9,301.2,78.1,301.2,75.8,301.2z"/>
		<path class="st0" d="M0,244.7c0-21.1,0-42.3,0-63.4c0-8.4,3.4-11.9,11.7-12c6.5,0,13-0.3,19.4,0.5c15.3,1.7,25.6,12.6,25.7,28.1
			c0.3,31.3,0.4,62.6,0,93.9c-0.2,16.8-12.4,28.1-29.3,28.3c-5.5,0.1-11,0.1-16.5,0c-7.6-0.1-11-3.5-11-11.5C0,287.3,0,266,0,244.7z
			"/>
	</g>
</g>
</svg>
