<?xml version="1.0" encoding="utf-8"?>
<!-- Generator: Adobe Illustrator 24.0.1, SVG Export Plug-In . SVG Version: 6.00 Build 0)  -->
<svg version="1.1" id="Layer_2_1_" xmlns="http://www.w3.org/2000/svg" xmlns:xlink="http://www.w3.org/1999/xlink" x="0px" y="0px"
	 viewBox="0 0 320.2 320.2" style="enable-background:new 0 0 320.2 320.2;" xml:space="preserve">
<style type="text/css">
	.st0{fill:#FFFFFF;}
</style>
<g>
	<g>
		<path class="st0" d="M304.6,172.4c0,12.9-0.1,25.9,0.1,38.8c0.1,5.6-2.1,9.6-6.5,12.9c-19.2,14.5-38.4,29.1-57.6,43.6
			c-2,1.5-2.7,3-2.7,5.4c0.1,11.2,0.1,22.5,0,33.8c0,8.9-4.4,13.3-13.5,13.3c-2.3,0-4.6,0.1-6.9,0c-7-0.2-11.6-4.7-11.8-11.6
			c-0.1-4.7,0-9.4-0.1-14.2c-0.1-5.3-2.9-8.5-7.3-8.6c-4.5,0-7.2,3.1-7.2,8.6c-0.1,4.7,0.1,9.4-0.1,14.2c-0.3,6.2-4,10.5-9.7,11.5
			c-5.1,0.9-10.4-1.7-12.5-6.6c-0.8-1.9-1.1-4.2-1.2-6.3c-0.2-4.5,0-9-0.1-13.4c-0.1-5.1-2.9-7.9-7.5-7.9s-7.4,2.8-7.6,7.9
			c-0.2,4.6,0,9.2-0.1,13.8c-0.1,7.8-4.9,12.8-11.8,12.8c-7-0.1-11.5-5.1-11.6-13c0-4.5,0.1-9,0-13.4c-0.1-4.9-2.9-7.9-7.1-7.9
			s-7.2,3-7.3,7.8c-0.1,4.8,0,9.7-0.1,14.5c-0.1,7.4-4.7,11.9-12.1,12.1c-2.2,0-4.4,0-6.5,0c-9.2,0-13.5-4.4-13.5-13.6
			c0-11.1-0.1-22.3,0-33.4c0-2.4-0.8-3.9-2.7-5.4C60.4,253.6,41.3,239,22,224.5c-4.4-3.3-6.6-7.3-6.5-12.9
			c0.2-21.8-0.2-43.6,0.1-65.3c0.9-53.4,23.5-95.7,69-123.5C132.2-6.6,182-7.3,230.9,19.7c40.5,22.3,63.9,57.7,71.9,103.1
			c1.4,7.8,1.5,15.9,1.7,23.9C304.9,155.2,304.6,163.8,304.6,172.4z M220.5,135c-21.9,0-39.7,17.7-39.9,39.6
			c-0.1,21.8,18.1,40.1,39.9,40.1c21.9,0,39.7-17.8,39.8-39.7C260.4,152.8,242.6,135,220.5,135z M99.6,135
			c-22,0-39.7,17.6-39.7,39.6c-0.1,22,17.9,40,39.8,40c21.7,0,39.7-18,39.8-39.8C139.7,152.9,121.7,135,99.6,135z M159.9,243.9
			c3.6,0,7.2,0.1,10.9,0c6.4-0.2,9.3-5.2,6.4-10.7c-3.4-6.5-7-12.9-10.6-19.3c-3.2-5.6-9.6-5.6-12.7-0.1
			c-3.6,6.4-7.2,12.8-10.6,19.3c-3.1,5.8-0.1,10.7,6.6,10.9C153.1,244,156.5,243.9,159.9,243.9z"/>
	</g>
</g>
</svg>
