<?xml version="1.0" encoding="utf-8"?>
<!-- Generator: Adobe Illustrator 24.0.1, SVG Export Plug-In . SVG Version: 6.00 Build 0)  -->
<svg version="1.1" id="Layer_2_1_" xmlns="http://www.w3.org/2000/svg" xmlns:xlink="http://www.w3.org/1999/xlink" x="0px" y="0px"
	 viewBox="0 0 320.2 320.2" style="enable-background:new 0 0 320.2 320.2;" xml:space="preserve">
<style type="text/css">
	.st0{fill:#FFFFFF;}
</style>
<g>
	<g>
		<path class="st0" d="M159.8,304.7c-40.8,0-81.6,0.1-122.5-0.1c-6,0-12.5-0.8-18-3.1C1.2,293.7-5.2,272.1,5,253.7
			c10.7-19.4,21.8-38.5,32.8-57.8C68.5,142,99.2,88,129.9,34.1c9.8-17.2,28.8-23.2,45.8-14.9c6.7,3.3,11.2,8.6,14.9,15
			C226.3,97,262,159.8,297.8,222.6c6.1,10.7,12.5,21.3,18.2,32.2c10.4,19.7,0.1,43.1-21.4,48.8c-4.1,1.1-8.6,1.1-12.9,1.1
			C241.1,304.8,200.4,304.7,159.8,304.7z M178.3,205.5c0-28,0-55.5,0-83c-11.2,0-22.1,0-33,0c0,27.9,0,55.3,0,83
			C156.3,205.5,167.1,205.5,178.3,205.5z M145.3,251.7c10.9,0,21.8,0,32.9,0c0-9.5,0-19,0-28.6c-11.2,0-21.9,0-32.9,0
			C145.3,232.7,145.3,242,145.3,251.7z"/>
	</g>
</g>
</svg>
