<?xml version="1.0" encoding="utf-8"?>
<!-- Generator: Adobe Illustrator 21.1.0, SVG Export Plug-In . SVG Version: 6.00 Build 0)  -->
<svg version="1.1" id="Layer_1" xmlns="http://www.w3.org/2000/svg" xmlns:xlink="http://www.w3.org/1999/xlink" x="0px" y="0px"
	 viewBox="0 0 322.96 84.858" enable-background="new 0 0 322.96 84.858" xml:space="preserve">
<g>
	<defs>
		<rect id="SVGID_1_" width="322.96" height="84.858"/>
	</defs>
	<clipPath id="SVGID_2_">
		<use xlink:href="#SVGID_1_"  overflow="visible"/>
	</clipPath>
	<g clip-path="url(#SVGID_2_)">
		<defs>
			<rect id="SVGID_3_" y="0" width="322.96" height="84.858"/>
		</defs>
		<clipPath id="SVGID_4_">
			<use xlink:href="#SVGID_3_"  overflow="visible"/>
		</clipPath>
		<g opacity="0.35" clip-path="url(#SVGID_4_)">
			<g>
				<defs>
					<rect id="SVGID_5_" x="63.381" y="0" width="211.612" height="31.663"/>
				</defs>
				<clipPath id="SVGID_6_">
					<use xlink:href="#SVGID_5_"  overflow="visible"/>
				</clipPath>
				<g clip-path="url(#SVGID_6_)">
					<defs>
						<rect id="SVGID_7_" x="63.381" y="0" width="211.613" height="31.663"/>
					</defs>
					<clipPath id="SVGID_8_">
						<use xlink:href="#SVGID_7_"  overflow="visible"/>
					</clipPath>
					<g clip-path="url(#SVGID_8_)">
						
							<image overflow="visible" width="401" height="60" xlink:href="91CCEDE4.png"  transform="matrix(0.5277 0 0 0.5277 63.3809 -1.525879e-05)">
						</image>
					</g>
				</g>
			</g>
		</g>
		<path clip-path="url(#SVGID_4_)" fill="#FFFFFF" d="M268.316,13.287l-8.563,11.865c0,0-82.582-32.046-192.864-6.518
			C175.98-12.68,268.316,13.287,268.316,13.287"/>
		<path clip-path="url(#SVGID_4_)" fill="#FFFFFF" d="M66.559,18.707c0.109-0.025,0.217-0.048,0.331-0.073
			c-0.067,0.016-0.134,0.034-0.198,0.055L66.559,18.707z"/>
		<g opacity="0.35" clip-path="url(#SVGID_4_)">
			<g>
				<defs>
					<rect id="SVGID_9_" y="13.617" width="322.96" height="71.241"/>
				</defs>
				<clipPath id="SVGID_10_">
					<use xlink:href="#SVGID_9_"  overflow="visible"/>
				</clipPath>
				<g clip-path="url(#SVGID_10_)">
					<defs>
						<rect id="SVGID_11_" y="13.617" width="322.96" height="71.241"/>
					</defs>
					<clipPath id="SVGID_12_">
						<use xlink:href="#SVGID_11_"  overflow="visible"/>
					</clipPath>
					<g clip-path="url(#SVGID_12_)">
						
							<image overflow="visible" width="612" height="135" xlink:href="91CCEDE5.png"  transform="matrix(0.5277 0 0 0.5277 0 13.6172)">
						</image>
					</g>
				</g>
			</g>
		</g>
		<path clip-path="url(#SVGID_4_)" fill="#FFFFFF" d="M3.165,16.783h11.884v26.635c2.546-3.268,6.528-4.864,10.38-4.864
			c9.924,0,16.78,9.145,16.78,19.813c0,10.74-6.92,19.884-16.91,19.884c-3.917,0-7.965-1.669-10.121-5.371h-0.129v4.137H3.165
			V16.783z M14.657,58.439c0,4.718,2.807,8.346,7.639,8.346c4.831,0,7.639-3.628,7.639-8.346c0-4.571-2.808-8.418-7.639-8.418
			C17.464,50.021,14.657,53.868,14.657,58.439"/>
		<rect x="46.789" y="16.783" clip-path="url(#SVGID_4_)" fill="#FFFFFF" width="11.883" height="60.234"/>
		<path clip-path="url(#SVGID_4_)" fill="#FFFFFF" d="M76.891,39.789v19.885c0,4.717,1.044,8.054,5.941,8.054
			c4.897,0,5.943-3.337,5.943-8.054V39.789h11.882v22.424c0,12.264-7.769,16.039-17.825,16.039
			c-10.054,0-17.824-3.775-17.824-16.039V39.789H76.891z"/>
		<path clip-path="url(#SVGID_4_)" fill="#FFFFFF" d="M141.341,60.617h-25.006c0,5.37,2.546,8.273,7.443,8.273
			c2.547,0,4.375-0.944,5.68-3.411h11.426c-1.892,8.781-9.402,12.773-17.041,12.773c-11.099,0-19.39-6.967-19.39-19.813
			c0-12.41,7.638-19.884,18.543-19.884c11.621,0,18.345,7.984,18.345,20.683V60.617z M130.308,52.996
			c-0.588-3.557-3.526-5.879-6.726-5.879c-3.461,0-6.333,2.033-7.051,5.879H130.308z"/>
		<polygon clip-path="url(#SVGID_4_)" fill="#FFFFFF" points="159.76,77.018 147.878,77.018 151.627,50.674 147.776,50.674 
			149.325,39.789 153.179,39.789 154.769,28.614 166.652,28.614 165.06,39.789 171.785,39.789 170.234,50.674 163.511,50.674 		"/>
		<path clip-path="url(#SVGID_4_)" fill="#FFFFFF" d="M186.594,45.885h0.129c2.935-4.572,7.141-6.604,11.779-6.604h2.285
			l-1.808,12.7c-1.489-1.016-3.024-1.234-4.854-1.234c-6.594,0-8.92,4.863-9.826,11.249l-2.141,15.022h-11.882l5.302-37.229h11.883
			L186.594,45.885z"/>
		<path clip-path="url(#SVGID_4_)" fill="#FFFFFF" d="M236.486,77.017h-11.883l0.588-4.137h-0.131
			c-2.617,3.702-6.967,5.371-10.883,5.371c-9.925,0-15.599-9.216-14.08-19.884c1.518-10.668,9.678-19.813,19.602-19.813
			c3.853,0,7.67,1.596,9.687,4.864l0.518-3.629h11.883L236.486,77.017z M212.361,58.439c-0.67,4.718,1.617,8.346,6.451,8.346
			c4.832,0,8.156-3.628,8.828-8.346c0.651-4.571-1.611-8.418-6.441-8.418C216.367,50.021,213.011,53.868,212.361,58.439"/>
		<path clip-path="url(#SVGID_4_)" fill="#FFFFFF" d="M269.518,51.908c-1.559-1.451-3.482-2.613-5.768-2.613
			c-4.57,0-8.718,3.92-9.455,9.072c-0.763,5.369,2.162,9.144,7.057,9.144c2.09,0,4.51-0.943,6.305-2.54l-1.592,11.175
			c-2.818,1.451-5.785,2.106-8.656,2.106c-9.926,0-17.047-8.201-15.446-19.449c1.705-11.975,11.108-20.249,21.619-20.249
			c2.743,0,5.381,0.727,7.526,2.178L269.518,51.908z"/>
		<polygon clip-path="url(#SVGID_4_)" fill="#FFFFFF" points="285.986,53.215 300.234,39.789 316.494,39.789 297.263,56.988 
			312.238,77.018 295.588,77.018 284.752,61.85 282.595,77.018 270.713,77.018 279.291,16.783 291.172,16.783 		"/>
		<polygon clip-path="url(#SVGID_4_)" fill="#FFFFFF" points="305.75,58.924 305.191,58.924 305.818,54.509 304.754,54.509 
			304.834,53.94 307.518,53.94 307.439,54.509 306.377,54.509 		"/>
		<polygon clip-path="url(#SVGID_4_)" fill="#FFFFFF" points="308.477,55.632 308.465,55.632 307.475,58.924 306.901,58.924 
			308.553,53.729 309.534,57.654 311.629,53.729 311.805,58.924 311.231,58.924 311.174,55.632 311.161,55.632 309.336,59.03 		"/>
	</g>
</g>
</svg>
