<?xml version="1.0" encoding="utf-8"?>
<!-- Generator: Adobe Illustrator 21.1.0, SVG Export Plug-In . SVG Version: 6.00 Build 0)  -->
<svg version="1.1" id="Layer_1" xmlns="http://www.w3.org/2000/svg" xmlns:xlink="http://www.w3.org/1999/xlink" x="0px" y="0px"
	 viewBox="0 0 224.966 200.577" enable-background="new 0 0 224.966 200.577" xml:space="preserve">
<g>
	<g>
		<defs>
			<rect id="SVGID_1_" width="224.966" height="200.577"/>
		</defs>
		<clipPath id="SVGID_2_">
			<use xlink:href="#SVGID_1_"  overflow="visible"/>
		</clipPath>
		<path clip-path="url(#SVGID_2_)" fill="#CC0066" d="M146.21,152.077c-9.5,46-73.5,43-86,28s1.5-25,8.5-26.5
			c5.5-46.5,35-44.5,35-44.5l24.126-22.148c-6.749-1.52-11.783-7.362-11.783-14.352c0-8.146,6.829-14.75,15.25-14.75
			c7.503,0,13.727,5.245,14.999,12.148l18.408-16.898c-24.5-44.5-59.5-51.5-88.5-53s-76,19-76,51s31.5,28,31.5,49.5
			c3.5,13-31.5,19-31.5,47.5c-2.5,12,17,52.594,77.5,52.5c84.5-5.5,95.5-77.5,95.5-77.5L146.21,152.077z M91.053,29.474
			c8.423,0,15.25,6.603,15.25,14.75c0,8.146-6.827,14.75-15.25,14.75c-8.422,0-15.25-6.604-15.25-14.75
			C75.803,36.077,82.631,29.474,91.053,29.474 M27.21,57.827c0-8.146,6.827-14.75,15.25-14.75c8.422,0,15.25,6.604,15.25,14.75
			s-6.828,14.75-15.25,14.75C34.037,72.577,27.21,65.973,27.21,57.827 M32.111,147.767c0-8.146,6.828-14.75,15.25-14.75
			s15.25,6.604,15.25,14.75s-6.828,14.75-15.25,14.75S32.111,155.913,32.111,147.767"/>
	</g>
	<g>
		<defs>
			<rect id="SVGID_3_" width="224.966" height="200.577"/>
		</defs>
		<clipPath id="SVGID_4_">
			<use xlink:href="#SVGID_3_"  overflow="visible"/>
		</clipPath>
		<path clip-path="url(#SVGID_4_)" fill="#CC0066" d="M212.71,32.077c-15,10.75-56.75,43.5-93,79.249l24,24.25
			c0,0,68.75-72.999,78.5-92.749S212.71,32.077,212.71,32.077"/>
	</g>
	<g>
		<defs>
			<rect id="SVGID_5_" width="224.966" height="200.577"/>
		</defs>
		<clipPath id="SVGID_6_">
			<use xlink:href="#SVGID_5_"  overflow="visible"/>
		</clipPath>
		<path clip-path="url(#SVGID_6_)" fill="#CC0066" d="M110.21,120.076l25,25.5c0,0-2.75,29.5-39,31.75s-32.75-13.5-23.25-12.25
			c8.75-0.5,10-16.265,10-16.265S84.21,121.076,110.21,120.076"/>
	</g>
</g>
</svg>
