<?xml version="1.0" encoding="utf-8"?>
<!-- Generator: Adobe Illustrator 21.1.0, SVG Export Plug-In . SVG Version: 6.00 Build 0)  -->
<svg version="1.1" id="Layer_1" xmlns="http://www.w3.org/2000/svg" xmlns:xlink="http://www.w3.org/1999/xlink" x="0px" y="0px"
	 viewBox="0 0 100 76.5" enable-background="new 0 0 100 76.5" xml:space="preserve">
<g>
	<path fill="#088AFF" d="M22.729,45.75c0-19.415,15.797-35.212,35.215-35.212c0.937,0,1.864,0.048,2.784,0.12
		C54.3,4.934,45.841,1.448,36.58,1.448C16.535,1.448,0.228,17.756,0.228,37.8S16.535,74.151,36.58,74.151
		c0.187,0,0.371-0.012,0.557-0.014C28.408,67.722,22.729,57.39,22.729,45.75z"/>
</g>
<path fill="#088AFF" d="M81.906,38.556c-9.812,0-17.797,7.983-17.797,17.797s7.984,17.798,17.797,17.798
	c9.814,0,17.798-7.983,17.798-17.798S91.721,38.556,81.906,38.556z"/>
<g>
	<path fill="#088AFF" d="M57.295,56.354c0-13.57,11.041-24.611,24.611-24.611c0.247,0,0.492,0.012,0.737,0.019
		c-4.89-8.595-14.127-14.41-24.699-14.41c-15.662,0-28.402,12.741-28.402,28.399c0,15.66,12.74,28.401,28.402,28.401
		c2.155,0,4.256-0.249,6.277-0.708C59.937,69.013,57.295,62.987,57.295,56.354z"/>
</g>
</svg>
