<?xml version="1.0" encoding="utf-8"?>
<!-- Generator: Adobe Illustrator 21.1.0, SVG Export Plug-In . SVG Version: 6.00 Build 0)  -->
<svg version="1.1" id="Layer_1" xmlns="http://www.w3.org/2000/svg" xmlns:xlink="http://www.w3.org/1999/xlink" x="0px" y="0px"
	 viewBox="0 0 100 100" enable-background="new 0 0 100 100" xml:space="preserve">
<title>Artboard 23</title>
<path fill="#009F22" d="M94.28,45c-1.066-0.236-2.177-0.174-3.21,0.18c-1.963-7.188-6.085-13.6-11.81-18.37
	c-0.644-3.459,0.115-7.032,2.11-9.93c0.756-1.26,0.347-2.894-0.912-3.65c-0.528-0.317-1.149-0.441-1.758-0.35
	c-6.75,0.87-10.62,4-12.79,6.86c-2.535-0.715-5.14-1.15-7.77-1.3c-0.047-0.004-0.093-0.004-0.14,0
	c6.071,16.78-2.61,35.304-19.39,41.375c-9.769,3.534-20.642,2.156-29.22-3.705c-0.044,0.111-0.065,0.23-0.06,0.35
	c0.451,9.753,4.813,18.912,12.1,25.41c2.507,2.176,3.963,5.321,4,8.64v4.28c0,1.314,1.066,2.38,2.38,2.38h14.47
	c1.314,0,2.38-1.066,2.38-2.38V91.1h1h10.5v3.67c0,1.314,1.066,2.38,2.38,2.38h14.52c1.314,0,2.38-1.066,2.38-2.38v-3.26
	c-0.024-3.449,1.459-6.736,4.06-9c5.638-4.783,9.684-11.17,11.6-18.31c1.035,0.348,2.144,0.406,3.21,0.17
	c2.793-0.693,4.738-3.223,4.69-6.1v-7.14C99.051,48.235,97.092,45.691,94.28,45z M76.47,45.63c-1.983,0-3.59-1.607-3.59-3.59
	s1.607-3.59,3.59-3.59c1.983,0,3.59,1.607,3.59,3.59l0,0c0.011,1.983-1.587,3.599-3.57,3.61c-0.007,0-0.013,0-0.02,0V45.63z
	 M27.58,56c14.68,0,26.58-11.9,26.58-26.58S42.26,2.84,27.58,2.84C12.904,2.84,1.006,14.734,1,29.41
	C1.011,44.087,12.903,55.983,27.58,56z M25.37,15.86v-2c0-1.171,0.949-2.12,2.12-2.12c1.171,0,2.12,0.949,2.12,2.12l0,0v1.69
	c1.35,0.043,2.691,0.235,4,0.57c1.337,0.368,2.122,1.749,1.755,3.086c-0.297,1.08-1.274,1.833-2.395,1.844
	c-0.234,0-0.466-0.034-0.69-0.1c-1.243-0.369-2.533-0.554-3.83-0.55c-2.81,0-3.72,1.21-3.72,2.42c0,1.43,1.52,2.34,5.19,3.72
	c5.15,1.82,7.23,4.2,7.23,8.1s-2.73,7.14-7.71,8V45c0,1.171-0.949,2.12-2.12,2.12S25.2,46.171,25.2,45v-2
	c-1.77-0.101-3.519-0.438-5.2-1c-1.257-0.407-1.982-1.719-1.66-3l0.05-0.21c0.298-1.066,1.273-1.799,2.38-1.79
	c0.282,0.001,0.563,0.048,0.83,0.14c1.506,0.521,3.087,0.791,4.68,0.8c2.47,0,4.16-1,4.16-2.68s-1.39-2.68-4.59-3.77
	c-4.63-1.56-7.79-3.72-7.79-7.92C18.06,19.76,20.74,16.77,25.37,15.86z"/>
</svg>
