<?xml version="1.0" encoding="utf-8"?>
<!-- Generator: Adobe Illustrator 24.0.1, SVG Export Plug-In . SVG Version: 6.00 Build 0)  -->
<svg version="1.1" id="Layer_1" xmlns="http://www.w3.org/2000/svg" xmlns:xlink="http://www.w3.org/1999/xlink" x="0px" y="0px"
	 viewBox="0 0 81.2 81" style="enable-background:new 0 0 81.2 81;" xml:space="preserve">
<style type="text/css">
	.st0{fill:#088AFF;}
</style>
<path class="st0" d="M66.4,2L40.6,27.8L14.8,2c-2-2-5.1-2-7.1,0L2,7.7c-2,2-2,5.1,0,7.1l25.8,25.8L2.1,66.3c-2,2-2,5.1,0,7.1
	l5.7,5.7c2,2,5.1,2,7.1,0l25.7-25.9L66.4,79c2,2,5.1,2,7.1,0l5.7-5.7c2-2,2-5.1,0-7.1L53.3,40.5l25.8-25.8c2-2,2-5.1,0-7.1l-5.7-5.7
	C71.5,0,68.3,0,66.4,2z"/>
</svg>
