<svg xmlns="http://www.w3.org/2000/svg" width="299" height="66.895" viewBox="0 0 299 66.895">
  <g id="logo-stressball-white" transform="translate(0 0)">
    <g id="Group_2" data-name="Group 2">
      <path id="Path_1" data-name="Path 1" d="M293.08,58.442s-24.012,23.273-102.427,4.331c0,0,62.9,35.663,120.127,7.021A24.739,24.739,0,0,1,293.08,58.442Z" transform="translate(-44.576 -14.032)" fill="#088aff"/>
      <path id="Path_2" data-name="Path 2" d="M14.936,44.6c2.924,0,4.386-.835,4.386-2.611,0-1.41-2.4-2.559-7.154-3.394-6.109-1.1-9.242-3.811-9.294-8.145,0-5.952,4.7-8.772,11.017-8.876q5.326,0,8.459,2.35a8.778,8.778,0,0,1,3.289,6.736H21.254c-1.618-.053-2.663-.627-3.081-1.724-.469-1.2-1.88-1.879-4.177-1.879-2.715,0-4.073.731-4.073,2.14S11.7,31.7,15.3,32.382c4.7.94,7.78,2.141,9.294,3.55a6.861,6.861,0,0,1,1.932,4.908c0,6.788-5.326,9.294-12.636,9.294-3.863,0-6.788-.835-8.667-2.454-2.089-1.567-3.133-3.968-3.133-7.154h7.1C9.349,43.556,11.542,44.6,14.936,44.6Z" transform="translate(-2.091 -5.725)" fill="#fff"/>
      <path id="Path_3" data-name="Path 3" d="M45.218,24.78h-.731v15.3c0,1.148.679,1.775,2.037,1.775h2.141v5.273a38.251,38.251,0,0,1-7.31-.052c-2.611-.261-3.864-1.88-3.811-4.96V11.936h3.6a3.5,3.5,0,0,1,3.341,3.5v4.386h4.177v1.514A3.378,3.378,0,0,1,45.218,24.78Z" transform="translate(-10.078 -3.554)" fill="#fff"/>
      <path id="Path_4" data-name="Path 4" d="M55.673,35.48c.208-8.928,4.96-13.367,14.2-13.367h.992v7.205h-2.35c-3.864,0-5.8,2.037-5.8,6.057V49.735H55.673V35.48Z" transform="translate(-14.163 -5.847)" fill="#fff"/>
      <path id="Path_5" data-name="Path 5" d="M91.727,50.239C83.373,49.978,79.2,45.122,79.2,35.724s4.229-14.1,12.636-14.15c8.772,0,12.9,5.378,12.375,16.186H86.35c.261,4.23,2.089,6.37,5.482,6.37a6.411,6.411,0,0,0,4.49-1.985,3.043,3.043,0,0,1,2.35-.992h5.117C102.275,47,98.515,50.239,91.727,50.239ZM86.453,32.8H96.844c-.418-3.655-2.14-5.535-5.117-5.535S86.975,29.145,86.453,32.8Z" transform="translate(-19.463 -5.725)" fill="#fff"/>
      <path id="Path_6" data-name="Path 6" d="M127.492,44.6c2.924,0,4.386-.835,4.386-2.611,0-1.41-2.4-2.559-7.153-3.394-6.109-1.1-9.242-3.811-9.294-8.145,0-5.952,4.7-8.772,11.017-8.876q5.326,0,8.459,2.35A8.778,8.778,0,0,1,138.2,30.66h-4.385c-1.619-.053-2.663-.627-3.081-1.724-.469-1.2-1.879-1.879-4.177-1.879-2.715,0-4.073.731-4.073,2.14s1.775,2.507,5.378,3.185c4.7.94,7.78,2.141,9.294,3.55a6.861,6.861,0,0,1,1.932,4.908c0,6.788-5.326,9.294-12.636,9.294-3.863,0-6.788-.835-8.667-2.454-2.089-1.567-3.133-3.968-3.133-7.154h7.1C121.905,43.556,124.1,44.6,127.492,44.6Z" transform="translate(-27.451 -5.725)" fill="#fff"/>
      <path id="Path_7" data-name="Path 7" d="M161.932,44.6c2.924,0,4.385-.835,4.385-2.611,0-1.41-2.4-2.559-7.154-3.394-6.109-1.1-9.242-3.811-9.294-8.145,0-5.952,4.7-8.772,11.017-8.876q5.326,0,8.459,2.35a8.778,8.778,0,0,1,3.289,6.736h-4.386c-1.618-.053-2.663-.627-3.08-1.724-.47-1.2-1.879-1.879-4.177-1.879-2.715,0-4.073.731-4.073,2.14s1.775,2.507,5.378,3.185c4.7.94,7.78,2.141,9.294,3.55a6.861,6.861,0,0,1,1.932,4.908c0,6.788-5.326,9.294-12.636,9.294-3.864,0-6.788-.835-8.667-2.454-2.089-1.567-3.133-3.968-3.133-7.154h7.1C156.345,43.556,158.538,44.6,161.932,44.6Z" transform="translate(-35.21 -5.725)" fill="#fff"/>
      <path id="Path_8" data-name="Path 8" d="M191.484,23.684a8.619,8.619,0,0,1,7.832-4.282c7.363.261,11.018,5.065,11.018,14.463,0,9.189-4.282,13.837-12.844,13.993-8.615.053-12.949-4.073-12.949-12.375V11.936h3.5c2.3,0,3.446,1.2,3.446,3.5v8.25Zm0,9.868c-.052,5.587,1.827,8.407,5.8,8.407s5.952-2.819,5.952-8.407c-.156-5.325-2.089-7.937-5.848-7.937S191.693,28.227,191.484,33.552Z" transform="translate(-43.198 -3.554)" fill="#fff"/>
      <path id="Path_9" data-name="Path 9" d="M228.849,29.2h-6.944c.836-5.117,4.438-7.623,10.808-7.623,7.623,0,11.487,2.506,11.644,7.623v9.4c0,7.623-4.595,11.018-12.061,11.54-6.631.522-11.226-2.559-11.226-8.667.156-6.631,4.96-8.407,11.957-9.086,2.976-.366,4.49-1.253,4.49-2.767-.156-1.566-1.618-2.35-4.49-2.35C230.572,27.265,229.215,27.892,228.849,29.2Zm8.772,9.086V35.724a30.093,30.093,0,0,1-5.534,1.671c-2.768.522-4.177,1.827-4.177,3.863.156,2.193,1.305,3.237,3.5,3.237C235.272,44.5,237.621,42.2,237.621,38.283Z" transform="translate(-51.429 -5.725)" fill="#fff"/>
      <path id="Path_10" data-name="Path 10" d="M263.734,15.33V47.442H256.79V11.936h3.6A3.411,3.411,0,0,1,263.734,15.33Z" transform="translate(-59.477 -3.554)" fill="#fff"/>
      <path id="Path_11" data-name="Path 11" d="M279.1,15.33V47.442h-6.944V11.936h3.6A3.41,3.41,0,0,1,279.1,15.33Z" transform="translate(-62.939 -3.554)" fill="#fff"/>
      <path id="Path_12" data-name="Path 12" d="M298.007,44.6c2.924,0,4.386-.835,4.386-2.611,0-1.41-2.4-2.559-7.154-3.394-6.109-1.1-9.242-3.811-9.294-8.145,0-5.952,4.7-8.772,11.018-8.876q5.326,0,8.458,2.35a8.779,8.779,0,0,1,3.29,6.736h-4.386c-1.618-.053-2.663-.627-3.08-1.724-.47-1.2-1.88-1.879-4.177-1.879-2.715,0-4.073.731-4.073,2.14s1.775,2.507,5.378,3.185c4.7.94,7.78,2.141,9.294,3.55A6.86,6.86,0,0,1,309.6,40.84c0,6.788-5.326,9.294-12.636,9.294-3.864,0-6.788-.835-8.667-2.454-2.089-1.567-3.133-3.968-3.133-7.154h7.1C292.42,43.556,294.613,44.6,298.007,44.6Z" transform="translate(-65.869 -5.725)" fill="#fff"/>
      <circle id="Ellipse_1" data-name="Ellipse 1" cx="25.268" cy="25.268" r="25.268" transform="translate(246.996)" fill="#088aff"/>
      <g id="Group_1" data-name="Group 1" transform="translate(249.241 16.39)">
        <path id="Path_13" data-name="Path 13" d="M323.839,36.984a1.666,1.666,0,0,1,.4-1.4,1.585,1.585,0,0,1,1.336-.522,2.149,2.149,0,0,1,1.481.769,2.934,2.934,0,0,1,.738,1.715,1.919,1.919,0,0,1-.421,1.532,1.3,1.3,0,0,1-1.325.367,2.745,2.745,0,0,1-1.456-.913A2.817,2.817,0,0,1,323.839,36.984Z" transform="translate(-323.821 -25.153)" fill="#fff"/>
        <path id="Path_14" data-name="Path 14" d="M338.6,38.782a3.188,3.188,0,0,1-1.2.634,3.572,3.572,0,0,1-1.389.081,5.756,5.756,0,0,1-3.9-2.447,9.142,9.142,0,0,1-1.827-4.984,7.386,7.386,0,0,1,1.174-4.915,5.375,5.375,0,0,1,3.9-2.458,4.4,4.4,0,0,1,1.494.05,3.622,3.622,0,0,1,1.276.568c.038,1.39.081,2.783.12,4.176a3.3,3.3,0,0,0-1.123-.985,2.468,2.468,0,0,0-1.321-.282,2.423,2.423,0,0,0-1.95,1.142,4.231,4.231,0,0,0-.592,2.66,4.745,4.745,0,0,0,.9,2.692,2.734,2.734,0,0,0,2.067,1.127,2.031,2.031,0,0,0,1.23-.3,3.037,3.037,0,0,0,.961-1.1Q338.512,36.614,338.6,38.782Z" transform="translate(-325.27 -22.809)" fill="#fff"/>
        <path id="Path_15" data-name="Path 15" d="M353.762,31.391a12.688,12.688,0,0,1-1.651,6.487c-1.059,1.75-2.367,2.642-3.951,2.611s-2.924-.964-4-2.714A12.509,12.509,0,0,1,342.44,31.4a11.522,11.522,0,0,1,1.487-6.387,4.909,4.909,0,0,1,4.141-2.739,4.7,4.7,0,0,1,4.154,2.594A11.9,11.9,0,0,1,353.762,31.391Zm-3-.036a6.477,6.477,0,0,0-.721-3.32,2.171,2.171,0,0,0-3.923.02,6.435,6.435,0,0,0-.673,3.3,6.778,6.778,0,0,0,.751,3.3,2.185,2.185,0,0,0,1.919,1.265,2.139,2.139,0,0,0,1.913-1.24A6.663,6.663,0,0,0,350.763,31.355Z" transform="translate(-328.015 -22.273)" fill="#fff"/>
        <path id="Path_16" data-name="Path 16" d="M361.886,39.713c-.95.095-1.9.174-2.858.239q.174-8.282.352-16.57c1.007.07,2.016.154,3.021.257-.026.841-.053,1.683-.081,2.522a5.946,5.946,0,0,1,1.656-2.154,2.569,2.569,0,0,1,1.942-.459,3.288,3.288,0,0,1,2.057,1.084,4.693,4.693,0,0,1,1.009,2.386,4.929,4.929,0,0,1,1.756-1.9,2.769,2.769,0,0,1,2.041-.273,3.91,3.91,0,0,1,1.805.921,3.775,3.775,0,0,1,1.026,1.643,4.655,4.655,0,0,1,.189,1.167,14.16,14.16,0,0,1-.114,1.877c-.015.122-.027.241-.041.361q-.368,3.322-.739,6.641-1.4.352-2.811.655.27-3.146.542-6.294a8.264,8.264,0,0,0-.109-3.131,1.438,1.438,0,0,0-1.258-.946,1.6,1.6,0,0,0-1.733.979,10.423,10.423,0,0,0-.755,3.846q-.2,3.133-.393,6.266-1.417.25-2.843.447.184-3.748.361-7.5a12.137,12.137,0,0,0-.18-3.64,1.317,1.317,0,0,0-1.178-1.049,1.711,1.711,0,0,0-1.764,1.222,12.752,12.752,0,0,0-.672,4.326Q362,36.172,361.886,39.713Z" transform="translate(-331.753 -22.523)" fill="#fff"/>
      </g>
      <path id="Path_17" data-name="Path 17" d="M342.8,6.67s-.545.1-1.411.329c-2.855.768-9.211,3.024-11.135,8.232h2.805l9.2-8.465" transform="translate(-76.029 -2.367)" fill="#fff"/>
    </g>
    <g id="Group_3" data-name="Group 3" transform="translate(290.985 0.07)">
      <path id="Path_18" data-name="Path 18" d="M378.958,1.959H377.7v-.3a.447.447,0,0,1,.128-.316.415.415,0,0,1,.31-.133h2.931V1.96h-1.253V5.439h-.864Z" transform="translate(-377.705 -1.206)" fill="#088aff"/>
      <path id="Path_19" data-name="Path 19" d="M382.571,1.655a.447.447,0,0,1,.128-.316.415.415,0,0,1,.31-.133h.84l.851,3.223.827-3.223h1.29V5.439H386V2.02l-.863,3.418h-.888l-.863-3.418V5.439h-.816Z" transform="translate(-378.801 -1.206)" fill="#088aff"/>
    </g>
  </g>
</svg>
