<svg xmlns="http://www.w3.org/2000/svg" xmlns:xlink="http://www.w3.org/1999/xlink" width="310.143" height="98.419" viewBox="0 0 310.143 98.419">
  <defs>
    <clipPath id="clip-path">
      <rect id="Rectangle_24" data-name="Rectangle 24" width="109.492" height="28.769"/>
    </clipPath>
    <clipPath id="clip-path-3">
      <rect id="Rectangle_4" data-name="Rectangle 4" width="71.742" height="10.735"/>
    </clipPath>
    <clipPath id="clip-path-8">
      <rect id="Rectangle_10" data-name="Rectangle 10" width="109.492" height="24.152"/>
    </clipPath>
  </defs>
  <g id="logo-new_bluetrack" transform="translate(-188 -71.469)">
    <g id="bluetrack-logo" transform="translate(188.17 71.469)">
      <g id="Group_22" data-name="Group 22" clip-path="url(#clip-path)">
        <g id="Group_4" data-name="Group 4" opacity="0.35" clip-path="url(#clip-path)">
          <g id="Group_3" data-name="Group 3" transform="translate(21.488)">
            <g id="Group_2" data-name="Group 2" clip-path="url(#clip-path-3)">
              <g id="Group_1" data-name="Group 1" clip-path="url(#clip-path-3)">
                <rect id="Rectangle_2" data-name="Rectangle 2" width="71.74" height="10.734" transform="translate(0 0)" fill="none"/>
              </g>
            </g>
          </g>
        </g>
        <g id="Group_5" data-name="Group 5" clip-path="url(#clip-path)">
          <path id="Path_1" data-name="Path 1" d="M351.2,16.881,348.3,20.9s-28-10.864-65.386-2.21C319.9,8.077,351.2,16.881,351.2,16.881" transform="translate(-260.238 -12.376)" fill="#fff"/>
        </g>
        <g id="Group_6" data-name="Group 6" clip-path="url(#clip-path)">
          <path id="Path_2" data-name="Path 2" d="M281.52,78.84l.112-.025c-.023.005-.045.012-.067.019Z" transform="translate(-258.954 -72.497)" fill="#fff"/>
        </g>
        <g id="Group_10" data-name="Group 10" opacity="0.35" clip-path="url(#clip-path)">
          <g id="Group_9" data-name="Group 9" transform="translate(0 4.617)">
            <g id="Group_8" data-name="Group 8" clip-path="url(#clip-path-8)">
              <g id="Group_7" data-name="Group 7" clip-path="url(#clip-path-8)">
                <rect id="Rectangle_8" data-name="Rectangle 8" width="109.489" height="24.152" transform="translate(0 0)" fill="none"/>
              </g>
            </g>
          </g>
        </g>
        <g id="Group_11" data-name="Group 11" clip-path="url(#clip-path)">
          <path id="Path_3" data-name="Path 3" d="M13.387,70.986h4.029v9.03a4.449,4.449,0,0,1,3.519-1.649c3.364,0,5.689,3.1,5.689,6.717,0,3.641-2.346,6.741-5.733,6.741A3.882,3.882,0,0,1,17.459,90h-.044v1.4H13.387Zm3.9,14.122a2.6,2.6,0,1,0,5.18,0,2.6,2.6,0,1,0-5.18,0" transform="translate(-12.314 -65.296)" fill="#fff"/>
        </g>
        <g id="Group_12" data-name="Group 12" clip-path="url(#clip-path)">
          <rect id="Rectangle_13" data-name="Rectangle 13" width="4.029" height="20.421" transform="translate(15.863 5.69)" fill="#fff"/>
        </g>
        <g id="Group_13" data-name="Group 13" clip-path="url(#clip-path)">
          <path id="Path_4" data-name="Path 4" d="M278.988,168.293v6.742c0,1.6.354,2.731,2.014,2.731s2.015-1.131,2.015-2.731v-6.742h4.028v7.6c0,4.158-2.634,5.438-6.043,5.438s-6.043-1.28-6.043-5.438v-7.6Z" transform="translate(-252.92 -154.803)" fill="#fff"/>
        </g>
        <g id="Group_14" data-name="Group 14" clip-path="url(#clip-path)">
          <path id="Path_5" data-name="Path 5" d="M454.3,170.553h-8.478c0,1.821.863,2.8,2.523,2.8a1.975,1.975,0,0,0,1.926-1.156h3.874a5.558,5.558,0,0,1-5.777,4.33c-3.763,0-6.574-2.362-6.574-6.717,0-4.207,2.589-6.741,6.287-6.741,3.94,0,6.219,2.707,6.219,7.012Zm-3.74-2.584a2.365,2.365,0,0,0-4.671,0Z" transform="translate(-406.385 -150.002)" fill="#fff"/>
        </g>
        <g id="Group_15" data-name="Group 15" clip-path="url(#clip-path)">
          <path id="Path_6" data-name="Path 6" d="M629.1,137.437h-4.028l1.271-8.931h-1.306l.525-3.69h1.307l.539-3.789h4.029l-.54,3.789h2.28l-.526,3.69h-2.279Z" transform="translate(-574.937 -111.326)" fill="#fff"/>
        </g>
        <g id="Group_16" data-name="Group 16" clip-path="url(#clip-path)">
          <path id="Path_7" data-name="Path 7" d="M725.736,168.383h.044a4.575,4.575,0,0,1,3.993-2.239h.775l-.613,4.306a2.72,2.72,0,0,0-1.646-.418c-2.236,0-3.024,1.649-3.331,3.814l-.726,5.093H720.2l1.8-12.622h4.029Z" transform="translate(-662.476 -152.827)" fill="#fff"/>
        </g>
        <g id="Group_17" data-name="Group 17" clip-path="url(#clip-path)">
          <path id="Path_8" data-name="Path 8" d="M857.722,176.109h-4.029l.2-1.4h-.044a4.518,4.518,0,0,1-3.69,1.821c-3.365,0-5.288-3.124-4.773-6.741s3.281-6.717,6.646-6.717a3.784,3.784,0,0,1,3.284,1.649l.176-1.23h4.029Zm-8.179-6.3c-.227,1.6.548,2.829,2.187,2.829a3.053,3.053,0,0,0,2.993-2.829c.221-1.55-.546-2.854-2.184-2.854a3.111,3.111,0,0,0-3,2.854" transform="translate(-777.548 -149.998)" fill="#fff"/>
        </g>
        <g id="Group_18" data-name="Group 18" clip-path="url(#clip-path)">
          <path id="Path_9" data-name="Path 9" d="M1031.879,167.6a2.9,2.9,0,0,0-1.955-.886,3.446,3.446,0,0,0-3.206,3.076c-.259,1.82.733,3.1,2.393,3.1a3.378,3.378,0,0,0,2.138-.861l-.54,3.789a6.391,6.391,0,0,1-2.935.714c-3.365,0-5.779-2.78-5.237-6.594a7.646,7.646,0,0,1,7.329-6.865,4.544,4.544,0,0,1,2.552.738Z" transform="translate(-940.505 -149.998)" fill="#fff"/>
        </g>
        <g id="Group_19" data-name="Group 19" clip-path="url(#clip-path)">
          <path id="Path_10" data-name="Path 10" d="M1150.193,83.337l4.83-4.552h5.513l-6.52,5.831,5.077,6.791h-5.645l-3.674-5.142-.731,5.142h-4.028l2.908-20.421h4.028Z" transform="translate(-1053.236 -65.296)" fill="#fff"/>
        </g>
        <g id="Group_20" data-name="Group 20" clip-path="url(#clip-path)">
          <path id="Path_11" data-name="Path 11" d="M1289.333,229.836h-.19l.213-1.5H1289l.027-.193h.91l-.027.193h-.36Z" transform="translate(-1185.676 -209.859)" fill="#fff"/>
        </g>
        <g id="Group_21" data-name="Group 21" clip-path="url(#clip-path)">
          <path id="Path_12" data-name="Path 12" d="M1298.611,227.9h0l-.336,1.116h-.195l.56-1.761.333,1.331.71-1.331.06,1.761h-.194l-.019-1.116h0l-.619,1.152Z" transform="translate(-1194.029 -209.038)" fill="#fff"/>
        </g>
      </g>
    </g>
    <text id="is_now" data-name="is now" transform="translate(299 98)" fill="#fff" font-size="16" font-family="Helvetica-Oblique, Helvetica" font-style="oblique"><tspan x="0" y="0">is now</tspan></text>
    <g id="logo-stressball-white" transform="translate(188 100.5)">
      <g id="Group_2-2" data-name="Group 2">
        <path id="Path_1-2" data-name="Path 1" d="M296.9,58.442s-24.906,24.141-106.245,4.492c0,0,65.247,36.992,124.6,7.283A25.661,25.661,0,0,1,296.9,58.442Z" transform="translate(-39.132 -12.377)" fill="#fff"/>
        <path id="Path_2-2" data-name="Path 2" d="M15.415,45.458c3.033,0,4.549-.866,4.549-2.708,0-1.462-2.491-2.654-7.42-3.52-6.337-1.137-9.587-3.954-9.64-8.449,0-6.174,4.874-9.1,11.427-9.207q5.524,0,8.774,2.437A9.105,9.105,0,0,1,26.517,31H21.968c-1.679-.055-2.762-.65-3.2-1.788-.487-1.246-1.95-1.949-4.333-1.949-2.816,0-4.224.758-4.224,2.22s1.841,2.6,5.578,3.3c4.874.976,8.07,2.221,9.64,3.683a7.116,7.116,0,0,1,2,5.091c0,7.041-5.524,9.64-13.107,9.64-4.007,0-7.041-.866-8.99-2.546-2.166-1.626-3.25-4.116-3.25-7.42H9.456C9.62,44.375,11.894,45.458,15.415,45.458Z" transform="translate(-2.091 -5.135)" fill="#fff"/>
        <path id="Path_3-2" data-name="Path 3" d="M45.5,25.259h-.759v15.87c0,1.191.7,1.841,2.113,1.841H49.08v5.47a39.678,39.678,0,0,1-7.582-.054c-2.708-.271-4.008-1.95-3.954-5.145v-31.3H41.28a3.634,3.634,0,0,1,3.466,3.629v4.55h4.333v1.57A3.5,3.5,0,0,1,45.5,25.259Z" transform="translate(-9.055 -3.241)" fill="#fff"/>
        <path id="Path_4-2" data-name="Path 4" d="M55.673,35.978c.216-9.261,5.145-13.865,14.732-13.865h1.029v7.474H69c-4.008,0-6.011,2.113-6.011,6.283V50.764H55.673V35.978Z" transform="translate(-12.617 -5.241)" fill="#fff"/>
        <path id="Path_5-2" data-name="Path 5" d="M92.194,51.307c-8.666-.271-13-5.308-13-15.056S83.583,21.628,92.3,21.574c9.1,0,13.378,5.578,12.836,16.79H86.616c.271,4.387,2.166,6.608,5.687,6.608a6.65,6.65,0,0,0,4.657-2.059A3.156,3.156,0,0,1,99.4,41.884h5.308C103.135,47.95,99.235,51.307,92.194,51.307ZM86.724,33.218H97.5c-.433-3.791-2.22-5.741-5.308-5.741S87.265,29.427,86.724,33.218Z" transform="translate(-17.237 -5.135)" fill="#fff"/>
        <path id="Path_6-2" data-name="Path 6" d="M127.971,45.458c3.033,0,4.55-.866,4.55-2.708,0-1.462-2.491-2.654-7.42-3.52-6.337-1.137-9.587-3.954-9.64-8.449,0-6.174,4.874-9.1,11.427-9.207q5.524,0,8.774,2.437A9.105,9.105,0,0,1,139.074,31h-4.549c-1.679-.055-2.762-.65-3.2-1.788-.487-1.246-1.949-1.949-4.333-1.949-2.816,0-4.224.758-4.224,2.22s1.841,2.6,5.578,3.3c4.874.976,8.07,2.221,9.64,3.683a7.116,7.116,0,0,1,2,5.091c0,7.041-5.525,9.64-13.107,9.64-4.007,0-7.041-.866-8.99-2.546-2.166-1.626-3.25-4.116-3.25-7.42h7.365C122.176,44.375,124.451,45.458,127.971,45.458Z" transform="translate(-24.201 -5.135)" fill="#fff"/>
        <path id="Path_7-2" data-name="Path 7" d="M162.411,45.458c3.033,0,4.549-.866,4.549-2.708,0-1.462-2.491-2.654-7.42-3.52-6.337-1.137-9.586-3.954-9.64-8.449,0-6.174,4.874-9.1,11.427-9.207q5.524,0,8.774,2.437A9.105,9.105,0,0,1,173.513,31h-4.55c-1.679-.055-2.762-.65-3.2-1.788-.488-1.246-1.949-1.949-4.333-1.949-2.816,0-4.224.758-4.224,2.22s1.841,2.6,5.578,3.3c4.874.976,8.07,2.221,9.64,3.683a7.116,7.116,0,0,1,2,5.091c0,7.041-5.525,9.64-13.107,9.64-4.008,0-7.041-.866-8.99-2.546-2.166-1.626-3.25-4.116-3.25-7.42h7.365C156.616,44.375,158.89,45.458,162.411,45.458Z" transform="translate(-30.967 -5.135)" fill="#fff"/>
        <path id="Path_8-2" data-name="Path 8" d="M191.742,24.122a8.94,8.94,0,0,1,8.124-4.441c7.637.271,11.428,5.254,11.428,15,0,9.532-4.441,14.352-13.323,14.515-8.936.055-13.432-4.224-13.432-12.836V11.936h3.629c2.383,0,3.574,1.246,3.574,3.629v8.557Zm0,10.236c-.054,5.8,1.9,8.72,6.012,8.72s6.174-2.924,6.174-8.72c-.162-5.524-2.166-8.232-6.066-8.232S191.959,28.834,191.742,34.358Z" transform="translate(-37.931 -3.241)" fill="#fff"/>
        <path id="Path_9-2" data-name="Path 9" d="M229.139,29.481h-7.2c.867-5.308,4.6-7.907,11.211-7.907,7.907,0,11.915,2.6,12.078,7.907V39.23c0,7.907-4.766,11.428-12.511,11.97-6.879.542-11.644-2.654-11.644-8.99.162-6.878,5.145-8.72,12.4-9.424,3.087-.379,4.657-1.3,4.657-2.87-.162-1.625-1.679-2.437-4.657-2.437C230.926,27.477,229.519,28.127,229.139,29.481Zm9.1,9.424V36.251a31.214,31.214,0,0,1-5.741,1.733c-2.871.542-4.333,1.9-4.333,4.007.162,2.275,1.354,3.358,3.629,3.358C235.8,45.35,238.238,42.967,238.238,38.905Z" transform="translate(-45.107 -5.135)" fill="#fff"/>
        <path id="Path_10-2" data-name="Path 10" d="M263.993,15.456V48.765h-7.2V11.936h3.737A3.538,3.538,0,0,1,263.993,15.456Z" transform="translate(-52.124 -3.241)" fill="#fff"/>
        <path id="Path_11-2" data-name="Path 11" d="M279.358,15.456V48.765h-7.2V11.936h3.737A3.537,3.537,0,0,1,279.358,15.456Z" transform="translate(-55.142 -3.241)" fill="#fff"/>
        <path id="Path_12-2" data-name="Path 12" d="M298.486,45.458c3.033,0,4.549-.866,4.549-2.708,0-1.462-2.491-2.654-7.42-3.52-6.337-1.137-9.586-3.954-9.64-8.449,0-6.174,4.874-9.1,11.428-9.207q5.524,0,8.773,2.437A9.106,9.106,0,0,1,309.589,31h-4.55c-1.679-.055-2.762-.65-3.195-1.788-.488-1.246-1.95-1.949-4.333-1.949-2.817,0-4.224.758-4.224,2.22s1.841,2.6,5.578,3.3c4.874.976,8.07,2.221,9.64,3.683a7.116,7.116,0,0,1,2,5.091c0,7.041-5.525,9.64-13.107,9.64-4.008,0-7.041-.866-8.99-2.546-2.166-1.626-3.25-4.116-3.25-7.42h7.366C292.691,44.375,294.966,45.458,298.486,45.458Z" transform="translate(-57.697 -5.135)" fill="#fff"/>
        <path id="Subtraction_1" data-name="Subtraction 1" d="M-161.79-48.081a26.047,26.047,0,0,1-10.2-2.06,26.122,26.122,0,0,1-8.331-5.617,26.122,26.122,0,0,1-5.617-8.331,26.046,26.046,0,0,1-2.06-10.2,26.045,26.045,0,0,1,2.06-10.2,26.123,26.123,0,0,1,5.617-8.331,26.123,26.123,0,0,1,8.331-5.617,26.045,26.045,0,0,1,10.2-2.06,26.045,26.045,0,0,1,10.2,2.06,26.123,26.123,0,0,1,8.331,5.617,26.123,26.123,0,0,1,5.617,8.331,26.045,26.045,0,0,1,2.06,10.2,26.047,26.047,0,0,1-2.06,10.2,26.122,26.122,0,0,1-5.617,8.331,26.122,26.122,0,0,1-8.331,5.617A26.046,26.046,0,0,1-161.79-48.081ZM-164.776-83.5h-.094a5.082,5.082,0,0,0-4.3,2.84,11.9,11.9,0,0,0-1.543,6.625,13.073,13.073,0,0,0,1.783,6.615c1.132,1.838,2.528,2.785,4.15,2.814h.081c1.578,0,2.929-.911,4.018-2.709a13.226,13.226,0,0,0,1.712-6.729,12.416,12.416,0,0,0-1.6-6.766A4.889,4.889,0,0,0-164.776-83.5Zm7.761.891c-.12,5.574-.238,11.184-.352,16.61l-.012.578c.969-.065,1.967-.148,2.965-.248q.057-1.778.114-3.554.06-1.894.121-3.786a13.283,13.283,0,0,1,.7-4.487,1.8,1.8,0,0,1,1.67-1.274c.052,0,.106,0,.159.006a1.369,1.369,0,0,1,1.222,1.088,12.493,12.493,0,0,1,.187,3.775l-.058,1.21v.009c-.1,2.149-.209,4.37-.316,6.555.982-.136,1.975-.292,2.949-.464l.407-6.5a10.825,10.825,0,0,1,.784-3.99,1.674,1.674,0,0,1,1.534-1.033,2.135,2.135,0,0,1,.263.017,1.489,1.489,0,0,1,1.305.981,8.5,8.5,0,0,1,.113,3.247c-.174,2-.358,4.137-.562,6.529.991-.214,1.973-.442,2.916-.679q.147-1.318.294-2.635.237-2.127.473-4.253l.014-.122c.009-.085.019-.168.029-.252a14.8,14.8,0,0,0,.118-1.948,4.813,4.813,0,0,0-.2-1.21,3.935,3.935,0,0,0-1.065-1.7,4.054,4.054,0,0,0-1.873-.956,3.209,3.209,0,0,0-.723-.086,2.827,2.827,0,0,0-1.394.369,5.136,5.136,0,0,0-1.822,1.974,4.894,4.894,0,0,0-1.047-2.475,3.412,3.412,0,0,0-2.133-1.124,3.082,3.082,0,0,0-.45-.034,2.648,2.648,0,0,0-1.565.51,6.2,6.2,0,0,0-1.717,2.235l.026-.8v-.042q.029-.887.057-1.776c-.955-.1-1.981-.186-3.134-.267h0Zm-17.529,1.021a5.432,5.432,0,0,0-.658.042A5.541,5.541,0,0,0-179.249-79a7.676,7.676,0,0,0-1.218,5.1,9.49,9.49,0,0,0,1.9,5.17,5.978,5.978,0,0,0,4.042,2.539,4.389,4.389,0,0,0,.532.033,3.39,3.39,0,0,0,.909-.117,3.323,3.323,0,0,0,1.239-.658c-.048-1.258-.1-2.645-.176-4.5a3.172,3.172,0,0,1-1,1.138,2.051,2.051,0,0,1-1.134.313c-.047,0-.095,0-.143,0a2.84,2.84,0,0,1-2.144-1.169,4.9,4.9,0,0,1-.933-2.793,4.366,4.366,0,0,1,.614-2.759,2.516,2.516,0,0,1,2.023-1.184c.058,0,.116-.006.174-.006a2.577,2.577,0,0,1,1.2.3,3.443,3.443,0,0,1,1.165,1.021q-.024-.82-.048-1.639-.04-1.347-.077-2.692a3.752,3.752,0,0,0-1.323-.589A4.124,4.124,0,0,0-174.544-81.587Zm-9.442,8.359a1.626,1.626,0,0,0-1.251.546,1.731,1.731,0,0,0-.414,1.455,2.922,2.922,0,0,0,.782,1.6,2.855,2.855,0,0,0,1.509.947,1.914,1.914,0,0,0,.4.046,1.268,1.268,0,0,0,.971-.427,1.989,1.989,0,0,0,.436-1.589,3.04,3.04,0,0,0-.766-1.778,2.242,2.242,0,0,0-1.536-.8C-183.9-73.227-183.942-73.228-183.986-73.228Zm16.5-22.81h0l-.563.1-.026.024c-.274.063-.568.136-.873.218-2.8.754-9.539,3.095-11.55,8.538h2.91l9.513-8.756c.361-.083.567-.12.589-.124Zm2.691,26.695h-.025a2.273,2.273,0,0,1-1.99-1.312,7.061,7.061,0,0,1-.779-3.421,6.7,6.7,0,0,1,.7-3.425,2.293,2.293,0,0,1,2.025-1.3h.026a2.281,2.281,0,0,1,2.019,1.276,6.757,6.757,0,0,1,.748,3.444,6.948,6.948,0,0,1-.762,3.45A2.229,2.229,0,0,1-164.8-69.343Z" transform="translate(444.201 100.5)" fill="#fff"/>
      </g>
      <g id="Group_3-2" data-name="Group 3" transform="translate(301.829 0.072)">
        <path id="Path_18" data-name="Path 18" d="M379,1.987h-1.3V1.672a.464.464,0,0,1,.133-.328.431.431,0,0,1,.322-.138H381.2v.782h-1.3V5.6H379Z" transform="translate(-377.705 -1.206)" fill="#088aff"/>
        <path id="Path_19" data-name="Path 19" d="M382.571,1.672a.463.463,0,0,1,.133-.328.431.431,0,0,1,.321-.138h.871l.883,3.343.857-3.343h1.338V5.6h-.846V2.051l-.9,3.545h-.921l-.9-3.545V5.6h-.846Z" transform="translate(-378.661 -1.206)" fill="#088aff"/>
      </g>
    </g>
  </g>
</svg>
