<?xml version="1.0" encoding="utf-8"?>
<!-- Generator: Adobe Illustrator 21.1.0, SVG Export Plug-In . SVG Version: 6.00 Build 0)  -->
<svg version="1.1" id="Layer_1" xmlns="http://www.w3.org/2000/svg" xmlns:xlink="http://www.w3.org/1999/xlink" x="0px" y="0px"
	 viewBox="0 0 100 100" style="enable-background:new 0 0 100 100;" xml:space="preserve">
<style type="text/css">
	.st0{fill:#2B2B2B;}
</style>
<g>
	<path class="st0" d="M5.5,72c0.5-0.2,2.9-3.5,3-3.6L8,70.9c-0.2,1.2,0.8,2.4,2,2.7c1.4,0.2,2.4-0.8,2.7-2c0.2-0.6,0-3.3,0-3.8
		c2.4,2.6,3.3,3.6,3.5,3.9c0.8,1.1,2.3,1.2,3.3,0.3c0.9-0.8,1.2-2.3,0.3-3.3c-0.2-0.2-6.5-6.1-6.5-6.1c-0.2-6.7,1.4-14.1,4.5-19.8
		V43c0,7.9,2.9,15.2,7.6,20.8v23.6c0,1.2-1.1,2.3-2.3,2.3l0,0c-8,0-12.6,3-12.6,6.8s4.7,1.4,12.6,1.4c8,0,14.4,2.4,14.4-1.4
		c-0.2-5.8-0.9-6.7-2.4-19.1c-0.3-2.6,2.1-4.7,4.7-3.8c3.2,1.1,6.5,1.7,10.2,1.7c3.5,0,7-0.6,10.2-1.7c2.4-0.8,5,1.2,4.7,3.8
		c-1.5,12.4-2.3,13.3-2.4,19.1c0,3.8,6.5,1.4,14.4,1.4s12.6,2.4,12.6-1.4s-4.7-6.8-12.6-6.8l0,0c-1.2,0-2.3-0.9-2.3-2.3
		c0,0,7.6-44.2,7.6-44.4v-0.2c3.2,5.8,4.8,13.2,4.5,19.8c0,0-6.4,5.9-6.5,6.1c-0.9,1.1-0.6,2.6,0.3,3.3c1.1,0.8,2.6,0.6,3.3-0.3
		c0.2-0.3,1.2-1.4,3.5-3.9c0,0.5-0.2,3.2,0,3.8c0.2,1.2,1.4,2.1,2.7,2c1.2-0.2,2.1-1.4,2-2.7l-0.5-2.7c0.3,0.3,2.6,3.5,3,3.6
		c1.1,1.1,2.9,0.9,3.6-0.6c0.6-0.9,0.3-2.1-0.5-2.9l-6.4-5.9l0,0c0.6-9.4-0.8-16.1-3.2-20.9c-2.3-4.7-1.8-10.3,0.8-14.8
		c1.8-3.2,2.7-7.1,2-11.2c-1.2-7.1-7-12.9-14.1-13.9c-5.6-0.8-11.1,1.4-14.7,5.2c-5.6,5.8-17.9,5.5-23.3,0.9
		c-3-2.6-7.3-3.8-11.7-3.2C20.3,5.3,15,10.9,14.2,17.7c-0.3,2.3,0,4.5,0.8,6.7c1.7,4.8,1.2,10.2-1.5,14.4
		c-2.9,4.4-5.6,11.7-4.8,23.8l0,0l-6.4,5.9c-0.8,0.8-1.1,2-0.5,2.9C2.6,72.7,4.4,73,5.5,72z M73.5,4.2c7.9,0,14.2,6.4,14.2,14.2
		s-6.4,14.2-14.2,14.2s-14.2-6.4-14.2-14.2S65.6,4.2,73.5,4.2z M68.2,46.5c0.9-0.2,2,0.3,2.4,1.2c0.5,0.8,0.6,1.8,0.2,2.7
		C68.6,55,65,58.8,60.6,60.9c-3,1.5-6.4,2.3-9.7,2.3c-0.6,0-1.2,0-1.8,0c-3.3-0.3-6.5-1.2-9.4-2.9c-4.8-2.9-8.5-7.4-10.3-12.9
		c-0.3-0.9-0.2-1.8,0.5-2.6c0.6-0.9,1.7-1.2,2.7-0.9C43.6,47.6,55.6,48.5,68.2,46.5z M15.9,19.2c0-7,5.6-12.6,12.6-12.6
		s12.7,5.6,12.7,12.6s-5.6,12.6-12.7,12.6C21.5,32,15.9,26.2,15.9,19.2z"/>
	<path class="st0" d="M31.8,45.2c-0.3,0-0.6,0.2-0.8,0.5c-0.3,0.3-0.3,0.8-0.2,1.2c1.7,5.2,5,9.4,9.5,12.1c1.4-2.3,5.2-2.3,9.5-2.3
		c4.8,0,8.9,0,10,2.9c3.9-2.1,7.3-5.5,9.2-9.7c0.2-0.5,0.2-0.9-0.2-1.2c-0.2-0.3-0.5-0.5-0.8-0.5c-1.1,0.2-2.3,0.3-3.3,0.5L62.7,55
		l-1.2-6.1c-1.2,0.2-2.3,0.2-3.5,0.2l-1.8,5.3l-1.1-5.3l0,0c-1.2,0-2.6,0-3.8-0.2l-1.7,4.8l-1.1-5c-1.2-0.2-2.6-0.3-3.8-0.5l-1.7,5
		L42,47.9c-1.2-0.2-2.3-0.5-3.5-0.8l-2,5.8l-1.4-6.5c-1.1-0.3-2.1-0.6-3.2-1.1C32.1,45.2,32,45.2,31.8,45.2z"/>
	<path class="st0" d="M68.9,21.7c3,0,5.3-2.4,5.3-5.3c0-3-2.4-5.3-5.3-5.3s-5.3,2.4-5.3,5.3S66.1,21.7,68.9,21.7z"/>
	<path class="st0" d="M25.9,21.4c2.6,0,4.7-2.1,4.7-4.7c0-2.6-2.1-4.7-4.7-4.7s-4.7,2.1-4.7,4.7C21.1,19.2,23.2,21.4,25.9,21.4z"/>
</g>
</svg>
