<?xml version="1.0" encoding="utf-8"?>
<!-- Generator: Adobe Illustrator 21.1.0, SVG Export Plug-In . SVG Version: 6.00 Build 0)  -->
<svg version="1.1" id="Layer_1" xmlns="http://www.w3.org/2000/svg" xmlns:xlink="http://www.w3.org/1999/xlink" x="0px" y="0px"
	 viewBox="0 0 100 100" style="enable-background:new 0 0 100 100;" xml:space="preserve">
<style type="text/css">
	.st0{fill:#2B2B2B;}
</style>
<g>
	<path class="st0" d="M55.5,18.3c5,0.7,9.7-2.7,10.4-7.7c0.7-5-2.7-9.7-7.8-10.4c-5-0.7-9.7,2.7-10.4,7.7
		C47,12.9,50.5,17.5,55.5,18.3z"/>
	<path class="st0" d="M64.8,54.2c0.1-0.4,0.1-0.7,0.1-1.1l0.2-19.5l6.9,4.7l4.5,12.9c-0.1,0.1-0.2,0.2-0.3,0.3
		c-0.8,1.2-1.1,2.6-0.8,4.1l0.1,0.7l-5.1,1l5.4,31.9l23.1-4.5L91,53.3l-4.9,1L86,53.5c-0.4-2-1.8-3.5-3.7-4.1l-3.2-14.6
		c-0.2-0.9-0.8-1.6-1.5-2.2L61.8,22c0,0-0.1,0-0.1-0.1l-0.3-0.2l0,0c-1.2-0.7-2.5-1.1-4-1.2c-2.2-0.1-4.3,0.9-5.7,2.5l0,0l-0.2,0.2
		c-0.3,0.4-0.6,0.7-0.8,1.2l-9.4,13l-16.2,4.9l0.3,1.1C23,44,21.2,46,21.2,48.6v0.7h-5.2l-1.2,34.3h23.5L37,49.3h-5v-0.7
		c0-0.5-0.2-0.9-0.3-1.4l12.9-2.6c0.9-0.2,1.7-0.8,2.2-1.5l2.7-3.7L49.4,53c0,0.2,0,0.5,0.1,0.7L42.1,73c-0.2,0.5-0.3,1.1-0.3,1.6
		l0.5,25.2l7.4,0.2l1.8-24.3l4.8-12.6L58,75.6c0.1,0.5,0.2,0.9,0.4,1.3L70,99.3l6.4-2.9l-8.8-22.8L64.8,54.2z M83.9,54.7l-6.2,1.2
		l-0.1-0.7c-0.2-0.8,0-1.6,0.4-2.3l4.1-1.1c0.8,0.4,1.5,1.2,1.7,2.2L83.9,54.7z M29.7,48.6v0.7h-6.3v-0.7c0-1.5,1.1-2.7,2.5-3
		l0.7,2.7l3-0.6C29.6,47.9,29.7,48.2,29.7,48.6z"/>
	<polygon class="st0" points="19.8,46 14.8,42.9 1.2,63 13,70.5 13.9,47.2 19.5,47.2 	"/>
</g>
</svg>
