<?xml version="1.0" encoding="utf-8"?>
<!-- Generator: Adobe Illustrator 21.1.0, SVG Export Plug-In . SVG Version: 6.00 Build 0)  -->
<svg version="1.1" id="Layer_1" xmlns="http://www.w3.org/2000/svg" xmlns:xlink="http://www.w3.org/1999/xlink" x="0px" y="0px"
	 viewBox="0 0 512 512" style="enable-background:new 0 0 512 512;" xml:space="preserve">
<path d="M288,130.5V112h16c8.8,0,16-7.2,16-16V80c0-8.8-7.2-16-16-16h-96c-8.8,0-16,7.2-16,16v16c0,8.8,7.2,16,16,16h16v18.5
	C115.5,146.1,32,239.2,32,352h448C480,239.2,396.5,146.1,288,130.5z M496,384H16c-8.8,0-16,7.2-16,16v32c0,8.8,7.2,16,16,16h480
	c8.8,0,16-7.2,16-16v-32C512,391.2,504.8,384,496,384z"/>
</svg>
