<?xml version="1.0" encoding="utf-8"?>
<!-- Generator: Adobe Illustrator 21.1.0, SVG Export Plug-In . SVG Version: 6.00 Build 0)  -->
<svg version="1.1" id="Layer_1" xmlns="http://www.w3.org/2000/svg" xmlns:xlink="http://www.w3.org/1999/xlink" x="0px" y="0px"
	 viewBox="0 0 100 100" enable-background="new 0 0 100 100" xml:space="preserve">
<path fill="#2B2B2B" d="M70.6,36.3c0.2,0.6,0.2,1.2,0.2,1.9v0.3L69,63.6c-0.2,2.3-1.4,4.2-3.2,5.3l0.9,13.5c0.1,1.2,1,2.1,2.2,2.1
	h8.3c1.2,0,2.1-0.9,2.2-2.1l1.3-20.2h1.4c1.2,0,2.3-1,2.4-2.2l1.4-18.9C85.8,37.5,77.7,35.9,70.6,36.3z M73,32.8
	c4.8,0,8.7-3.9,8.7-8.7s-3.9-8.7-8.7-8.7c-4.8,0-8.7,3.9-8.7,8.7C64.4,28.9,68.2,32.8,73,32.8z M27,32.8c4.8,0,8.7-3.9,8.7-8.7
	s-3.9-8.7-8.7-8.7s-8.7,3.9-8.7,8.7S22.2,32.8,27,32.8z M31,63.6l-1.9-25.3v-0.1c0-0.7,0.1-1.3,0.3-1.9c-7.1-0.5-15.2,1.1-15.2,4.8
	L15.6,60c0.1,1.2,1.1,2.2,2.4,2.2h1.4l1.3,20.2c0.1,1.2,1,2.1,2.2,2.1h8.3c1.2,0,2.1-0.9,2.2-2.1L34.2,69
	C32.4,67.8,31.2,65.9,31,63.6z M33,38.2l1.8,25.1c0.1,1.6,1.5,2.9,3.1,2.9h1.9L41.5,93c0.1,1.5,1.4,2.8,2.9,2.8h11
	c1.5,0,2.8-1.2,2.9-2.8L60,66.2h2c1.6,0,3-1.3,3.1-2.9L67,38.2C67,29.6,33,29.6,33,38.2z M50,27.2c6.4,0,11.5-5.1,11.5-11.5
	S56.4,4.2,50,4.2S38.5,9.3,38.5,15.7S43.6,27.2,50,27.2z"/>
</svg>
