<?xml version="1.0" encoding="utf-8"?>
<!-- Generator: Adobe Illustrator 21.1.0, SVG Export Plug-In . SVG Version: 6.00 Build 0)  -->
<svg version="1.1" id="Layer_3" xmlns="http://www.w3.org/2000/svg" xmlns:xlink="http://www.w3.org/1999/xlink" x="0px" y="0px"
	 viewBox="0 0 100 100" enable-background="new 0 0 100 100" xml:space="preserve">
<path fill="#010002" d="M92.581,32.39c0.765,0.969,1.046,2.117,0.867,3.469l-3.648,20.993c-0.128,1.097-0.638,1.99-1.479,2.704
	c-0.867,0.714-1.837,1.046-2.933,1.046H32.077l-1.071,5.969h50.811c1.224,0,2.27,0.434,3.188,1.301
	c0.893,0.867,1.352,1.939,1.352,3.214s-0.459,2.347-1.352,3.214S83.041,75.6,81.817,75.6H25.598c-1.352,0-2.5-0.536-3.469-1.632
	c-0.893-1.097-1.25-2.347-1.071-3.75l2.398-13.085l-3.648-36.756L9.426,17.111c-1.224-0.408-2.092-1.122-2.653-2.219
	c-0.536-1.097-0.663-2.245-0.332-3.469c0.383-1.224,1.148-2.092,2.27-2.653s2.245-0.663,3.418-0.332l13.264,4.234
	c0.842,0.255,1.53,0.74,2.066,1.454c0.536,0.714,0.893,1.505,1.02,2.398l0.765,7.321l60.249,6.734
	C90.846,30.758,91.867,31.37,92.581,32.39 M32.434,78.126c1.913,0,3.571,0.663,4.897,2.015c1.352,1.352,2.015,2.984,2.015,4.897
	c0,1.913-0.663,3.571-2.015,4.948c-1.352,1.377-2.984,2.066-4.897,2.066c-1.913,0-3.571-0.689-4.897-2.066
	c-1.352-1.377-2.015-3.035-2.015-4.948c0-1.913,0.663-3.571,2.015-4.897C28.863,78.789,30.495,78.126,32.434,78.126 M73.527,78.126
	c1.913,0,3.571,0.663,4.897,2.015c1.352,1.352,2.015,2.984,2.015,4.897c0,1.913-0.663,3.571-2.015,4.948
	c-1.352,1.377-2.984,2.066-4.897,2.066s-3.571-0.689-4.897-2.066c-1.352-1.377-2.015-3.035-2.015-4.948
	c0-1.913,0.663-3.571,2.015-4.897C69.956,78.789,71.588,78.126,73.527,78.126"/>
</svg>
