<?xml version="1.0" encoding="utf-8"?>
<!-- Generator: Adobe Illustrator 21.1.0, SVG Export Plug-In . SVG Version: 6.00 Build 0)  -->
<svg version="1.1" id="Layer_2" xmlns="http://www.w3.org/2000/svg" xmlns:xlink="http://www.w3.org/1999/xlink" x="0px" y="0px"
	 viewBox="0 0 100 100" enable-background="new 0 0 100 100" xml:space="preserve">
<path d="M51,4.25C25.773,4.25,5.25,24.773,5.25,50S25.773,95.75,51,95.75S96.75,75.227,96.75,50S76.227,4.25,51,4.25z
	 M50.958,76.333c-2.923,0-5.292-2.369-5.292-5.292s2.369-5.292,5.292-5.292s5.292,2.369,5.292,5.292S53.881,76.333,50.958,76.333z
	 M62.326,49.754c-3.008,2.239-6.223,4.058-6.852,8.181v2.66h-9.439v-3.146c0.418-6.086,3.285-8.811,6.082-10.979
	c2.727-2.166,5.104-3.773,5.104-7.551c0-4.266-2.236-6.293-5.941-6.293c-5.033,0-7.131,4.125-7.203,9.09H33.799
	c0.211-9.998,6.783-17.27,16.99-17.27c13.215,0,17.412,8.111,17.412,13.492C68.201,44.722,65.334,47.449,62.326,49.754z"/>
</svg>
