<?xml version="1.0" encoding="utf-8"?>
<!-- Generator: Adobe Illustrator 21.1.0, SVG Export Plug-In . SVG Version: 6.00 Build 0)  -->
<svg version="1.1" id="Layer_2" xmlns="http://www.w3.org/2000/svg" xmlns:xlink="http://www.w3.org/1999/xlink" x="0px" y="0px"
	 viewBox="0 0 100 100" enable-background="new 0 0 100 100" xml:space="preserve">
<path fill="#2B2B2B" d="M66.011,4.25H34.275c-4.185,0-7.608,3.424-7.608,7.608v76.283c0,4.185,3.424,7.608,7.608,7.608h31.736
	c4.185,0,7.608-3.424,7.608-7.608V11.858C73.62,7.674,70.196,4.25,66.011,4.25z M45.754,10.416h9.049
	c0.934,0,1.692,0.757,1.692,1.692c0,0.934-0.757,1.692-1.692,1.692h-9.049c-0.934,0-1.692-0.757-1.692-1.692
	C44.062,11.173,44.82,10.416,45.754,10.416z M50.229,92.667c-2.602,0-4.71-2.109-4.71-4.71c0-2.601,2.109-4.71,4.71-4.71
	c2.601,0,4.71,2.109,4.71,4.71C54.939,90.558,52.83,92.667,50.229,92.667z M70.164,79.156H30.047V19.14h40.117V79.156z"/>
</svg>
