<?xml version="1.0" encoding="utf-8"?>
<!-- Generator: Adobe Illustrator 21.1.0, SVG Export Plug-In . SVG Version: 6.00 Build 0)  -->
<svg version="1.1" id="Layer_2" xmlns="http://www.w3.org/2000/svg" xmlns:xlink="http://www.w3.org/1999/xlink" x="0px" y="0px"
	 viewBox="0 0 600 73" style="enable-background:new 0 0 600 73;" xml:space="preserve">
<style type="text/css">
	.st0{fill:#0000FF;}
	.st1{fill:#088AFF;}
	.st2{fill:#FFFFFF;}
</style>
<g>
	<g>
		
			<image style="overflow:visible;opacity:0.35;" width="401" height="60" xlink:href="CF3B3F6E.png"  transform="matrix(0.43 0 0 0.43 51.0088 0.4804)">
		</image>
		<g>
			<g>
				<path d="M218,11.3l-7,9.7c0,0-67.3-26.1-157.2-5.3C142.8-9.9,218,11.3,218,11.3z"/>
				<path d="M53.6,15.7c0.1,0,0.2,0,0.3-0.1c-0.1,0-0.1,0-0.2,0L53.6,15.7z"/>
			</g>
		</g>
	</g>
	<g>
		
			<image style="overflow:visible;opacity:0.35;" width="612" height="135" xlink:href="CF3B3F72.png"  transform="matrix(0.43 0 0 0.43 -0.6375 11.6202)">
		</image>
		<g>
			<g>
				<path class="st0" d="M1.9,14.2h9.7v21.7c2.1-2.7,5.3-4,8.5-4c8.1,0,13.7,7.4,13.7,16.1c0,8.8-5.6,16.2-13.8,16.2
					c-3.2,0-6.5-1.4-8.2-4.4h-0.1v3.4H1.9V14.2z M11.3,48.1c0,3.8,2.3,6.8,6.2,6.8s6.2-3,6.2-6.8c0-3.7-2.3-6.9-6.2-6.9
					S11.3,44.4,11.3,48.1z"/>
				<path class="st0" d="M47.2,63.3h-9.7V14.2h9.7V63.3z"/>
				<path class="st0" d="M62,32.9v16.2c0,3.8,0.9,6.6,4.8,6.6c4,0,4.8-2.7,4.8-6.6V32.9h9.7v18.3c0,10-6.3,13.1-14.5,13.1
					c-8.2,0-14.5-3.1-14.5-13.1V32.9H62z"/>
				<path class="st0" d="M114.5,49.9H94.1c0,4.4,2.1,6.7,6.1,6.7c2.1,0,3.6-0.8,4.6-2.8h9.3c-1.5,7.2-7.7,10.4-13.9,10.4
					c-9,0-15.8-5.7-15.8-16.1c0-10.1,6.2-16.2,15.1-16.2c9.5,0,14.9,6.5,14.9,16.9V49.9z M105.5,43.7c-0.5-2.9-2.9-4.8-5.5-4.8
					c-2.8,0-5.2,1.7-5.7,4.8H105.5z"/>
				<path d="M129.5,63.3h-9.7l3.1-21.5h-3.1l1.3-8.9h3.1l1.3-9.1h9.7l-1.3,9.1h5.5l-1.3,8.9h-5.5L129.5,63.3z"/>
				<path d="M151.4,37.9h0.1c2.4-3.7,5.8-5.4,9.6-5.4h1.9l-1.5,10.3c-1.2-0.8-2.5-1-4-1c-5.4,0-7.3,4-8,9.2l-1.7,12.2h-9.7l4.3-30.3
					h9.7L151.4,37.9z"/>
				<path d="M192,63.3h-9.7l0.5-3.4h-0.1c-2.1,3-5.7,4.4-8.9,4.4c-8.1,0-12.7-7.5-11.5-16.2c1.2-8.7,7.9-16.1,16-16.1
					c3.1,0,6.3,1.3,7.9,4l0.4-3h9.7L192,63.3z M172.4,48.1c-0.5,3.8,1.3,6.8,5.3,6.8c3.9,0,6.6-3,7.2-6.8c0.5-3.7-1.3-6.9-5.2-6.9
					C175.7,41.3,172.9,44.4,172.4,48.1z"/>
				<path d="M219,42.8c-1.3-1.2-2.8-2.1-4.7-2.1c-3.7,0-7.1,3.2-7.7,7.4c-0.6,4.4,1.8,7.5,5.7,7.5c1.7,0,3.7-0.8,5.1-2.1l-1.3,9.1
					c-2.3,1.2-4.7,1.7-7.1,1.7c-8.1,0-13.9-6.7-12.6-15.8c1.4-9.8,9.1-16.5,17.6-16.5c2.2,0,4.4,0.6,6.1,1.8L219,42.8z"/>
				<path d="M232.4,43.9L244,32.9h13.2l-15.7,14l12.2,16.3h-13.6l-8.8-12.4l-1.8,12.4h-9.7l7-49.1h9.7L232.4,43.9z"/>
			</g>
		</g>
	</g>
	<g>
		<path d="M248,50.8h-0.5l0.5-3.6h-0.9l0.1-0.5h2.2l-0.1,0.5h-0.9L248,50.8z"/>
		<path d="M250.2,48.1L250.2,48.1l-0.8,2.7h-0.5l1.3-4.2l0.8,3.2l1.7-3.2l0.1,4.2h-0.5l0-2.7h0l-1.5,2.8L250.2,48.1z"/>
	</g>
</g>
<g>
	<g>
		<path class="st1" d="M545.2,48.5c0,0-24.4,23.7-104.1,4.4c0,0,64,36.3,122.1,7.1C563.2,60,551.9,59.2,545.2,48.5z"/>
		<g>
			<path d="M305.6,42.9c3,0,4.5-0.8,4.5-2.7c0-1.4-2.4-2.6-7.3-3.5c-6.2-1.1-9.4-3.9-9.5-8.3c0-6.1,4.8-8.9,11.2-9
				c3.6,0,6.5,0.8,8.6,2.4c2.1,1.6,3.2,3.9,3.3,6.8H312c-1.6-0.1-2.7-0.6-3.1-1.8c-0.5-1.2-1.9-1.9-4.2-1.9c-2.8,0-4.1,0.7-4.1,2.2
				c0,1.4,1.8,2.5,5.5,3.2c4.8,1,7.9,2.2,9.5,3.6c1.3,1.4,2,3.1,2,5c0,6.9-5.4,9.5-12.8,9.5c-3.9,0-6.9-0.8-8.8-2.5
				c-2.1-1.6-3.2-4-3.2-7.3h7.2C299.9,41.8,302.1,42.9,305.6,42.9z"/>
			<path d="M328.2,24.9h-0.7v7.4v8.2c0,1.2,0.7,1.8,2.1,1.8h2.2v5.4c-2.3,0.2-4.8,0.2-7.4-0.1c-2.7-0.3-3.9-1.9-3.9-5V11.8h3.7
				c1.9,0,3.4,1.7,3.4,3.6v4.5h4.2v1.5C331.7,23.4,330.2,24.9,328.2,24.9z"/>
			<path d="M334.7,33.5c0.2-9.1,5-13.6,14.4-13.6h1v7.3h-2.4c-3.9,0-5.9,2.1-5.9,6.2v14.6h-7.2V33.5z"/>
			<path d="M366,48.6c-8.5-0.3-12.7-5.2-12.7-14.8c0-9.6,4.3-14.3,12.8-14.4c8.9,0,13.1,5.5,12.6,16.5h-18.2
				c0.3,4.3,2.1,6.5,5.6,6.5c1.6,0,3.2-0.7,4.6-2c0.6-0.7,1.4-1,2.4-1h5.2C376.7,45.3,372.9,48.6,366,48.6z M360.6,30.9h10.6
				c-0.4-3.7-2.2-5.6-5.2-5.6C363,25.2,361.1,27.1,360.6,30.9z"/>
			<path d="M394.2,42.9c3,0,4.5-0.8,4.5-2.7c0-1.4-2.4-2.6-7.3-3.5c-6.2-1.1-9.4-3.9-9.5-8.3c0-6.1,4.8-8.9,11.2-9
				c3.6,0,6.5,0.8,8.6,2.4c2.1,1.6,3.2,3.9,3.3,6.8h-4.5c-1.6-0.1-2.7-0.6-3.1-1.8c-0.5-1.2-1.9-1.9-4.2-1.9c-2.8,0-4.1,0.7-4.1,2.2
				c0,1.4,1.8,2.5,5.5,3.2c4.8,1,7.9,2.2,9.5,3.6c1.3,1.4,2,3.1,2,5c0,6.9-5.4,9.5-12.8,9.5c-3.9,0-6.9-0.8-8.8-2.5
				c-2.1-1.6-3.2-4-3.2-7.3h7.2C388.5,41.8,390.8,42.9,394.2,42.9z"/>
			<path d="M421.3,42.9c3,0,4.5-0.8,4.5-2.7c0-1.4-2.4-2.6-7.3-3.5c-6.2-1.1-9.4-3.9-9.5-8.3c0-6.1,4.8-8.9,11.2-9
				c3.6,0,6.5,0.8,8.6,2.4c2.1,1.6,3.2,3.9,3.3,6.8h-4.5c-1.6-0.1-2.7-0.6-3.1-1.8c-0.5-1.2-1.9-1.9-4.2-1.9c-2.8,0-4.1,0.7-4.1,2.2
				c0,1.4,1.8,2.5,5.5,3.2c4.8,1,7.9,2.2,9.5,3.6c1.3,1.4,2,3.1,2,5c0,6.9-5.4,9.5-12.8,9.5c-3.9,0-6.9-0.8-8.8-2.5
				c-2.1-1.6-3.2-4-3.2-7.3h7.2C415.7,41.8,417.9,42.9,421.3,42.9z"/>
			<path d="M443.3,23.8c1.8-2.9,4.5-4.4,8-4.4c7.5,0.3,11.2,5.1,11.2,14.7c0,9.3-4.4,14.1-13.1,14.2c-8.8,0.1-13.2-4.1-13.2-12.6
				V11.8h3.6c2.3,0,3.5,1.2,3.5,3.6V23.8z M443.3,33.8c-0.1,5.7,1.9,8.5,5.9,8.5s6.1-2.9,6.1-8.5c-0.2-5.4-2.1-8.1-5.9-8.1
				S443.5,28.4,443.3,33.8z"/>
			<path d="M472.9,27.2h-7.1c0.8-5.2,4.5-7.8,11-7.8c7.8,0,11.7,2.5,11.8,7.8v9.6c0,7.8-4.7,11.2-12.3,11.7
				c-6.7,0.5-11.4-2.6-11.4-8.8c0.2-6.7,5-8.5,12.2-9.2c3-0.4,4.6-1.3,4.6-2.8c-0.2-1.6-1.6-2.4-4.6-2.4
				C474.6,25.2,473.3,25.9,472.9,27.2z M481.8,36.4v-2.6c-1.6,0.7-3.6,1.3-5.6,1.7c-2.8,0.5-4.2,1.9-4.2,3.9
				c0.2,2.2,1.3,3.3,3.6,3.3C479.4,42.7,481.8,40.4,481.8,36.4z"/>
			<path d="M500.2,15.3v32.7h-7.1V11.8h3.7C498.6,11.8,500.2,13.4,500.2,15.3z"/>
			<path d="M512.3,15.3v32.7h-7.1V11.8h3.7C510.7,11.8,512.3,13.4,512.3,15.3z"/>
			<path d="M528.5,42.9c3,0,4.5-0.8,4.5-2.7c0-1.4-2.4-2.6-7.3-3.5c-6.2-1.1-9.4-3.9-9.5-8.3c0-6.1,4.8-8.9,11.2-9
				c3.6,0,6.5,0.8,8.6,2.4c2.1,1.6,3.2,3.9,3.3,6.8H535c-1.6-0.1-2.7-0.6-3.1-1.8c-0.5-1.2-1.9-1.9-4.2-1.9c-2.8,0-4.1,0.7-4.1,2.2
				c0,1.4,1.8,2.5,5.5,3.2c4.8,1,7.9,2.2,9.5,3.6c1.3,1.4,2,3.1,2,5c0,6.9-5.4,9.5-12.8,9.5c-3.9,0-6.9-0.8-8.8-2.5
				c-2.1-1.6-3.2-4-3.2-7.3h7.2C522.9,41.8,525.1,42.9,528.5,42.9z"/>
		</g>
		<circle class="st1" cx="569.3" cy="29" r="25.7"/>
		<g>
			<path class="st2" d="M545.9,32c-0.1-0.6,0.1-1,0.4-1.4c0.3-0.4,0.8-0.6,1.4-0.5c0.6,0,1.1,0.3,1.5,0.8c0.4,0.5,0.7,1.1,0.8,1.7
				c0.1,0.7-0.1,1.2-0.4,1.6c-0.3,0.4-0.8,0.5-1.3,0.4c-0.5-0.1-1-0.4-1.5-0.9C546.3,33.1,546,32.6,545.9,32z"/>
			<path class="st2" d="M559.5,36.2c-0.4,0.3-0.8,0.5-1.2,0.6c-0.4,0.1-0.9,0.1-1.4,0.1c-1.6-0.2-2.9-1.1-4-2.5
				c-1.1-1.4-1.7-3.1-1.9-5.1c-0.2-2,0.2-3.6,1.2-5c1-1.4,2.3-2.3,4-2.5c0.6-0.1,1.1-0.1,1.5,0.1c0.5,0.1,0.9,0.3,1.3,0.6
				c0,1.4,0.1,2.8,0.1,4.2c-0.3-0.4-0.7-0.8-1.1-1c-0.4-0.2-0.9-0.3-1.3-0.3c-0.9,0.1-1.5,0.5-2,1.2c-0.5,0.7-0.7,1.6-0.6,2.7
				c0.1,1.1,0.4,2,0.9,2.7c0.5,0.7,1.2,1.1,2.1,1.1c0.5,0,0.9-0.1,1.3-0.3c0.4-0.2,0.7-0.6,1-1.1C559.4,33.3,559.4,34.8,559.5,36.2z
				"/>
			<path class="st2" d="M572.1,29.3c0,2.6-0.6,4.8-1.7,6.6c-1.1,1.8-2.4,2.7-4,2.7c-1.6,0-3-1-4.1-2.8c-1.1-1.8-1.7-3.9-1.7-6.5
				c-0.1-2.6,0.4-4.7,1.5-6.5c1.1-1.8,2.5-2.8,4.2-2.8c1.7,0,3.1,0.9,4.2,2.6C571.6,24.4,572.1,26.6,572.1,29.3z M569.1,29.2
				c0-1.4-0.2-2.5-0.7-3.4c-0.5-0.8-1.2-1.3-2-1.3c-0.8,0-1.5,0.4-2,1.3c-0.5,0.8-0.7,2-0.7,3.4c0,1.4,0.3,2.5,0.8,3.4
				c0.5,0.8,1.1,1.3,2,1.3c0.8,0,1.5-0.4,1.9-1.3C568.8,31.8,569,30.6,569.1,29.2z"/>
			<path class="st2" d="M576.6,37.5c-1,0.1-1.9,0.2-2.9,0.2c0.1-5.6,0.2-11.2,0.4-16.8c1,0.1,2,0.2,3.1,0.3c0,0.9-0.1,1.7-0.1,2.6
				c0.5-1,1.1-1.8,1.7-2.2c0.6-0.4,1.2-0.6,2-0.5c0.9,0.1,1.6,0.5,2.1,1.1c0.5,0.6,0.9,1.4,1,2.4c0.5-0.9,1.1-1.6,1.8-1.9
				c0.7-0.4,1.3-0.4,2.1-0.3c0.7,0.2,1.4,0.5,1.8,0.9c0.5,0.4,0.8,1,1,1.7c0.1,0.4,0.2,0.8,0.2,1.2c0,0.4,0,1.1-0.1,1.9
				c0,0.1,0,0.2,0,0.4c-0.2,2.3-0.5,4.5-0.8,6.8c-0.9,0.2-1.9,0.5-2.9,0.7c0.2-2.1,0.4-4.3,0.6-6.4c0.1-1.6,0.1-2.6-0.1-3.2
				c-0.2-0.6-0.6-0.9-1.3-1c-0.8-0.1-1.4,0.2-1.8,1c-0.4,0.8-0.7,2.1-0.8,3.9c-0.1,2.1-0.3,4.2-0.4,6.4c-1,0.2-1.9,0.3-2.9,0.5
				c0.1-2.5,0.2-5.1,0.4-7.6c0.1-1.8,0-3-0.2-3.7c-0.2-0.7-0.6-1-1.2-1.1c-0.8-0.1-1.4,0.3-1.8,1.2c-0.4,0.9-0.6,2.4-0.7,4.4
				C576.7,32.7,576.6,35.1,576.6,37.5z"/>
		</g>
		<path class="st2" d="M563.7,7.7c0,0-0.6,0.1-1.4,0.3c-2.9,0.8-9.4,3.1-11.3,8.4h2.9l9.4-8.6"/>
	</g>
	<g>
		<path class="st1" d="M592.2,4.2h-1.3V3.9c0-0.1,0-0.2,0.1-0.3c0.1-0.1,0.2-0.1,0.3-0.1h3v0.8h-1.3v3.5h-0.9V4.2z"/>
		<path class="st1" d="M594.8,3.9c0-0.1,0-0.2,0.1-0.3c0.1-0.1,0.2-0.1,0.3-0.1h0.9l0.9,3.3l0.8-3.3h1.3v4.3h-0.8V4.2l-0.9,3.5h-0.9
			l-0.9-3.5v3.5h-0.8V3.9z"/>
	</g>
</g>
</svg>
